<svg xmlns="http://www.w3.org/2000/svg" width="279.953" height="478.939" viewBox="0 0 279.953 478.939">
  <g id="Grupo_25712" data-name="Grupo 25712" transform="translate(-748.227 -163.688)">
    <path id="Trazado_67611" data-name="Trazado 67611" d="M890.92,181.028c-20.186-23.149-103.929-22.2-123.811-2.634-20.148,19.824-27.058,69.8-6.3,92.545,11.6,12.709,44.246,18.354,73.7,17.24,7.268,14.005,15.67,33.914,15.67,33.914s-.486-19.772-1.354-35.041c17.462-2.119,33.005-6.925,41.7-14.488C910.426,255.264,914.761,208.366,890.92,181.028Z" transform="translate(0 0)" fill="#c3c1e8"/>
    <path id="Trazado_67612" data-name="Trazado 67612" d="M905.469,185.611c-19.7-22.736-100.431-20.339-119.834-1.126-19.663,19.471-25.861,66.817-5.6,89.153,11.324,12.483,41.64,18.31,70.389,17.215,7.093,13.756,16.162,32.075,16.162,32.075s-1.343-18.185-2.191-33.181c17.042-2.082,32.209-6.8,40.7-14.229C924.506,258.525,928.735,212.462,905.469,185.611Z" transform="translate(-16.751 -4.879)" fill="#deeaf9"/>
    <path id="Trazado_67613" data-name="Trazado 67613" d="M1035.452,390.727A49.075,49.075,0,0,0,986.378,439.8v6.312h98.15V439.8A49.076,49.076,0,0,0,1035.452,390.727Z" transform="translate(-206.549 -196.912)" fill="#fff"/>
    <path id="Trazado_67614" data-name="Trazado 67614" d="M1090.778,434.012l-3.122,7.539c.387.154.762.336,1.144.5l3.121-7.538C1091.54,434.351,1091.166,434.167,1090.778,434.012Zm-7.528,6.148c.4.1.811.2,1.209.311l2.111-7.879c-.4-.113-.8-.21-1.209-.311Zm12.62-3.717-4.079,7.066c.364.2.711.433,1.068.65l4.079-7.066C1096.58,436.877,1096.234,436.648,1095.87,436.443Zm-26.719-5.154c-.218.029-.423.085-.64.117l1.066,8.1c.216-.032.423-.088.64-.117.2-.027.4-.026.6-.049l-1.066-8.1C1069.549,431.264,1069.352,431.263,1069.151,431.289Zm4.983-.337v8.165c.219,0,.43-.033.65-.033.2,0,.4.027.6.03V430.95c-.2,0-.4-.03-.6-.03C1074.563,430.92,1074.352,430.95,1074.134,430.953Zm26.5,8.6-4.97,6.478c.334.249.658.509.983.769l4.971-6.478C1101.3,440.059,1100.971,439.8,1100.638,439.549Zm-21.886-.2c.414.047.829.088,1.239.15l1.065-8.088c-.411-.06-.825-.1-1.239-.15Zm37.56,23.129-7.879,2.112c.112.4.212.8.311,1.211l7.88-2.112C1116.523,463.28,1116.424,462.876,1116.312,462.475Zm1.253,5.963c-.021-.155-.061-.3-.083-.455l-8.1,1.066c.022.154.063.3.083.455.035.264.035.522.064.785l8.1-1.066C1117.6,468.961,1117.6,468.7,1117.565,468.438Zm.346,5.17h-8.166c0,.156.024.306.024.462,0,.266-.033.523-.04.787h8.165c0-.264.039-.521.039-.787C1117.934,473.915,1117.913,473.764,1117.911,473.609Zm-3.468-16.455-7.536,3.121c.164.382.316.771.466,1.16l7.537-3.122C1114.757,457.925,1114.606,457.536,1114.443,457.154Zm-5.75-9.7-6.473,4.967c.258.327.535.638.783.974l6.473-4.968C1109.227,448.089,1108.951,447.778,1108.693,447.451Zm-3.77-4.231-5.774,5.774c.3.291.587.59.875.892l5.774-5.774C1105.508,443.811,1105.222,443.511,1104.923,443.22Zm6.954,8.885-7.067,4.079c.214.358.448.7.649,1.067l7.066-4.08C1112.324,452.807,1112.09,452.463,1111.877,452.105Zm-54.237-17.6,3.122,7.536c.381-.166.771-.313,1.159-.466l-3.123-7.537C1058.412,434.19,1058.021,434.337,1057.64,434.5Zm-24.685,29.139,7.879,2.111c.1-.405.2-.811.312-1.21l-7.88-2.112C1033.154,462.831,1033.056,463.236,1032.955,463.641Zm-1,5.548,8.087,1.065c.045-.415.091-.83.151-1.241l-8.088-1.065C1032.043,468.361,1032,468.776,1031.952,469.19Zm7.869,4.419h-8.165c0,.156-.024.306-.024.462,0,.266.036.523.04.787h8.166c-.006-.264-.04-.521-.04-.787C1039.8,473.915,1039.819,473.764,1039.821,473.609Zm12.772-36.5,4.079,7.066c.357-.217.7-.446,1.069-.649l-4.079-7.066C1053.3,436.669,1052.951,436.9,1052.593,437.113Zm-8.842,7.018,5.773,5.774c.289-.3.575-.6.874-.894l-5.773-5.773C1044.326,443.529,1044.04,443.831,1043.751,444.131Zm-9.124,14.168,7.538,3.123c.151-.389.339-.76.5-1.143l-7.539-3.123C1034.967,457.539,1034.78,457.911,1034.627,458.3Zm28.326-25.7,2.111,7.879c.4-.115.8-.21,1.21-.311l-2.113-7.879C1063.757,432.395,1063.35,432.489,1062.952,432.6Zm-14.994,7.723,4.967,6.473c.325-.261.64-.533.975-.783l-4.967-6.474C1048.6,439.794,1048.286,440.066,1047.959,440.326Zm-10.93,12.866,7.066,4.08c.2-.366.435-.709.648-1.067l-7.066-4.08C1037.466,452.484,1037.232,452.827,1037.029,453.192Zm3.08-4.755,6.478,4.971c.247-.337.491-.672.75-1l-6.478-4.971C1040.6,447.766,1040.356,448.1,1040.109,448.438Z" transform="translate(-245.798 -231.772)" fill="#c9c9c9"/>
    <path id="Trazado_67615" data-name="Trazado 67615" d="M1104.049,615.354a1.118,1.118,0,0,1-1.245.087l-37.027-21.485a1.117,1.117,0,0,1,1.121-1.932l37.026,21.485a1.12,1.12,0,0,1,.125,1.844Z" transform="translate(-274.934 -371.368)" fill="#f95a5a"/>
    <circle id="Elipse_1785" data-name="Elipse 1785" cx="4.053" cy="4.053" r="4.053" transform="translate(824.797 238.837)" fill="#a3a3a3"/>
    <g id="Grupo_25703" data-name="Grupo 25703" transform="translate(871.426 599.71)">
      <path id="Trazado_67616" data-name="Trazado 67616" d="M1828.71,3642.737H1681.359a4.694,4.694,0,0,1-4.695-4.695v-15.237h156.741v15.237A4.7,4.7,0,0,1,1828.71,3642.737Z" transform="translate(-1676.664 -3599.82)" fill="#2099ce"/>
      <path id="Trazado_67617" data-name="Trazado 67617" d="M1676.664,3626.855v-4.05h156.741a2.931,2.931,0,0,1-1.545,2.889C1829.407,3626.946,1676.664,3626.855,1676.664,3626.855Z" transform="translate(-1676.664 -3599.82)" opacity="0.22"/>
      <path id="Trazado_67618" data-name="Trazado 67618" d="M1812.382,3449.584h-114.7a2.461,2.461,0,0,0-1.832.818l-18.558,20.727a2.459,2.459,0,0,0,1.832,4.1H1830.94a2.459,2.459,0,0,0,1.832-4.1l-18.559-20.727A2.459,2.459,0,0,0,1812.382,3449.584Z" transform="translate(-1676.663 -3449.584)" fill="#63cdf7"/>
      <path id="Trazado_67619" data-name="Trazado 67619" d="M2172.675,3572.1h-23.346l-4.585,5.122h32.518Z" transform="translate(-2082.631 -3555.844)" fill="#eae4df"/>
      <path id="Trazado_67620" data-name="Trazado 67620" d="M2174.412,3572.1l-6.977,5.122h5.5l6.976-5.122Zm9.852,0h-2.476l-6.975,5.122h2.748l6.811-5Zm-19.182,0-6.977,5.122h2.749l6.975-5.122Z" transform="translate(-2094.219 -3555.844)" fill="#fff"/>
    </g>
    <g id="Grupo_25711" data-name="Grupo 25711" transform="translate(881.06 266.506)">
      <path id="Trazado_67621" data-name="Trazado 67621" d="M1891.51,1060.508s.94,1.154,1.339,7.572c11.836-12.009,14.8-36.9,12.026-91.21,0,0-9.4-38.268-62.114-38.332-56.722-.069-63.479,38.515-63.479,38.515-3.085,63.391-10.012,86.781,14.683,97.976.329-1.348.3-8.738,1.193-10.173a44.925,44.925,0,0,0,3.2,11.129c16.584,2.838,64.189,5.055,78.124,1.054a40.662,40.662,0,0,0,12.548-5.718C1889.855,1064.019,1891.51,1060.508,1891.51,1060.508Z" transform="translate(-1772.444 -938.538)" fill="#9b3821"/>
      <ellipse id="Elipse_1786" data-name="Elipse 1786" cx="53.085" cy="5.673" rx="53.085" ry="5.673" transform="translate(15.725 340.353)" opacity="0.11"/>
      <g id="Grupo_25704" data-name="Grupo 25704" transform="translate(73.717 259.09)">
        <path id="Trazado_67622" data-name="Trazado 67622" d="M2309.68,2965.83c.053.6,14.914.5,14.94-.231.222-6.331,1.425-70.872,1.489-74.542l-21.3.759C2305.526,2898.081,2309.293,2961.508,2309.68,2965.83Z" transform="translate(-2304.804 -2891.057)" fill="#ffc19f"/>
        <ellipse id="Elipse_1787" data-name="Elipse 1787" cx="7.845" cy="11.086" rx="7.845" ry="11.086" transform="translate(7.772 7.314)" fill="#ffc19f"/>
        <path id="Trazado_67623" data-name="Trazado 67623" d="M2385.543,3089.22c.313.466-1.284,2.933-5.21,3.106-2.784.123-6.815-1.687-6.542-2.377.213-.537,2.527.627,6.685.226C2383.964,3089.838,2385.275,3088.822,2385.543,3089.22Z" transform="translate(-2364.625 -3062.846)" fill="#961d05" opacity="0.19"/>
      </g>
      <g id="Grupo_25705" data-name="Grupo 25705" transform="translate(39.971 251.067)">
        <path id="Trazado_67624" data-name="Trazado 67624" d="M2077.915,2913.391c-.053.6-14.914.5-14.94-.23-.222-6.331-2.168-78.9-2.231-82.565l22.227,4.553C2082.247,2841.413,2078.3,2909.068,2077.915,2913.391Z" transform="translate(-2059.383 -2830.595)" fill="#ffc19f"/>
        <ellipse id="Elipse_1788" data-name="Elipse 1788" cx="7.845" cy="11.086" rx="7.845" ry="11.086" transform="translate(0 15.337)" fill="#ffc19f"/>
        <path id="Trazado_67625" data-name="Trazado 67625" d="M2069.413,3089.22c-.314.466,1.283,2.933,5.21,3.106,2.783.123,6.815-1.687,6.542-2.377-.213-.537-2.526.627-6.685.226C2070.992,3089.838,2069.681,3088.822,2069.413,3089.22Z" transform="translate(-2066.868 -3054.823)" fill="#961d05" opacity="0.19"/>
      </g>
      <g id="Grupo_25706" data-name="Grupo 25706" transform="translate(115.294 210.79)">
        <path id="Trazado_67626" data-name="Trazado 67626" d="M2648.783,2646.053c1.408-5.041,5.694-14.4,2.7-23.552-.457-1.392-6.443-1.007-5.719.292C2651.3,2632.728,2642.638,2644.687,2648.783,2646.053Z" transform="translate(-2642.044 -2609.075)" fill="#e0956c"/>
        <path id="Trazado_67627" data-name="Trazado 67627" d="M2677.076,2641.979c4.254-6.529,5.937-13.939,2.491-25.8-.424-1.462-6.384-2.587-5.873-1.19C2680.387,2633.277,2672.8,2638.717,2677.076,2641.979Z" transform="translate(-2666.293 -2602.773)" fill="#e0956c"/>
        <path id="Trazado_67628" data-name="Trazado 67628" d="M2635.887,2566.468a31.782,31.782,0,0,0,3.3-14.272c-.019-7.026-2.633-17.193-5.473-24.37-.561-1.416-10.239-.8-11.281,1.4-4.736,3.261-2.811,14.354-4.275,23.954-.31,2.031,1.827,3.624,2.426,2.88.724-.9,1.844-2.26,4.152-7.209,2.1-4.51,4.92-2.794,6.248-.711C2636.43,2556.684,2631.606,2565.865,2635.887,2566.468Z" transform="translate(-2618.131 -2527.067)" fill="#ffc19f"/>
      </g>
      <path id="Trazado_67629" data-name="Trazado 67629" d="M2489.992,2085.752c.593,1.974-10.773,4.354-11.472,2.405-10.452-29.125-24.3-61.142-27.791-68.344l16.659-7.671C2473.147,2029.027,2482.14,2059.675,2489.992,2085.752Z" transform="translate(-2357.648 -1869.68)" fill="#ffc19f"/>
      <path id="Trazado_67630" data-name="Trazado 67630" d="M2464.4,1991.254c-6.045,3.613-22.221,11.623-29,12.9-9.072-11.614-14.54-57.526-14.531-58.652,9.01,1.986,19.016,5.487,21.576,6.875C2446.412,1956.447,2458.622,1978.461,2464.4,1991.254Z" transform="translate(-2331.756 -1811.885)" fill="#8a5fc4"/>
      <g id="Grupo_25707" data-name="Grupo 25707" transform="translate(2.872 210.79)">
        <path id="Trazado_67631" data-name="Trazado 67631" d="M1854.4,2646.053c-1.409-5.041-5.694-14.4-2.7-23.552.456-1.392,6.442-1.007,5.717.292C1851.885,2632.728,1860.549,2644.687,1854.4,2646.053Z" transform="translate(-1840.083 -2609.075)" fill="#e0956c"/>
        <path id="Trazado_67632" data-name="Trazado 67632" d="M1820.007,2641.979c-4.254-6.529-5.937-13.939-2.491-25.8.425-1.462,6.384-2.587,5.873-1.19C1816.7,2633.277,1824.283,2638.717,1820.007,2641.979Z" transform="translate(-1809.729 -2602.773)" fill="#e0956c"/>
        <path id="Trazado_67633" data-name="Trazado 67633" d="M1774.215,2566.468a31.8,31.8,0,0,1-3.3-14.272c.019-7.026,2.634-17.193,5.474-24.37.561-1.416,10.239-.8,11.282,1.4,4.736,3.261,2.81,14.354,4.275,23.954.31,2.031-1.826,3.624-2.426,2.88-.724-.9-1.844-2.26-4.152-7.209-2.1-4.51-4.92-2.794-6.247-.711C1773.672,2556.684,1778.495,2565.865,1774.215,2566.468Z" transform="translate(-1770.911 -2527.067)" fill="#ffc19f"/>
      </g>
      <path id="Trazado_67634" data-name="Trazado 67634" d="M1886.544,2611.1c21.906,15.872,82.293,16.848,106.568,0,0,0-10.32-25.356-15.716-39.727-13.907-1.391-62.667-1.468-77.625.116C1895.369,2585.214,1891.938,2595.718,1886.544,2611.1Z" transform="translate(-1868.328 -2353.784)" fill="#6b4747"/>
      <path id="Trazado_67635" data-name="Trazado 67635" d="M1800.986,2085.752c-.594,1.974,10.772,4.354,11.471,2.405,10.453-29.125,24.3-61.142,27.792-68.344l-16.659-7.671C1817.83,2029.027,1808.837,2059.675,1800.986,2085.752Z" transform="translate(-1794.103 -1869.68)" fill="#ffc19f"/>
      <path id="Trazado_67636" data-name="Trazado 67636" d="M1799.935,1991.254c6.045,3.613,22.222,11.623,29,12.9,9.072-11.614,14.54-57.526,14.531-58.652-9.009,1.986-19.016,5.487-21.576,6.875C1817.927,1956.447,1805.717,1978.461,1799.935,1991.254Z" transform="translate(-1793.211 -1811.885)" fill="#8a5fc4"/>
      <path id="Trazado_67637" data-name="Trazado 67637" d="M1967.3,2571.486c-1,3.133-1.956,6.087-2.894,8.979,21.647,4.472,56.5,6.2,81.893-5.477-.481-1.257-.947-2.481-1.374-3.618C2031.021,2569.979,1982.262,2569.9,1967.3,2571.486Z" transform="translate(-1935.86 -2353.784)" opacity="0.22"/>
      <path id="Trazado_67638" data-name="Trazado 67638" d="M1957.981,2017.043c21.549,7.805,66,8.733,84.125-3.55-.937-6.573-8.115-43.361-9.9-81.519-7.8-2.236-20.32-6.155-32.514-6.138-12.412.017-21.777,3.758-34.282,6.92C1964.975,1957.779,1961.3,1984.692,1957.981,2017.043Z" transform="translate(-1930.286 -1794.827)" fill="#8a5fc4"/>
      <path id="Trazado_67639" data-name="Trazado 67639" d="M2166.728,1933.842a3.935,3.935,0,0,0-.1-1.863c-11.612-3.385-28.4-2.055-38.731,0-.359,8.04,8.05,15.074,18.768,15.553S2166.368,1941.882,2166.728,1933.842Z" transform="translate(-2077.648 -1798.359)" fill="#ffc19f"/>
      <path id="Trazado_67640" data-name="Trazado 67640" d="M2197.384,1796.261l-.246,22.709c-.053,4.883-6.1,8.777-13.5,8.7s-13.364-4.105-13.311-8.988l.246-22.709Z" transform="translate(-2114.451 -1682.193)" fill="#ffc19f"/>
      <path id="Trazado_67641" data-name="Trazado 67641" d="M2180.008,1838.538a9.959,9.959,0,0,0-.364-2.909,285.709,285.709,0,0,0-36.65-.039,8.685,8.685,0,0,0-.287,1.281c-.345,7.726,7.724,14.363,18.024,14.823S2179.662,1846.264,2180.008,1838.538Z" transform="translate(-2090.491 -1716.059)" fill="#601805" opacity="0.19"/>
      <g id="Grupo_25710" data-name="Grupo 25710">
        <path id="Trazado_67642" data-name="Trazado 67642" d="M1750.167,1479.125c3.307,11.961,15.565,19.451,24.767,18.266s10.94-11.01,9.288-22.537-10.456-19.937-19.652-18.72C1752,1457.8,1747.06,1467.883,1750.167,1479.125Z" transform="translate(-1749.264 -1387.35)" fill="#ffc19f"/>
        <path id="Trazado_67643" data-name="Trazado 67643" d="M1838.912,1572.429c.725,5.316,5.112,9.11,9.8,8.473s7.9-5.466,7.182-10.784-5.111-9.108-9.8-8.471S1838.191,1567.112,1838.912,1572.429Z" transform="translate(-1826.928 -1478.903)" fill="#e0956c"/>
        <path id="Trazado_67644" data-name="Trazado 67644" d="M2551.836,1480.479c-3.381,11.938-15.688,19.343-24.881,18.094s-10.871-11.086-9.144-22.6,10.583-19.864,19.77-18.583C2550.138,1459.14,2555.016,1469.259,2551.836,1480.479Z" transform="translate(-2415.307 -1388.428)" fill="#ffc19f"/>
        <path id="Trazado_67645" data-name="Trazado 67645" d="M2577.9,1573.371c-.76,5.312-5.171,9.076-9.855,8.408s-7.867-5.519-7.109-10.832,5.171-9.073,9.855-8.4S2578.663,1568.059,2577.9,1573.371Z" transform="translate(-2453.138 -1479.673)" fill="#e0956c"/>
        <path id="Trazado_67646" data-name="Trazado 67646" d="M1921.5,992.445c-2.852,39.03-21.369,56.882-58.479,56.08-38.3-.828-60-16.792-63.054-55.377-2.689-33.924,26.322-54.736,63.441-54.613S1923.97,958.632,1921.5,992.445Z" transform="translate(-1793.088 -938.535)" fill="#9b3821"/>
        <path id="Trazado_67647" data-name="Trazado 67647" d="M1981.236,1201.455c-5.609,5.706-16.943,15.26-30.246,18.532-2.874.707-16.3.7-19.125.027-13.8-3.3-26.128-13.137-31.607-18.706-9.421-9.574-10.6-57.43-7.1-68.428,6.034-19,25.284-19.023,48.525-18.946,23.354.078,39.438,2.017,47.125,20.573C1991.384,1140.731,1990.645,1191.881,1981.236,1201.455Z" transform="translate(-1872.497 -1090.651)" fill="#ffc19f"/>
        <path id="Trazado_67648" data-name="Trazado 67648" d="M1839.987,1006.593c10.263-27.631,29.426-42.033,60.4-40.9,25.422.93,44.036,16.9,52.533,46.963-12.267-24.41-29.673-36.97-55.514-37.328C1873.732,975,1854.649,984.572,1839.987,1006.593Z" transform="translate(-1827.948 -962.035)" fill="#f9951e"/>
        <path id="Trazado_67649" data-name="Trazado 67649" d="M1986.957,1099.87c-2.679-5.164-3.169-10.1-.191-12.47.25,5.526,6.2,13.05,19.359,17.2a19.058,19.058,0,0,1,6.208-11.316,24.6,24.6,0,0,0,2.881,8.466c4.753-13.543,25.613-20.711,40.336-14.088-6.575-17.331-55.642-19.066-74.032-9.832C1970.8,1083.21,1974.134,1094.344,1986.957,1099.87Z" transform="translate(-1945.138 -1054.553)" fill="#9b3821"/>
        <g id="Grupo_25708" data-name="Grupo 25708" transform="translate(79.44 64.529)">
          <path id="Trazado_67650" data-name="Trazado 67650" d="M2350.661,1438.49c-3.9,5.723-3.387,12.016.059,14.4,5.192,3.59,17.442,4.589,21.986-.63,4.4-5.056,2.221-14.247-5.009-18.186C2361.366,1430.625,2354.438,1432.952,2350.661,1438.49Z" transform="translate(-2347.93 -1431.442)" fill="#f9feff"/>
          <path id="Trazado_67651" data-name="Trazado 67651" d="M2390.454,1430.23c-5.655-8.843-19.153-5.809-22.929,1.846a12.944,12.944,0,0,1,16.992-4.293,13.62,13.62,0,0,1,6.9,9.408c.562,3.125-.144,6.635-1.972,8.734C2391.556,1444.552,2394.613,1436.732,2390.454,1430.23Z" transform="translate(-2364.925 -1424.833)" fill="#723c27"/>
          <path id="Trazado_67652" data-name="Trazado 67652" d="M2375.85,1474.928a7.731,7.731,0,1,0,10.056-4.29A7.731,7.731,0,0,0,2375.85,1474.928Z" transform="translate(-2371.66 -1464.074)" fill="#752912"/>
          <path id="Trazado_67653" data-name="Trazado 67653" d="M2383.224,1492.689a2.145,2.145,0,1,0,2.79-1.191A2.145,2.145,0,0,0,2383.224,1492.689Z" transform="translate(-2378.406 -1482.518)" fill="#fefffe"/>
        </g>
        <g id="Grupo_25709" data-name="Grupo 25709" transform="translate(29.527 64.353)">
          <path id="Trazado_67654" data-name="Trazado 67654" d="M2000.225,1437.323c3.865,5.749,3.308,12.039-.153,14.4-5.216,3.556-17.472,4.474-21.981-.776-4.368-5.085-2.127-14.261,5.13-18.152C1989.573,1429.388,1996.485,1431.76,2000.225,1437.323Z" transform="translate(-1975.323 -1430.191)" fill="#f9feff"/>
          <path id="Trazado_67655" data-name="Trazado 67655" d="M1973.9,1428.834c5.715-8.8,19.192-5.681,22.917,2a12.946,12.946,0,0,0-16.964-4.4,13.617,13.617,0,0,0-6.964,9.361c-.583,3.122.1,6.635,1.913,8.747C1972.7,1443.15,1969.7,1435.309,1973.9,1428.834Z" transform="translate(-1971.785 -1423.506)" fill="#723c27"/>
          <path id="Trazado_67656" data-name="Trazado 67656" d="M2036.348,1473.8a7.731,7.731,0,1,0,10.056-4.29A7.732,7.732,0,0,0,2036.348,1473.8Z" transform="translate(-2027.295 -1462.919)" fill="#752912"/>
          <path id="Trazado_67657" data-name="Trazado 67657" d="M2043.721,1491.559a2.145,2.145,0,1,0,2.79-1.191A2.144,2.144,0,0,0,2043.721,1491.559Z" transform="translate(-2034.041 -1481.361)" fill="#fefffe"/>
        </g>
        <path id="Trazado_67658" data-name="Trazado 67658" d="M2235.84,1590.245a.547.547,0,0,1-.537-.458,3.9,3.9,0,0,0-7.633-.038.545.545,0,1,1-1.079-.158,4.985,4.985,0,0,1,9.789.02.546.546,0,0,1-.451.626Z" transform="translate(-2163.248 -1499.706)" fill="#c4735b"/>
        <path id="Trazado_67659" data-name="Trazado 67659" d="M2423.219,1716.141a11.783,11.783,0,0,0-9.558,2.524c-3.028,2.5-4.368,7.357-3.428,7.821.729.36.886-1.958,5.616-5.468C2419.818,1718.073,2423.73,1716.584,2423.219,1716.141Z" transform="translate(-2322.269 -1612.783)" fill="#961d05" opacity="0.19"/>
        <path id="Trazado_67660" data-name="Trazado 67660" d="M2014.825,1713.238a11.778,11.778,0,0,1,9.525,2.641c3,2.54,4.278,7.41,3.332,7.863-.734.351-.863-1.969-5.55-5.537C2018.2,1715.211,2014.309,1713.674,2014.825,1713.238Z" transform="translate(-1979.547 -1610.284)" fill="#961d05" opacity="0.19"/>
        <path id="Trazado_67661" data-name="Trazado 67661" d="M1954.075,1623.969c-.158,2.036,2.993,3.881,7.038,4.121s7.45-1.215,7.608-3.251-2.993-3.881-7.036-4.121S1954.233,1621.934,1954.075,1623.969Z" transform="translate(-1926.893 -1530.173)" fill="#ff9f9f"/>
        <path id="Trazado_67662" data-name="Trazado 67662" d="M2462.168,1626.589c.174,2.036,3.59,3.483,7.634,3.234s7.179-2.1,7.007-4.137-3.591-3.483-7.632-3.234S2462,1624.553,2462.168,1626.589Z" transform="translate(-2367.563 -1531.675)" fill="#ff9f9f"/>
        <path id="Trazado_67663" data-name="Trazado 67663" d="M2379.985,1329.561a1.808,1.808,0,0,0-1.714,2.911c4.531,5.671,13.894,8.621,22.258,7.024a1.809,1.809,0,1,0-.681-3.553c-7.011,1.348-15.074-1.113-18.751-5.726A1.8,1.8,0,0,0,2379.985,1329.561Z" transform="translate(-2294.462 -1277.651)" fill="#752912"/>
        <path id="Trazado_67664" data-name="Trazado 67664" d="M1978.427,1330.2a1.809,1.809,0,0,1,1.586,2.982c-4.773,5.47-14.255,8.01-22.542,6.05a1.809,1.809,0,1,1,.835-3.52c6.946,1.651,15.108-.457,18.982-4.905A1.8,1.8,0,0,1,1978.427,1330.2Z" transform="translate(-1928.636 -1278.212)" fill="#752912"/>
        <path id="Trazado_67665" data-name="Trazado 67665" d="M2223.785,1741.986a.71.71,0,0,0,.572-.337.91.91,0,0,0-.164-1.177c-3.673-3.054-12.39-3.339-15.928.579a.913.913,0,0,0,0,1.187.7.7,0,0,0,1.056.013c2.949-3.26,10.863-3.036,14-.429A.686.686,0,0,0,2223.785,1741.986Z" transform="translate(-2147.166 -1632.042)" fill="#934341"/>
      </g>
      <path id="Trazado_67666" data-name="Trazado 67666" d="M1925,3350.069l-15.75-.477a38.776,38.776,0,0,1-.16,6.122c-7.635,7.222-29.18,12.755-24.687,18.7,3.985,5.273,10.371,3.948,29.787.5,4.132-.733,7.82-1.15,8.745-2.068C1926.809,3369,1923.976,3364.168,1925,3350.069Z" transform="translate(-1865.94 -3029.658)" fill="#ffc19f"/>
      <path id="Trazado_67667" data-name="Trazado 67667" d="M2337,3350.069l15.75-.477a38.776,38.776,0,0,0,.16,6.122c7.634,7.222,29.18,12.755,24.686,18.7-3.985,5.273-10.233,3.7-29.649.259-4.131-.733-7.958-.9-8.882-1.823C2335.19,3369,2338.021,3364.168,2337,3350.069Z" transform="translate(-2258.964 -3029.658)" fill="#ffc19f"/>
    </g>
  </g>
</svg>
