<svg xmlns="http://www.w3.org/2000/svg" width="194.915" height="194.912" viewBox="0 0 194.915 194.912">
  <g id="Grupo_25625" data-name="Grupo 25625" transform="translate(-60.594 -75.249)">
    <g id="Grupo_25618" data-name="Grupo 25618">
      <path id="Trazado_67093" data-name="Trazado 67093" d="M255.263,172.706A97.212,97.212,0,1,1,158.051,75.5,97.214,97.214,0,0,1,255.263,172.706Z" fill="#f16a37"/>
      <path id="Trazado_67094" data-name="Trazado 67094" d="M158.051,75.5a97.212,97.212,0,1,1,0,194.424Z" fill="#e96635"/>
      <path id="Trazado_67095" data-name="Trazado 67095" d="M158.051,270.161a97.456,97.456,0,1,1,97.458-97.455A97.566,97.566,0,0,1,158.051,270.161Zm0-189.619a92.163,92.163,0,1,0,92.163,92.164A92.268,92.268,0,0,0,158.051,80.542Z" fill="#ffcb6e"/>
    </g>
    <path id="Trazado_67096" data-name="Trazado 67096" d="M157.723,199.944c-32.107,0-59.2-24.561-67.859-33.338l.155.583,63.848,68.619,1.581,6.457,19.766,20.975a92.367,92.367,0,0,0,74-77.017l-19.074-21.088-1.784-1.464C226.2,166.091,195.408,199.944,157.723,199.944Z" fill="#d3a189" style="mix-blend-mode: multiply;isolation: isolate"/>
    <g id="Grupo_25619" data-name="Grupo 25619">
      <path id="Trazado_67097" data-name="Trazado 67097" d="M158.073,130.909h0a33.051,33.051,0,1,0,0,66.1h0Z" fill="#9ac6ca"/>
      <path id="Trazado_67098" data-name="Trazado 67098" d="M228.486,163.523s-31.681,36.421-70.763,36.421-70.768-36.421-70.768-36.421S118.637,127.1,157.723,127.1,228.486,163.523,228.486,163.523Z" fill="#fffce8"/>
      <path id="Trazado_67099" data-name="Trazado 67099" d="M157.942,127.1c-39.026.07-70.987,36.421-70.987,36.421s31.961,36.346,70.987,36.421Z" fill="#fffdf2"/>
      <path id="Trazado_67100" data-name="Trazado 67100" d="M191.124,163.958a33.051,33.051,0,1,1-33.051-33.049A33.052,33.052,0,0,1,191.124,163.958Z" fill="#7cb8bc"/>
      <path id="Trazado_67101" data-name="Trazado 67101" d="M176.5,163.958a18.431,18.431,0,1,1-18.43-18.427A18.429,18.429,0,0,1,176.5,163.958Z" fill="#58a5aa" style="mix-blend-mode: multiply;isolation: isolate"/>
      <path id="Trazado_67102" data-name="Trazado 67102" d="M153.018,156.295a10.764,10.764,0,1,1-10.764-10.764A10.761,10.761,0,0,1,153.018,156.295Z" fill="#fffdf2"/>
    </g>
    <g id="Grupo_25624" data-name="Grupo 25624">
      <g id="Grupo_25623" data-name="Grupo 25623">
        <g id="Grupo_25621" data-name="Grupo 25621">
          <path id="Trazado_67103" data-name="Trazado 67103" d="M226.318,187.7a21.834,21.834,0,0,0-1.211-7.195c-.021-.06-.05-.136-.078-.22-.069-.183-.153-.411-.247-.634-.069-.17-.126-.32-.195-.474l-.057-.129c-.057-.141-.119-.28-.183-.416-.1-.212-.191-.406-.288-.6-.083-.167-.157-.311-.225-.449-.167-.318-.351-.641-.538-.96l-.027-.047c-.237-.4-.463-.742-.692-1.088-.032-.038-.059-.075-.085-.112-.211-.3-.449-.626-.691-.951l-.053-.058a21.209,21.209,0,0,0-1.756-1.992A21.762,21.762,0,0,0,186.6,199.988l.252.336A21.635,21.635,0,0,0,200.132,209a15.29,15.29,0,0,1-.562-4.113,15.456,15.456,0,0,1,25.947-11.372A21.709,21.709,0,0,0,226.318,187.7Z" fill="#588282" style="mix-blend-mode: multiply;isolation: isolate"/>
          <g id="Grupo_25620" data-name="Grupo 25620">
            <path id="Trazado_67104" data-name="Trazado 67104" d="M234.109,177.242c-.041-.111,2.636,7.454,0,0Z" fill="#f0eddb"/>
            <path id="Trazado_67105" data-name="Trazado 67105" d="M234.109,177.242c-.041-.111-.082-.222-.126-.328-.114-.319-.235-.634-.363-.948l-.16-.4a29.464,29.464,0,0,0-1.466-3l-.3-.541c-.117-.2-.241-.407-.362-.612l-.046-.073a30.524,30.524,0,0,0-2.157-3.062A31.329,31.329,0,0,0,209.753,156.8l-.439-.019a31.858,31.858,0,0,0-9.412,0h-.345l-.2.019a31.165,31.165,0,0,0-15.3,7.213l-2.416,2.094h.32A31.585,31.585,0,0,0,174.9,197.75h-.111l.72,1.663.052.118c.094.225.188.446.284.665l.128.294a31.451,31.451,0,0,0,2.537,4.612l-27.558,27.555a3.52,3.52,0,0,0-.007,4.948l3.817,3.819a3.528,3.528,0,0,0,4.943,0l27.561-27.563a31.228,31.228,0,0,0,15.086,5.146l3.134.206-.187-.195c.453-.011.879-.028,1.289-.057l1.77-.138A15.609,15.609,0,0,1,200.132,209a21.635,21.635,0,0,1-13.277-8.674l-.252-.336a21.759,21.759,0,0,1,35.145-25.623l.053.058c.261.35.5.72.776,1.063.229.346.455.692.692,1.088l.027.047a20.138,20.138,0,0,1,1.234,2.423l.057.129a21.908,21.908,0,0,1,.939,14.35c.336.307.657.626.964.963v.006a15.514,15.514,0,0,1,4.014,10.863l.938-1.564q.258-.425.5-.862l.1.368,1.378-3.25A31.39,31.39,0,0,0,234.109,177.242Z" fill="#f0eddb"/>
          </g>
        </g>
        <g id="Grupo_25622" data-name="Grupo 25622">
          <path id="Trazado_67106" data-name="Trazado 67106" d="M230.421,203.178a15.394,15.394,0,0,0-3.931-8.686v-.006a15.463,15.463,0,0,0-26.92,10.4,15.219,15.219,0,0,0,.988,5.416,15.468,15.468,0,0,0,29.957-5.416A14.554,14.554,0,0,0,230.421,203.178Z" fill="#ed5725"/>
          <path id="Trazado_67107" data-name="Trazado 67107" d="M225.191,199.1a3.13,3.13,0,0,0-.5-.352,2.832,2.832,0,0,0-3.5.6l-8.123,9.188-4.428-3.93a2.823,2.823,0,1,0-3.743,4.228l1.929,1.711,4.649,4.131.013-.021a2.823,2.823,0,0,0,3.946-.266l9.994-11.292A2.828,2.828,0,0,0,225.191,199.1Z" fill="#fffdf2"/>
        </g>
      </g>
      <path id="Trazado_67108" data-name="Trazado 67108" d="M158.051,225.463l-7.194,7.194a3.486,3.486,0,0,0-.008,4.942l3.811,3.809a3.478,3.478,0,0,0,2.469,1.026,3.415,3.415,0,0,0,.922-.128Z" fill="#fffce8"/>
    </g>
  </g>
</svg>
