<svg xmlns="http://www.w3.org/2000/svg" xmlns:xlink="http://www.w3.org/1999/xlink" width="275.885" height="389.428" viewBox="0 0 275.885 389.428">
  <defs>
    <linearGradient id="linear-gradient" x1="0.5" y1="1.181" x2="0.5" y2="0.484" gradientUnits="objectBoundingBox">
      <stop offset="0" stop-color="#7db1de"/>
      <stop offset="1" stop-color="#fff"/>
    </linearGradient>
  </defs>
  <g id="Grupo_25755" data-name="Grupo 25755" transform="translate(-1034.906 -354.711)">
    <g id="Grupo_25713" data-name="Grupo 25713" transform="translate(1141.937 471.968)">
      <rect id="Rectángulo_25706" data-name="Rectángulo 25706" width="1.852" height="194.298" transform="translate(0)" fill="#f1f1f1"/>
    </g>
    <rect id="Rectángulo_25707" data-name="Rectángulo 25707" width="19.964" height="5.065" transform="translate(1142.863 448.027)" fill="#fff"/>
    <rect id="Rectángulo_25708" data-name="Rectángulo 25708" width="15.975" height="5.065" transform="translate(1142.863 457.388)" fill="#fff"/>
    <rect id="Rectángulo_25709" data-name="Rectángulo 25709" width="20.95" height="6.753" transform="translate(1143.789 677.777)" fill="#fff"/>
    <g id="Grupo_25714" data-name="Grupo 25714" transform="translate(1089.598 471.968)">
      <rect id="Rectángulo_25710" data-name="Rectángulo 25710" width="1.852" height="194.298" transform="translate(0)" fill="#f1f1f1"/>
    </g>
    <g id="Grupo_25715" data-name="Grupo 25715" transform="translate(1221.275 471.968)">
      <rect id="Rectángulo_25711" data-name="Rectángulo 25711" width="1.852" height="194.298" fill="#f1f1f1"/>
    </g>
    <rect id="Rectángulo_25712" data-name="Rectángulo 25712" width="37.029" height="5.065" transform="translate(1089.104 448.027)" fill="#fff"/>
    <rect id="Rectángulo_25713" data-name="Rectángulo 25713" width="23.676" height="5.065" transform="translate(1089.104 457.388)" fill="#fff"/>
    <rect id="Rectángulo_25714" data-name="Rectángulo 25714" width="22.946" height="5.065" transform="translate(1223.127 448.027)" fill="#fff"/>
    <rect id="Rectángulo_25715" data-name="Rectángulo 25715" width="26.744" height="5.065" transform="translate(1223.127 457.388)" fill="#fff"/>
    <rect id="Rectángulo_25716" data-name="Rectángulo 25716" width="20.95" height="6.753" transform="translate(1090.524 677.777)" fill="#fff"/>
    <rect id="Rectángulo_25717" data-name="Rectángulo 25717" width="20.949" height="6.753" transform="translate(1223.127 677.777)" fill="#fff"/>
    <g id="Grupo_25716" data-name="Grupo 25716" transform="translate(1034.906 388.393)">
      <rect id="Rectángulo_25718" data-name="Rectángulo 25718" width="231.351" height="306.088" rx="11.488" transform="translate(231.351 306.088) rotate(180)" fill="#ffaa3f"/>
    </g>
    <path id="Rectángulo_25719" data-name="Rectángulo 25719" d="M20.257,0H203.973a0,0,0,0,1,0,0V326.837a0,0,0,0,1,0,0H0a0,0,0,0,1,0,0V20.257A20.257,20.257,0,0,1,20.257,0Z" transform="translate(1048.595 354.711)" fill="#f3f3f3"/>
    <rect id="Rectángulo_25720" data-name="Rectángulo 25720" width="60.143" height="7.607" transform="translate(1173.419 415.901)" fill="#ffaa3f"/>
    <rect id="Rectángulo_25721" data-name="Rectángulo 25721" width="55.208" height="7.607" transform="translate(1173.419 447.789)" fill="#ffaa3f"/>
    <rect id="Rectángulo_25722" data-name="Rectángulo 25722" width="47.767" height="7.607" transform="translate(1173.419 431.845)" fill="#ffaa3f"/>
    <g id="Grupo_25717" data-name="Grupo 25717" transform="translate(1061.518 369.939)">
      <path id="Trazado_67669" data-name="Trazado 67669" d="M1167.627,498.295a46.963,46.963,0,0,1-19.58-4.222,47.373,47.373,0,1,1,39.158,0A46.96,46.96,0,0,1,1167.627,498.295Zm0-92.244a44.871,44.871,0,1,0,0,89.743,44.475,44.475,0,0,0,18.543-4,44.879,44.879,0,0,0-18.543-85.745Z" transform="translate(-1120.254 -403.55)" fill="url(#linear-gradient)"/>
    </g>
    <g id="Grupo_25721" data-name="Grupo 25721" transform="translate(1061.518 483.753)">
      <g id="Grupo_25718" data-name="Grupo 25718" transform="translate(0 0)">
        <rect id="Rectángulo_25723" data-name="Rectángulo 25723" width="69.105" height="6.783" fill="#dedede"/>
      </g>
      <g id="Grupo_25719" data-name="Grupo 25719" transform="translate(0 18.248)">
        <rect id="Rectángulo_25724" data-name="Rectángulo 25724" width="69.105" height="6.783" fill="#dedede"/>
      </g>
      <g id="Grupo_25720" data-name="Grupo 25720" transform="translate(0 36.496)">
        <rect id="Rectángulo_25725" data-name="Rectángulo 25725" width="69.105" height="6.783" fill="#dedede"/>
      </g>
    </g>
    <g id="Grupo_25725" data-name="Grupo 25725" transform="translate(1144.728 483.753)">
      <g id="Grupo_25722" data-name="Grupo 25722" transform="translate(0 0)">
        <rect id="Rectángulo_25726" data-name="Rectángulo 25726" width="11.535" height="6.783" fill="#00c0c2"/>
      </g>
      <g id="Grupo_25723" data-name="Grupo 25723" transform="translate(0 18.248)">
        <rect id="Rectángulo_25727" data-name="Rectángulo 25727" width="11.535" height="6.783" fill="#00c0c2"/>
      </g>
      <g id="Grupo_25724" data-name="Grupo 25724" transform="translate(0 36.496)">
        <rect id="Rectángulo_25728" data-name="Rectángulo 25728" width="11.535" height="6.783" fill="#00c0c2"/>
      </g>
    </g>
    <path id="Rectángulo_25729" data-name="Rectángulo 25729" d="M6.857,0H131.211a6.855,6.855,0,0,1,6.855,6.855V202.8a6.855,6.855,0,0,1-6.855,6.855H6.856A6.856,6.856,0,0,1,0,202.8V6.857A6.857,6.857,0,0,1,6.857,0Z" transform="translate(1172.725 476.921)" fill="#f3f3f3" style="mix-blend-mode: hard-light;isolation: isolate"/>
    <g id="Grupo_25730" data-name="Grupo 25730" transform="translate(1250.764 493.108)">
      <g id="Grupo_25726" data-name="Grupo 25726" transform="translate(0 0)">
        <path id="Trazado_67670" data-name="Trazado 67670" d="M1771.077,813.565a22.6,22.6,0,1,0-42.56,15.221q.256.718.556,1.409a22.6,22.6,0,0,0,42-16.63ZM1755.5,837.131a16.924,16.924,0,0,1-21.243-9.193c-.149-.345-.289-.7-.418-1.056a16.944,16.944,0,1,1,21.661,10.249Z" transform="translate(-1727.191 -798.57)" fill="#dedede"/>
      </g>
      <g id="Grupo_25727" data-name="Grupo 25727" transform="translate(1.032 0.01)">
        <path id="Trazado_67671" data-name="Trazado 67671" d="M1735.9,816.148l-5.4-1.686a22.631,22.631,0,0,1,20.9-15.86l.169,5.654a16.972,16.972,0,0,0-15.669,11.892Z" transform="translate(-1730.5 -798.602)" fill="#00858a"/>
      </g>
      <g id="Grupo_25728" data-name="Grupo 25728" transform="translate(0 15.87)">
        <path id="Trazado_67672" data-name="Trazado 67672" d="M1734.26,862.965l-5.187,2.258q-.3-.69-.556-1.409a22.5,22.5,0,0,1-.295-14.347l5.4,1.686a16.869,16.869,0,0,0,.221,10.756C1733.971,862.268,1734.111,862.621,1734.26,862.965Z" transform="translate(-1727.191 -849.467)" fill="#00858a"/>
      </g>
      <g id="Grupo_25729" data-name="Grupo 25729" transform="translate(1.883 29.368)">
        <path id="Trazado_67673" data-name="Trazado 67673" d="M1736.734,900.641a22.458,22.458,0,0,1-3.5-5.626l5.187-2.258a16.855,16.855,0,0,0,2.626,4.219Z" transform="translate(-1733.23 -892.757)" fill="#b1e2e3"/>
      </g>
    </g>
    <g id="Grupo_25731" data-name="Grupo 25731" transform="translate(1260.989 639.246)">
      <rect id="Rectángulo_25730" data-name="Rectángulo 25730" width="12.183" height="39.945" transform="translate(0)" fill="#b1e2e3"/>
    </g>
    <g id="Grupo_25732" data-name="Grupo 25732" transform="translate(1242.878 650.45)">
      <rect id="Rectángulo_25731" data-name="Rectángulo 25731" width="12.183" height="28.742" transform="translate(0)" fill="#b1e2e3"/>
    </g>
    <g id="Grupo_25733" data-name="Grupo 25733" transform="translate(1278.558 620.733)">
      <rect id="Rectángulo_25732" data-name="Rectángulo 25732" width="12.183" height="58.458" transform="translate(0 0)" fill="#b1e2e3"/>
    </g>
    <g id="Grupo_25734" data-name="Grupo 25734" transform="translate(1190.112 554.684)">
      <path id="Trazado_67674" data-name="Trazado 67674" d="M1533.728,1076.5l-1.058-.813,19.852-25.83,24.5,1.329,18.476-29.422,19.9-2.053,11.96-23.656,1.191.6-12.289,24.307-19.982,2.062-18.548,29.537-24.584-1.334Z" transform="translate(-1532.67 -996.05)" fill="#b1e2e3"/>
    </g>
    <path id="Trazado_67675" data-name="Trazado 67675" d="M1571.275,824.633H1536.63a3.96,3.96,0,0,1-3.96-3.96h0a3.96,3.96,0,0,1,3.96-3.96h34.644a3.961,3.961,0,0,1,3.961,3.96h0A3.96,3.96,0,0,1,1571.275,824.633Z" transform="translate(-342.559 -317.947)" fill="#00c0c2"/>
    <path id="Trazado_67676" data-name="Trazado 67676" d="M1571.275,868.946H1536.63a3.96,3.96,0,0,1-3.96-3.96h0a3.96,3.96,0,0,1,3.96-3.96h34.644a3.96,3.96,0,0,1,3.961,3.96h0A3.96,3.96,0,0,1,1571.275,868.946Z" transform="translate(-342.559 -348.443)" fill="#dedede"/>
    <path id="Trazado_67677" data-name="Trazado 67677" d="M1571.275,913.261H1536.63a3.96,3.96,0,0,1-3.96-3.96h0a3.96,3.96,0,0,1,3.96-3.96h34.644a3.96,3.96,0,0,1,3.961,3.96h0A3.96,3.96,0,0,1,1571.275,913.261Z" transform="translate(-342.559 -378.94)" fill="#dedede"/>
    <g id="Grupo_25735" data-name="Grupo 25735" transform="translate(1082.933 391.355)">
      <rect id="Rectángulo_25733" data-name="Rectángulo 25733" width="12.345" height="51.914" transform="translate(19.784 0)" fill="#ffaa3f"/>
      <rect id="Rectángulo_25734" data-name="Rectángulo 25734" width="12.345" height="51.914" transform="translate(51.914 19.784) rotate(90)" fill="#ffaa3f"/>
    </g>
    <g id="Grupo_25754" data-name="Grupo 25754" transform="translate(1126.067 487.077)">
      <g id="Grupo_25737" data-name="Grupo 25737" transform="translate(102.957 65.039)">
        <g id="Grupo_25736" data-name="Grupo 25736">
          <path id="Trazado_67678" data-name="Trazado 67678" d="M1657.467,995.8s1.833-3.963,2.131-4.559,2.05-1.544,4.131-2.068c2.021-.509,4.771-1.529,5.085-1.334a1.78,1.78,0,0,1,1.055,1.1,3.606,3.606,0,0,1,.21,1.817,2.194,2.194,0,0,1,.677,2.007,1.91,1.91,0,0,1,.33,2.1,1.6,1.6,0,0,1,.359,1.727,14.492,14.492,0,0,0-2.125,1.436c-.5.514-4.009,2.2-7.621,3.3C1661.7,1001.32,1657.937,1001.2,1657.467,995.8Z" transform="translate(-1657.467 -987.815)" fill="#8d4f39"/>
        </g>
      </g>
      <g id="Grupo_25739" data-name="Grupo 25739" transform="translate(100.574 71.298)">
        <g id="Grupo_25738" data-name="Grupo 25738">
          <path id="Trazado_67679" data-name="Trazado 67679" d="M1656.441,1015.133s-4.481.782-6-.093.249-5.439.249-5.439l2.837-1.715Z" transform="translate(-1649.825 -1007.887)" fill="#8d4f39"/>
        </g>
      </g>
      <g id="Grupo_25741" data-name="Grupo 25741" transform="translate(108.437 71.105)">
        <g id="Grupo_25740" data-name="Grupo 25740">
          <path id="Trazado_67680" data-name="Trazado 67680" d="M1675.458,1007.269a10.736,10.736,0,0,1-.4,2.8c-.331.606,4.133,1.549,4.133,1.549S1678.12,1007.423,1675.458,1007.269Z" transform="translate(-1675.041 -1007.269)" fill="#5d3527"/>
        </g>
      </g>
      <g id="Grupo_25743" data-name="Grupo 25743" transform="translate(108.441 65.04)">
        <g id="Grupo_25742" data-name="Grupo 25742">
          <path id="Trazado_67681" data-name="Trazado 67681" d="M1680.356,988.031s-4.894,2.377-4.608,3.213a1.385,1.385,0,0,0,.9.969l-1.57,1.892s-.333,1.84,1.768,1.664c0,0-.488,1.686,1.52,1.275,0,0,.174,1.256,1.138,1.23s4.049-1.686,4.049-1.686.559-.672-.294-1.756a1.869,1.869,0,0,0-.315-2.105,3.053,3.053,0,0,0-.722-2.51,2.623,2.623,0,0,0-1.342-2.4S1680.562,987.93,1680.356,988.031Z" transform="translate(-1675.056 -987.817)" fill="#794432"/>
        </g>
      </g>
      <g id="Grupo_25745" data-name="Grupo 25745" transform="translate(104.81 68.374)">
        <g id="Grupo_25744" data-name="Grupo 25744">
          <path id="Trazado_67682" data-name="Trazado 67682" d="M1663.833,998.512a18.492,18.492,0,0,1,5.752,1.018c.457.213.86.5.836,1.006s-.787,1.108-2.406,1.156a13.639,13.639,0,0,0-3.689.851S1662.648,1002.1,1663.833,998.512Z" transform="translate(-1663.41 -998.512)" fill="#8d4f39"/>
        </g>
      </g>
      <g id="Grupo_25746" data-name="Grupo 25746" transform="translate(108.798 65.035)">
        <path id="Trazado_67683" data-name="Trazado 67683" d="M1683.006,990.206s-5.588,1.912-5.967,2.374-1.1-1.577-.746-1.949a42.184,42.184,0,0,1,5.18-2.82A1.851,1.851,0,0,1,1683.006,990.206Z" transform="translate(-1676.198 -987.801)" fill="#8d4f39"/>
      </g>
      <g id="Grupo_25747" data-name="Grupo 25747" transform="translate(110.726 64.219)">
        <path id="Trazado_67684" data-name="Trazado 67684" d="M1684.688,986.244s8.7-1.782,8.877-.722-.665,1.238-7.794,3.318C1678.839,990.863,1684.688,986.244,1684.688,986.244Z" transform="translate(-1682.382 -985.185)" fill="#8d4f39"/>
      </g>
      <g id="Grupo_25748" data-name="Grupo 25748" transform="translate(43.721 242.945)">
        <path id="Trazado_67685" data-name="Trazado 67685" d="M1477.019,1559.14s2.773,4.148,6.661,5.044,7.72,2.322,7.749,4.776-11.244,3.918-15.694,1.444c-6.642-3.693-7.317-2.58-8.054-4.426s.885-6.781.837-7.369C1468.459,1557.884,1477.019,1559.14,1477.019,1559.14Z" transform="translate(-1467.489 -1558.384)" fill="#343b3d"/>
      </g>
      <g id="Grupo_25749" data-name="Grupo 25749" transform="translate(44.744 240.45)">
        <path id="Trazado_67686" data-name="Trazado 67686" d="M1478.846,1551.586a17.71,17.71,0,0,1,.431,2.046c-.075.042-8.764,1.078-8.5-.531.213-1.3.517-2.721.517-2.721Z" transform="translate(-1470.77 -1550.381)" fill="#80807e"/>
      </g>
      <g id="Grupo_25750" data-name="Grupo 25750" transform="translate(14.512 242.398)">
        <path id="Trazado_67687" data-name="Trazado 67687" d="M1383.311,1557.656s1.978,3.967,5.356,5.319c3.612,1.445,6.508,3.1,6.442,5.5s-8.829,4.814-15.2.225c-4.028-2.9-5.305-2.914-5.951-4.74s1.122-6.571,1.1-7.144C1375.022,1556.1,1383.311,1557.656,1383.311,1557.656Z" transform="translate(-1373.812 -1556.628)" fill="#343b3d"/>
      </g>
      <g id="Grupo_25751" data-name="Grupo 25751" transform="translate(15.748 239.824)">
        <path id="Trazado_67688" data-name="Trazado 67688" d="M1386.137,1549.914a19.414,19.414,0,0,1-.1,2.061c-.074.038-8.472.73-8.259-.843a12.954,12.954,0,0,1,.815-2.76Z" transform="translate(-1377.776 -1548.372)" fill="#80807e"/>
      </g>
      <g id="Grupo_25752" data-name="Grupo 25752" transform="translate(12.493 110.941)">
        <path id="Trazado_67689" data-name="Trazado 67689" d="M1409.743,1144.248s7.8,34.412,9.583,44.894c1.517,8.922,2.726,18.211,2,24.652-.9,7.974-12.187,49.3-11.715,51.636s-13.457.917-13.457.917,10.23-46.639,8.515-55.218c-1.27-6.354-12.4-48.565-14.1-46.4s-3.821,39.837-5.084,46.091-5.14,55.665-5.14,55.665-8.669,1.279-10.985-.681c0,0-1.054-42.192-.249-53.916.307-4.468-5.235-53.573,1.871-73.343C1374.733,1128.1,1409.743,1144.248,1409.743,1144.248Z" transform="translate(-1367.337 -1135.028)" fill="#2e3133"/>
      </g>
      <g id="Grupo_25753" data-name="Grupo 25753" transform="translate(49.022 42.576)">
        <path id="Trazado_67690" data-name="Trazado 67690" d="M1541.315,953.438s-27.026,5.992-32.4,4.669c-2.486-.611-5.761-4.043-8.873-8.078-1.026-1.329-2.032-2.724-2.989-4.1a.008.008,0,0,1,0-.006c-3.818-5.512-6.809-10.8-6.809-10.8s-11.285-13.224-2.229-19.12a6.023,6.023,0,0,1,6.3,2c3.021,3.235,6.564,10,7.355,11.728s11.876,17.711,12.451,18.071,5.418-.915,9.3-1.237a120.092,120.092,0,0,0,15.821-2.994Z" transform="translate(-1484.489 -915.774)" fill="#d9ddee"/>
      </g>
      <path id="Trazado_67691" data-name="Trazado 67691" d="M1394.99,907.051s11.617,2.4,13,3.623c1.5,1.3,4.135,14.023,4.293,17.567s-1.4,18.349-2.9,23.862-1.221,32.668-.276,40.307c0,0-23.39,6.643-46.388,3.65,0,0,3.855-28.568,2.935-36.123-1.179-9.678-4.017-31.976-4.017-31.976s2.036-15.532,4.083-17.265,16.158-3.645,16.158-3.645Z" transform="translate(-1350.92 -867.195)" fill="#babecd"/>
      <path id="Trazado_67692" data-name="Trazado 67692" d="M1427.78,790.39s13.974-5.171,13.1,13.4-4.149,20.458-13.34,17.864-9.963-14.313-11.16-19.951S1423.21,791.2,1427.78,790.39Z" transform="translate(-1388.512 -786.454)" fill="#8d4f39"/>
      <path id="Trazado_67693" data-name="Trazado 67693" d="M1439.6,872.96s-2.876,1.9-13.78-2.9a49.358,49.358,0,0,0-1.831-14.458c-2.139-6.982,14.632,9.31,14.632,9.31-.176.124-.21.822-.109,1.8a19.78,19.78,0,0,0,.539,2.885C1439.662,871.925,1439.6,870.923,1439.6,872.96Z" transform="translate(-1393.701 -830.59)" fill="#8d4f39"/>
      <path id="Trazado_67694" data-name="Trazado 67694" d="M1413.092,803.684s-.04-4.961,2.023-5.417a2.835,2.835,0,0,0,2.335-2.107l1.183.275s-.217-.874,1.75-2.026,13.732-.14,15.208-1.833-.665-11.745-3.874-12.731-10.667-.9-17.479,1.018a7.928,7.928,0,0,0-5.563,7.393C1408.422,792.2,1411.413,800.994,1413.092,803.684Z" transform="translate(-1383.282 -779.226)" fill="#2e3133"/>
      <path id="Trazado_67695" data-name="Trazado 67695" d="M1445.176,886.482c-10.831-1.821-12.45-7.981-12.474-8.077,4.211,5.43,11.936,5.192,11.936,5.192A19.763,19.763,0,0,0,1445.176,886.482Z" transform="translate(-1399.827 -847.481)" fill="#643029"/>
      <path id="Trazado_67696" data-name="Trazado 67696" d="M1466.518,922.935s1.972,2.91,3.163,10.379.988,20.336.988,20.336l-2.743.334s-4.151-26.241-3.437-30.814Z" transform="translate(-1421.647 -878.126)" fill="#434343"/>
      <path id="Trazado_67697" data-name="Trazado 67697" d="M1428.527,831.226c-.618-1.636-4.1-1.43-3.746,1.165s3.238,6.589,4.394,5.84S1429.378,833.483,1428.527,831.226Z" transform="translate(-1394.359 -814.292)" fill="#8d4f39"/>
      <path id="Trazado_67698" data-name="Trazado 67698" d="M1488.518,912.137s6.6,8.733,4.155,31.582c-4.419,41.287,7.153,107.565,7.153,107.565l-11.938,3.736s-11.408-84.726-8.5-115.476c1.324-14.012,5.253-18.675-.946-30.349C1478.44,909.2,1484.476,909.5,1488.518,912.137Z" transform="translate(-1431.305 -868.67)" fill="#d9ddee"/>
      <path id="Trazado_67699" data-name="Trazado 67699" d="M1370.53,908.58s18.895,19.086,20.375,33.555,3.89,112.461,3.89,112.461l-44.984-2.619s4.134-51.728,5.143-58.2,3.1-43.625-1.456-60.866c-2.446-9.262.464-21.012,6.052-22.3S1370.53,908.58,1370.53,908.58Z" transform="translate(-1342.783 -868.247)" fill="#d9ddee"/>
      <path id="Trazado_67700" data-name="Trazado 67700" d="M1358.085,915.549s7.277,2,3.273,15.36c-3.136,10.461-3.559,12.708-3.559,12.708l-16.792-4.194s4.924-22.979,12.958-24.215A9.2,9.2,0,0,1,1358.085,915.549Z" transform="translate(-1336.724 -872.743)" fill="#d9ddee"/>
      <path id="Trazado_67701" data-name="Trazado 67701" d="M1451.428,1094.777l-32.914,34.061-21.862-21.125,32.06-34.887Z" transform="translate(-1375.019 -981.28)" fill="#616161"/>
      <path id="Trazado_67702" data-name="Trazado 67702" d="M1454.974,1102.37l-29.232,30.251-19.416-18.762,28.473-30.984Z" transform="translate(-1381.676 -988.196)" fill="#deccc5"/>
      <path id="Trazado_67703" data-name="Trazado 67703" d="M1522.742,1107.758l2.052-2.123-7.85-7.585-2.358,1.827Z" transform="translate(-1456.18 -998.639)" fill="#616161"/>
      <path id="Trazado_67704" data-name="Trazado 67704" d="M1427.716,899.18a35.015,35.015,0,0,0,11.34,4.212l-3,4.787-9.5-6.545Z" transform="translate(-1395.595 -861.778)" fill="#a5a8b6"/>
      <path id="Trazado_67705" data-name="Trazado 67705" d="M1468.545,904.31a4.891,4.891,0,0,1-1.886,2.613l2.817,3.929-.1-5.211Z" transform="translate(-1423.196 -865.308)" fill="#a5a8b6"/>
      <path id="Trazado_67706" data-name="Trazado 67706" d="M1461.754,912.69l2.231,3.111s-1.412,1.786-4.453.432Z" transform="translate(-1418.292 -871.075)" fill="#434343"/>
      <path id="Trazado_67707" data-name="Trazado 67707" d="M1527.753,987.959v0c-1.026-1.329-2.032-2.724-2.989-4.1a.008.008,0,0,1,0-.006s.36-10.067.045-12.959C1524.806,970.894,1528.1,981.738,1527.753,987.959Z" transform="translate(-1463.182 -911.131)" fill="#a5a8b6"/>
      <path id="Trazado_67708" data-name="Trazado 67708" d="M1372.7,1004.226s-2.194,14.277-2.04,15.192S1360.724,1016.551,1372.7,1004.226Z" transform="translate(-1354.496 -934.07)" fill="#a5a8b6"/>
      <rect id="Rectángulo_25735" data-name="Rectángulo 25735" width="5.303" height="8.096" transform="translate(52.526 65.047)" fill="#c4c8d7"/>
      <path id="Trazado_67709" data-name="Trazado 67709" d="M1425.8,1112.13a2.987,2.987,0,0,0,1.292,1.284c1.393.559,3.621-.328,4.483,1.666s-4.694,6.675-6.088,6.918-3.366-2.036-4.652-6.433S1425.8,1112.13,1425.8,1112.13Z" transform="translate(-1391.539 -1008.268)" fill="#8d4f39"/>
      <path id="Trazado_67710" data-name="Trazado 67710" d="M1435.7,1119.779a61.043,61.043,0,0,1,4.757,4.857c2.074,2.386,4.071,5.59,3.714,6.195-.794,1.344-2.724-1.658-4.942-3.878a20.626,20.626,0,0,0-1.7-1.686s0-.218,1.78,2.462c1.917,2.882,3.587,6.041,3.134,6.743-.22.342-1.114,1.177-1.541-.2.383.644.451.486.195.682-1.326,1.011-4.81-2.758-6.193-4.255,1.055,1.157,1.7,2.124.508,2.223-1.368.112-6.049-5.45-7.92-7.273C1425.444,1123.66,1435.7,1119.779,1435.7,1119.779Z" transform="translate(-1396.053 -1013.593)" fill="#8d4f39"/>
      <path id="Trazado_67711" data-name="Trazado 67711" d="M1349.5,918.1c1.523.59,2.1,3.293,1.474,11.13a26.408,26.408,0,0,1-4.414,13.254c-1.029,1.813-6.69,12.986-5.672,14.456s10.627,10.951,11.183,11.723,11.286,10.484,11.286,10.484l-5.462,7.633s-23.169-18.1-24.976-19.9-7.211-5.6-5.213-11.914c2.031-6.415,5.682-21.433,6.33-22.608S1339.43,914.2,1349.5,918.1Z" transform="translate(-1327.271 -874.396)" fill="#d9ddee"/>
    </g>
  </g>
</svg>
