<svg xmlns="http://www.w3.org/2000/svg" width="416.426" height="343.845" viewBox="0 0 416.426 343.845">
  <g id="Grupo_25616" data-name="Grupo 25616" transform="translate(-62.648 -226.025)">
    <path id="Trazado_66901" data-name="Trazado 66901" d="M170.959,598.225S101.426,580.05,110.09,476.58,223.116,417.1,284.9,354.45s60.924-119.3,154.324-76.642,10.093,150.951,19.423,174.777,59.315,53.645,56.649,85.054-23.992,57.2-37.988,60.633l-306.347-.047Z" transform="translate(-36.323 -28.735)" fill="#fff5dd"/>
    <g id="Grupo_25614" data-name="Grupo 25614" transform="translate(350.807 267.406)">
      <path id="Trazado_66902" data-name="Trazado 66902" d="M1477.1,435.5a18.346,18.346,0,0,1,.423,8.963c4.859-10,8.385-16.4,8.482-16.573a.333.333,0,0,1,.583.323c-.108.194-4.542,8.238-10.328,20.419-.066.15-.112.245-.125.272,0,.007-.009.012-.013.019-2.982,6.29-6.315,13.664-9.594,21.62,2.678-3.822,7.716-10.417,11.715-12.169l1.375-.6c2.369-1.035,5.654-2.47,8.642-3.86,7-14.426,16.6-31.641,6.677-39.334-9.063-7.027-15.472,3.608-19.656,14.283C1475.764,430.89,1476.371,433.19,1477.1,435.5Z" transform="translate(-1442.844 -412.317)" fill="#fff"/>
      <path id="Trazado_66903" data-name="Trazado 66903" d="M1404.867,516.616c-2.431,1.118-5.168,2.324-7.919,3.526l-1.375.6c-5.143,2.253-12.412,13.338-13.211,14.574-5.483,13.612-10.673,28.69-13.652,42.845a.333.333,0,1,1-.652-.137c2.975-14.136,8.148-29.187,13.618-42.787a.329.329,0,0,1,.05-.165l.044-.069c3.7-9.185,7.533-17.7,10.91-24.812a19.214,19.214,0,0,0,.848-12.732c-.625-1.977-1.16-3.946-1.605-5.747-2.415,6.379-4.037,12.558-4.961,14.757-2.518,6-8.477,8.663-19.805,17.527s-6,42.681-6,42.681l-1.253,1.372s10.249,38.373,32.547,34.662,8.354-56.261,7.043-69.255C1399.085,529.366,1401.637,523.328,1404.867,516.616Z" transform="translate(-1359.907 -474.076)" fill="#fff"/>
    </g>
    <path id="Trazado_66904" data-name="Trazado 66904" d="M285.086,1222.649c-11.313-21.963-21.64-38.927-21.743-39.1a.333.333,0,0,1,.569-.347c.1.169,10.443,17.154,21.767,39.138,8.915,17.308,20.012,40.821,26.025,61.071l9.189-59.935s-24.294-31.507-28.384-43.808-41-12-41-12c5.23,13.72-7.418,41.614-7.418,41.614l4.177,13.09h-8.7c-5.219,15.49,2.982,36.983,2.982,36.983l8.958,5.306-7.433,2.254c4.637,29.725,64.97,33.856,64.97,33.856l2.422-15.8C305.572,1264.474,294.19,1240.323,285.086,1222.649Zm2.68,18.69a.333.333,0,0,1-.464.082c-9.042-6.328-19.7-8.145-27.042-8.556a65.335,65.335,0,0,0-13.915.632.333.333,0,0,1-.121-.655,66.04,66.04,0,0,1,14.073-.642c7.432.415,18.217,2.258,27.387,8.675A.333.333,0,0,1,287.766,1241.339Z" transform="translate(-136.267 -732.478)" fill="#fff"/>
    <g id="Grupo_25615" data-name="Grupo 25615" transform="translate(347.577 469.867)">
      <path id="Trazado_66905" data-name="Trazado 66905" d="M1437.185,1398.169q-1.07.1-2.175.206c-23.355,2.16-31.95,5.978-35.092,8.3l-40.164,46.136a.333.333,0,1,1-.5-.437l38.253-43.939a5.027,5.027,0,0,1,2-2.3l5.558-6.385c.905-1.042,1.493-12.187-.442-21.023a17.027,17.027,0,0,1-.351-4.1c-1.152.684-2.344,1.351-3.583,1.989-14.562,7.5-18.758-5.449-25.479-3.493s-19.933,28.052-19.933,28.052-24.435,50.4,3.433,59.023c0,0,59.006,7.607,66.832-14.336,3.858-10.816-8.274-17.488.992-30.235A107.61,107.61,0,0,0,1437.185,1398.169Z" transform="translate(-1345.368 -1362.001)" fill="#fff"/>
      <path id="Trazado_66906" data-name="Trazado 66906" d="M1631.5,1342.919l-29.545,33.936h0l-4.119,4.731c4.426-2.384,13.771-5.386,33.5-7.211q1.315-.122,2.556-.243C1638.679,1363.492,1640.5,1351.67,1631.5,1342.919Z" transform="translate(-1541.759 -1338.667)" fill="#fff"/>
      <path id="Trazado_66907" data-name="Trazado 66907" d="M1613.884,1340.361c1.532,7,1.582,16.11.864,19.934l28.49-32.725a27.218,27.218,0,0,0-2.446-2c-7.753-5.633-15.232,3.136-27.217,10.413A16.588,16.588,0,0,0,1613.884,1340.361Z" transform="translate(-1553.977 -1323.776)" fill="#fff"/>
    </g>
    <path id="Trazado_66908" data-name="Trazado 66908" d="M1436.963,800.461a17.654,17.654,0,0,1-10-2.9c-9.863-6.559-11.366-22-4.467-45.9,5.387-18.66,14.655-38.439,21.48-51.746a13.905,13.905,0,0,1,8.789-7.178,11.533,11.533,0,0,1,9.422,1.482l5.411,3.6-2.337,3.514-5.411-3.6a7.368,7.368,0,0,0-6.021-.913,9.682,9.682,0,0,0-6.1,5.02c-6.74,13.141-15.887,32.655-21.18,50.99-2.954,10.232-4.323,18.856-4.07,25.632.281,7.516,2.576,12.759,6.82,15.581s9.966,2.911,17.006.264c6.348-2.387,13.771-6.985,22.064-13.666,14.862-11.972,29.321-27.953,38.833-39.251a9.681,9.681,0,0,0,2.271-7.565,7.366,7.366,0,0,0-3.17-5.2l-4.733-3.148,2.337-3.514,4.733,3.147a11.534,11.534,0,0,1,5.011,8.116,13.906,13.906,0,0,1-3.22,10.881c-9.632,11.441-24.289,27.635-39.414,39.819C1457.354,794.936,1445.955,800.46,1436.963,800.461Z" transform="translate(-1054.475 -362.726)" fill="#18898e"/>
    <path id="Trazado_66909" data-name="Trazado 66909" d="M1761.122,807.989l1.23.818a2.673,2.673,0,0,0,3.7-.744l5.123-7.7a2.674,2.674,0,0,0-.744-3.7l-1.229-.818a2.674,2.674,0,0,0-3.7.743l-5.122,7.7A2.673,2.673,0,0,0,1761.122,807.989Z" transform="translate(-1320.27 -442.903)" fill="#0a3f64"/>
    <path id="Trazado_66910" data-name="Trazado 66910" d="M1621.524,715.152l1.23.818a2.674,2.674,0,0,0,3.7-.743l5.122-7.7a2.673,2.673,0,0,0-.743-3.7l-1.23-.818a2.673,2.673,0,0,0-3.7.743l-5.123,7.7A2.674,2.674,0,0,0,1621.524,715.152Z" transform="translate(-1211.681 -370.688)" fill="#0a3f64"/>
    <path id="Trazado_66911" data-name="Trazado 66911" d="M1498.7,1283.611a2.573,2.573,0,0,1-1.62-4.573c.128-.1,13.075-10.8,13.231-24.914.093-8.42-4.375-16.531-13.281-24.108-19.973-16.993-34.511-37.817-35.12-38.7a2.573,2.573,0,0,1,4.228-2.933c.146.209,14.782,21.165,34.226,37.709,10.138,8.626,15.216,18.088,15.091,28.123-.206,16.551-14.531,28.326-15.141,28.82A2.563,2.563,0,0,1,1498.7,1283.611Z" transform="translate(-1088.088 -747.732)" fill="#0a3f64"/>
    <circle id="Elipse_1781" data-name="Elipse 1781" cx="19.129" cy="19.129" r="19.129" transform="translate(387.499 531.279)" fill="#18898e"/>
    <circle id="Elipse_1782" data-name="Elipse 1782" cx="13.3" cy="13.3" r="13.3" transform="translate(391.369 539.829) rotate(-9.217)" fill="#fff"/>
    <path id="Trazado_66912" data-name="Trazado 66912" d="M1563.463,1654.136A13.633,13.633,0,1,1,1577.1,1640.5,13.648,13.648,0,0,1,1563.463,1654.136Zm0-26.6a12.967,12.967,0,1,0,12.967,12.967A12.982,12.982,0,0,0,1563.463,1627.536Z" transform="translate(-1156.835 -1089.677)" fill="#0a3f64"/>
    <path id="Trazado_66913" data-name="Trazado 66913" d="M1216.317,263.7l-20.673-21.765,16.749-15.909,20.673,21.765Zm-19.731-21.741,19.755,20.8,15.783-14.991-19.755-20.8Z" transform="translate(-881.325)" fill="#0a3f64"/>
    <path id="Trazado_66914" data-name="Trazado 66914" d="M1231.731,292.671a1.872,1.872,0,1,1,1.357-3.161h0a1.872,1.872,0,0,1-1.357,3.161Zm0-3.077a1.206,1.206,0,1,0,.875.375h0A1.2,1.2,0,0,0,1231.73,289.594Z" transform="translate(-907.939 -48.93)" fill="#0a3f64"/>
    <path id="Trazado_66915" data-name="Trazado 66915" d="M1258.186,320.519h-.049a1.871,1.871,0,1,1,.049,0Zm0-3.079a1.207,1.207,0,1,0,.875.376h0a1.2,1.2,0,0,0-.843-.375Z" transform="translate(-928.516 -70.591)" fill="#0a3f64"/>
    <path id="Trazado_66916" data-name="Trazado 66916" d="M1284.641,348.369h-.049a1.865,1.865,0,1,1,.049,0Zm0-3.079a1.206,1.206,0,1,0,.875.376h0a1.2,1.2,0,0,0-.843-.375Z" transform="translate(-949.095 -92.255)" fill="#0a3f64"/>
    <path id="Trazado_66917" data-name="Trazado 66917" d="M1261.175,264.706a1.872,1.872,0,1,1,1.358-3.162h0a1.872,1.872,0,0,1-1.358,3.162Zm0-3.078a1.206,1.206,0,1,0,.875.375A1.2,1.2,0,0,0,1261.175,261.629Z" transform="translate(-930.844 -27.177)" fill="#0a3f64"/>
    <path id="Trazado_66918" data-name="Trazado 66918" d="M1287.626,292.557a1.872,1.872,0,1,1,1.358-3.162h0a1.872,1.872,0,0,1-1.358,3.162Zm0-3.078a1.206,1.206,0,1,0,.875.375A1.2,1.2,0,0,0,1287.626,289.48Z" transform="translate(-951.418 -48.841)" fill="#0a3f64"/>
    <path id="Trazado_66919" data-name="Trazado 66919" d="M1314.08,320.407a1.872,1.872,0,1,1,1.357-3.162h0a1.872,1.872,0,0,1-1.357,3.161Zm0-3.077a1.206,1.206,0,1,0,.875.375A1.2,1.2,0,0,0,1314.08,317.33Z" transform="translate(-971.996 -70.505)" fill="#0a3f64"/>
    <path id="Trazado_66920" data-name="Trazado 66920" d="M83.693,1361.5l-21.045-9.525,12.377-27.348,21.045,9.525Zm-20.164-9.857,19.831,8.975,11.827-26.134-19.831-8.975Z" transform="translate(0 -854.572)" fill="#0a3f64"/>
    <path id="Trazado_66921" data-name="Trazado 66921" d="M128.138,1359.34a1.873,1.873,0,1,1,1.709-1.1h0A1.876,1.876,0,0,1,128.138,1359.34Zm0-3.079a1.207,1.207,0,1,0,1.1,1.7h0a1.207,1.207,0,0,0-1.1-1.7Zm1.4,1.842h0Z" transform="translate(-49.488 -878.66)" fill="#0a3f64"/>
    <path id="Trazado_66922" data-name="Trazado 66922" d="M112.3,1394.335a1.873,1.873,0,1,1,1.709-1.1h0A1.875,1.875,0,0,1,112.3,1394.335Zm0-3.08a1.207,1.207,0,1,0,.5.108A1.206,1.206,0,0,0,112.3,1391.255Zm1.4,1.842h0Z" transform="translate(-37.168 -905.881)" fill="#0a3f64"/>
    <path id="Trazado_66923" data-name="Trazado 66923" d="M165.131,1376.078a1.872,1.872,0,1,1,1.709-1.1h0A1.876,1.876,0,0,1,165.131,1376.078Zm0-3.079a1.207,1.207,0,1,0,1.1,1.7h0a1.207,1.207,0,0,0-1.1-1.7Zm1.4,1.842h0Z" transform="translate(-78.264 -891.679)" fill="#0a3f64"/>
    <path id="Trazado_66924" data-name="Trazado 66924" d="M149.293,1411.077a1.873,1.873,0,1,1,1.709-1.1A1.862,1.862,0,0,1,149.293,1411.077Zm0-3.079a1.207,1.207,0,1,0,1.1,1.7h0a1.207,1.207,0,0,0-1.1-1.7Z" transform="translate(-65.944 -918.904)" fill="#0a3f64"/>
    <path id="Trazado_66925" data-name="Trazado 66925" d="M133.455,1446.071a1.873,1.873,0,1,1,1.709-1.1A1.863,1.863,0,0,1,133.455,1446.071Zm0-3.079a1.206,1.206,0,0,0-.5,2.305,1.206,1.206,0,1,0,.5-2.305Z" transform="translate(-53.624 -946.125)" fill="#0a3f64"/>
    <path id="Trazado_66926" data-name="Trazado 66926" d="M356.9,860.88a4.17,4.17,0,0,0-4.826,3.381l-1.4,7.934a4.166,4.166,0,1,0,8.207,1.445l1.4-7.934A4.171,4.171,0,0,0,356.9,860.88Zm-2.726,15.484a3.5,3.5,0,0,1-2.84-4.054l.641-3.639,6.894,1.214-.64,3.639A3.5,3.5,0,0,1,354.176,876.364Zm5.451-10.774-.641,3.639-6.894-1.214.64-3.639a3.5,3.5,0,0,1,6.894,1.214Z" transform="translate(-224.002 -493.785)" fill="#0a3f64"/>
    <path id="Trazado_66927" data-name="Trazado 66927" d="M1788.993,1336.9a5.641,5.641,0,0,0-1.972-3.873l-1.525-1.3a5.688,5.688,0,0,0-8.01.639l-9.958,11.684a5.689,5.689,0,0,0,.639,8.01l1.525,1.3a5.688,5.688,0,0,0,8.01-.639l9.957-11.684A5.642,5.642,0,0,0,1788.993,1336.9Zm-11.8,15.389a5.022,5.022,0,0,1-7.071.564l-1.525-1.3a5.022,5.022,0,0,1-.564-7.071l4.763-5.589,9.16,7.807Zm9.957-11.684-4.763,5.589-9.16-7.807,4.763-5.588a5.022,5.022,0,0,1,7.071-.564l1.525,1.3a5.032,5.032,0,0,1,.564,7.071Z" transform="translate(-1325.122 -859.037)" fill="#0a3f64"/>
    <path id="Trazado_66928" data-name="Trazado 66928" d="M1716.95,1179.117l-1.061-8.875a4.586,4.586,0,1,0-9.107,1.089l.531,4.436h0l.531,4.437a4.586,4.586,0,0,0,9.107-1.089Zm-6.08-12.222a3.918,3.918,0,0,1,4.357,3.426l.491,4.106-7.783.931-.491-4.106A3.924,3.924,0,0,1,1710.87,1166.895Zm4.6,15.186a3.92,3.92,0,0,1-6.969-1.954l-.491-4.107,7.783-.931.491,4.107A3.892,3.892,0,0,1,1715.474,1182.081Z" transform="translate(-1278.898 -731.335)" fill="#0a3f64"/>
    <rect id="Rectángulo_25693" data-name="Rectángulo 25693" width="194.768" height="277.903" transform="translate(171.938 291.623)" fill="#92934e"/>
    <rect id="Rectángulo_25694" data-name="Rectángulo 25694" width="156.277" height="240.952" transform="translate(190.348 310.386)" fill="#fff"/>
    <path id="Trazado_66929" data-name="Trazado 66929" d="M792.98,845.929H636.037V604.31H792.98ZM636.7,845.262h155.61V604.976H636.7Z" transform="translate(-446.023 -294.257)" fill="#0a3f64"/>
    <path id="Trazado_66930" data-name="Trazado 66930" d="M715.87,824.8a.333.333,0,0,0-.469-.045l-7.351,6.06a13.335,13.335,0,0,0-21.332.638l-.943-1.012a.333.333,0,0,0-.487.455l1.049,1.126a13.357,13.357,0,1,0,22.117-.675l7.371-6.077A.333.333,0,0,0,715.87,824.8Zm-18.246,1.66a12.67,12.67,0,0,1,9.912,4.78l-11.885,9.8-8.47-9.087A12.684,12.684,0,0,1,697.624,826.455Zm12.69,12.69a12.69,12.69,0,1,1-23.509-6.626l8.786,9.426,12.347-10.179A12.618,12.618,0,0,1,710.314,839.145Z" transform="translate(-483.539 -465.672)" fill="#0a3f64"/>
    <path id="Trazado_66931" data-name="Trazado 66931" d="M707.406,1034.358a.333.333,0,0,0-.469-.045l-7.351,6.06a13.335,13.335,0,0,0-21.331.638l-.943-1.012a.333.333,0,1,0-.487.454l1.05,1.126a13.357,13.357,0,1,0,22.116-.675l7.372-6.077A.333.333,0,0,0,707.406,1034.358Zm-18.246,1.66a12.67,12.67,0,0,1,9.912,4.779l-11.885,9.8-8.47-9.087A12.685,12.685,0,0,1,689.16,1036.018Zm12.69,12.69a12.69,12.69,0,1,1-23.508-6.626l8.786,9.426,12.347-10.179A12.619,12.619,0,0,1,701.85,1048.708Z" transform="translate(-476.955 -628.685)" fill="#0a3f64"/>
    <path id="Trazado_66932" data-name="Trazado 66932" d="M704.693,1243.923a.333.333,0,0,0-.469-.045l-7.351,6.06a13.335,13.335,0,0,0-21.331.638l-.943-1.012a.333.333,0,1,0-.487.454l1.049,1.126a13.357,13.357,0,1,0,22.117-.675l7.371-6.077A.333.333,0,0,0,704.693,1243.923Zm-18.246,1.66a12.67,12.67,0,0,1,9.912,4.779l-11.885,9.8L676,1251.073A12.683,12.683,0,0,1,686.447,1245.583Zm12.69,12.691a12.69,12.69,0,1,1-23.508-6.626l8.785,9.426,12.347-10.179A12.619,12.619,0,0,1,699.137,1258.273Z" transform="translate(-474.845 -791.699)" fill="#0a3f64"/>
    <path id="Trazado_66933" data-name="Trazado 66933" d="M954.015,839.784h-94.8a.333.333,0,1,1,0-.666h94.8a.333.333,0,1,1,0,.666Z" transform="translate(-619.367 -476.907)" fill="#0a3f64"/>
    <path id="Trazado_66934" data-name="Trazado 66934" d="M925.349,908.871H855.614a.333.333,0,0,1,0-.666h69.734a.333.333,0,0,1,0,.666Z" transform="translate(-616.566 -530.648)" fill="#0a3f64"/>
    <path id="Trazado_66935" data-name="Trazado 66935" d="M946.045,1057.322H850.214a.333.333,0,0,1,0-.666h95.831a.333.333,0,1,1,0,.666Z" transform="translate(-612.366 -646.124)" fill="#0a3f64"/>
    <path id="Trazado_66936" data-name="Trazado 66936" d="M892.407,1126.409H846.613a.333.333,0,1,1,0-.666h45.794a.333.333,0,0,1,0,.666Z" transform="translate(-609.565 -699.864)" fill="#0a3f64"/>
    <path id="Trazado_66937" data-name="Trazado 66937" d="M940.79,1274.86H842.214a.333.333,0,1,1,0-.666H940.79a.333.333,0,1,1,0,.666Z" transform="translate(-606.143 -815.34)" fill="#0a3f64"/>
    <path id="Trazado_66938" data-name="Trazado 66938" d="M915.958,1343.948H838.613a.333.333,0,1,1,0-.666h77.345a.333.333,0,1,1,0,.666Z" transform="translate(-603.341 -869.082)" fill="#0a3f64"/>
    <path id="Trazado_66939" data-name="Trazado 66939" d="M794.989,1437.54H702.623a.333.333,0,0,1,0-.666h92.366a.333.333,0,1,1,0,.666Z" transform="translate(-497.559 -941.884)" fill="#0a3f64"/>
    <path id="Trazado_66940" data-name="Trazado 66940" d="M791.369,1508.333H699a.333.333,0,1,1,0-.666h92.366a.333.333,0,1,1,0,.666Z" transform="translate(-494.743 -996.952)" fill="#0a3f64"/>
    <path id="Trazado_66941" data-name="Trazado 66941" d="M577.606,471.548c0,33.643-15.662,60.917-34.981,60.917s-34.981-27.273-34.981-60.917c0,0,12.881-4.33,16.98-6.2,4.8-2.192,18.595-10.055,18.595-10.055s13.488,7.926,17.991,10.055C565.3,467.281,577.606,471.548,577.606,471.548Z" transform="translate(-346.149 -178.339)" fill="#e1e29f"/>
    <path id="Trazado_66942" data-name="Trazado 66942" d="M541.457,531.45c-9.468,0-18.355-6.4-25.024-18.009-6.636-11.555-10.29-26.912-10.29-43.241v-.239l.227-.076c.129-.043,12.912-4.346,16.948-6.19,4.727-2.16,18.43-9.963,18.568-10.041l.167-.1.166.1c.135.079,13.527,7.942,17.965,10.041,4.03,1.905,16.24,6.147,16.363,6.189l.224.078v.237c0,16.329-3.655,31.685-10.29,43.241C559.813,525.054,550.926,531.45,541.457,531.45Zm-34.648-61.01c.074,33.3,15.588,60.344,34.648,60.344s34.574-27.05,34.648-60.346c-1.691-.59-12.447-4.362-16.205-6.139-4.194-1.983-16.287-9.055-17.851-9.971-1.589.9-13.986,7.931-18.454,9.973C519.828,466.022,508.555,469.849,506.81,470.439Z" transform="translate(-344.982 -176.991)" fill="#0a3f64"/>
    <path id="Trazado_66943" data-name="Trazado 66943" d="M593.541,502.565c0,27.517-12.81,49.824-28.612,49.824s-28.612-22.307-28.612-49.824c0,0,11.422-3.682,15.034-5.34,3.694-1.7,14.192-8.07,14.192-8.07s10.391,6.678,14.094,8.452C582.934,499.185,593.541,502.565,593.541,502.565Z" transform="translate(-368.454 -204.681)" fill="#fff"/>
    <path id="Trazado_66944" data-name="Trazado 66944" d="M563.763,551.347c-7.767,0-15.054-5.242-20.52-14.76-5.433-9.46-8.424-22.031-8.424-35.4v-.243l.231-.074c.114-.037,11.444-3.7,15-5.325,3.635-1.668,14.053-7.988,14.158-8.052l.178-.108.175.113c.1.066,10.415,6.687,14.058,8.432,3.237,1.55,13.754,4.906,13.86,4.94l.232.074v.244c0,13.366-2.992,25.937-8.424,35.4C578.817,546.1,571.53,551.347,563.763,551.347Zm-28.278-49.915c.076,27.178,12.732,49.249,28.278,49.249s28.2-22.07,28.278-49.248c-1.611-.516-10.666-3.44-13.714-4.9-3.461-1.658-12.533-7.448-13.955-8.36-1.4.847-10.644,6.418-14.048,7.98C546.976,497.688,537.166,500.887,535.485,501.431Z" transform="translate(-367.287 -203.306)" fill="#0a3f64"/>
    <path id="Trazado_66945" data-name="Trazado 66945" d="M618.626,558.142H605.821V545.336H594.26v12.805H581.455V569.7H594.26v12.805h11.56V569.7h12.805Z" transform="translate(-403.565 -248.383)" fill="#0a3f64"/>
    <path id="Trazado_66946" data-name="Trazado 66946" d="M1712.441,619.45l-4.527-.959.909-4.292-4.292-.909.959-4.526,4.292.909.909-4.292,4.526.959-.909,4.292,4.292.909-.958,4.526-4.292-.909Zm-3.737-1.473,3.222.682.909-4.292,4.292.909.682-3.222-4.292-.909.909-4.292-3.223-.682-.909,4.292-4.292-.909-.682,3.223,4.292.909Z" transform="translate(-1277.174 -295.091)" fill="#0a3f64"/>
    <path id="Trazado_66947" data-name="Trazado 66947" d="M1671.324,579.459l-.167-.187c-.626-.7-15.309-17.257-14.191-28.762a9.6,9.6,0,0,1,3.865-7,5.282,5.282,0,0,1,4.295-1c5.374.984,10.77,8.858,11.818,10.457,1.73-.986,10.74-5.909,15.774-4.4a4.331,4.331,0,0,1,2.77,2.3,9.617,9.617,0,0,1,.343,7.625c-3.8,10.926-23.446,20.463-24.281,20.864Zm-7.266-36.387a4.593,4.593,0,0,0-2.825.969,8.952,8.952,0,0,0-3.6,6.534c-1.028,10.574,12.21,26.169,13.858,28.064,2.234-1.111,20.223-10.322,23.714-20.371a8.973,8.973,0,0,0-.312-7.113,3.643,3.643,0,0,0-2.363-1.953c-5.188-1.556-15.418,4.435-15.521,4.5l-.279.165-.172-.274c-.059-.094-5.978-9.407-11.548-10.427A5.273,5.273,0,0,0,1664.057,543.071Z" transform="translate(-1240.126 -246.102)" fill="#0a3f64"/>
    <path id="Trazado_66948" data-name="Trazado 66948" d="M1425.791,347.09a4.586,4.586,0,0,0-8.249-1.916l-5.2,7.271a4.591,4.591,0,0,0,1.064,6.4,4.539,4.539,0,0,0,2.651.852,4.676,4.676,0,0,0,.767-.064,4.553,4.553,0,0,0,2.979-1.851l5.2-7.271A4.553,4.553,0,0,0,1425.791,347.09Zm-6.528,10.3a3.92,3.92,0,0,1-6.377-4.559l2.406-3.364,6.376,4.559Zm5.2-7.27-2.406,3.364-6.377-4.559,2.406-3.364a3.891,3.891,0,0,1,2.547-1.582,4,4,0,0,1,.657-.054,3.922,3.922,0,0,1,3.174,6.2Z" transform="translate(-1049.225 -91.193)" fill="#0a3f64"/>
    <path id="Trazado_66949" data-name="Trazado 66949" d="M252.095,1008.136l1.295,25.652,17.112-5.935-14.287-21.1A2.255,2.255,0,0,0,252.095,1008.136Z" transform="translate(-147.362 -606.535)" fill="#d2ebfc"/>
    <path id="Trazado_66950" data-name="Trazado 66950" d="M251.912,1033.072l-1.317-26.1a2.588,2.588,0,0,1,4.728-1.582l14.531,21.455Zm1.291-28.15a2.013,2.013,0,0,0-.633.1,1.886,1.886,0,0,0-1.31,1.92l1.272,25.208,16.282-5.647-14.044-20.736A1.846,1.846,0,0,0,253.2,1004.922Z" transform="translate(-146.196 -605.358)" fill="#0a3f64"/>
    <path id="Trazado_66951" data-name="Trazado 66951" d="M314.577,1242.092h0a10.8,10.8,0,0,1-13.744-6.665l-44.677-128.821a10.8,10.8,0,0,1,6.665-13.743h0a10.8,10.8,0,0,1,13.744,6.665l44.677,128.821A10.8,10.8,0,0,1,314.577,1242.092Z" transform="translate(-150.059 -673.821)" fill="#d2ebfc"/>
    <path id="Trazado_66952" data-name="Trazado 66952" d="M309.87,1241.867a11.155,11.155,0,0,1-10.51-7.492l-44.677-128.821a11.134,11.134,0,1,1,21.039-7.3L320.4,1227.079a11.134,11.134,0,0,1-6.871,14.167h0A11.143,11.143,0,0,1,309.87,1241.867Zm-44.677-150.429a10.47,10.47,0,0,0-9.881,13.9l44.677,128.821a10.468,10.468,0,0,0,13.32,6.46h0a10.468,10.468,0,0,0,6.46-13.319l-44.677-128.821A10.487,10.487,0,0,0,265.193,1091.438Z" transform="translate(-148.899 -672.661)" fill="#0a3f64"/>
    <path id="Trazado_66953" data-name="Trazado 66953" d="M294.983,1116.031a.333.333,0,0,0-.424-.206l-3.883,1.347L289,1112.345l1.528-.53a.333.333,0,1,0-.218-.63l-1.528.53-1.674-4.827,3.887-1.348a.333.333,0,0,0-.218-.63l-3.887,1.348-1.674-4.827,1.528-.53a.333.333,0,1,0-.218-.63l-1.528.53-1.674-4.827,3.885-1.347a.333.333,0,1,0-.219-.63l-3.885,1.347-1.674-4.827,1.53-.531a.333.333,0,0,0-.218-.63l-1.53.531-1.674-4.827,3.889-1.349a.333.333,0,0,0-.219-.63l-3.889,1.349-1.674-4.827,1.53-.531a.333.333,0,1,0-.219-.629l-1.53.531-1.674-4.827,3.887-1.348a.333.333,0,0,0-.218-.63l-3.887,1.348-1.674-4.827,1.532-.532a.333.333,0,0,0-.218-.63l-1.533.531-1.674-4.827,3.891-1.349a.333.333,0,0,0-.218-.629l-3.891,1.349-1.674-4.827,1.532-.531a.333.333,0,1,0-.218-.63l-1.532.532-3.083-8.89a2.9,2.9,0,0,0,.679-2.991l-2.9-8.362a2.905,2.905,0,0,0-3.7-1.793h0a2.905,2.905,0,0,0-1.793,3.7l2.9,8.362a2.9,2.9,0,0,0,2.368,1.926l3.085,8.9-1.518.526a.333.333,0,0,0,.219.629l1.517-.526,1.674,4.827-3.883,1.346a.333.333,0,0,0,.109.648.328.328,0,0,0,.109-.018l3.883-1.346,1.674,4.827-1.518.526a.333.333,0,0,0,.218.63l1.518-.526,1.674,4.827-3.887,1.348a.333.333,0,0,0,.109.648.328.328,0,0,0,.109-.018l3.887-1.348,1.674,4.827-1.52.527a.333.333,0,0,0,.109.648.329.329,0,0,0,.109-.018l1.52-.527,1.674,4.827L273,1086.627a.333.333,0,1,0,.219.63l3.885-1.347,1.674,4.827-1.52.527a.333.333,0,1,0,.219.63l1.52-.527,1.674,4.827-3.889,1.349a.333.333,0,0,0,.109.648.337.337,0,0,0,.109-.019l3.889-1.349,1.674,4.827-1.522.528a.333.333,0,0,0,.109.648.325.325,0,0,0,.109-.019l1.522-.528,1.674,4.827-3.887,1.348a.333.333,0,0,0,.109.648.339.339,0,0,0,.109-.018l3.887-1.348,1.674,4.827-1.522.528a.333.333,0,0,0,.109.648.327.327,0,0,0,.109-.018l1.522-.528,1.674,4.827-3.891,1.35a.333.333,0,0,0,.109.648.339.339,0,0,0,.109-.018l3.891-1.35,1.674,4.827-1.512.525a.333.333,0,0,0,.109.648.329.329,0,0,0,.109-.018l1.512-.524,1.249,3.6,2.44-.846-1.249-3.6,1.538-.533a.333.333,0,0,0-.219-.63l-1.537.533-1.674-4.827,3.883-1.347A.333.333,0,0,0,294.983,1116.031Z" transform="translate(-152.663 -629.242)" fill="#0a3f64"/>
    <path id="Trazado_66954" data-name="Trazado 66954" d="M405.171,1424.2a.333.333,0,0,0-.424-.206l-4.028,1.4-1.674-4.827,1.674-.58a.333.333,0,0,0-.219-.63l-1.674.58-1.674-4.827,4.033-1.4a.333.333,0,1,0-.219-.629l-4.033,1.4-1.674-4.827,1.674-.58a.333.333,0,0,0-.218-.63l-1.674.58-1.674-4.827,4.029-1.4a.333.333,0,1,0-.219-.629l-4.029,1.4-1.674-4.827,1.674-.581a.333.333,0,1,0-.218-.63l-1.674.581-1.674-4.827,4.033-1.4a.333.333,0,0,0-.219-.63l-4.033,1.4-1.674-4.827,1.674-.581a.333.333,0,0,0-.218-.63l-1.674.581-1.674-4.827,4.023-1.4a.333.333,0,0,0-.219-.63l-4.023,1.4-1.674-4.827,1.669-.579a.333.333,0,1,0-.218-.629l-1.669.578-1.674-4.827,4.028-1.4a.333.333,0,1,0-.219-.63l-4.028,1.4-8.17-23.559-.109-.315-2.169.752,8.28,23.873-4.017,1.394a.333.333,0,0,0,.219.629l4.017-1.393,1.674,4.827-1.652.573a.333.333,0,0,0,.219.629l1.652-.573,1.674,4.827-4.022,1.395a.333.333,0,0,0,.109.648.337.337,0,0,0,.109-.018l4.022-1.395,1.674,4.827-1.647.571a.333.333,0,0,0,.109.648.33.33,0,0,0,.109-.019l1.647-.571,1.674,4.827-4.012,1.391a.333.333,0,0,0,.219.63l4.012-1.391,1.674,4.827-1.647.571a.333.333,0,0,0,.109.648.329.329,0,0,0,.109-.018l1.647-.571,1.674,4.827-4.017,1.393a.333.333,0,0,0,.219.63l4.016-1.393,1.674,4.827-1.647.571a.333.333,0,0,0,.109.648.329.329,0,0,0,.109-.018l1.647-.571,1.674,4.827-4.012,1.392a.333.333,0,0,0,.219.629l4.012-1.392,1.674,4.827-1.647.571a.333.333,0,0,0,.219.629l1.647-.571,1.674,4.827-4.017,1.393a.333.333,0,0,0,.109.648.326.326,0,0,0,.109-.019l4.016-1.393.424,1.224.109.315,2.169-.752-.534-1.539,4.029-1.4A.333.333,0,0,0,405.171,1424.2Zm-32.977-76.084.909-.315,8.061,23.244-.909.315Zm8.28,23.873.909-.316,1.674,4.827-.909.315Zm1.892,5.457.909-.315,1.674,4.827-.909.315Zm1.893,5.456.909-.315,1.674,4.827-.909.315Zm1.892,5.456.909-.315,1.674,4.827-.909.316Zm1.892,5.457.909-.315,1.674,4.827-.909.316Zm1.893,5.456.909-.315,1.674,4.827-.909.315Zm1.892,5.457.909-.315,1.674,4.827-.91.315Zm1.892,5.456.909-.315,1.674,4.827-.91.316Zm1.893,5.457.909-.315,1.674,4.827-.909.315Zm1.892,5.456.909-.315,1.674,4.827-.91.315Zm3.117,6.051-.909.315-.315-.909.91-.315Z" transform="translate(-240.127 -871.935)" fill="#0a3f64"/>
    <path id="Trazado_66955" data-name="Trazado 66955" d="M1038.658,1662.021h0a8.222,8.222,0,0,1-2.734-11.267l8.967-14.713a8.222,8.222,0,0,1,11.267-2.734h0a8.222,8.222,0,0,1,2.734,11.267l-8.967,14.713A8.223,8.223,0,0,1,1038.658,1662.021Z" transform="translate(-756.157 -1093.756)" fill="#62c1c6"/>
    <path id="Trazado_66956" data-name="Trazado 66956" d="M1059,1637.114a8.522,8.522,0,0,0-15.566-2.431l-8.967,14.713a8.532,8.532,0,0,0,14.57,8.88l8.967-14.713A8.47,8.47,0,0,0,1059,1637.114Zm-10.532,20.816a7.865,7.865,0,0,1-13.432-8.187l4.31-7.072,13.432,8.186Zm8.967-14.713-4.31,7.072-13.432-8.187,4.31-7.072a7.865,7.865,0,0,1,13.432,8.187Z" transform="translate(-754.982 -1092.573)" fill="#0a3f64"/>
    <path id="Trazado_66957" data-name="Trazado 66957" d="M1050.695,1697.316s-2.245,4.317-4.976,4.857-6.641,1.146-9.934-3.411,1.132-10.344,1.132-10.344l3.361-5.516,14,8.533Z" transform="translate(-756.027 -1133.262)" fill="#0a3f64"/>
    <path id="Trazado_66958" data-name="Trazado 66958" d="M1162.742,1432.821v-18.489h42.688v18.489c6.729.707,11.986,6.737,11.986,14.073v46.953h-66.659v-46.953C1150.757,1439.558,1156.044,1433.447,1162.742,1432.821Z" transform="translate(-846.408 -924.349)" fill="#d2ebfc"/>
    <path id="Trazado_66959" data-name="Trazado 66959" d="M1150.756,1615.729h36.271l.4-28.986h-36.676Z" transform="translate(-846.407 -1058.463)" fill="#fff"/>
    <path id="Trazado_66960" data-name="Trazado 66960" d="M1204.6,1431.358v-18.526h-43.354v18.522c-6.745.8-11.985,7.047-11.985,14.372v47.286h67.325v-47.286C1216.582,1438.358,1211.45,1432.236,1204.6,1431.358Zm-14.844-17.859h3.607v17.822h-3.607Zm-4.008,0h3.342v17.822h-3.342Zm-4.379,0h3.712v17.822h-3.712Zm-4.739,0h4.072v17.822h-4.072Zm-4.887,0h4.22v17.822h-4.22Zm-5.109,0h4.443v17.822h-4.443Zm-4.723,0h4.057v17.822h-4.057Zm-11.985,38.3h36l-.4,28.32h-35.609Zm65.992,40.55h-65.992v-11.564h36.266l.414-29.653h-36.68v-5.4c0-7.089,5.125-13.121,11.67-13.739h33.929v-.667h-1.495V1413.5h9.9v18.456l.3.032c6.663.7,11.687,6.607,11.687,13.741Z" transform="translate(-845.241 -923.183)" fill="#0a3f64"/>
    <path id="Trazado_66961" data-name="Trazado 66961" d="M1341.077,1702.11l.013,6.977h9.667l.806-6.62Z" transform="translate(-994.453 -1148.204)" fill="#fff"/>
    <path id="Trazado_66962" data-name="Trazado 66962" d="M1349.882,1708.214h-10.294l-.014-7.655,11.194.381Zm-9.629-.666h9.039l.727-5.966-9.777-.333Z" transform="translate(-993.283 -1146.997)" fill="#0a3f64"/>
    <path id="Trazado_66963" data-name="Trazado 66963" d="M1452.64,1338.032v13.61l-11.884-.727,1.718-12.332Z" transform="translate(-1071.99 -864.998)" fill="#8daec4"/>
    <path id="Trazado_66964" data-name="Trazado 66964" d="M1288.136,1731.624s-13.97,4.434-14.452,8.088h25.05v-8.088Z" transform="translate(-942.03 -1171.161)" fill="#fdd44e"/>
    <path id="Trazado_66965" data-name="Trazado 66965" d="M1516.5,1702.263l.264,7.058h9.667l.458-7.211Z" transform="translate(-1130.906 -1148.204)" fill="#fff"/>
    <path id="Trazado_66966" data-name="Trazado 66966" d="M1525.529,1708.469h-10.3l-.289-7.72,11.089-.162Zm-9.658-.666h9.032l.416-6.539-9.687.142Z" transform="translate(-1129.696 -1147.019)" fill="#0a3f64"/>
    <path id="Trazado_66967" data-name="Trazado 66967" d="M1464.686,1732.674s-13.971,4.435-14.452,8.088h25.051v-8.088Z" transform="translate(-1079.363 -1171.978)" fill="#fdd44e"/>
    <path id="Trazado_66968" data-name="Trazado 66968" d="M1446.129,1761.783v2.1h26.616v-2.4Z" transform="translate(-1076.169 -1194.387)" fill="#0a3f64"/>
    <path id="Trazado_66969" data-name="Trazado 66969" d="M1296.776,1760.594v2.24H1270.16v-2.4Z" transform="translate(-939.288 -1193.57)" fill="#0a3f64"/>
    <path id="Trazado_66970" data-name="Trazado 66970" d="M1492.987,1738.658a.342.342,0,0,1-.1-.014l-4.829-1.445a.333.333,0,0,1,.191-.639l4.83,1.445a.333.333,0,0,1-.1.652Z" transform="translate(-1108.603 -1174.99)" fill="#0a3f64"/>
    <path id="Trazado_66971" data-name="Trazado 66971" d="M1450.342,896.934l-.6-.289c.048-.1,4.795-10.1,2.3-15.074a4.867,4.867,0,0,0-3.613-2.6h-10c-.057,0-7.6.484-7.7,5.005a48.592,48.592,0,0,0,.886,9.269l-.653.134a49.37,49.37,0,0,1-.9-9.418c.117-5.136,8.013-5.637,8.349-5.656H1448.5l.032.006a5.511,5.511,0,0,1,4.112,2.964C1455.278,886.543,1450.545,896.513,1450.342,896.934Z" transform="translate(-1063.663 -507.388)" fill="#f7a705"/>
    <path id="Trazado_66972" data-name="Trazado 66972" d="M1482.117,1745.164a.338.338,0,0,1-.1-.014l-4.83-1.445a.333.333,0,0,1,.191-.639l4.83,1.445a.333.333,0,0,1-.1.653Z" transform="translate(-1100.147 -1180.051)" fill="#0a3f64"/>
    <path id="Trazado_66973" data-name="Trazado 66973" d="M1467.051,1751.67a.337.337,0,0,1-.1-.014l-4.83-1.445a.333.333,0,0,1,.191-.639l4.83,1.445a.333.333,0,0,1-.1.652Z" transform="translate(-1088.428 -1185.112)" fill="#0a3f64"/>
    <path id="Trazado_66974" data-name="Trazado 66974" d="M1319.53,1735.393a.341.341,0,0,1-.1-.014l-4.829-1.445a.333.333,0,1,1,.191-.639l4.829,1.445a.333.333,0,0,1-.1.652Z" transform="translate(-973.675 -1172.451)" fill="#0a3f64"/>
    <path id="Trazado_66975" data-name="Trazado 66975" d="M1308.658,1741.9a.337.337,0,0,1-.1-.014l-4.83-1.445a.333.333,0,0,1,.191-.639l4.83,1.445a.333.333,0,0,1-.1.653Z" transform="translate(-965.218 -1177.512)" fill="#0a3f64"/>
    <path id="Trazado_66976" data-name="Trazado 66976" d="M1293.593,1748.406a.34.34,0,0,1-.1-.014l-4.829-1.445a.333.333,0,0,1,.191-.639l4.83,1.445a.333.333,0,0,1-.1.653Z" transform="translate(-953.5 -1182.574)" fill="#0a3f64"/>
    <path id="Trazado_66977" data-name="Trazado 66977" d="M1384.968,1153.432l-.387,36.3-.229,21.633-.7,65.377h-15.385l-6.882-66.685-1.035-10.034-1.993,9.871-13.488,66.848h-14.809l6.1-66.848v0l2.814-30.852,1.639-17.953,20.782-3.59,8.046-1.39Z" transform="translate(-985.888 -721.403)" fill="#0a3f64"/>
    <path id="Trazado_66978" data-name="Trazado 66978" d="M1437.738,848.057s1.088,11.429.174,12.693-6.192,3.593-6.192,3.593l8.848,26.016,18.9-1.826,1.225-19.343s-8.625-7.026-9.145-8.469c-.72-2-.722-12.664-.722-12.664Z" transform="translate(-1064.961 -483.861)" fill="#fff"/>
    <path id="Trazado_66979" data-name="Trazado 66979" d="M1438.889,889.548l-9.031-26.554.279-.123c1.445-.638,5.35-2.507,6.056-3.483.613-.847.181-8.1-.235-12.466a.333.333,0,0,1,.663-.063c.184,1.929,1.052,11.62.112,12.92-.848,1.172-4.864,3.043-6.048,3.578l8.666,25.479,18.35-1.774,1.2-18.888c-1.349-1.1-8.6-7.076-9.115-8.506-.731-2.028-.742-12.339-.742-12.777a.333.333,0,0,1,.666,0c0,.106.01,10.632.7,12.551.359.995,5.6,5.523,9.042,8.323l.133.108-1.254,19.8Z" transform="translate(-1063.512 -482.693)" fill="#0a3f64"/>
    <path id="Trazado_66980" data-name="Trazado 66980" d="M1164.047,940.727c2.89,1.632,14.366,13.767,14.366,13.767l-8.236,3.933s-6.68-12.479-7.863-12.638c-2.222-.3-8.939-.1-11.108-1.55-3.28-2.2-4.975-5-4.584-5.867.211-.47,5.9,2.939,7.145,2.972C1157.292,941.436,1161.987,939.564,1164.047,940.727Z" transform="translate(-843.149 -554.08)" fill="#fff"/>
    <path id="Trazado_66981" data-name="Trazado 66981" d="M1168.876,957.7l-.15-.28c-3.16-5.9-6.879-12.181-7.633-12.469-.578-.076-1.526-.12-2.624-.171-2.936-.137-6.958-.324-8.606-1.428-3.31-2.217-5.213-5.144-4.7-6.28a.4.4,0,0,1,.234-.213c.355-.127,1,.153,3.376,1.335a18.99,18.99,0,0,0,3.849,1.653,24.124,24.124,0,0,0,4.551-.52c2.343-.413,4.556-.8,5.883-.054h0c2.9,1.638,13.974,13.332,14.444,13.828l.314.332Zm-23.137-20.17c.019.831,1.463,3.236,4.5,5.268,1.493,1,5.408,1.183,8.266,1.316,1.113.052,2.074.1,2.7.181.292.039.9.121,4.619,6.542,1.487,2.569,2.891,5.152,3.343,5.989l7.535-3.6c-1.864-1.958-11.423-11.935-13.972-13.374-1.12-.632-3.218-.262-5.44.13a24.564,24.564,0,0,1-4.684.53,15.873,15.873,0,0,1-4.128-1.722A28.016,28.016,0,0,0,1145.739,937.53Z" transform="translate(-841.992 -552.915)" fill="#0a3f64"/>
    <path id="Trazado_66982" data-name="Trazado 66982" d="M1392.634,905.055c-5.711,2.084-4.332,32.584-4.332,32.584-.932,3.587-3.128,22.79-3.128,22.79l40.028,7.978,4.72-23.968s2.955-40.353-12.728-42.716c-1.505-.227-6.1,1.923-11.019,1.448-2.132-.206-3.218,2.338-4.278-1.4C1401.9,901.776,1393.877,904.6,1392.634,905.055Z" transform="translate(-1028.755 -525.593)" fill="#fdd44e"/>
    <path id="Trazado_66983" data-name="Trazado 66983" d="M1406.568,1193.5l-.524,20.28-.322-.018-22.961-1.308-1.035-10.034-1.993,9.871h-22.195v0l2.814-30.851,8.241-14.825,14.181-6.717,7.148-3.385.9,1.995,15.131,33.624Z" transform="translate(-1007.256 -723.798)" fill="#091a33"/>
    <path id="Trazado_66984" data-name="Trazado 66984" d="M1280.557,944.2l-3.8-39.164c-2.618,0-13.807,7.041-13.807,7.041-.177-.362-9.547,16.75-12.131,23.121-.3.735-13.829-14.115-13.752-13.237,0,0-7.985,2.433-7.927,3.827s12.4,25.153,21.5,29.448c1.687.8,11.282-5.338,11.783-14.461l-1.237,22.5-4.11,49.908,20.071.032,2.921-46.5Z" transform="translate(-907.38 -528.18)" fill="#62c1c6"/>
    <path id="Trazado_66985" data-name="Trazado 66985" d="M1472.688,898.369l-14.565,41.478c-.038,3.306-.77,16.585,0,30.632,1.043,19.079,3.682,39.578,3.682,38.437,0-.462,24.492,1.081,24.492,1.081l1.179-39.155s9.279-6.42,9.279-24.6c0-20.37-1.112-27.291-3.822-37.511C1492.539,907.256,1478.019,898.369,1472.688,898.369Z" transform="translate(-1085.226 -522.997)" fill="#62c1c6"/>
    <path id="Trazado_66986" data-name="Trazado 66986" d="M1455.7,748.465c-2.379-.051-8.155-.25-8.694,3.948a109.5,109.5,0,0,0-.53,14.352,2.627,2.627,0,0,0,2.292,2.556l14.457,1.855a2.629,2.629,0,0,0,2.886-1.981c1.077-4.374,3.273-13.645,2.929-15.129C1467.87,749.014,1459.469,748.546,1455.7,748.465Z" transform="translate(-1076.417 -406.377)" fill="#0a3f64"/>
    <path id="Trazado_66987" data-name="Trazado 66987" d="M1462.816,784.169c.885-.711,1.609-3.88,2.168-7.529a.307.307,0,0,1,.181-.235,4.3,4.3,0,0,0,2.744-3.3c.168-1.578-1.012-1.393-1.97-1a.243.243,0,0,1-.328-.263c.5-4.423.749-8.324.749-8.324l-17.18-2.2s-.471,3.94-.873,8.376c-.018.2-.647,10.82-.357,11.826a2.963,2.963,0,0,0,1.067,1.459s.987,1.043,7.23,1.844Z" transform="translate(-1077.526 -416.386)" fill="#fff"/>
    <path id="Trazado_66988" data-name="Trazado 66988" d="M1455.092,783.844a.306.306,0,0,1-.043,0c-5.9-.757-7.205-1.735-7.408-1.924a3.275,3.275,0,0,1-1.167-1.618c-.315-1.092.336-11.848.345-11.948.4-4.389.869-8.346.874-8.385l.04-.334,17.823,2.287-.02.312c0,.039-.255,3.877-.735,8.2a1.934,1.934,0,0,1,1.851-.016,1.465,1.465,0,0,1,.432,1.418,4.636,4.636,0,0,1-2.928,3.563c-.692,4.517-1.439,7.043-2.286,7.724a.333.333,0,0,1-.417-.519c.395-.317,1.186-1.691,2.047-7.319a.637.637,0,0,1,.377-.49,4,4,0,0,0,2.545-3.028c.031-.291.026-.667-.17-.815-.215-.161-.7-.1-1.343.157a.564.564,0,0,1-.558-.073.583.583,0,0,1-.228-.536c.41-3.654.656-6.985.727-8l-16.535-2.121c-.121,1.043-.5,4.388-.833,8.032-.035.416-.631,10.793-.368,11.7a2.636,2.636,0,0,0,.954,1.291l.034.032s1.119.984,7.031,1.743a.333.333,0,0,1-.042.664Z" transform="translate(-1076.37 -415.078)" fill="#0a3f64"/>
    <path id="Trazado_66989" data-name="Trazado 66989" d="M1494.919,808l-.044,0a.555.555,0,0,1-.511-.6l.028-.357a.555.555,0,1,1,1.107.086l-.028.357A.555.555,0,0,1,1494.919,808Z" transform="translate(-1113.689 -451.561)" fill="#0a3f64"/>
    <path id="Trazado_66990" data-name="Trazado 66990" d="M1460.941,804.479a.545.545,0,0,1-.066,0,.555.555,0,0,1-.486-.617l.05-.419a.555.555,0,1,1,1.1.131l-.05.419A.555.555,0,0,1,1460.941,804.479Z" transform="translate(-1087.259 -448.772)" fill="#0a3f64"/>
    <path id="Trazado_66991" data-name="Trazado 66991" d="M1494.822,797.156a.332.332,0,0,1-.162-.042,3.851,3.851,0,0,0-2.722-.311.333.333,0,0,1-.2-.637,4.463,4.463,0,0,1,3.242.366.333.333,0,0,1-.162.624Z" transform="translate(-1111.467 -443.377)" fill="#0a3f64"/>
    <path id="Trazado_66992" data-name="Trazado 66992" d="M1461.468,801.47a.338.338,0,0,1-.111-.019c-.25-.088-1.5-.566-1.54-1.327-.031-.566.044-.7.969-2.4.2-.365.439-.805.729-1.343a4.79,4.79,0,0,0,.427-1.755c0-.023-.062-.14-.321-.3a4.584,4.584,0,0,0-3.51-.322.333.333,0,1,1-.266-.611,5.248,5.248,0,0,1,4.127.367,1.11,1.11,0,0,1,.634.814,5.527,5.527,0,0,1-.488,2.084l-.011.023c-.293.544-.536.989-.737,1.357-.884,1.622-.909,1.679-.889,2.046.011.2.6.56,1.1.735a.333.333,0,0,1-.111.648Z" transform="translate(-1085.128 -441.13)" fill="#0a3f64"/>
    <path id="Trazado_66993" data-name="Trazado 66993" d="M1513.212,1203.291a.332.332,0,0,1-.2-.068l-11.05-8.394a.333.333,0,0,1,.4-.531l11.05,8.394a.333.333,0,0,1-.2.6Z" transform="translate(-1119.497 -753.139)" fill="#0a3f64"/>
    <path id="Trazado_66994" data-name="Trazado 66994" d="M1376.794,1202.666a.333.333,0,0,1-.151-.63l11.889-6.035a.333.333,0,0,1,.3.594l-11.889,6.035A.333.333,0,0,1,1376.794,1202.666Z" transform="translate(-1021.976 -754.488)" fill="#0a3f64"/>
    <path id="Trazado_66995" data-name="Trazado 66995" d="M1416.989,899.8l-7.984,8.82,6.471,2.6-3.72,9.765,8.553,17.963a.066.066,0,0,0,.125-.035Z" transform="translate(-1047.292 -524.109)" fill="#fff"/>
    <path id="Trazado_66996" data-name="Trazado 66996" d="M1418.379,936.554a.4.4,0,0,1-.36-.228l-8.615-18.092,3.655-9.592-6.611-2.656,8.817-9.74,3.512,39.873a.4.4,0,0,1-.4.435Zm-.266-.377v0Zm-7.985-17.971,7.854,16.495-3.248-36.876-7.151,7.9,6.331,2.544Z" transform="translate(-1045.303 -521.345)" fill="#0a3f64"/>
    <path id="Trazado_66997" data-name="Trazado 66997" d="M1475.768,898.369l7.716,11.7-8.7.757,1.955,10.357-14.77,16.456a.133.133,0,0,1-.223-.136Z" transform="translate(-1088.306 -522.997)" fill="#fff"/>
    <path id="Trazado_66998" data-name="Trazado 66998" d="M1460.7,935.424a.47.47,0,0,1-.245-.07.46.46,0,0,1-.192-.564l14.249-39.751,8.391,12.721-8.9.774,1.917,10.156-14.88,16.579A.464.464,0,0,1,1460.7,935.424Zm.19-.41,0,.007Zm13.8-38.5-13.458,37.544,13.978-15.573-1.992-10.556,8.514-.741Z" transform="translate(-1087.138 -520.406)" fill="#0a3f64"/>
    <path id="Trazado_66999" data-name="Trazado 66999" d="M1484.524,1147.244h-.016l-23.7-1.09-.084-.188c-2.075-4.666-3.873-42.706-3.949-44.323l.485-26.935a.337.337,0,0,1,.339-.327.333.333,0,0,1,.327.339l-.485,26.913c.018.369,1.821,38.532,3.815,43.875l23.283,1.071a.333.333,0,0,1-.015.666Z" transform="translate(-1084.451 -659.911)" fill="#0a3f64"/>
    <path id="Trazado_67000" data-name="Trazado 67000" d="M1470.613,1144.836a.98.98,0,1,0,.98-.98A.98.98,0,0,0,1470.613,1144.836Z" transform="translate(-1095.215 -713.954)" fill="#fff"/>
    <path id="Trazado_67001" data-name="Trazado 67001" d="M1470.426,1144.983a1.313,1.313,0,1,1,1.314-1.313A1.315,1.315,0,0,1,1470.426,1144.983Zm0-1.961a.647.647,0,1,0,.647.647A.648.648,0,0,0,1470.426,1143.022Z" transform="translate(-1094.048 -712.787)" fill="#0a3f64"/>
    <path id="Trazado_67002" data-name="Trazado 67002" d="M1372.839,1109.836H1353.28l.027-.358,6-80.3a.333.333,0,1,1,.665.05L1354,1109.17h18.841a.333.333,0,1,1,0,.666Z" transform="translate(-1003.945 -624.506)" fill="#0a3f64"/>
    <path id="Trazado_67003" data-name="Trazado 67003" d="M1493.953,894.359l-4.639-3.616-9.594,3.9,3.077,3.671Z" transform="translate(-1102.298 -517.065)" fill="#fdd44e"/>
    <path id="Trazado_67004" data-name="Trazado 67004" d="M1480.766,897.371l-3.519-4.2,10.2-4.145,5.271,4.108Zm-2.421-3.926,2.635,3.144,10.366-3.675-4.008-3.124Z" transform="translate(-1100.375 -515.73)" fill="#0a3f64"/>
    <path id="Trazado_67005" data-name="Trazado 67005" d="M1432.016,896.871l3.236-3.429,7.36,3.3-2.775,3.385Z" transform="translate(-1065.191 -519.164)" fill="#fdd44e"/>
    <path id="Trazado_67006" data-name="Trazado 67006" d="M1437.93,899.127l-8.5-3.538,3.729-3.952,7.974,3.576Zm-7.349-3.782,7.147,2.976,2.342-2.857-6.746-3.025Z" transform="translate(-1063.184 -517.76)" fill="#0a3f64"/>
    <path id="Trazado_67007" data-name="Trazado 67007" d="M1464.242,911.973l-3.077-3.671-3.059,3.671,1.337,1.576-3.576,19.575,1.312,12.1,4.958-13.832-.128-17.545Z" transform="translate(-1083.745 -530.723)" fill="#0a3f64"/>
    <rect id="Rectángulo_25695" data-name="Rectángulo 25695" width="16.817" height="4.776" transform="translate(342.884 551.338)" fill="#0a3f64"/>
    <rect id="Rectángulo_25696" data-name="Rectángulo 25696" width="16.818" height="4.776" transform="translate(381.969 550.567)" fill="#0a3f64"/>
    <path id="Trazado_67008" data-name="Trazado 67008" d="M1397.417,1514.395a.354.354,0,0,1-.066-.006.334.334,0,0,1-.261-.393l7.478-37.062c-1.582.374-5.994,1.3-7.456.36a1.121,1.121,0,0,1-.526-.75,1,1,0,0,1,.206-.789c.82-1.088,4.066-1.654,5.655-1.87-1.381-1.067-1.989-1.835-1.81-2.286s.813-.359,1.022-.332a8.011,8.011,0,0,1,3.7,1.673l1.829-9.01a.333.333,0,1,1,.653.133l-2.061,10.154-.437-.417a7.764,7.764,0,0,0-3.775-1.873c-.11-.015-.194-.013-.248-.019a10.737,10.737,0,0,0,2.186,1.935l.714.512-.874.09c-1.429.147-5.3.741-6.025,1.709a.328.328,0,0,0-.083.27.446.446,0,0,0,.23.307c1.227.787,5.789-.145,7.444-.571l.514-.132-7.687,38.1A.334.334,0,0,1,1397.417,1514.395Z" transform="translate(-1037.62 -962.723)" fill="#a1c5e2"/>
    <path id="Trazado_67009" data-name="Trazado 67009" d="M1544.066,1506.12h0a.333.333,0,0,1-.332-.335l.178-37.809c-1.48.672-5.63,2.432-7.247,1.793a1.121,1.121,0,0,1-.661-.634,1,1,0,0,1,.05-.814c.594-1.226,3.67-2.408,5.188-2.927-1.561-.781-2.306-1.416-2.218-1.894s.728-.51.939-.523a7.981,7.981,0,0,1,3.956.927l.054-9.194a.333.333,0,1,1,.666,0l-.061,10.361-.509-.325a7.756,7.756,0,0,0-4.066-1.108,1.89,1.89,0,0,0-.247.029,10.755,10.755,0,0,0,2.519,1.477l.8.365-.84.257c-1.373.421-5.053,1.75-5.581,2.841a.33.33,0,0,0-.029.281.446.446,0,0,0,.285.257c1.357.536,5.652-1.261,7.193-2l.48-.229-.183,38.865A.333.333,0,0,1,1544.066,1506.12Z" transform="translate(-1146.03 -955.502)" fill="#a1c5e2"/>
    <path id="Trazado_67010" data-name="Trazado 67010" d="M1447.714,734.7s-17.274,1.348-22.923-3.176c-3.224-2.581.773-8.493,3.73-8.867,2.225-.281,4.552,3.064,6.892,3.336,1.8.209,6.035,1.074,8.358,1.543C1448.481,728.492,1450.151,732.6,1447.714,734.7Z" transform="translate(-1058.641 -386.307)" fill="#0a3f64"/>
    <path id="Trazado_67011" data-name="Trazado 67011" d="M1516.922,1189.363l-20.8,9.209,7.086,14.481,20.454-9.272Z" transform="translate(-1115.058 -749.353)" fill="#fff"/>
    <path id="Trazado_67012" data-name="Trazado 67012" d="M1501.472,1211.96l-7.38-15.082,21.414-9.481,7.021,15.018Zm-6.477-14.753,6.791,13.879,19.852-9-6.459-13.816Z" transform="translate(-1113.479 -747.823)" fill="#0a3f64"/>
    <path id="Trazado_67013" data-name="Trazado 67013" d="M1546.875,1118.925a34.884,34.884,0,0,1-4.729,12.171c-.9,1.281-3.9,5.942-4.228,7.129-.2.719,3.422-1.047,3.588-1.089l.222,1.356s.718.693,1.352.423c.543-.231.813-1.089,1.337-1.218a7.239,7.239,0,0,0,1.4.064c.444-.11.783-1,1.106-1.276.238-.2,1.094.151,1.477-.1.612-.4.378-1.257.806-1.552.4-.278,1.019.305,1.7-.213.669-.507-2.125-4.492-2.073-5.4.186-3.167,12.994-20.817,6.653-32.945C1552.647,1090.841,1548.219,1107.249,1546.875,1118.925Z" transform="translate(-1147.564 -676.11)" fill="#fff"/>
    <path id="Trazado_67014" data-name="Trazado 67014" d="M1541.606,1138.14a2.113,2.113,0,0,1-1.273-.579l-.079-.077-.171-1.043-.006,0c-2.608,1.17-3.211,1.253-3.513.995a.449.449,0,0,1-.131-.472c.35-1.288,3.5-6.132,4.276-7.232a34.534,34.534,0,0,0,4.671-12.018l.331.038-.331-.038c1.087-9.44,4.381-23.417,7.494-23.994.666-.125,1.256.29,1.748,1.231,4.832,9.241-1.326,21.742-4.634,28.457a20.978,20.978,0,0,0-1.981,4.662,9.408,9.408,0,0,0,.968,2.171c1.009,1.923,1.552,3.032.974,3.471a1.572,1.572,0,0,1-1.345.237c-.16-.029-.312-.056-.371-.015-.088.06-.132.252-.179.454a1.294,1.294,0,0,1-1.7,1.217,2.186,2.186,0,0,0-.4-.022,2.875,2.875,0,0,0-.3.421c-.243.378-.518.806-.919.906a4.526,4.526,0,0,1-1.3-.036l-.135-.015a1.554,1.554,0,0,0-.463.468,2.121,2.121,0,0,1-.786.721A1.114,1.114,0,0,1,1541.606,1138.14Zm-.733-.992c.171.137.589.428.912.29a1.655,1.655,0,0,0,.52-.516,1.7,1.7,0,0,1,.867-.72.883.883,0,0,1,.334.013,5.078,5.078,0,0,0,1.066.051c.144-.036.379-.4.519-.619a2.662,2.662,0,0,1,.453-.588,1.151,1.151,0,0,1,.878-.113,1.424,1.424,0,0,0,.63-.01,1.021,1.021,0,0,0,.349-.695,1.294,1.294,0,0,1,.451-.853,1.087,1.087,0,0,1,.865-.092.945.945,0,0,0,.8-.092,9.575,9.575,0,0,0-1.133-2.65,7.018,7.018,0,0,1-1.043-2.52c.05-.86.888-2.562,2.049-4.917,3.255-6.61,9.316-18.913,4.641-27.854-.341-.651-.687-.948-1.036-.885-1.08.2-2.556,3.226-3.948,8.094a101.492,101.492,0,0,0-3.005,15.321,35.417,35.417,0,0,1-4.788,12.325,60.326,60.326,0,0,0-4.08,6.748,17.238,17.238,0,0,0,2.63-1.03,3.794,3.794,0,0,1,.456-.193l.352-.089Z" transform="translate(-1146.398 -674.939)" fill="#0a3f64"/>
    <path id="Trazado_67015" data-name="Trazado 67015" d="M1559.219,1048.335a28.566,28.566,0,0,0,11.368-19.777c1.628-13.475-4.231-36-4.231-36l-11.76,11.58s2.663,18.281,1.774,22.463-7.2,21.737-7.2,21.737Z" transform="translate(-1156.319 -596.261)" fill="#62c1c6"/>
    <path id="Trazado_67016" data-name="Trazado 67016" d="M1557.7,1080.274h-10.486l.111-.418a91.009,91.009,0,0,1,3.708-10.633c1.789-4.495,3.334-8.376,3.645-12.517a56.589,56.589,0,0,0-3.283-23.059.333.333,0,0,1,.616-.253,57.341,57.341,0,0,1,3.331,23.362c-.319,4.243-1.956,8.358-3.69,12.714a93.112,93.112,0,0,0-3.57,10.139h9.618a.333.333,0,1,1,0,.666Z" transform="translate(-1154.803 -627.867)" fill="#0a3f64"/>
    <path id="Trazado_67017" data-name="Trazado 67017" d="M1510.7,1032.3v6.671l10.258.02V1032.3Z" transform="translate(-1126.394 -627.181)" fill="#fff"/>
    <path id="Trazado_67018" data-name="Trazado 67018" d="M1520.119,1038.163l-10.924-.022v-7.336h10.924Zm-10.258-.687,9.591.019v-6.024h-9.591Z" transform="translate(-1125.227 -626.015)" fill="#0a3f64"/>
    <path id="Trazado_67019" data-name="Trazado 67019" d="M1528.948,1026.621h-4.19a1.623,1.623,0,0,1,1.623-1.623h.944a1.623,1.623,0,0,1,1.623,1.623Z" transform="translate(-1137.333 -621.498)" fill="#fff"/>
    <path id="Trazado_67020" data-name="Trazado 67020" d="M1528.115,1025.787h-4.857v-.333a1.958,1.958,0,0,1,1.956-1.956h.944a1.958,1.958,0,0,1,1.956,1.956Zm-4.147-.666h3.437a1.292,1.292,0,0,0-1.246-.957h-.944A1.292,1.292,0,0,0,1523.968,1025.121Z" transform="translate(-1136.166 -620.331)" fill="#0a3f64"/>
    <path id="Trazado_67021" data-name="Trazado 67021" d="M1525.143,1040.8H1518.7a.333.333,0,1,1,0-.666h6.442a.333.333,0,0,1,0,.666Z" transform="translate(-1132.362 -633.275)" fill="#0a3f64"/>
    <path id="Trazado_67022" data-name="Trazado 67022" d="M1527.348,1048.8h-4.314a.333.333,0,0,1,0-.666h4.314a.333.333,0,0,1,0,.666Z" transform="translate(-1135.733 -639.498)" fill="#0a3f64"/>
    <path id="Trazado_67023" data-name="Trazado 67023" d="M1513.924,963.978a2.448,2.448,0,1,1-2.448-2.448A2.448,2.448,0,0,1,1513.924,963.978Z" transform="translate(-1125.097 -572.128)" fill="#ebf4fe"/>
    <path id="Trazado_67024" data-name="Trazado 67024" d="M1510.309,965.592a2.781,2.781,0,1,1,2.781-2.781A2.784,2.784,0,0,1,1510.309,965.592Zm0-4.9a2.115,2.115,0,1,0,2.115,2.115A2.117,2.117,0,0,0,1510.309,960.7Z" transform="translate(-1123.93 -570.961)" fill="#f7a705"/>
    <path id="Trazado_67025" data-name="Trazado 67025" d="M1413.394,960.312l-.643-.174c.352-1.3.228-10.892-2.373-14.106a2.318,2.318,0,0,0-1.977-1.015,2.386,2.386,0,0,0-1.708.881c-2.635,2.977-2.047,12.136-2.041,12.228l-.665.045c-.027-.388-.612-9.529,2.206-12.715a3.059,3.059,0,0,1,2.171-1.105,2.976,2.976,0,0,1,2.531,1.261C1413.679,949.051,1413.772,958.914,1413.394,960.312Z" transform="translate(-1043.337 -558.762)" fill="#f7a705"/>
    <path id="Trazado_67026" data-name="Trazado 67026" d="M1441.981,1014.693a.747.747,0,1,1,.747-.747A.748.748,0,0,1,1441.981,1014.693Zm0-.828a.081.081,0,1,0,.081.081A.081.081,0,0,0,1441.981,1013.865Z" transform="translate(-1072.362 -612.32)" fill="#f7a705"/>
    <path id="Trazado_67027" data-name="Trazado 67027" d="M1402.82,1006.08a.747.747,0,1,1,.747-.747A.748.748,0,0,1,1402.82,1006.08Zm0-.828a.081.081,0,1,0,.081.081A.081.081,0,0,0,1402.82,1005.251Z" transform="translate(-1041.9 -605.619)" fill="#f7a705"/>
    <path id="Trazado_67028" data-name="Trazado 67028" d="M1423.219,894.525l-.634-.206a37.982,37.982,0,0,0,1.666-9.247c.045-1.966,1.152-4.488,6.176-5.339l.111.657c-3.673.622-5.565,2.2-5.621,4.7A38.719,38.719,0,0,1,1423.219,894.525Z" transform="translate(-1057.855 -508.5)" fill="#f7a705"/>
    <path id="Trazado_67029" data-name="Trazado 67029" d="M1519.3,899.924l-.6-.289c.064-.133,6.323-13.338.643-16.926l.356-.563C1525.874,886.049,1519.568,899.359,1519.3,899.924Z" transform="translate(-1132.617 -510.377)" fill="#f7a705"/>
    <path id="Trazado_67030" data-name="Trazado 67030" d="M1444.521,817.569s-1.755,7.26.323,9.134,10.912,2.9,12.5,2.193,4.382-8.911,4.382-8.911a21.189,21.189,0,0,1-5.481,1.32c-1.955-.013-6.8.058-9.012-1.31A12.192,12.192,0,0,1,1444.521,817.569Z" transform="translate(-1074.38 -460.145)" fill="#0a3f64"/>
    <path id="Trazado_67031" data-name="Trazado 67031" d="M1466.68,836.01c.116.526-1.437,2.113-2.771,1.874-2.177-.39-2.354-2.716-1.856-2.5a4.476,4.476,0,0,0,2.156,1.047C1465.625,836.644,1466.6,835.657,1466.68,836.01Z" transform="translate(-1088.377 -473.993)" fill="#fff"/>
    <path id="Trazado_67032" data-name="Trazado 67032" d="M540.774,1771.641H153.544a.333.333,0,0,1,0-.667h387.23a.333.333,0,0,1,0,.667Z" transform="translate(-70.446 -1201.771)" fill="#eb9a56"/>
    <path id="Trazado_67033" data-name="Trazado 67033" d="M524.55,986.9l.5-9.153h9.925l2.91,10.658Z" transform="translate(-359.3 -584.746)" fill="#fff"/>
    <path id="Trazado_67034" data-name="Trazado 67034" d="M329.6,1570.863l-7.5,32.367-10.376,9.5,17.255-2.892-.776-7.077,17.255-32.454Z" transform="translate(-193.748 -1045.677)" fill="#fff"/>
    <path id="Trazado_67035" data-name="Trazado 67035" d="M306.969,1612.008l11.131-10.191,7.537-32.515,16.687-.585-17.478,32.873.8,7.288Zm19.2-42.058-7.468,32.219-9.622,8.809,15.833-2.654-.753-6.866.048-.091,16.984-31.944Z" transform="translate(-190.05 -1044.441)" fill="#0a3f64"/>
    <path id="Trazado_67036" data-name="Trazado 67036" d="M566.147,1570.307l-1.687,32.923,10.376,9.5-17.255-2.892.776-7.077-4.4-32.454Z" transform="translate(-382.178 -1045.677)" fill="#fff"/>
    <path id="Trazado_67037" data-name="Trazado 67037" d="M574.557,1612.078l-18.676-3.13.805-7.349-4.442-32.792h12.917l-1.7,33.117Zm-17.945-3.684,15.833,2.654-9.661-8.846,1.677-32.73H553.008l4.35,32.117Z" transform="translate(-380.843 -1044.511)" fill="#0a3f64"/>
    <path id="Trazado_67038" data-name="Trazado 67038" d="M567.668,1724.712a19.412,19.412,0,0,0,1,10.1h1.583l.468-4.588,5.943,4.624,12.759-.032v-1.441s-4.449-3.061-4.928-2.082C583.018,1734.308,568.139,1721.227,567.668,1724.712Z" transform="translate(-392.671 -1165.322)" fill="#f7a705"/>
    <path id="Trazado_67039" data-name="Trazado 67039" d="M397.979,1252.077l-74.833-1.1s30.105-68.009,33.915-83.314a57.311,57.311,0,0,1,3.152-9.609c2.561-5.667,4.6-5.64,4.6-5.64l23.783.231s4.345,2.323,6.537,13.214c.069.347.138.7.2,1.064C397.453,1178.728,397.979,1252.077,397.979,1252.077Z" transform="translate(-202.634 -720.609)" fill="#fdd44e"/>
    <path id="Trazado_67040" data-name="Trazado 67040" d="M315.051,1724.712a19.426,19.426,0,0,1-1,10.1h-1.582l-.47-4.588-5.846,4.624-12.857-.032v-1.441s4.449-3.061,4.928-2.082C299.7,1734.308,314.58,1721.227,315.051,1724.712Z" transform="translate(-179.415 -1165.322)" fill="#f7a705"/>
    <path id="Trazado_67041" data-name="Trazado 67041" d="M457.767,812.674a14.41,14.41,0,0,1,9.692,6.935c3.443,6.049,2.969,7,1.291,10.735s-2.593,5.749-.085,8.108c1.608,1.512,1.1,4.958.052,6.079-1.5,1.6-4.188,4.887-3.766,6.69,1.526,6.507,5.884,8.67,5.884,8.67l-36.812.04s-9.626-3.866-3.855-15.469c.944-1.9,5.765-4.115,6.469-6.457.481-1.6-1.077-6.179.292-7.955,2.5-3.239,4.281-2.944,4.251-6.911C441.166,821.014,444.558,809.407,457.767,812.674Z" transform="translate(-284.451 -455.889)" fill="#0a3f64"/>
    <path id="Trazado_67042" data-name="Trazado 67042" d="M551.159,947.838s-9.175-3.455-11.994-3.6.093,3.6.093,3.6l10.15,4.541Z" transform="translate(-369.713 -558.677)" fill="#fff"/>
    <path id="Trazado_67043" data-name="Trazado 67043" d="M548.432,951.661l-10.546-4.719-.051-.066c-.311-.4-1.831-2.443-1.265-3.532.227-.437.714-.639,1.452-.6,2.838.142,11.718,3.476,12.095,3.618l.314.118ZM538.31,946.4l9.752,4.364,1.5-3.9c-1.632-.6-9.135-3.336-11.578-3.459-.31-.016-.707.014-.827.245C536.894,944.166,537.657,945.544,538.31,946.4Z" transform="translate(-368.553 -557.51)" fill="#0a3f64"/>
    <path id="Trazado_67044" data-name="Trazado 67044" d="M495.189,907.557s.472,11.612.029,12.223c-1.517,2.091-6.013,3.931-7.039,4.207s16.778,7.067,16.778,7.067l8.548-4.189-3.295-2.973a19.089,19.089,0,0,1-3.987-2.65c-1.217-1.257-1.809-13.071-1.809-13.071Z" transform="translate(-330.975 -530.144)" fill="#fff"/>
    <path id="Trazado_67045" data-name="Trazado 67045" d="M503.8,930.166l-.135-.052c-.042-.016-4.264-1.627-8.427-3.291-8.639-3.453-8.625-3.724-8.608-4.068a.375.375,0,0,1,.289-.341c1.164-.313,5.423-2.129,6.844-4.065.269-.7.094-7.737-.081-12.029l-.015-.371,9.892.659.015.3c.227,4.519.893,12.005,1.716,12.855a18.87,18.87,0,0,0,3.9,2.584l.04.02,3.694,3.333Zm-16.139-7.294c2.044,1.085,10.569,4.455,16.105,6.569l7.976-3.908-2.9-2.613a18.768,18.768,0,0,1-4.036-2.7c-1.2-1.235-1.774-10.876-1.887-12.99l-8.561-.57c.147,3.7.4,11.447-.049,12.061C492.932,920.633,489.273,922.29,487.665,922.871Z" transform="translate(-329.805 -528.893)" fill="#0a3f64"/>
    <path id="Trazado_67046" data-name="Trazado 67046" d="M510.83,862.281c-1.208-1.105-3.29-3.285-3.077-5.061s2.194-1.254,2.766-.879c.38.25,1.345-8.647,1.345-8.647l13.78,1.407s.836,7.91-.416,12.709c-1.257,4.819-3.7,5.734-7.288,5.336a8.432,8.432,0,0,1-4.113-1.528Z" transform="translate(-346.222 -483.579)" fill="#fff"/>
    <path id="Trazado_67047" data-name="Trazado 67047" d="M518.185,866.29a13.154,13.154,0,0,1-1.449-.089,8.834,8.834,0,0,1-4.272-1.59.333.333,0,1,1,.391-.54,8.176,8.176,0,0,0,3.954,1.467c3.361.373,5.692-.348,6.928-5.089,1.094-4.192.562-10.9.433-12.321l-13.179-1.346c-.911,8.322-1.273,8.493-1.469,8.586a.361.361,0,0,1-.354-.025,2.138,2.138,0,0,0-1.729-.212.974.974,0,0,0-.523.852c-.141,1.177.942,2.918,2.972,4.775a.333.333,0,1,1-.45.492c-1.572-1.439-3.4-3.534-3.183-5.346a1.611,1.611,0,0,1,.9-1.377,2.688,2.688,0,0,1,2.059.091c.277-1.027.777-4.824,1.147-8.237l.036-.329,14.378,1.469.028.269c.034.325.828,8.025-.424,12.828C523.172,865.257,520.781,866.29,518.185,866.29Z" transform="translate(-345.055 -482.301)" fill="#0a3f64"/>
    <path id="Trazado_67048" data-name="Trazado 67048" d="M483.935,976.642c5.028,3.985,18.351,23.389,18,25.123-1.77,8.864-17.288,13-17.288,13l-3.956-6.247,7.862-4.561-5.243-7.193-.924,17.321-9.237.161s-18.242.917-22.735-2.625c-6.693-5.276-9.742-26.631-2.58-33.991,2.425-2.492,4.569-2.748,5.751-2.75,3.559-.006,19.139,14.426,23.537.178C477.76,973,482.576,975.565,483.935,976.642Z" transform="translate(-296.429 -582.046)" fill="#18898e"/>
    <path id="Trazado_67049" data-name="Trazado 67049" d="M574.023,888.382h-.014a.556.556,0,0,1-.542-.569l.011-.453a.556.556,0,0,1,.555-.542h.014a.555.555,0,0,1,.542.569l-.011.453A.555.555,0,0,1,574.023,888.382Z" transform="translate(-397.351 -514.012)" fill="#0a3f64"/>
    <path id="Trazado_67050" data-name="Trazado 67050" d="M546.488,885.3h-.014a.555.555,0,0,1-.542-.569l.011-.453a.546.546,0,0,1,.569-.542.555.555,0,0,1,.542.569l-.011.453A.555.555,0,0,1,546.488,885.3Z" transform="translate(-375.933 -511.611)" fill="#0a3f64"/>
    <path id="Trazado_67051" data-name="Trazado 67051" d="M539.389,876.991a.333.333,0,0,1-.13-.64,3.873,3.873,0,0,1,2.833-.013.333.333,0,0,1-.263.612h0a3.253,3.253,0,0,0-2.31.015A.331.331,0,0,1,539.389,876.991Z" transform="translate(-370.583 -505.654)" fill="#0a3f64"/>
    <path id="Trazado_67052" data-name="Trazado 67052" d="M563.978,885.341a1.269,1.269,0,0,1-.672-.154l-.167-.128.034-.223a.333.333,0,0,1,.533-.191,1,1,0,0,0,.71-.079c.079-.054.182-.16.173-.451a5.984,5.984,0,0,0-.207-1.091c-.072-.293-.153-.626-.231-1.009-.237-1.17-.233-1.8.016-2.162a1.017,1.017,0,0,1,.746-.393l.112-.021a5.946,5.946,0,0,1,2.6.47.333.333,0,0,1-.246.619,5.376,5.376,0,0,0-2.217-.436l-.128.024c-.191.034-.273.054-.312.111-.072.105-.156.461.087,1.655.075.37.155.7.225.984a6.322,6.322,0,0,1,.226,1.228,1.113,1.113,0,0,1-.585,1.1A1.529,1.529,0,0,1,563.978,885.341Zm-.154-.366h0Zm.005-.031c0,.01,0,.021-.005.031C563.826,884.964,563.827,884.954,563.829,884.944Z" transform="translate(-389.317 -508.244)" fill="#0a3f64"/>
    <path id="Trazado_67053" data-name="Trazado 67053" d="M584.086,1187.863l11.585,1.8Z" transform="translate(-405.611 -748.186)" fill="#fff"/>
    <path id="Trazado_67054" data-name="Trazado 67054" d="M594.5,1188.828a.354.354,0,0,1-.052,0l-11.585-1.8a.333.333,0,0,1,.1-.659l11.585,1.8a.333.333,0,0,1-.051.662Z" transform="translate(-404.444 -747.02)" fill="#0e2549"/>
    <path id="Trazado_67055" data-name="Trazado 67055" d="M564.62,1028.882a.325.325,0,0,1-.055,0,.333.333,0,0,1-.274-.383c2.189-13.164-2.476-21.019-2.523-21.1a.333.333,0,0,1,.569-.347c.049.08,4.84,8.147,2.612,21.553A.333.333,0,0,1,564.62,1028.882Z" transform="translate(-388.213 -607.413)" fill="#0a3f64"/>
    <path id="Trazado_67056" data-name="Trazado 67056" d="M529.8,843.674s-13.756,1.5-17.007,7.455a2.443,2.443,0,0,0-2.136-.123l2.1-10.4Z" transform="translate(-348.493 -478.063)" fill="#0a3f64"/>
    <path id="Trazado_67057" data-name="Trazado 67057" d="M549.808,911.051s2.673,3.1,4.576.4a1.835,1.835,0,0,0-1.746-.243A4.82,4.82,0,0,0,549.808,911.051Z" transform="translate(-378.948 -532.768)" fill="#f7a705"/>
    <path id="Trazado_67058" data-name="Trazado 67058" d="M510.744,946.694s2.649,3.306,1.778,3.116a6.576,6.576,0,0,1-1.307-.465.123.123,0,0,0-.152.184c.579.806,1.662,2.535.758,3.089-1.194.731-3.988-.833-4.065-2.414C507.687,948.767,507.644,947.205,510.744,946.694Z" transform="translate(-346.222 -560.587)" fill="#fff"/>
    <path id="Trazado_67059" data-name="Trazado 67059" d="M509.9,951.876a3.719,3.719,0,0,1-1.7-.478,3.385,3.385,0,0,1-1.948-2.439c-.068-1.389-.16-3.291,3.266-3.856l.192-.032.122.152c2.316,2.891,2.075,3.279,1.96,3.465a.453.453,0,0,1-.513.185,5.6,5.6,0,0,1-.723-.215,3.628,3.628,0,0,1,.747,2.291,1.03,1.03,0,0,1-.48.691A1.762,1.762,0,0,1,509.9,951.876Zm-.46-6.082c-2.646.495-2.583,1.777-2.518,3.132a2.708,2.708,0,0,0,1.594,1.883,2.2,2.2,0,0,0,1.964.263.36.36,0,0,0,.175-.255,4.027,4.027,0,0,0-1.03-2.356.456.456,0,0,1,.563-.68,7.109,7.109,0,0,0,.884.347A19.812,19.812,0,0,0,509.439,945.794Z" transform="translate(-345.054 -559.325)" fill="#0a3f64"/>
    <path id="Trazado_67060" data-name="Trazado 67060" d="M529.8,1165.857a5.2,5.2,0,0,0-2.137,2.537c-2.15,4.416-4.487,2.45-4.487,2.45l.086-4.727h-1.695a2.953,2.953,0,0,0-3.709,1.388,5.374,5.374,0,0,1-4.487,2.679c-.669.011,1.093-14.9,1.093-14.9l-18.2.116c1.69-2.993,3.211-2.993,3.211-2.993l23.783.231S527.612,1154.966,529.8,1165.857Z" transform="translate(-337.304 -720.609)" fill="#f7a705"/>
    <path id="Trazado_67061" data-name="Trazado 67061" d="M642.844,1062.809s3.783,6.361,2.346,8.714a21.169,21.169,0,0,1-13.13,9.346s-2.522-9.347-2.189-9.68S642.844,1062.809,642.844,1062.809Z" transform="translate(-441.202 -650.91)" fill="#18898e"/>
    <path id="Trazado_67062" data-name="Trazado 67062" d="M613.5,1198.551s-2.508,7.391,0,8.183,4.487-8.183,4.487-8.183Z" transform="translate(-427.624 -756.5)" fill="#0e2549"/>
    <path id="Trazado_67063" data-name="Trazado 67063" d="M569.364,1195.58s-2.508,7.391,0,8.183,4.487-8.183,4.487-8.183Z" transform="translate(-393.293 -754.188)" fill="#0e2549"/>
    <path id="Trazado_67064" data-name="Trazado 67064" d="M578.545,1063.134s-10.426,5.939-10.294,11.218.528,18.873.528,18.873h6.995v1.056H585.8s-1.848-13.33,0-16.629,7.243-6.041,7.243-6.569.37-8.274.37-8.274Z" transform="translate(-393.293 -650.91)" fill="#62c1c6"/>
    <path id="Trazado_67065" data-name="Trazado 67065" d="M627.649,883.053c-1.686-.165-5.777-.619-6.387,2.332a78.04,78.04,0,0,0-1.154,10.162,1.871,1.871,0,0,0,1.489,1.939l10.165,2.1a1.872,1.872,0,0,0,2.156-1.251c1-3.047,3.064-9.511,2.9-10.584C636.258,884.1,630.318,883.315,627.649,883.053Z" transform="translate(-433.629 -510.984)" fill="#0a3f64"/>
    <path id="Trazado_67066" data-name="Trazado 67066" d="M622,944.819s-.383,5.527-1.93,6.847a10.124,10.124,0,0,1-3.851,1.871c-.4.132,1.913,4.223,1.913,4.223l12.6-2.64s-3.7-2.508-3.563-3.893,2.226-6.408,2.226-6.408Z" transform="translate(-430.573 -559.129)" fill="#fff"/>
    <path id="Trazado_67067" data-name="Trazado 67067" d="M616.813,956.969l-.12-.212c-2.194-3.888-2.025-4.326-1.97-4.469a.394.394,0,0,1,.242-.234c.053-.018.133-.041.234-.07a9.25,9.25,0,0,0,3.506-1.738c1.18-1.008,1.709-5.118,1.813-6.616l.022-.31h8.211l-.193.461c-.021.05-2.076,4.991-2.2,6.311-.078.819,1.952,2.59,3.419,3.586l.65.441Zm-1.426-4.346a27.5,27.5,0,0,0,1.767,3.594l11.619-2.433c-1.143-.845-3.2-2.543-3.081-3.755a38.184,38.184,0,0,1,2.061-6.043h-6.6c-.108,1.213-.589,5.546-2.021,6.767A10.015,10.015,0,0,1,615.388,952.623Z" transform="translate(-429.422 -557.962)" fill="#0a3f64"/>
    <path id="Trazado_67068" data-name="Trazado 67068" d="M599.4,961.21c-1.584,1.629-6.231,3.325-7.815.158s-8.016-6.075-8.016-6.075l-2.8,4.793,2.765,2.522s1.188,17.157,4.025,18.477,16.508.79,16.508.79l-.608-10.447,5.547-.109s-2.1-9.839-4.035-11.036C601.688,958.257,600.156,960.428,599.4,961.21Z" transform="translate(-403.026 -567.276)" fill="#fdd44e"/>
    <path id="Trazado_67069" data-name="Trazado 67069" d="M655.256,1022.11s1.6,5.07,1.436,8.359c-.183,3.57-1.7,5.367-2.417,5.959-.916.754-4.838,1.322-4.533,2.417s1.581-.1,2.074.064c.24.077-4.475,2.488-2.087,3.544s7.435-3.8,7.875-4.765c.215-.473,2.8-2.323,3.635-6.163.876-4.022,0-10.03,0-10.03Z" transform="translate(-456.146 -618.772)" fill="#fff"/>
    <path id="Trazado_67070" data-name="Trazado 67070" d="M649.3,1041.653a2.151,2.151,0,0,1-.877-.172,1.253,1.253,0,0,1-.871-.995c-.065-.717.657-1.444,1.541-2.116a.866.866,0,0,1-.372-.085.93.93,0,0,1-.471-.627c-.274-.984,1.218-1.479,2.8-2a7.617,7.617,0,0,0,1.845-.76c.349-.288,2.1-1.915,2.3-5.719.164-3.19-1.4-8.191-1.42-8.241l-.123-.39,6.708-.691.046.316c.036.248.874,6.115,0,10.149a11.751,11.751,0,0,1-3.265,5.789,4.211,4.211,0,0,0-.394.443C656.326,1037.46,652.075,1041.653,649.3,1041.653Zm1.241-4.369a.671.671,0,0,1,.206.031l.2.064.038.214c.035.243-.092.33-.627.695-.6.41-2.2,1.5-2.141,2.137.015.162.175.312.477.446,2.1.927,7.007-3.654,7.437-4.6a2.867,2.867,0,0,1,.518-.625,11.138,11.138,0,0,0,3.1-5.471c.74-3.4.2-8.309.038-9.594l-5.259.541a28.955,28.955,0,0,1,1.332,8.086c-.2,3.981-1.995,5.751-2.538,6.2a7.522,7.522,0,0,1-2.059.878c-.8.266-2.469.819-2.365,1.192a.339.339,0,0,0,.122.208c.144.07.5-.078.767-.187A2.15,2.15,0,0,1,650.545,1037.284Z" transform="translate(-454.979 -617.496)" fill="#0a3f64"/>
    <path id="Trazado_67071" data-name="Trazado 67071" d="M600.691,1109.723a.333.333,0,0,1-.333-.328c0-.131-.2-13.2.05-18.923.256-5.923,5.847-8.194,5.9-8.216a.333.333,0,0,1,.245.62c-.052.021-5.245,2.142-5.483,7.625-.247,5.7-.051,18.753-.049,18.884a.333.333,0,0,1-.328.338Z" transform="translate(-418.21 -666.018)" fill="#0a3f64"/>
    <path id="Trazado_67072" data-name="Trazado 67072" d="M600.664,1109.374s4,1.037,6.22,0,1.929-2.9,2.889-2.562.132,2.383.132,2.383,1.348.207,4.763-2.653c.444-.372,1.027,3-.083,4.313a7.984,7.984,0,0,1-6.072,3.184c-3.11.074-8.959.444-8.959.444Z" transform="translate(-417.643 -684.906)" fill="#fff"/>
    <path id="Trazado_67073" data-name="Trazado 67073" d="M597.665,1113.679l1.278-5.879.336.087c.039.01,3.909.994,6,.02a3.888,3.888,0,0,0,1.849-1.8c.277-.48.591-1.022,1.292-.776a.956.956,0,0,1,.561.524,2.852,2.852,0,0,1-.054,1.775,11.608,11.608,0,0,0,4.063-2.51.443.443,0,0,1,.615.04,5.025,5.025,0,0,1-.23,4.743,8.3,8.3,0,0,1-6.318,3.3c-3.068.073-8.887.44-8.946.444Zm1.783-5.067-.945,4.347c1.422-.087,5.946-.356,8.532-.418a7.673,7.673,0,0,0,5.825-3.066c.78-.924.586-3.026.352-3.676-3.287,2.7-4.677,2.585-4.827,2.561l-.416-.064.158-.391a3.03,3.03,0,0,0,.242-1.776.289.289,0,0,0-.176-.168c-.14-.05-.178-.063-.492.481a4.528,4.528,0,0,1-2.144,2.069C603.612,1109.418,600.481,1108.84,599.448,1108.612Z" transform="translate(-416.174 -683.742)" fill="#0a3f64"/>
    <path id="Trazado_67074" data-name="Trazado 67074" d="M555.048,1107.725l-.477,10.424,14.044-.267v-9.232Z" transform="translate(-382.652 -685.848)" fill="#18898e"/>
    <path id="Trazado_67075" data-name="Trazado 67075" d="M529.032,1067.369h-.023c-2.246-.156-21.991-1.574-23.8-3.234-1.84-1.686-1.517-8.788-1.474-9.593a.338.338,0,0,1,.35-.315.333.333,0,0,1,.315.35c-.112,2.1-.1,7.818,1.259,9.066,1.241,1.137,14.673,2.453,23.4,3.06a.333.333,0,0,1-.023.666Z" transform="translate(-343.069 -644.233)" fill="#0a3f64"/>
    <path id="Trazado_67076" data-name="Trazado 67076" d="M671.553,997.321c.148.515,0,5.329,0,5.329l8.069.378-1.89-6.97Z" transform="translate(-473.649 -598.986)" fill="#fdd44e"/>
    <path id="Trazado_67077" data-name="Trazado 67077" d="M676.18,1003.489h-.015l-9.038-.395,1.1-6.593a.333.333,0,0,1,.657.109l-.975,5.851,8.286.361a.333.333,0,0,1-.014.666Z" transform="translate(-470.207 -599.114)" fill="#0a3f64"/>
    <path id="Trazado_67078" data-name="Trazado 67078" d="M652.768,1108.767a6.338,6.338,0,0,1-4.715,3.484Z" transform="translate(-455.369 -686.659)" fill="#fff"/>
    <path id="Trazado_67079" data-name="Trazado 67079" d="M646.885,1111.418a.333.333,0,0,1-.039-.664,6.05,6.05,0,0,0,4.451-3.29.333.333,0,0,1,.608.273,6.615,6.615,0,0,1-4.981,3.679Z" transform="translate(-454.202 -685.493)" fill="#0a3f64"/>
    <path id="Trazado_67080" data-name="Trazado 67080" d="M653.689,1115.642s-1.706,2.971-4.685,3.249Z" transform="translate(-456.109 -692.007)" fill="#fff"/>
    <path id="Trazado_67081" data-name="Trazado 67081" d="M647.837,1118.058a.333.333,0,0,1-.03-.665c2.775-.259,4.411-3.054,4.427-3.083a.333.333,0,1,1,.578.332c-.073.127-1.828,3.124-4.943,3.414Z" transform="translate(-454.943 -690.841)" fill="#0a3f64"/>
    <path id="Trazado_67082" data-name="Trazado 67082" d="M631.766,902.274c1.248-.619,3.463-1.911,3.706-3.412s-1.5-1.541-2.054-1.369c-.37.115.936-7.385.936-7.385l-11.594-2.093s-2.545,6.268-2.651,10.486c-.107,4.235,1.675,5.558,4.7,6.077a7.176,7.176,0,0,0,3.721-.281Z" transform="translate(-433.629 -514.943)" fill="#fff"/>
    <path id="Trazado_67083" data-name="Trazado 67083" d="M625.02,903.715a8.472,8.472,0,0,1-1.433-.125c-2.657-.456-5.1-1.548-4.977-6.414.107-4.23,2.571-10.344,2.676-10.6l.1-.251,12.186,2.2-.057.326c-.5,2.848-.964,5.98-1,6.938a2.316,2.316,0,0,1,1.685.428,1.417,1.417,0,0,1,.431,1.384c-.252,1.553-2.253,2.846-3.887,3.657a.333.333,0,0,1-.3-.6c2.082-1.033,3.367-2.187,3.526-3.167a.782.782,0,0,0-.211-.774,1.79,1.79,0,0,0-1.416-.224.356.356,0,0,1-.343-.073c-.155-.137-.414-.363.8-7.36l-11-1.986c-.468,1.205-2.437,6.482-2.528,10.117-.1,4.131,1.615,5.259,4.424,5.74a6.9,6.9,0,0,0,3.552-.266.333.333,0,0,1,.226.627A7.2,7.2,0,0,1,625.02,903.715Z" transform="translate(-432.463 -513.627)" fill="#0a3f64"/>
    <path id="Trazado_67084" data-name="Trazado 67084" d="M620.724,873.715c-1.524-.409-4.31-1.606-3.37-4.582s1.3-1.751,1.3-1.751.489.811.724.889-.3.144,1.046-2.206c0,0,2.376.052,3.054,1.7s1.555.995,2.079.353c.446-.546,1.238.453,1.29,1.118.2.777,3.787,1.155,4.712,1.9,1.465,1.175,1.958,1.645,1.456,3.809-.1.416-1.612,4.344-1.612,4.344l-.419-4.55S623.214,874.383,620.724,873.715Z" transform="translate(-431.342 -497.869)" fill="#0a3f64"/>
    <circle id="Elipse_1783" data-name="Elipse 1783" cx="1.222" cy="1.222" r="1.222" transform="translate(171.396 405.957)" fill="#fff"/>
    <path id="Trazado_67085" data-name="Trazado 67085" d="M552.274,1037.669a1.555,1.555,0,1,1,1.555-1.555A1.557,1.557,0,0,1,552.274,1037.669Zm0-2.443a.889.889,0,1,0,.889.889A.89.89,0,0,0,552.274,1035.225Z" transform="translate(-379.656 -628.935)" fill="#0a3f64"/>
    <circle id="Elipse_1784" data-name="Elipse 1784" cx="1.222" cy="1.222" r="1.222" transform="translate(172.115 412.704)" fill="#fff"/>
    <path id="Trazado_67086" data-name="Trazado 67086" d="M555.51,1068.044a1.555,1.555,0,1,1,1.555-1.555A1.557,1.557,0,0,1,555.51,1068.044Zm0-2.443a.889.889,0,1,0,.889.889A.889.889,0,0,0,555.51,1065.6Z" transform="translate(-382.173 -652.563)" fill="#0a3f64"/>
    <path id="Trazado_67087" data-name="Trazado 67087" d="M629.608,921.968a.445.445,0,0,1-.425-.575l.115-.375a.444.444,0,1,1,.85.261l-.115.375A.445.445,0,0,1,629.608,921.968Z" transform="translate(-440.676 -540.371)" fill="#0e2549"/>
    <path id="Trazado_67088" data-name="Trazado 67088" d="M653.032,926.976a.439.439,0,0,1-.13-.02.444.444,0,0,1-.294-.555l.115-.375a.444.444,0,0,1,.85.261l-.115.375A.444.444,0,0,1,653.032,926.976Z" transform="translate(-458.897 -544.267)" fill="#0a3f64"/>
    <path id="Trazado_67089" data-name="Trazado 67089" d="M655.13,918.739a.332.332,0,0,1-.22-.083,2.727,2.727,0,0,0-1.855-.633.333.333,0,0,1-.057-.664,3.4,3.4,0,0,1,2.353.8.333.333,0,0,1-.22.583Z" transform="translate(-458.979 -537.764)" fill="#0a3f64"/>
    <path id="Trazado_67090" data-name="Trazado 67090" d="M634.81,929.706c-.381,0-.972-.575-.979-.581a.847.847,0,0,1-.284-.922.879.879,0,0,1,.524-.5,1.034,1.034,0,0,0,.547-.5.333.333,0,1,1,.577.333,1.689,1.689,0,0,1-.843.769c-.151.07-.165.083-.184.132-.011.136.429.494.655.594l.019,0a.333.333,0,0,1,.294.368.347.347,0,0,1-.229.284A.309.309,0,0,1,634.81,929.706Zm.052-.654h0Z" transform="translate(-444.051 -545.301)" fill="#0a3f64"/>
    <path id="Trazado_67091" data-name="Trazado 67091" d="M631.32,912.855a.328.328,0,0,1-.17-.047,2.832,2.832,0,0,0-1.852-.484.333.333,0,0,1-.15-.649,3.4,3.4,0,0,1,2.342.56.333.333,0,0,1-.17.62Z" transform="translate(-440.463 -533.321)" fill="#0a3f64"/>
    <path id="Trazado_67092" data-name="Trazado 67092" d="M631.557,941.479c.079.353-1.13,1.193-2.14.884-1.649-.5-1.743-2.024-1.368-1.825a4.262,4.262,0,0,0,1.622.925C630.743,941.765,631.5,941.243,631.557,941.479Z" transform="translate(-439.668 -555.785)" fill="#0a3f64"/>
  </g>
</svg>
