<svg xmlns="http://www.w3.org/2000/svg" width="667.57" height="353.851" viewBox="0 0 667.57 353.851">
  <g id="Grupo_26431" data-name="Grupo 26431" transform="translate(-291.902 -231.456)">
    <path id="Trazado_74883" data-name="Trazado 74883" d="M613.322,399.752C642.055,373.089,685.573,340,774.683,352.93c58.837,8.54,191.139,35.433,256.778,71.3s81.191,96.386,41.721,162.885-98.591,89.927-98.591,89.927H591.814s-116.538,30.369-113.381-83.455C480.6,515.341,580.467,430.241,613.322,399.752Z" transform="translate(-150.03 -95.409)" fill="#9ec8ff" opacity="0.5"/>
    <path id="Trazado_74884" data-name="Trazado 74884" d="M326.085,426.808C271.5,439.66,277.455,249.6,379.322,233.783c68.53-10.639,127.2,18.187,110.629,26.362C382.814,313.01,340.322,423.456,326.085,426.808Z" transform="translate(0)" fill="#9ec8ff" opacity="0.5"/>
    <g id="Grupo_26379" data-name="Grupo 26379" transform="translate(310.5 304.557)">
      <g id="Grupo_26374" data-name="Grupo 26374" transform="translate(0 0)">
        <path id="Trazado_74885" data-name="Trazado 74885" d="M574.289,704H387.561a.488.488,0,0,1-.489-.489V606.031a.488.488,0,0,1,.489-.489H574.289a.488.488,0,0,1,.488.489v97.486A.488.488,0,0,1,574.289,704Zm-186.24-.977H573.8V606.519H388.049Z" transform="translate(-387.072 -605.542)" fill="#9ec8ff"/>
      </g>
      <g id="Grupo_26375" data-name="Grupo 26375" transform="translate(0 64.991)">
        <path id="Trazado_74886" data-name="Trazado 74886" d="M574.289,939.1H387.561a.489.489,0,1,1,0-.977H574.289a.489.489,0,0,1,0,.977Z" transform="translate(-387.072 -938.123)" fill="#9ec8ff"/>
      </g>
      <g id="Grupo_26376" data-name="Grupo 26376" transform="translate(0 32.495)">
        <path id="Trazado_74887" data-name="Trazado 74887" d="M574.289,772.809H387.561a.489.489,0,1,1,0-.977H574.289a.489.489,0,0,1,0,.977Z" transform="translate(-387.072 -771.832)" fill="#9ec8ff"/>
      </g>
      <g id="Grupo_26377" data-name="Grupo 26377" transform="translate(124.485 0)">
        <path id="Trazado_74888" data-name="Trazado 74888" d="M1024.6,704a.489.489,0,0,1-.489-.489V606.031a.489.489,0,0,1,.977,0v97.486A.488.488,0,0,1,1024.6,704Z" transform="translate(-1024.109 -605.542)" fill="#9ec8ff"/>
      </g>
      <g id="Grupo_26378" data-name="Grupo 26378" transform="translate(62.243 0)">
        <path id="Trazado_74889" data-name="Trazado 74889" d="M706.078,704a.488.488,0,0,1-.488-.489V606.031a.489.489,0,1,1,.977,0v97.486A.488.488,0,0,1,706.078,704Z" transform="translate(-705.59 -605.542)" fill="#9ec8ff"/>
      </g>
    </g>
    <g id="Grupo_26401" data-name="Grupo 26401" transform="translate(307.287 304.343)">
      <path id="Trazado_74890" data-name="Trazado 74890" d="M1237.478,1239.594l-81.754,24.978-86.426,61.777-10.395,66.416s34.012.065,81.6.083c103.117.039,269.983-.142,292.733-1.675-36.612-48.734-97.133-133.921-97.133-133.921l-62.763-13.921Z" transform="translate(-924.406 -1115.477)" fill="#fff"/>
      <path id="Trazado_74891" data-name="Trazado 74891" d="M1482.932,1925.834s-22.324,14.217-35.919,17.477,40.626,1.507,40.626,1.507Z" transform="translate(-1234.914 -1667.617)" fill="#9bd6e8" opacity="0.5"/>
      <path id="Trazado_74892" data-name="Trazado 74892" d="M1811.548,1284.121l1.244,30.471,28.788,14.46-12.356,18.776,49.855,77.073h3.781l31.83-87.146-7.828-13.906,13.819-12.027-13.92-27.41-91.459-1.436Z" transform="translate(-1529.974 -1150.381)" fill="#9bd6e8" opacity="0.5"/>
      <path id="Trazado_74893" data-name="Trazado 74893" d="M1867.877,1148.621l-36.394,26.255,9.768,36.084,24.659,3.923s-11.737,16.253-10.072,18.495,43.906,74.138,43.906,74.138l27.328-79.448-11.435-15.284s17.733-8.173,17.173-10.414-9.868-26.058-9.868-26.058l-24.319-18.433Z" transform="translate(-1546.013 -1042.282)" fill="#fff"/>
      <path id="Trazado_74894" data-name="Trazado 74894" d="M2039.644,677.232s-28.578,1.121-38.1,14.569,1.121,32.152-4.483,42.973.042,28.17,4.255,29.259S2039.644,677.232,2039.644,677.232Z" transform="translate(-1677.343 -663.008)" fill="#303c60"/>
      <path id="Trazado_74895" data-name="Trazado 74895" d="M1988.351,952.8l-27.085,64,38.835,78.8,11.458-75-4.715-6.282,17.185-56.238Z" transform="translate(-1650.435 -884.725)" fill="#f09959"/>
      <path id="Trazado_74896" data-name="Trazado 74896" d="M2414.008,1523.085c.374,41.468-14.943,97.133-14.943,97.133s4.857,2.128,5.6,0,4.857,0,4.857,0,4.483-27.447,5.6-48.094S2414.008,1523.085,2414.008,1523.085Z" transform="translate(-2002.682 -1343.57)" fill="#9bd6e8" opacity="0.5"/>
      <path id="Trazado_74897" data-name="Trazado 74897" d="M1176.125,1463.114c6.777-6.2,43.151-33.366,53.3-49.421,2.127-3.365.39-9.353,0-11.1,22.913-3.815,27.373-12.717,27.373-12.717l-22.89-29.084s-30.807,7.5-55.664,16.344c-13.262,4.717-38.433,16.915-59.029,27.268l-24.222,19.46-4.155,26.545c.824,5.12,1.561,8.984,1.97,9.454,1.284,1.477,2.683,28.615,2.77,30.331l.761-.006C1102.689,1489.4,1142.876,1493.539,1176.125,1463.114Z" transform="translate(-950.098 -1212.992)" fill="#9bd6e8" opacity="0.5"/>
      <path id="Trazado_74898" data-name="Trazado 74898" d="M1833,1319.658c8.448-2.629,15-1.749,12.215,2.509a33.609,33.609,0,0,1-3.888,4.334l-18.352-2.764Z" transform="translate(-1539.172 -1178.702)" fill="#9ec8ff"/>
      <path id="Trazado_74899" data-name="Trazado 74899" d="M1955.941,1355.755l-1.116,3.02-136.109-47.839,2.71-7.334Z" transform="translate(-1535.742 -1166.978)" fill="#fff"/>
      <g id="Grupo_26380" data-name="Grupo 26380" transform="translate(282.471 136.117)">
        <path id="Trazado_74900" data-name="Trazado 74900" d="M1952.983,1357.18l-.363-.127-136.483-47.97,2.985-8.079.37.143,134.873,52.292Zm-135.838-48.572,135.371,47.579.849-2.3-133.786-51.87Z" transform="translate(-1816.137 -1301.003)" fill="#2e5b9a"/>
      </g>
      <path id="Trazado_74901" data-name="Trazado 74901" d="M2782.788,1740.7c33.844-8.5,57.266-1.958,71.462,27.525,5.271,10.948,8.095,23.319,4.421,22.752s-57.847.608-57.847.608Z" transform="translate(-2311.421 -1515.89)" fill="#fff"/>
      <path id="Trazado_74902" data-name="Trazado 74902" d="M1756.851,1273.615c-1.381,4.648-8.566,6.613-16.049,4.39s-12.429-7.793-11.048-12.441,8.566-6.614,16.049-4.39S1758.232,1268.966,1756.851,1273.615Z" transform="translate(-1463.977 -1132.103)" fill="#f39892"/>
      <path id="Trazado_74903" data-name="Trazado 74903" d="M1629.76,1368.391c-1.771-3.331-20.564-10.762-17.415-9.695s13.191,4.514,10.029.81-27.312-20.09-35-20.3c-7.2-.2-17.289-1.46-22.361,2.436a92.579,92.579,0,0,1-23.548,13.429s-7.54,2.909-7.874,2.968c-15.958,2.813-24.463,60.154-24.463,60.154,2.024-.045,36.858-27.718,53.423-40.837,3.282,1.145,13.662.636,21.855-3.62a109.122,109.122,0,0,0,10.735-6.865s11.193,3.228,14.446,4.1C1618.333,1373.317,1631.532,1371.722,1629.76,1368.391Z" transform="translate(-1286.652 -1195.34)" fill="#9ec8ff"/>
      <path id="Trazado_74904" data-name="Trazado 74904" d="M1038.241,1469.975c-14.082,16.866-17.282,59.041-2.33,61.079,35.081,4.781,135.741-78.2,135.741-78.2l-16.326-39.152S1058.32,1445.926,1038.241,1469.975Z" transform="translate(-898.005 -1255.558)" fill="#fff"/>
      <path id="Trazado_74905" data-name="Trazado 74905" d="M1008.653,2015.288H373.645a3.014,3.014,0,1,1,0-6.028h635.008a3.014,3.014,0,1,1,0,6.028Z" transform="translate(-370.631 -1734.74)" fill="#2e5b9a"/>
      <g id="Grupo_26381" data-name="Grupo 26381" transform="translate(400.805 182.74)">
        <path id="Trazado_74906" data-name="Trazado 74906" d="M2438.756,1547.429a.975.975,0,0,1-.336-.06l-16.082-5.884a.977.977,0,0,1,.671-1.835l16.082,5.884a.977.977,0,0,1-.336,1.895Z" transform="translate(-2421.697 -1539.59)" fill="#9ec8ff"/>
      </g>
      <g id="Grupo_26382" data-name="Grupo 26382" transform="translate(394.181 180.316)">
        <path id="Trazado_74907" data-name="Trazado 74907" d="M2392.71,1530.581a.969.969,0,0,1-.335-.06l-3.937-1.44a.977.977,0,0,1,.672-1.835l3.937,1.441a.977.977,0,0,1-.336,1.895Z" transform="translate(-2387.796 -1527.186)" fill="#9ec8ff"/>
      </g>
      <g id="Grupo_26383" data-name="Grupo 26383" transform="translate(357.973 167.067)">
        <path id="Trazado_74908" data-name="Trazado 74908" d="M2236.815,1473.539a.97.97,0,0,1-.336-.06l-33.331-12.2a.977.977,0,1,1,.671-1.835l33.331,12.2a.977.977,0,0,1-.336,1.895Z" transform="translate(-2202.507 -1459.388)" fill="#9ec8ff"/>
      </g>
      <g id="Grupo_26384" data-name="Grupo 26384" transform="translate(342.835 161.529)">
        <path id="Trazado_74909" data-name="Trazado 74909" d="M2135.093,1436.319a.968.968,0,0,1-.336-.06l-9.073-3.32a.977.977,0,1,1,.672-1.835l9.073,3.32a.977.977,0,0,1-.335,1.895Z" transform="translate(-2125.043 -1431.045)" fill="#9ec8ff"/>
      </g>
      <g id="Grupo_26385" data-name="Grupo 26385" transform="translate(330.899 157.161)">
        <path id="Trazado_74910" data-name="Trazado 74910" d="M2072.633,1413.466a.974.974,0,0,1-.336-.06l-7.693-2.815a.977.977,0,1,1,.672-1.835l7.693,2.815a.977.977,0,0,1-.336,1.895Z" transform="translate(-2063.963 -1408.696)" fill="#9ec8ff"/>
      </g>
      <g id="Grupo_26386" data-name="Grupo 26386" transform="translate(393.901 197.056)">
        <path id="Trazado_74911" data-name="Trazado 74911" d="M2394.505,1683.365a6.142,6.142,0,0,1-6.142-6.142v-62.372h12.284v62.372A6.142,6.142,0,0,1,2394.505,1683.365Z" transform="translate(-2387.972 -1614.46)" fill="#fff"/>
        <path id="Trazado_74912" data-name="Trazado 74912" d="M2392.9,1682.147a6.541,6.541,0,0,1-6.533-6.533v-62.763h13.067v62.763A6.541,6.541,0,0,1,2392.9,1682.147Zm-5.751-68.514v61.981a5.752,5.752,0,1,0,11.5,0v-61.981Z" transform="translate(-2386.363 -1612.851)" fill="#2e5b9a"/>
      </g>
      <g id="Grupo_26387" data-name="Grupo 26387" transform="translate(413.666 197.056)">
        <path id="Trazado_74913" data-name="Trazado 74913" d="M2495.653,1683.365a6.142,6.142,0,0,1-6.142-6.142v-62.372H2501.8v62.372A6.142,6.142,0,0,1,2495.653,1683.365Z" transform="translate(-2489.12 -1614.46)" fill="#fff"/>
        <path id="Trazado_74914" data-name="Trazado 74914" d="M2494.044,1682.147a6.541,6.541,0,0,1-6.533-6.533v-62.763h13.066v62.763A6.54,6.54,0,0,1,2494.044,1682.147Zm-5.751-68.514v61.981a5.751,5.751,0,1,0,11.5,0v-61.981Z" transform="translate(-2487.511 -1612.851)" fill="#2e5b9a"/>
      </g>
      <g id="Grupo_26388" data-name="Grupo 26388" transform="translate(434.248 197.056)">
        <path id="Trazado_74915" data-name="Trazado 74915" d="M2600.979,1683.365a6.142,6.142,0,0,1-6.143-6.142v-62.372h12.285v62.372A6.142,6.142,0,0,1,2600.979,1683.365Z" transform="translate(-2594.445 -1614.46)" fill="#fff"/>
        <path id="Trazado_74916" data-name="Trazado 74916" d="M2599.369,1682.147a6.54,6.54,0,0,1-6.533-6.533v-62.763H2605.9v62.763A6.541,6.541,0,0,1,2599.369,1682.147Zm-5.751-68.514v61.981a5.751,5.751,0,1,0,11.5,0v-61.981Z" transform="translate(-2592.836 -1612.851)" fill="#2e5b9a"/>
      </g>
      <path id="Trazado_74917" data-name="Trazado 74917" d="M2608.338,1750.768a4.355,4.355,0,0,1-4.355-4.355v-44.22h8.71v44.22A4.355,4.355,0,0,1,2608.338,1750.768Z" transform="translate(-2167.556 -1487.678)" fill="#9ec8ff"/>
      <path id="Trazado_74918" data-name="Trazado 74918" d="M2503.013,1825.853a4.355,4.355,0,0,1-4.355-4.355v-25.984h8.71V1821.5A4.355,4.355,0,0,1,2503.013,1825.853Z" transform="translate(-2082.813 -1562.763)" fill="#9ec8ff"/>
      <g id="Grupo_26389" data-name="Grupo 26389" transform="translate(454.014 197.056)">
        <path id="Trazado_74919" data-name="Trazado 74919" d="M2702.125,1683.365a6.143,6.143,0,0,1-6.143-6.142v-62.372h12.285v62.372A6.142,6.142,0,0,1,2702.125,1683.365Z" transform="translate(-2695.592 -1614.46)" fill="#fff"/>
        <path id="Trazado_74920" data-name="Trazado 74920" d="M2700.516,1682.147a6.54,6.54,0,0,1-6.533-6.533v-62.763h13.066v62.763A6.54,6.54,0,0,1,2700.516,1682.147Zm-5.751-68.514v61.981a5.752,5.752,0,1,0,11.5,0v-61.981Z" transform="translate(-2693.983 -1612.851)" fill="#2e5b9a"/>
      </g>
      <path id="Trazado_74921" data-name="Trazado 74921" d="M2709.989,1732.2a4.233,4.233,0,0,1-4.233-4.233v-48.895h8.466v48.895A4.233,4.233,0,0,1,2709.989,1732.2Z" transform="translate(-2249.442 -1469.076)" fill="#9ec8ff"/>
      <path id="Trazado_74922" data-name="Trazado 74922" d="M2515.881,1676.1l.488,10.629a1.467,1.467,0,1,1-2.93.134c0-.044,0-.091,0-.134l.488-10.629a.978.978,0,0,1,1.954,0Z" transform="translate(-2094.705 -1465.935)" fill="#9ec8ff"/>
      <path id="Trazado_74923" data-name="Trazado 74923" d="M2516.152,1586.126l.423,10.967a1.4,1.4,0,1,1-2.8.108c0-.035,0-.073,0-.108l.423-10.967a.978.978,0,0,1,1.954,0Z" transform="translate(-2094.975 -1393.536)" fill="#9ec8ff"/>
      <path id="Rectángulo_25947" data-name="Rectángulo 25947" d="M3.232,0H96.143a3.232,3.232,0,0,1,3.232,3.232v0a3.232,3.232,0,0,1-3.232,3.232H3.232A3.232,3.232,0,0,1,0,3.232v0A3.232,3.232,0,0,1,3.232,0Z" transform="translate(381.066 238.802)" fill="#f5dc95"/>
      <path id="Rectángulo_25948" data-name="Rectángulo 25948" d="M3.232,0H96.143a3.232,3.232,0,0,1,3.232,3.232v0a3.232,3.232,0,0,1-3.232,3.232H3.232A3.232,3.232,0,0,1,0,3.232v0A3.232,3.232,0,0,1,3.232,0Z" transform="translate(381.066 268.056)" fill="#f5dc95"/>
      <path id="Rectángulo_25949" data-name="Rectángulo 25949" d="M3.212,0h0A3.212,3.212,0,0,1,6.424,3.212v22.83a3.212,3.212,0,0,1-3.212,3.212h0A3.212,3.212,0,0,1,0,26.042V3.212A3.212,3.212,0,0,1,3.212,0Z" transform="translate(383.599 242.034)" fill="#f5dc95"/>
      <rect id="Rectángulo_25950" data-name="Rectángulo 25950" width="5.905" height="29.254" rx="2.952" transform="translate(472.035 242.034)" fill="#f5dc95"/>
      <path id="Trazado_74924" data-name="Trazado 74924" d="M2100.266,1173.474c9.092,34.327,28.917,33.948,37.622,33.948,7.021,0,12.851-4.174,16.529-7.708l-15.2-3.372-.013-.035-24.319-18.432Z" transform="translate(-1762.272 -1062.278)" fill="#9ec8ff" opacity="0.3"/>
      <path id="Trazado_74925" data-name="Trazado 74925" d="M2081.812,952.8l-4.386,10.363c1.949,44.317,14.477,61.716,26.176,66.708l1.417-9.278-4.715-6.282,17.185-56.238Z" transform="translate(-1743.896 -884.725)" fill="#e38540"/>
      <path id="Trazado_74926" data-name="Trazado 74926" d="M2468.319,830.15c-12.048,20.173-15.906,24.979-28.966,25.938s1.12-34.068,1.12-34.068Z" transform="translate(-2030.649 -779.503)" fill="#303c60"/>
      <ellipse id="Elipse_2366" data-name="Elipse 2366" cx="48.979" cy="38.423" rx="48.979" ry="38.423" transform="matrix(0.151, -0.988, 0.988, 0.151, 335.522, 113.009)" fill="#f09959"/>
      <g id="Grupo_26391" data-name="Grupo 26391" transform="translate(555.905 123.974)">
        <g id="Grupo_26390" data-name="Grupo 26390" transform="translate(10.82 25.954)">
          <path id="Trazado_74927" data-name="Trazado 74927" d="M3282.576,1480.157a9.808,9.808,0,0,1-9.808-9.808v-96.667h19.615v96.667A9.808,9.808,0,0,1,3282.576,1480.157Z" transform="translate(-3272.377 -1373.292)" fill="#fff"/>
          <path id="Trazado_74928" data-name="Trazado 74928" d="M3280.966,1478.939a10.21,10.21,0,0,1-10.2-10.2v-97.058h20.4v97.058A10.21,10.21,0,0,1,3280.966,1478.939Zm-9.417-106.475v96.276a9.417,9.417,0,1,0,18.833,0v-96.276Z" transform="translate(-3270.768 -1371.683)" fill="#2e5b9a"/>
        </g>
        <path id="Trazado_74929" data-name="Trazado 74929" d="M3294.133,1625.322a7,7,0,0,1-7-7v-58.674h14v58.674A7,7,0,0,1,3294.133,1625.322Z" transform="translate(-3273.114 -1496.962)" fill="#a2dff2"/>
        <path id="Trazado_74930" data-name="Trazado 74930" d="M3252.893,1750.555h-34.644a2.852,2.852,0,1,1,0-5.7h34.644a2.852,2.852,0,1,1,0,5.7Z" transform="translate(-3215.397 -1645.976)" fill="#f5dc95"/>
        <path id="Rectángulo_25951" data-name="Rectángulo 25951" d="M5.525,0h29.3a5.525,5.525,0,0,1,5.525,5.525v0a5.525,5.525,0,0,1-5.525,5.525H5.525A5.525,5.525,0,0,1,0,5.525v0A5.525,5.525,0,0,1,5.525,0Z" transform="translate(0 139.115)" fill="#f5dc95"/>
        <rect id="Rectángulo_25952" data-name="Rectángulo 25952" width="5.23" height="42.353" transform="translate(3.736 101.728)" fill="#f5dc95"/>
        <rect id="Rectángulo_25953" data-name="Rectángulo 25953" width="5.23" height="42.353" transform="translate(32.876 101.728)" fill="#f5dc95"/>
        <path id="Trazado_74931" data-name="Trazado 74931" d="M3328.5,1492.052a2.662,2.662,0,1,1-2.662-2.662A2.662,2.662,0,0,1,3328.5,1492.052Z" transform="translate(-3302.114 -1440.434)" fill="#a2dff2"/>
        <circle id="Elipse_2367" data-name="Elipse 2367" cx="1.308" cy="1.308" r="1.308" transform="translate(16.158 37.981)" fill="#a2dff2"/>
        <path id="Trazado_74932" data-name="Trazado 74932" d="M3321.348,1390.458a3.269,3.269,0,1,1-3.269-3.269A3.269,3.269,0,0,1,3321.348,1390.458Z" transform="translate(-3295.383 -1358.205)" fill="#a2dff2"/>
        <path id="Trazado_74933" data-name="Trazado 74933" d="M3309.715,1337.6a1.635,1.635,0,1,1-1.635-1.634A1.634,1.634,0,0,1,3309.715,1337.6Z" transform="translate(-3288.654 -1316.994)" fill="#fff"/>
        <path id="Trazado_74934" data-name="Trazado 74934" d="M3343.9,1467.61a1.4,1.4,0,1,1-1.4-1.4A1.4,1.4,0,0,1,3343.9,1467.61Z" transform="translate(-3316.534 -1421.783)" fill="#a2dff2"/>
        <circle id="Elipse_2368" data-name="Elipse 2368" cx="2.708" cy="2.708" r="2.708" transform="translate(13.635 69.643) rotate(-45)" fill="#fff"/>
        <path id="Trazado_74935" data-name="Trazado 74935" d="M3332.866,1616.351a1.261,1.261,0,1,1-1.261-1.261A1.261,1.261,0,0,1,3332.866,1616.351Z" transform="translate(-3307.882 -1541.571)" fill="#fff"/>
        <path id="Trazado_74936" data-name="Trazado 74936" d="M3315.869,1705.352a.887.887,0,1,1-.887-.887A.887.887,0,0,1,3315.869,1705.352Z" transform="translate(-3294.808 -1613.481)" fill="#fff"/>
        <path id="Trazado_74937" data-name="Trazado 74937" d="M3322.483,1794.212a2.522,2.522,0,1,1-2.521-2.522A2.522,2.522,0,0,1,3322.483,1794.212Z" transform="translate(-3297.5 -1683.661)" fill="#fff"/>
        <circle id="Elipse_2369" data-name="Elipse 2369" cx="1.732" cy="1.732" r="1.732" transform="translate(17.555 115.73)" fill="#fff"/>
        <path id="Trazado_74938" data-name="Trazado 74938" d="M3331.441,1279a3.1,3.1,0,1,1-3.1-3.1A3.1,3.1,0,0,1,3331.441,1279Z" transform="translate(-3303.78 -1268.668)" fill="#fff"/>
        <path id="Trazado_74939" data-name="Trazado 74939" d="M3288.844,1240.858a1.992,1.992,0,1,1-1.992-1.992A1.992,1.992,0,0,1,3288.844,1240.858Z" transform="translate(-3271.285 -1238.866)" fill="#fff"/>
      </g>
      <g id="Grupo_26393" data-name="Grupo 26393" transform="translate(47.084 155.486)">
        <g id="Grupo_26392" data-name="Grupo 26392" transform="translate(0 0)">
          <path id="Trazado_74940" data-name="Trazado 74940" d="M655.246,1436.924v-34.8H632.158v34.8a7.228,7.228,0,0,1-.21,1.73l-18.16,73.715a7.233,7.233,0,0,0,7.023,8.962h45.783a7.233,7.233,0,0,0,7.023-8.962l-18.16-73.715A7.225,7.225,0,0,1,655.246,1436.924Z" transform="translate(-613.184 -1401.73)" fill="#fff"/>
          <path id="Trazado_74941" data-name="Trazado 74941" d="M664.985,1520.112H619.2a7.623,7.623,0,0,1-7.4-9.447l18.16-73.714a6.844,6.844,0,0,0,.2-1.637v-35.193h23.869v35.193a6.847,6.847,0,0,0,.2,1.637l18.16,73.714a7.623,7.623,0,0,1-7.4,9.447ZM630.941,1400.9v34.412a7.639,7.639,0,0,1-.221,1.824l-18.16,73.714a6.842,6.842,0,0,0,6.643,8.478h45.783a6.842,6.842,0,0,0,6.643-8.478l-18.16-73.714a7.627,7.627,0,0,1-.221-1.824V1400.9Z" transform="translate(-611.576 -1400.121)" fill="#2e5b9a"/>
        </g>
        <path id="Trazado_74942" data-name="Trazado 74942" d="M669.288,1616.3c-2.328-.053-12.713,3.476-22.54,2.971l-14.5,60.583c-.882,4.457,1.829,8.762,5.517,8.762h41.652c3.688,0,6.4-4.305,5.517-8.762Z" transform="translate(-628.075 -1574.056)" fill="#9ec8ff"/>
        <path id="Trazado_74943" data-name="Trazado 74943" d="M792.328,1701.383a4.35,4.35,0,1,1-4.35-4.35A4.35,4.35,0,0,1,792.328,1701.383Z" transform="translate(-750.007 -1639.012)" fill="#fff"/>
        <path id="Trazado_74944" data-name="Trazado 74944" d="M735.163,1598.291a1.939,1.939,0,1,1-1.939-1.938A1.939,1.939,0,0,1,735.163,1598.291Z" transform="translate(-707.892 -1558.006)" fill="#9ec8ff"/>
        <circle id="Elipse_2370" data-name="Elipse 2370" cx="1.996" cy="1.996" r="1.996" transform="translate(31.031 18.433)" fill="#9ec8ff"/>
        <path id="Trazado_74945" data-name="Trazado 74945" d="M742.722,1431.674a4.183,4.183,0,1,1-4.183-4.183A4.182,4.182,0,0,1,742.722,1431.674Z" transform="translate(-710.364 -1422.143)" fill="#9ec8ff"/>
        <circle id="Elipse_2371" data-name="Elipse 2371" cx="3.878" cy="3.878" r="3.878" transform="translate(25.866 87.906)" fill="#fff"/>
        <path id="Trazado_74946" data-name="Trazado 74946" d="M717.13,1648.556a2.844,2.844,0,1,1-2.844-2.844A2.844,2.844,0,0,1,717.13,1648.556Z" transform="translate(-691.927 -1597.72)" fill="#fff"/>
        <circle id="Elipse_2372" data-name="Elipse 2372" cx="1.673" cy="1.673" r="1.673" transform="translate(15.45 75.177) rotate(-22.5)" fill="#fff"/>
        <path id="Trazado_74947" data-name="Trazado 74947" d="M677.026,1940.922a3.011,3.011,0,1,1-3.011-3.011A3.011,3.011,0,0,1,677.026,1940.922Z" transform="translate(-659.39 -1832.819)" fill="#fff"/>
      </g>
      <g id="Grupo_26395" data-name="Grupo 26395" transform="translate(79.553 185.396)">
        <g id="Grupo_26394" data-name="Grupo 26394">
          <path id="Trazado_74948" data-name="Trazado 74948" d="M810.751,1581.087v-25.905H793.565v25.905a5.386,5.386,0,0,1-.156,1.288l-13.517,54.869a5.384,5.384,0,0,0,5.227,6.671H819.2a5.384,5.384,0,0,0,5.227-6.671l-13.517-54.869A5.377,5.377,0,0,1,810.751,1581.087Z" transform="translate(-779.342 -1554.791)" fill="#fff"/>
          <path id="Trazado_74949" data-name="Trazado 74949" d="M817.589,1642.7H783.51a5.774,5.774,0,0,1-5.607-7.156l13.517-54.869a5,5,0,0,0,.145-1.194v-26.3h17.967v26.3a4.988,4.988,0,0,0,.145,1.194l13.517,54.869a5.775,5.775,0,0,1-5.606,7.156Zm-25.241-88.733v25.514a5.782,5.782,0,0,1-.168,1.381l-13.517,54.869a4.993,4.993,0,0,0,4.848,6.187h34.078a4.993,4.993,0,0,0,4.848-6.187l-13.517-54.869a5.766,5.766,0,0,1-.168-1.381v-25.514Z" transform="translate(-777.734 -1553.182)" fill="#2e5b9a"/>
        </g>
        <path id="Trazado_74950" data-name="Trazado 74950" d="M829.536,1823.856c-1.121,1.134-5.566,1.329-7.97,1.134-7.533-.612-9.843-2.482-16.822-2.84l-6.5,27.364c-.627,3.166,1.3,6.224,3.919,6.224h29.585c2.62,0,4.545-3.058,3.919-6.224Z" transform="translate(-794.143 -1769.59)" fill="#9bd6e8"/>
        <path id="Trazado_74951" data-name="Trazado 74951" d="M916.9,1788.875a3.238,3.238,0,1,1-3.238-3.238A3.238,3.238,0,0,1,916.9,1788.875Z" transform="translate(-884.492 -1740.212)" fill="#9bd6e8"/>
        <circle id="Elipse_2373" data-name="Elipse 2373" cx="1.443" cy="1.443" r="1.443" transform="matrix(0.923, -0.384, 0.384, 0.923, 26.284, 36.033)" fill="#9bd6e8"/>
        <path id="Trazado_74952" data-name="Trazado 74952" d="M886.672,1617.789a1.486,1.486,0,1,1-1.486-1.486A1.486,1.486,0,0,1,886.672,1617.789Z" transform="translate(-862.994 -1603.968)" fill="#9bd6e8"/>
        <path id="Trazado_74953" data-name="Trazado 74953" d="M881.6,1648.734a3.113,3.113,0,1,1-3.113-3.113A3.113,3.113,0,0,1,881.6,1648.734Z" transform="translate(-856.292 -1627.557)" fill="#9bd6e8"/>
        <path id="Trazado_74954" data-name="Trazado 74954" d="M860.639,1913.951a2.886,2.886,0,1,1-2.886-2.886A2.886,2.886,0,0,1,860.639,1913.951Z" transform="translate(-839.794 -1841.13)" fill="#fff"/>
        <path id="Trazado_74955" data-name="Trazado 74955" d="M860.75,1841.253a2.117,2.117,0,1,1-2.117-2.117A2.117,2.117,0,0,1,860.75,1841.253Z" transform="translate(-841.121 -1783.257)" fill="#fff"/>
        <path id="Trazado_74956" data-name="Trazado 74956" d="M918.01,1927.079a1.245,1.245,0,1,1-1.245-1.245A1.245,1.245,0,0,1,918.01,1927.079Z" transform="translate(-888.594 -1853.013)" fill="#fff"/>
        <path id="Trazado_74957" data-name="Trazado 74957" d="M826.962,1956.234a2.242,2.242,0,1,1-2.241-2.242A2.242,2.242,0,0,1,826.962,1956.234Z" transform="translate(-813.735 -1875.668)" fill="#fff"/>
        <circle id="Elipse_2374" data-name="Elipse 2374" cx="3.362" cy="3.362" r="3.362" transform="translate(28.48 83.782) rotate(-76.617)" fill="#fff"/>
      </g>
      <g id="Grupo_26396" data-name="Grupo 26396" transform="translate(393.783 68.403)">
        <path id="Trazado_74958" data-name="Trazado 74958" d="M2393.705,960.612c-.1-.106-2.614-2.591-7.617-2.171l-.326-3.895c6.967-.584,10.623,3.21,10.775,3.372l-2.846,2.678Z" transform="translate(-2385.762 -954.486)" fill="#fff"/>
      </g>
      <g id="Grupo_26400" data-name="Grupo 26400" transform="translate(364.091 57.376)">
        <path id="Trazado_74959" data-name="Trazado 74959" d="M2266.346,924.09c-3.365,8.752-11.951,13.8-19.179,11.284s-10.36-11.658-7-20.411,11.951-13.8,19.179-11.284S2269.71,915.338,2266.346,924.09Z" transform="translate(-2237.842 -902.059)" fill="#dbe5eb" opacity="0.5"/>
        <ellipse id="Elipse_2375" data-name="Elipse 2375" cx="15.811" cy="10.384" rx="15.811" ry="10.384" transform="translate(29.458 36.499) rotate(-67.604)" fill="#dbe5eb" opacity="0.5"/>
        <g id="Grupo_26397" data-name="Grupo 26397">
          <path id="Trazado_74960" data-name="Trazado 74960" d="M2246.979,932.992a12.593,12.593,0,0,1-4.161-.7,12.994,12.994,0,0,1-7.465-6.96,19.035,19.035,0,0,1-.121-14.724c3.546-9.225,12.7-14.544,20.412-11.856a13,13,0,0,1,7.465,6.96,19.036,19.036,0,0,1,.121,14.723C2260.308,928.042,2253.573,932.992,2246.979,932.992Zm4.476-32.986c-5.8,0-11.771,4.47-14.4,11.306a17.079,17.079,0,0,0,.07,13.2,10.912,10.912,0,0,0,6.335,5.937,10.74,10.74,0,0,0,3.546.594c5.8,0,11.771-4.47,14.4-11.306a17.078,17.078,0,0,0-.07-13.2A10.913,10.913,0,0,0,2255,900.6,10.735,10.735,0,0,0,2251.455,900.005Z" transform="translate(-2233.815 -898.057)" fill="#fff"/>
        </g>
        <g id="Grupo_26398" data-name="Grupo 26398" transform="translate(32.771 9.708)">
          <path id="Trazado_74961" data-name="Trazado 74961" d="M2410.544,979.994a8.189,8.189,0,0,1-2.708-.453,8.753,8.753,0,0,1-5.02-4.806c-1.828-3.943-1.721-9.417.288-14.642a22.018,22.018,0,0,1,7.219-9.868c3.192-2.335,6.565-3.058,9.5-2.035a8.751,8.751,0,0,1,5.02,4.806c1.828,3.943,1.721,9.417-.287,14.641a22.015,22.015,0,0,1-7.219,9.868A11.639,11.639,0,0,1,2410.544,979.994Zm6.552-30.3c-4.515,0-9.63,4.5-12.168,11.105-1.822,4.741-1.949,9.645-.339,13.118a6.849,6.849,0,0,0,3.891,3.783c4.918,1.716,11.311-3.111,14.25-10.759,1.823-4.741,1.949-9.645.339-13.118a6.849,6.849,0,0,0-3.89-3.783A6.294,6.294,0,0,0,2417.1,949.689Z" transform="translate(-2401.518 -947.738)" fill="#fff"/>
        </g>
        <g id="Grupo_26399" data-name="Grupo 26399" transform="translate(0.982 0.972)" opacity="0.5">
          <path id="Trazado_74962" data-name="Trazado 74962" d="M2428.839,990.039l-22.3,11.62a13.028,13.028,0,0,0,2.463,8.731l19.423-11.356A19.2,19.2,0,0,0,2428.839,990.039Z" transform="translate(-2373.758 -973.036)" fill="#fff" opacity="0.5"/>
          <path id="Trazado_74963" data-name="Trazado 74963" d="M2427.27,960.569l-16.752,8.409q-.416.867-.772,1.79a23.525,23.525,0,0,0-1.107,3.788l20.9-11.124A8.47,8.47,0,0,0,2427.27,960.569Z" transform="translate(-2375.458 -949.325)" fill="#fff" opacity="0.5"/>
          <path id="Trazado_74964" data-name="Trazado 74964" d="M2265.435,931.548c-8.125,3.863-18.245,8.669-26.576,12.612a15.816,15.816,0,0,0,2.539,9.668l26.235-12.223A16.2,16.2,0,0,0,2265.435,931.548Z" transform="translate(-2238.84 -925.975)" fill="#fff" opacity="0.5"/>
          <path id="Trazado_74965" data-name="Trazado 74965" d="M2247.7,914.033l20.667-9.5a11.339,11.339,0,0,0-1.873-.851C2259.53,901.25,2251.3,905.858,2247.7,914.033Z" transform="translate(-2245.971 -903.031)" fill="#fff" opacity="0.5"/>
        </g>
      </g>
      <path id="Trazado_74966" data-name="Trazado 74966" d="M2137.725,677.113c-6.531,3.029-3.712-8.219-3.833-17.66-.081-6.253-11.338-40.224,5.26-47.789s31.426-2.288,41.061-6.21,37,3.969,39.8,17.137c2.223,10.446,7.649,17.642,11.389,24.371s-9.574,18.3-20.355,19.056c-16.078,1.121-37.533-29.419-49.166-26.9S2143.133,674.6,2137.725,677.113Z" transform="translate(-1786.266 -604.445)" fill="#303c60"/>
      <path id="Trazado_74967" data-name="Trazado 74967" d="M2120.014,832.771l27.669,18.785-3.326,4.38-25.525-21.609Z" transform="translate(-1777.21 -788.153)" fill="#fff"/>
      <path id="Trazado_74968" data-name="Trazado 74968" d="M2066.63,837.132c0,9.023-4.075,17.561-9.844,17.561s-10.447-7.314-10.447-16.337,4.677-16.337,10.447-16.337S2066.63,828.11,2066.63,837.132Z" transform="translate(-1718.884 -779.503)" fill="#f09959"/>
      <path id="Trazado_74969" data-name="Trazado 74969" d="M2950.2,1783.088c16.25,3.736,24.843,13.317,28.206,23.47s8.864,19.976-4.907,21.042-30.276-2.556-30.8-3.547S2950.2,1783.088,2950.2,1783.088Z" transform="translate(-2440.062 -1552.766)" fill="#9bd6e8" opacity="0.5"/>
      <path id="Trazado_74970" data-name="Trazado 74970" d="M2832.629,1795.514c17.932,7.752,15.679,34.9,10.209,37.172-25.526,10.625-38.387,3.607-49.062-1.867s-8.406-15.722-8.406-15.722.494-5.539,17.372-12.629C2815.071,1797.289,2832.629,1795.514,2832.629,1795.514Z" transform="translate(-2313.336 -1562.763)" fill="#9ec8ff"/>
      <path id="Trazado_74971" data-name="Trazado 74971" d="M2826.277,1772.937c-13.58-13.5-32.333-11.8-40.756-8.493s-22.652,9.011-12.889,10.248,22.6-.549,27.085.9S2826.277,1772.937,2826.277,1772.937Z" transform="translate(-2300.598 -1535.89)" fill="#9ec8ff"/>
    </g>
    <g id="Grupo_26410" data-name="Grupo 26410" transform="translate(455.757 285.259)">
      <g id="Grupo_26402" data-name="Grupo 26402" transform="translate(19.641 34.589)">
        <path id="Trazado_74972" data-name="Trazado 74972" d="M1261.985,720.5h-20.063a.977.977,0,0,1-.846-.489l-10.031-17.375a.977.977,0,0,1,0-.977l10.031-17.375a.977.977,0,0,1,.846-.489h20.063a.978.978,0,0,1,.846.489l10.031,17.375a.976.976,0,0,1,0,.977l-10.031,17.375A.978.978,0,0,1,1261.985,720.5Zm-19.5-1.954h18.934l9.467-16.4-9.467-16.4h-18.934l-9.467,16.4Z" transform="translate(-1230.914 -683.793)" fill="#fff"/>
      </g>
      <g id="Grupo_26403" data-name="Grupo 26403" transform="translate(47.884 39.131)">
        <path id="Trazado_74973" data-name="Trazado 74973" d="M1383.621,721.333a.488.488,0,0,1-.423-.244l-7.692-13.322a.489.489,0,0,1,.846-.488l7.691,13.322a.489.489,0,0,1-.423.733Z" transform="translate(-1375.441 -707.034)" fill="#fff"/>
      </g>
      <g id="Grupo_26404" data-name="Grupo 26404" transform="translate(24.81 39.131)">
        <path id="Trazado_74974" data-name="Trazado 74974" d="M1257.851,721.333a.489.489,0,0,1-.423-.733l7.692-13.322a.488.488,0,1,1,.846.488l-7.691,13.322A.488.488,0,0,1,1257.851,721.333Z" transform="translate(-1257.363 -707.034)" fill="#fff"/>
      </g>
      <g id="Grupo_26405" data-name="Grupo 26405" transform="translate(32.501 65.774)">
        <path id="Trazado_74975" data-name="Trazado 74975" d="M1312.594,844.355h-15.382a.489.489,0,0,1,0-.977h15.382a.489.489,0,1,1,0,.977Z" transform="translate(-1296.723 -843.378)" fill="#fff"/>
      </g>
      <g id="Grupo_26406" data-name="Grupo 26406" transform="translate(80.014 34.589)">
        <path id="Trazado_74976" data-name="Trazado 74976" d="M1550.872,720.5a.977.977,0,0,1-.847-.489l-10.031-17.375a.977.977,0,0,1,0-.977l10.031-17.375a.977.977,0,0,1,.846-.489h20.063a.977.977,0,1,1,0,1.954h-19.5l-9.467,16.4,9.749,16.886a.977.977,0,0,1-.845,1.466Z" transform="translate(-1539.862 -683.793)" fill="#fff"/>
      </g>
      <g id="Grupo_26407" data-name="Grupo 26407" transform="translate(19.351 69.338)">
        <path id="Trazado_74977" data-name="Trazado 74977" d="M1230.4,880.947a.977.977,0,0,1-.845-1.466l10.031-17.375a.977.977,0,0,1,1.692.977l-10.031,17.375A.977.977,0,0,1,1230.4,880.947Z" transform="translate(-1229.427 -861.618)" fill="#fff"/>
      </g>
      <g id="Grupo_26408" data-name="Grupo 26408" transform="translate(110.108 17.214)">
        <path id="Trazado_74978" data-name="Trazado 74978" d="M1694.839,614.208a.977.977,0,0,1-.845-1.466l10.031-17.375a.977.977,0,0,1,1.692.977l-10.031,17.375A.976.976,0,0,1,1694.839,614.208Z" transform="translate(-1693.863 -594.878)" fill="#fff"/>
      </g>
      <g id="Grupo_26409" data-name="Grupo 26409" transform="translate(49.92 17.214)">
        <path id="Trazado_74979" data-name="Trazado 74979" d="M1416.931,631.582h-20.063a.977.977,0,0,1-.846-.489l-10.031-17.375a.978.978,0,0,1,0-.977l10.031-17.375a.977.977,0,0,1,1.692.977l-9.749,16.886,9.467,16.4h19.5a.977.977,0,0,1,0,1.954Z" transform="translate(-1385.86 -594.878)" fill="#fff"/>
      </g>
      <path id="Trazado_74980" data-name="Trazado 74980" d="M1799.084,551.914h-28.235a2.6,2.6,0,1,1,0-5.2h28.235a2.6,2.6,0,1,1,0,5.2Z" transform="translate(-1643.605 -538.911)" fill="#fff"/>
      <path id="Trazado_74981" data-name="Trazado 74981" d="M1799.084,511.989h-28.235a2.6,2.6,0,1,1,0-5.2h28.235a2.6,2.6,0,1,1,0,5.2Z" transform="translate(-1643.605 -506.788)" fill="#fff"/>
      <path id="Trazado_74982" data-name="Trazado 74982" d="M1748.074,694.465h-12.161a2.836,2.836,0,0,1,0-5.672h12.161a2.836,2.836,0,0,1,0,5.672Z" transform="translate(-1615.307 -653.227)" fill="#fff"/>
      <path id="Rectángulo_25954" data-name="Rectángulo 25954" d="M3.529,0H13.746a3.529,3.529,0,0,1,3.529,3.529v0a3.529,3.529,0,0,1-3.529,3.529H3.529A3.529,3.529,0,0,1,0,3.53v0A3.529,3.529,0,0,1,3.529,0Z" transform="translate(62.786 7.802)" fill="#fff"/>
      <path id="Rectángulo_25955" data-name="Rectángulo 25955" d="M4.087,0H23.406a4.087,4.087,0,0,1,4.087,4.087v0a4.087,4.087,0,0,1-4.087,4.087H4.087A4.087,4.087,0,0,1,0,4.087v0A4.087,4.087,0,0,1,4.087,0Z" transform="translate(94.736 73.374)" fill="#fff"/>
      <path id="Rectángulo_25956" data-name="Rectángulo 25956" d="M3.436,0h11.7a3.436,3.436,0,0,1,3.436,3.436v0a3.437,3.437,0,0,1-3.437,3.437H3.436A3.436,3.436,0,0,1,0,3.437v0A3.436,3.436,0,0,1,3.436,0Z" transform="translate(0 89.907)" fill="#fff"/>
    </g>
    <g id="Grupo_26420" data-name="Grupo 26420" transform="translate(787.352 343.445)">
      <g id="Grupo_26411" data-name="Grupo 26411" transform="translate(36.606 10.034)">
        <path id="Trazado_74983" data-name="Trazado 74983" d="M3039.386,885.313h-15.857a.978.978,0,0,1-.846-.489l-7.928-13.732a.975.975,0,0,1,0-.977l7.928-13.732a.977.977,0,0,1,.846-.489h15.857a.978.978,0,0,1,.846.489l7.928,13.732a.978.978,0,0,1,0,.977l-7.928,13.732A.978.978,0,0,1,3039.386,885.313Zm-15.292-1.954h14.728l7.365-12.755-7.365-12.755h-14.728l-7.365,12.755Z" transform="translate(-3014.623 -855.894)" fill="#fff"/>
      </g>
      <g id="Grupo_26412" data-name="Grupo 26412" transform="translate(60.977 24.104)">
        <path id="Trazado_74984" data-name="Trazado 74984" d="M3164.1,957.315h-15.857a.977.977,0,0,1-.846-.489l-7.928-13.732a.976.976,0,0,1,0-.977l7.928-13.732a.977.977,0,0,1,.846-.489H3164.1a.978.978,0,0,1,.846.489l7.928,13.732a.978.978,0,0,1,0,.977l-7.928,13.732A.978.978,0,0,1,3164.1,957.315Zm-15.292-1.954h14.728l7.365-12.755-7.365-12.755h-14.728l-7.365,12.755Z" transform="translate(-3139.335 -927.896)" fill="#fff"/>
      </g>
      <g id="Grupo_26413" data-name="Grupo 26413" transform="translate(36.019 37.836)">
        <path id="Trazado_74985" data-name="Trazado 74985" d="M3012.6,1013.854a.977.977,0,0,1-.845-1.466l7.928-13.732a.977.977,0,1,1,1.692.977l-7.928,13.732A.977.977,0,0,1,3012.6,1013.854Z" transform="translate(-3011.62 -998.167)" fill="#fff"/>
      </g>
      <g id="Grupo_26414" data-name="Grupo 26414" transform="translate(108.676 37.687)">
        <path id="Trazado_74986" data-name="Trazado 74986" d="M3392.338,1013.09a.977.977,0,0,1-.847-.489l-7.928-13.732a.977.977,0,0,1,1.692-.977l7.928,13.732a.977.977,0,0,1-.845,1.466Z" transform="translate(-3383.432 -997.404)" fill="#fff"/>
      </g>
      <g id="Grupo_26415" data-name="Grupo 26415" transform="translate(20.163 24.104)">
        <path id="Trazado_74987" data-name="Trazado 74987" d="M2947.312,929.85h-15.856a.977.977,0,0,1,0-1.954h15.856a.977.977,0,0,1,0,1.954Z" transform="translate(-2930.478 -927.896)" fill="#fff"/>
      </g>
      <g id="Grupo_26416" data-name="Grupo 26416" transform="translate(84.762 10.034)">
        <path id="Trazado_74988" data-name="Trazado 74988" d="M3285.813,885.312h-15.856a.978.978,0,0,1-.846-.489l-7.928-13.732a.976.976,0,0,1,0-.977l7.928-13.732a.977.977,0,1,1,1.692.977l-7.646,13.244,7.365,12.755h15.292a.977.977,0,0,1,0,1.954Z" transform="translate(-3261.051 -855.893)" fill="#fff"/>
      </g>
      <g id="Grupo_26417" data-name="Grupo 26417" transform="translate(82.836 27.496)">
        <path id="Trazado_74989" data-name="Trazado 74989" d="M3258.081,957.3a.489.489,0,0,1-.423-.244l-6.392-11.071a.489.489,0,1,1,.846-.488l6.392,11.071a.489.489,0,0,1-.423.733Z" transform="translate(-3251.2 -945.25)" fill="#fff"/>
      </g>
      <g id="Grupo_26418" data-name="Grupo 26418" transform="translate(40.472 24.011)">
        <path id="Trazado_74990" data-name="Trazado 74990" d="M3041.288,939.468a.489.489,0,0,1-.424-.244l-6.392-11.071a.489.489,0,0,1,.846-.489l6.392,11.071a.489.489,0,0,1-.423.733Z" transform="translate(-3034.407 -927.419)" fill="#fff"/>
      </g>
      <g id="Grupo_26419" data-name="Grupo 26419" transform="translate(58.596 13.184)">
        <path id="Trazado_74991" data-name="Trazado 74991" d="M3134.034,884.059a.489.489,0,0,1-.424-.244l-6.392-11.071a.489.489,0,1,1,.846-.489l6.392,11.071a.489.489,0,0,1-.423.733Z" transform="translate(-3127.153 -872.01)" fill="#fff"/>
      </g>
      <rect id="Rectángulo_25957" data-name="Rectángulo 25957" width="18.205" height="5.536" rx="2.768" transform="translate(108.479 30.752)" fill="#fff"/>
      <rect id="Rectángulo_25958" data-name="Rectángulo 25958" width="15.857" height="7.708" rx="3.854" transform="translate(85.739)" fill="#fff"/>
      <path id="Rectángulo_25959" data-name="Rectángulo 25959" d="M2.973,0H19.124A2.973,2.973,0,0,1,22.1,2.973v0a2.973,2.973,0,0,1-2.973,2.973H2.973A2.973,2.973,0,0,1,0,2.973v0A2.973,2.973,0,0,1,2.973,0Z" transform="translate(112.275 54.89)" fill="#fff"/>
      <path id="Rectángulo_25960" data-name="Rectángulo 25960" d="M2.808,0H18.333a2.808,2.808,0,0,1,2.808,2.808v0a2.808,2.808,0,0,1-2.808,2.808H2.808A2.808,2.808,0,0,1,0,2.808v0A2.808,2.808,0,0,1,2.808,0Z" transform="translate(18.498 55.055)" fill="#fff"/>
      <path id="Rectángulo_25961" data-name="Rectángulo 25961" d="M3.311,0H15.187A3.311,3.311,0,0,1,18.5,3.311v0a3.311,3.311,0,0,1-3.311,3.311H3.311A3.311,3.311,0,0,1,0,3.311v0A3.311,3.311,0,0,1,3.311,0Z" transform="translate(0 21.361)" fill="#fff"/>
    </g>
    <circle id="Elipse_2376" data-name="Elipse 2376" cx="9.15" cy="9.15" r="9.15" transform="translate(324.847 370.503) rotate(-34.099)" fill="#fff"/>
    <path id="Trazado_74992" data-name="Trazado 74992" d="M536.7,1038.941H473.666a1.681,1.681,0,0,1,0-3.362H536.7a1.681,1.681,0,0,1,0,3.362Z" transform="translate(-144.892 -646.987)" fill="#fff"/>
    <path id="Trazado_74993" data-name="Trazado 74993" d="M536.7,1075.219H473.666a1.681,1.681,0,1,1,0-3.362H536.7a1.681,1.681,0,1,1,0,3.362Z" transform="translate(-144.892 -676.176)" fill="#fff"/>
    <g id="Grupo_26424" data-name="Grupo 26424" transform="translate(419.369 395.72)">
      <circle id="Elipse_2377" data-name="Elipse 2377" cx="16.064" cy="16.064" r="16.064" transform="translate(0 35.147)" fill="#fff"/>
      <g id="Grupo_26421" data-name="Grupo 26421" transform="translate(4.469 39.616)">
        <path id="Trazado_74994" data-name="Trazado 74994" d="M978.661,1297.971a11.6,11.6,0,1,1,11.6-11.6A11.608,11.608,0,0,1,978.661,1297.971Zm0-22.214a10.618,10.618,0,1,0,10.618,10.618A10.63,10.63,0,0,0,978.661,1275.757Z" transform="translate(-967.066 -1274.78)" fill="#9ec8ff"/>
      </g>
      <g id="Grupo_26422" data-name="Grupo 26422" transform="translate(32.825 10.948)">
        <path id="Trazado_74995" data-name="Trazado 74995" d="M1113.154,1160.085a.977.977,0,0,1-.452-1.844l57.726-30.052a.977.977,0,1,1,.9,1.733l-57.726,30.052A.973.973,0,0,1,1113.154,1160.085Z" transform="translate(-1112.176 -1128.078)" fill="#fff"/>
      </g>
      <g id="Grupo_26423" data-name="Grupo 26423" transform="translate(35.41 48.847)">
        <path id="Trazado_74996" data-name="Trazado 74996" d="M1158.331,1325.36h-.043l-31.95-1.387a.977.977,0,0,1,.085-1.952l31.95,1.387a.977.977,0,0,1-.042,1.953Z" transform="translate(-1125.403 -1322.019)" fill="#fff"/>
      </g>
      <path id="Trazado_74997" data-name="Trazado 74997" d="M1438,1079.036a6.983,6.983,0,1,1-6.983-6.983A6.983,6.983,0,0,1,1438,1079.036Z" transform="translate(-1330.263 -1072.053)" fill="#fff"/>
      <path id="Trazado_74998" data-name="Trazado 74998" d="M1330.946,1303.354a7.472,7.472,0,1,1-7.472-7.472A7.472,7.472,0,0,1,1330.946,1303.354Z" transform="translate(-1243.346 -1252.143)" fill="#fff"/>
    </g>
    <g id="Grupo_26429" data-name="Grupo 26429" transform="translate(785.589 426.319)">
      <g id="Grupo_26425" data-name="Grupo 26425" transform="translate(0 0)">
        <path id="Trazado_74999" data-name="Trazado 74999" d="M2833.528,1247.113h-12.036a3.222,3.222,0,0,1-3.219-3.219v-12.036a3.222,3.222,0,0,1,3.219-3.219h12.036a3.222,3.222,0,0,1,3.219,3.219v12.036A3.222,3.222,0,0,1,2833.528,1247.113Zm-12.036-16.519a1.266,1.266,0,0,0-1.265,1.264v12.036a1.266,1.266,0,0,0,1.265,1.265h12.036a1.266,1.266,0,0,0,1.265-1.265v-12.036a1.266,1.266,0,0,0-1.265-1.264Z" transform="translate(-2818.273 -1228.64)" fill="#fff"/>
      </g>
      <g id="Grupo_26426" data-name="Grupo 26426" transform="translate(0 26.926)">
        <path id="Trazado_75000" data-name="Trazado 75000" d="M2833.528,1384.9h-12.036a3.222,3.222,0,0,1-3.219-3.219v-12.036a3.222,3.222,0,0,1,3.219-3.218h12.036a3.222,3.222,0,0,1,3.219,3.218v12.036A3.222,3.222,0,0,1,2833.528,1384.9Zm-12.036-16.519a1.266,1.266,0,0,0-1.265,1.264v12.036a1.266,1.266,0,0,0,1.265,1.264h12.036a1.266,1.266,0,0,0,1.265-1.264v-12.036a1.266,1.266,0,0,0-1.265-1.264Z" transform="translate(-2818.273 -1366.431)" fill="#fff"/>
      </g>
      <g id="Grupo_26427" data-name="Grupo 26427" transform="translate(3.029 0.897)">
        <path id="Trazado_75001" data-name="Trazado 75001" d="M2839.983,1246.016l-.053,0a.978.978,0,0,1-.709-.364l-5.23-6.514a.977.977,0,1,1,1.523-1.224l4.548,5.664,10.064-10.063a.977.977,0,0,1,1.382,1.382l-10.834,10.834A.976.976,0,0,1,2839.983,1246.016Z" transform="translate(-2833.776 -1233.228)" fill="#f39892"/>
      </g>
      <g id="Grupo_26428" data-name="Grupo 26428" transform="translate(3.03 27.167)">
        <path id="Trazado_75002" data-name="Trazado 75002" d="M2839.983,1380.449h-.053a.976.976,0,0,1-.708-.364l-5.23-6.514a.977.977,0,0,1,1.524-1.224l4.548,5.664,10.063-10.064a.977.977,0,0,1,1.382,1.382l-10.834,10.834A.977.977,0,0,1,2839.983,1380.449Z" transform="translate(-2833.776 -1367.661)" fill="#f39892"/>
      </g>
      <path id="Trazado_75003" data-name="Trazado 75003" d="M3010.8,1269.276h-33.081a1.664,1.664,0,0,1,0-3.327H3010.8a1.664,1.664,0,0,1,0,3.327Z" transform="translate(-2945.221 -1258.658)" fill="#fff"/>
      <path id="Trazado_75004" data-name="Trazado 75004" d="M3010.8,1302.425h-33.081a1.663,1.663,0,0,1,0-3.327H3010.8a1.663,1.663,0,0,1,0,3.327Z" transform="translate(-2945.221 -1285.33)" fill="#fff"/>
      <path id="Trazado_75005" data-name="Trazado 75005" d="M3010.8,1408.512h-33.081a1.663,1.663,0,0,1,0-3.327H3010.8a1.663,1.663,0,0,1,0,3.327Z" transform="translate(-2945.221 -1370.686)" fill="#fff"/>
      <path id="Trazado_75006" data-name="Trazado 75006" d="M2997.811,1441.428h-20.095a1.663,1.663,0,0,1,0-3.327h20.095a1.663,1.663,0,1,1,0,3.327Z" transform="translate(-2945.221 -1397.17)" fill="#fff"/>
    </g>
    <g id="Grupo_26430" data-name="Grupo 26430" transform="translate(892.971 252.273)">
      <rect id="Rectángulo_25962" data-name="Rectángulo 25962" width="12.888" height="12.888" rx="6.444" transform="translate(0 0)" fill="#9ec8ff" opacity="0.5"/>
      <rect id="Rectángulo_25963" data-name="Rectángulo 25963" width="12.888" height="12.888" rx="6.444" transform="translate(25.849 0)" fill="#9ec8ff" opacity="0.5"/>
      <rect id="Rectángulo_25964" data-name="Rectángulo 25964" width="12.888" height="12.888" rx="6.444" transform="translate(53.613 0)" fill="#9ec8ff"/>
    </g>
    <path id="Trazado_75007" data-name="Trazado 75007" d="M561.5,629.6h-28.53a1.681,1.681,0,0,1,0-3.362H561.5a1.681,1.681,0,0,1,0,3.362Z" transform="translate(-192.604 -317.638)" fill="#fff"/>
    <path id="Trazado_75008" data-name="Trazado 75008" d="M561.5,660.3h-28.53a1.681,1.681,0,1,1,0-3.362H561.5a1.681,1.681,0,1,1,0,3.362Z" transform="translate(-192.604 -342.341)" fill="#fff"/>
    <path id="Trazado_75009" data-name="Trazado 75009" d="M561.5,697.175h-28.53a1.681,1.681,0,1,1,0-3.362H561.5a1.681,1.681,0,1,1,0,3.362Z" transform="translate(-192.604 -372.006)" fill="#fff"/>
    <rect id="Rectángulo_25965" data-name="Rectángulo 25965" width="39.464" height="17.587" rx="8.794" transform="translate(392.342 349.006)" fill="#9ec8ff"/>
    <rect id="Rectángulo_25966" data-name="Rectángulo 25966" width="120.864" height="6.272" rx="3.136" transform="translate(817.654 281.588)" fill="#9ec8ff" opacity="0.5"/>
    <rect id="Rectángulo_25967" data-name="Rectángulo 25967" width="120.864" height="6.272" rx="3.136" transform="translate(817.654 293.455)" fill="#9ec8ff" opacity="0.5"/>
  </g>
</svg>
