<svg xmlns="http://www.w3.org/2000/svg" width="322.106" height="294.127" viewBox="0 0 322.106 294.127">
  <g id="Grupo_25894" data-name="Grupo 25894" transform="translate(-854.14 -384.601)">
    <path id="Trazado_67859" data-name="Trazado 67859" d="M1097.583,667.471l-44.273-231.7v0l-.351-1.837v0l-1.839-9.622a6.774,6.774,0,0,0-7.926-5.383L859.645,454a6.774,6.774,0,0,0-5.383,7.926l1.839,9.622h0l44.625,233.538a6.774,6.774,0,0,0,7.926,5.383L1092.2,675.4A6.775,6.775,0,0,0,1097.583,667.471Z" transform="translate(0 -31.864)" fill="#0f0e0b" opacity="0.5"/>
    <g id="Grupo_25872" data-name="Grupo 25872" transform="translate(855.701 384.601)">
      <g id="Grupo_25864" data-name="Grupo 25864" transform="translate(0 0)">
        <path id="Trazado_67860" data-name="Trazado 67860" d="M1120.385,633.266a6.775,6.775,0,0,1-5.383,7.926L931.454,676.265a6.775,6.775,0,0,1-7.926-5.383L877.064,427.722a6.774,6.774,0,0,1,5.383-7.926L1066,384.723a6.775,6.775,0,0,1,7.926,5.383Z" transform="translate(-876.943 -384.601)" fill="#d59c67"/>
        <g id="Grupo_25863" data-name="Grupo 25863">
          <path id="Trazado_67861" data-name="Trazado 67861" d="M1066,384.723,882.447,419.8a6.774,6.774,0,0,0-5.383,7.926l2.19,11.461a12.129,12.129,0,0,0,8.567,8.738s65.06,17.762,97.34,11.593,86.208-46.666,86.208-46.666c3.46-2.292,5.422-7.721,4.742-11.281l-2.19-11.461A6.775,6.775,0,0,0,1066,384.723Z" transform="translate(-876.943 -384.601)" fill="#8d5f34"/>
          <path id="Trazado_67862" data-name="Trazado 67862" d="M1066,384.723,882.447,419.8a6.774,6.774,0,0,0-5.383,7.926l1.839,9.622a12.13,12.13,0,0,0,8.567,8.738s65.06,17.762,97.341,11.593,86.208-46.667,86.208-46.667c3.46-2.292,5.422-7.721,4.742-11.281l-1.839-9.622A6.775,6.775,0,0,0,1066,384.723Z" transform="translate(-876.943 -384.601)" fill="#e2ac75"/>
        </g>
      </g>
      <g id="Grupo_25871" data-name="Grupo 25871" transform="translate(93.225 46.075)">
        <g id="Grupo_25865" data-name="Grupo 25865" transform="translate(6.82 5.399)">
          <path id="Trazado_67863" data-name="Trazado 67863" d="M2352.672,1190.734a4.573,4.573,0,0,1-5.344-3.629l-8.6-45.023a4.568,4.568,0,0,1,8.973-1.715l8.6,45.023A4.573,4.573,0,0,1,2352.672,1190.734Zm-10.106-52.887a3.442,3.442,0,0,0-2.732,4.023l8.6,45.023a3.438,3.438,0,1,0,6.755-1.291l-8.6-45.023A3.442,3.442,0,0,0,2342.567,1137.847Z" transform="translate(-2338.644 -1136.656)" fill="#fff"/>
        </g>
        <g id="Grupo_25870" data-name="Grupo 25870">
          <g id="Grupo_25867" data-name="Grupo 25867">
            <path id="Trazado_67864" data-name="Trazado 67864" d="M2262.234,1067.3a11.722,11.722,0,1,1-13.714-9.314A11.722,11.722,0,0,1,2262.234,1067.3Z" transform="translate(-2238.997 -1057.779)" fill="#964f3f"/>
            <g id="Grupo_25866" data-name="Grupo 25866" transform="translate(7.721 7.721)">
              <path id="Trazado_67865" data-name="Trazado 67865" d="M2359.738,1173.832a4,4,0,1,1-4.684-3.181A4,4,0,0,1,2359.738,1173.832Z" transform="translate(-2351.802 -1170.58)" fill="#bababa"/>
              <path id="Trazado_67866" data-name="Trazado 67866" d="M2374.066,1189.493a2.869,2.869,0,1,1-3.356-2.279A2.869,2.869,0,0,1,2374.066,1189.493Z" transform="translate(-2367.245 -1186.027)" fill="#2e2e2d"/>
            </g>
          </g>
          <g id="Grupo_25869" data-name="Grupo 25869" transform="translate(7.931 41.508)">
            <path id="Trazado_67867" data-name="Trazado 67867" d="M2378.115,1673.755a11.722,11.722,0,1,1-13.714-9.313A11.722,11.722,0,0,1,2378.115,1673.755Z" transform="translate(-2354.876 -1664.231)" fill="#964f3f"/>
            <g id="Grupo_25868" data-name="Grupo 25868" transform="translate(7.721 7.721)">
              <path id="Trazado_67868" data-name="Trazado 67868" d="M2475.619,1780.284a4,4,0,1,1-4.684-3.18A4,4,0,0,1,2475.619,1780.284Z" transform="translate(-2467.683 -1777.031)" fill="#bababa"/>
              <path id="Trazado_67869" data-name="Trazado 67869" d="M2489.946,1795.942a2.868,2.868,0,1,1-3.356-2.279A2.869,2.869,0,0,1,2489.946,1795.942Z" transform="translate(-2483.125 -1792.477)" fill="#2e2e2d"/>
            </g>
          </g>
        </g>
      </g>
    </g>
    <rect id="Rectángulo_25795" data-name="Rectángulo 25795" width="180.329" height="257.766" transform="translate(893.506 406.354) rotate(-2.45)" fill="#0f0e0b" opacity="0.3"/>
    <g id="Grupo_25878" data-name="Grupo 25878" transform="translate(895.613 396.305)">
      <g id="Grupo_25873" data-name="Grupo 25873" transform="translate(0 0)">
        <rect id="Rectángulo_25796" data-name="Rectángulo 25796" width="180.329" height="257.766" transform="translate(0 7.708) rotate(-2.45)" fill="#fff"/>
      </g>
      <g id="Grupo_25874" data-name="Grupo 25874" transform="translate(22.482 61.56)">
        <rect id="Rectángulo_25797" data-name="Rectángulo 25797" width="140.524" height="9.226" transform="matrix(0.999, -0.043, 0.043, 0.999, 0, 6.007)" fill="#bab7b7"/>
        <rect id="Rectángulo_25798" data-name="Rectángulo 25798" width="140.524" height="5.48" transform="matrix(0.999, -0.043, 0.043, 0.999, 2.759, 70.504)" fill="#dddcdc"/>
        <rect id="Rectángulo_25799" data-name="Rectángulo 25799" width="140.524" height="5.48" transform="translate(3.088 78.177) rotate(-2.45)" fill="#dddcdc"/>
        <rect id="Rectángulo_25800" data-name="Rectángulo 25800" width="140.524" height="5.48" transform="translate(3.42 85.94) rotate(-2.45)" fill="#dddcdc"/>
        <rect id="Rectángulo_25801" data-name="Rectángulo 25801" width="119.055" height="5.48" transform="translate(3.756 93.787) rotate(-2.45)" fill="#dddcdc"/>
        <rect id="Rectángulo_25802" data-name="Rectángulo 25802" width="39.923" height="3.803" transform="translate(7.151 173.159) rotate(-2.45)" fill="#dddcdc"/>
        <rect id="Rectángulo_25803" data-name="Rectángulo 25803" width="39.923" height="3.721" transform="matrix(0.999, -0.043, 0.043, 0.999, 7.403, 179.052)" fill="#dddcdc"/>
        <rect id="Rectángulo_25804" data-name="Rectángulo 25804" width="39.923" height="3.803" transform="matrix(0.999, -0.043, 0.043, 0.999, 107.66, 168.859)" fill="#dddcdc"/>
        <rect id="Rectángulo_25805" data-name="Rectángulo 25805" width="39.923" height="3.721" transform="matrix(0.999, -0.043, 0.043, 0.999, 107.912, 174.752)" fill="#dddcdc"/>
        <rect id="Rectángulo_25806" data-name="Rectángulo 25806" width="140.524" height="51.338" transform="matrix(0.999, -0.043, 0.043, 0.999, 0.39, 15.127)" fill="#d2d0d1"/>
        <rect id="Rectángulo_25807" data-name="Rectángulo 25807" width="44.924" height="51.337" transform="matrix(0.999, -0.043, 0.043, 0.999, 95.903, 11.041)" fill="#dddcdc"/>
      </g>
      <g id="Grupo_25877" data-name="Grupo 25877" transform="translate(130.598 202.035)">
        <g id="Grupo_25875" data-name="Grupo 25875">
          <path id="Trazado_67870" data-name="Trazado 67870" d="M3388.2,3545.815a19.211,19.211,0,1,1,13.331-6.2A19.086,19.086,0,0,1,3388.2,3545.815Zm-1.539-35.97a16.792,16.792,0,1,0,17.494,16.059A16.811,16.811,0,0,0,3386.665,3509.845Z" transform="translate(-3368.171 -3507.41)" fill="#b2afaf"/>
        </g>
        <g id="Grupo_25876" data-name="Grupo 25876" transform="translate(3.804 3.804)">
          <path id="Trazado_67871" data-name="Trazado 67871" d="M3438.494,3563.008a15.3,15.3,0,0,0-6.69,1.853l1.57,1.909a12.986,12.986,0,0,1,17.514,17.192l1.834,1.727a15.4,15.4,0,0,0-14.228-22.681Zm1.214,28.369a12.982,12.982,0,0,1-11.775-19.511l-1.949-1.454a15.4,15.4,0,0,0,21.708,20.809l-1.716-1.771A12.915,12.915,0,0,1,3439.708,3591.377Z" transform="translate(-3423.745 -3562.993)" fill="#b2afaf"/>
        </g>
      </g>
    </g>
    <g id="Grupo_25879" data-name="Grupo 25879" transform="translate(1010.417 428.02)" opacity="0.5">
      <path id="Trazado_67872" data-name="Trazado 67872" d="M3742.871,1222.645l.03-.033.055-.062.027-.031c.036-.042.072-.084.106-.127l.021-.026.047-.059.034-.043.044-.057.035-.047.041-.056.037-.052.043-.062.059-.088.032-.05.038-.059.032-.052.036-.06.029-.051.039-.069.023-.042.056-.108.02-.041.036-.075.021-.047.032-.073.02-.046c.012-.028.023-.055.033-.083l.014-.035q.022-.059.042-.118c0-.01.007-.021.011-.032l.029-.091.013-.043c.008-.028.016-.055.023-.083l.011-.044c.008-.031.015-.062.022-.093,0-.011.005-.021.007-.032.009-.042.017-.084.025-.127l0-.023c.006-.035.011-.07.016-.105l.006-.041c0-.03.007-.061.01-.091,0-.014,0-.028,0-.042,0-.033.005-.066.008-.1,0-.011,0-.021,0-.032,0-.044,0-.089,0-.134,0-.005,0-.011,0-.016,0-.039,0-.079,0-.118,0-.013,0-.027,0-.04,0-.032,0-.065-.005-.1,0-.014,0-.029,0-.043,0-.034-.006-.069-.01-.1,0-.011,0-.023,0-.034-.006-.046-.012-.093-.019-.14l0-.009c-.007-.043-.015-.086-.024-.13l-.009-.041c-.007-.033-.015-.067-.023-.1,0-.015-.008-.03-.011-.046-.009-.035-.019-.07-.028-.1,0-.013-.008-.026-.011-.039q-.021-.072-.046-.145v0c-.016-.046-.032-.093-.05-.14l-.017-.044c-.013-.034-.027-.069-.042-.1l-.021-.049-.047-.1-.021-.045q-.035-.074-.073-.148c-24.187-46.57-58.85-107.768-58.85-107.768s-.631-1.23-5.414-10.444a4.1,4.1,0,0,0-3.584-6.9l-.08-.154c-8.148-15.689-6.067-19.3-7.58-22.213-.034-.065-.07-.128-.107-.188l-.011-.018c-.036-.057-.073-.112-.111-.165l-.017-.023q-.057-.077-.118-.149l-.02-.022c-.041-.047-.083-.093-.127-.136l-.019-.018c-.045-.044-.091-.086-.139-.126l-.012-.01a2.542,2.542,0,0,0-.318-.225l-.012-.007c-.054-.032-.109-.061-.165-.089l-.02-.01c-.055-.027-.112-.052-.168-.075l-.023-.009c-.058-.023-.117-.044-.177-.064l-.02-.006q-.092-.03-.188-.054l-.01,0a3.623,3.623,0,0,0-.414-.078h-.009c-.069-.009-.139-.016-.21-.021h-.018q-.086-.006-.175-.01l.026-.061.007-.017q.046-.109.086-.219l.007-.019c.027-.074.053-.148.077-.222v0q.037-.115.068-.23h0c.02-.073.037-.145.052-.218,0-.008,0-.015.005-.023.015-.07.028-.14.039-.209,0-.009,0-.017,0-.026.011-.07.021-.14.028-.21,0,0,0-.01,0-.014.008-.072.013-.143.017-.214,0,0,0,0,0,0,0-.069,0-.138,0-.207v-.027q0-.1-.008-.2l0-.031c-.005-.065-.011-.13-.021-.195,0-.007,0-.014,0-.021-.01-.067-.021-.133-.034-.2a.019.019,0,0,0,0,0c-.013-.065-.029-.129-.047-.193l-.007-.027q-.026-.092-.057-.181l-.011-.032c-.021-.06-.044-.119-.07-.177l-.011-.025c-.027-.061-.055-.122-.086-.182s-.075-.138-.116-.2c-.013-.021-.028-.041-.041-.062-.029-.045-.059-.089-.09-.132-.017-.024-.036-.047-.053-.07-.03-.039-.06-.077-.092-.114l-.061-.069q-.048-.053-.1-.1l-.066-.065c-.035-.034-.071-.067-.108-.1s-.044-.04-.068-.059c-.04-.034-.081-.066-.123-.1l-.064-.049c-.054-.039-.109-.077-.166-.114l-.033-.022c-.068-.043-.138-.085-.21-.125l-.062-.032c-.052-.028-.1-.055-.158-.081l-.087-.039c-.047-.022-.095-.043-.144-.063l-.1-.039c-.047-.018-.094-.036-.143-.053l-.1-.036-.146-.045-.109-.031-.154-.039-.109-.026h-.006l4.815-2.5a1.75,1.75,0,0,0,2.508.847h0c.045-.026.089-.056.133-.086l.012-.008c.042-.03.083-.062.124-.095l.017-.014q.059-.049.116-.1l.019-.018c.038-.036.074-.075.11-.114l.019-.021q.053-.06.1-.126l.017-.023q.051-.067.1-.139l.013-.021c.033-.05.065-.1.1-.154l.008-.015c.032-.055.063-.112.092-.171l0,0c.03-.059.058-.121.084-.183l.008-.018c.026-.061.05-.123.073-.187l.01-.027c.022-.063.043-.128.063-.194l.009-.032q.029-.1.053-.2l.008-.034q.024-.1.043-.213c0-.011,0-.022.006-.034.013-.074.024-.149.034-.227l0-.029c.009-.08.017-.161.023-.243v-.019c.006-.087.01-.175.012-.265.065-3.231-.375-3.651.89-4.241.824-.385,1.552,1.333,2.925.62a1.278,1.278,0,0,0,.513-1.155c2.3,1.381,4.425,1.786,6.056.939,1.9-.985,2.8-3.495,2.752-6.852a.239.239,0,0,0,.211.019c.426-.221.59-.894.522-1.908h0s0,0,0,0c-.006-.082-.012-.165-.021-.251h0c-.008-.083-.018-.168-.029-.254,0-.007,0-.014,0-.022-.023-.175-.05-.358-.084-.549l-.005-.031q-.051-.285-.117-.591c0-.012-.005-.025-.008-.037-.022-.1-.045-.2-.07-.308h0c-.025-.107-.052-.216-.08-.326l-.01-.037q-.038-.151-.08-.305l-.009-.032c-.031-.112-.062-.226-.094-.342l-.009-.03c-.03-.1-.06-.21-.092-.317l-.016-.055c-.035-.118-.072-.237-.109-.358a.027.027,0,0,1,0,0c-.036-.116-.074-.233-.112-.351l-.022-.069q-.118-.362-.249-.739l-.028-.078q-.06-.171-.122-.344l-.013-.038q-.069-.19-.141-.385l-.031-.081q-.061-.164-.124-.329l-.029-.075q-.075-.2-.153-.393l-.029-.074q-.066-.167-.134-.337l-.038-.1q-.081-.2-.165-.4l-.022-.054-.15-.359-.046-.109q-.086-.2-.174-.406l0-.008q-.09-.207-.182-.416l-.051-.115q-.079-.178-.16-.356l-.033-.073q-.094-.209-.192-.419l-.052-.113-.161-.345-.048-.1q-.1-.213-.2-.427l-.048-.1q-.085-.176-.172-.353l-.056-.115q-.107-.217-.216-.435l-.035-.07q-.095-.189-.191-.379l-.062-.121q-.114-.222-.229-.446t-.234-.447l-.06-.113q-.105-.2-.211-.394l-.026-.049q-.119-.221-.238-.438l-.051-.093q-.1-.189-.208-.375l-.038-.068q-.122-.217-.243-.431l-.037-.064-.215-.374-.043-.074q-.123-.214-.247-.424l-.011-.018-.234-.394-.043-.072q-.247-.411-.493-.806l-.04-.063q-.248-.4-.494-.778l-.033-.052-.23-.352-.018-.027q-.125-.189-.25-.374l-.02-.03q-.114-.17-.228-.335l-.027-.04q-.245-.356-.486-.692l-.031-.043q-.24-.334-.475-.648l-.031-.041q-.235-.313-.466-.605l-.027-.034q-.109-.138-.218-.272l-.011-.014q-.116-.142-.229-.279l-.017-.02q-.105-.126-.209-.246l-.022-.026q-.22-.255-.433-.487l-.027-.03q-.211-.228-.413-.432l-.028-.028q-.2-.2-.395-.378l-.024-.022q-.091-.083-.18-.159l-.01-.009c-.063-.055-.126-.107-.187-.156l-.006,0h0c-.744-.6-1.359-.861-1.784-.7-2.9-2.24-5.663-3.094-7.671-2.051-1.708.887-2.607,3.009-2.737,5.873a1.182,1.182,0,0,0-.917-.045c-1.374.713-.387,2.3-1.176,2.749-1.21.7-1.3.094-3.982-1.711-2.383-1.6-4.615-.531-4.248,1.335l-20.6,10.7c-1.315-1.373-3.476-.164-3.535,2.708-.066,3.232.375,3.651-.89,4.241-.825.384-1.552-1.333-2.925-.62a1.182,1.182,0,0,0-.491.776c-2.418-1.541-4.671-2.025-6.378-1.138-2.009,1.043-2.9,3.8-2.735,7.455-.373.257-.514.909-.45,1.865h0v.01q.008.116.02.238c0,.007,0,.014,0,.021q.011.113.026.231c0,.012,0,.024,0,.037q.033.258.082.538l.007.04q.05.283.116.587l.008.037q.068.309.15.637l.007.028q.04.158.083.321l0,.018q.047.174.1.352l0,.009q.049.171.1.346l.01.032q.108.36.23.737c0,.013.009.027.013.04q.123.376.26.769l.015.043q.138.393.289.8l.015.04c.047.128.1.257.146.387l.011.028q.08.21.164.423l.01.025c.051.131.1.263.157.4l.022.054q.17.421.353.852l.03.071q.182.428.375.866l.035.078q.091.205.185.413l.012.026q.1.22.2.443l.038.082q.089.192.179.384l.033.072q.1.221.211.443l.037.076q.092.189.185.38l.048.1q.109.222.22.446l.027.054q.1.2.2.4l.058.114.231.448q.118.226.236.449l.056.106q.109.207.219.411l.018.033q.122.226.244.449l.041.076.223.4.024.044.251.446.022.038.234.408.028.047q.254.438.508.861l.026.044q.255.424.509.832l.023.036q.256.411.511.8l.014.022q.258.4.515.779v0q.127.188.252.37l.01.015q.252.367.5.713l.016.023q.246.343.488.665l.018.024q.241.322.478.621l.013.017q.238.3.47.579l.005.006q.112.135.223.263l.012.014q.225.261.441.5l.019.02q.214.233.42.44l.021.021q.205.205.4.384l.018.016c.063.058.127.114.189.167l0,0q.1.084.191.16l0,0h0c.79.639,1.435.892,1.861.671a.241.241,0,0,0,.106-.184c2.721,1.968,5.292,2.675,7.188,1.69,1.631-.847,2.525-2.822,2.716-5.494a1.279,1.279,0,0,0,1.24.244,1.4,1.4,0,0,0,.569-.511h0l.015-.026c.009-.016.019-.032.027-.048l.012-.024c.017-.035.033-.07.047-.106,0-.01.009-.021.012-.031s.013-.036.019-.054l.011-.033c.005-.019.011-.037.016-.056l.008-.03a2.046,2.046,0,0,0,.041-.213l0-.012c0-.024.006-.047.009-.071l0-.016c0-.025,0-.049.007-.074a.01.01,0,0,1,0,0c.021-.258.013-.515.033-.744a.04.04,0,0,0,0-.008c0-.028.005-.055.009-.081a.042.042,0,0,0,0-.006,1.457,1.457,0,0,1,.029-.161l0-.015c0-.02.01-.039.016-.057l.007-.02c.006-.018.013-.035.02-.052l.007-.016a.642.642,0,0,1,.071-.122l.013-.016c.01-.013.021-.026.033-.038l.017-.017c.012-.012.025-.023.038-.034l.018-.014a.6.6,0,0,1,.063-.042c1.21-.7,1.3-.094,3.981,1.711,2.638,1.776,5.092.27,4.038-1.959l4.814-2.5a3.53,3.53,0,0,0,2.78,5.186,2.83,2.83,0,0,0-.264,3c1.513,2.914,5.664,3.288,13.812,18.976l.08.154a4.1,4.1,0,0,0,3.585,6.9c4.787,9.212,5.43,10.435,5.43,10.435s30.128,63.553,54.314,110.124c1.792,3.45,6.041,1.825,7.935.842a12.661,12.661,0,0,0,2.161-1.41l.006,0,.082-.068.008-.007q.167-.141.329-.291l.015-.014.071-.067.019-.019.071-.068.006-.006q.111-.11.218-.224l.026-.029Z" transform="translate(-3579.88 -1018.965)" fill="#0f0e0b"/>
      <path id="Trazado_67873" data-name="Trazado 67873" d="M3216.948,2165.38l-.57-.443h0l-4.159-3.232a1.088,1.088,0,0,0-1.527.192l-2.718,3.5h0l-6.912,8.894h0L3145.4,2245.91h0l-.008.011h0c-.177.315-3.731,6.662-6.035,11.35h0l-.062.128-.039.08-.05.1-.06.123-.039.079-.1.206-.007.015-.1.2-.019.039q-.105.221-.205.435l0,0q-.156.333-.3.645h0c-.157.347-.3.672-.422.97v0q-.073.177-.137.341l0,.007q-.064.164-.119.313v0c-.017.047-.034.094-.05.139l0,.011q-.048.136-.086.258l-.006.018c-.012.039-.023.076-.034.113v0c-.011.038-.021.074-.03.109l0,.016c-.008.03-.014.058-.021.085l0,.016c-.007.031-.013.061-.018.09,0,0,0,0,0,.008,0,.025-.008.049-.011.073l0,.018c0,.023-.005.046-.007.068,0,0,0,0,0,0,0,.022,0,.043,0,.062s0,.009,0,.014,0,.03,0,.043,0,.008,0,.011a.335.335,0,0,0,.01.043l0,.007a.18.18,0,0,0,.013.028l.005.008a.111.111,0,0,0,.022.025.122.122,0,0,0,.03.016l.01,0,.03.006h.008a.3.3,0,0,0,.044,0h.012l.042-.007.014,0c.019,0,.038-.01.059-.016l.006,0,.061-.022.019-.008.063-.027.011-.005.08-.039.021-.011.069-.037.021-.012.093-.053.015-.009.085-.051.027-.017.1-.062.007,0,.112-.073.028-.019.1-.064.025-.017.121-.084.025-.017.1-.074.034-.025q.13-.094.268-.2l.039-.029.112-.084.032-.024.142-.109.039-.03.112-.087.047-.037.147-.116.03-.024.125-.1.057-.046.115-.092.046-.038.151-.123.065-.053.1-.084.069-.056.151-.125.075-.062.091-.076.088-.073.085-.071.153-.128.081-.067.1-.086.067-.057.282-.24h0c3.975-3.39,9.247-8.4,9.509-8.651h0l.008-.011h0l54.74-70.436h0l7.834-10.081h0l.59-.76.189-.244h0l1.938-2.493C3217,2166.041,3217.144,2165.532,3216.948,2165.38Z" transform="translate(-3137.418 -2083.278)" fill="#0f0e0b"/>
    </g>
    <g id="Grupo_25892" data-name="Grupo 25892" transform="translate(1044.487 426.459)">
      <g id="Grupo_25891" data-name="Grupo 25891" transform="translate(0 0)">
        <g id="Grupo_25886" data-name="Grupo 25886">
          <rect id="Rectángulo_25808" data-name="Rectángulo 25808" width="26.678" height="37.79" transform="translate(15.881 20.139) rotate(-27.446)" fill="#472213"/>
          <g id="Grupo_25882" data-name="Grupo 25882" transform="translate(37.978)">
            <path id="Trazado_67874" data-name="Trazado 67874" d="M4360.907,1010.506c-5.13-9.878-12.721-16.1-16.954-13.9s-3.507,11.989,1.624,21.866,12.721,16.1,16.954,13.9S4366.038,1020.384,4360.907,1010.506Z" transform="translate(-4330.854 -996.16)" fill="#472213"/>
            <g id="Grupo_25880" data-name="Grupo 25880" transform="translate(0 6.196)">
              <path id="Trazado_67875" data-name="Trazado 67875" d="M4208.907,1101.021c4.433,8.535,6.282,13.678,6.688,14.459a1.239,1.239,0,0,1-.43,1.438c-1.373.714-2.1-1-2.925-.62-1.265.59-.825,1.01-.89,4.241s-2.794,4.358-3.983,2.068l-8.5-16.371-8.5-16.371c-1.189-2.289,1.3-3.873,3.983-2.069s2.771,2.406,3.981,1.711c.789-.453-.2-2.036,1.175-2.75a1.239,1.239,0,0,1,1.424.475C4201.331,1088.014,4204.474,1092.486,4208.907,1101.021Z" transform="translate(-4190.056 -1086.685)" fill="#552818"/>
              <path id="Trazado_67876" data-name="Trazado 67876" d="M4258.177,1151c-1.21.7-1.3.094-3.981-1.711s-5.172-.22-3.983,2.069l8.5,16.371,6.972,13.424a3.466,3.466,0,0,0,1.418-3.023c.065-3.232-.375-3.651.89-4.241.824-.385,1.551,1.333,2.925.62a1.24,1.24,0,0,0,.431-1.438c-.406-.781-2.255-5.924-6.688-14.459-2.314-4.456-4.277-7.8-5.682-10.1C4258.174,1149.3,4258.879,1150.6,4258.177,1151Z" transform="translate(-4245.811 -1144.279)" fill="#662f1d"/>
            </g>
            <g id="Grupo_25881" data-name="Grupo 25881" transform="translate(20.576 2.447)">
              <path id="Trazado_67877" data-name="Trazado 67877" d="M4504.749,1058.844c1.537-.8-.339-7.457-4.191-14.872s-8.219-12.78-9.756-11.981S4503.212,1059.642,4504.749,1058.844Z" transform="translate(-4490.684 -1031.912)" fill="#552818"/>
              <path id="Trazado_67878" data-name="Trazado 67878" d="M4519.59,1042.854c1.526,4.968,9.421,20.17,12.608,24.276-.177-2.642-1.929-7.606-4.712-12.965S4521.649,1044.519,4519.59,1042.854Z" transform="translate(-4517.611 -1042.105)" fill="#472213"/>
            </g>
          </g>
          <g id="Grupo_25885" data-name="Grupo 25885" transform="translate(0 18.774)">
            <path id="Trazado_67879" data-name="Trazado 67879" d="M3646.072,1381.763c-5.13-9.878-5.857-19.668-1.625-21.866s11.825,4.027,16.955,13.9,5.857,19.668,1.624,21.867S3651.2,1391.641,3646.072,1381.763Z" transform="translate(-3641.248 -1353.363)" fill="#472213"/>
            <g id="Grupo_25883" data-name="Grupo 25883" transform="translate(9.549)">
              <path id="Trazado_67880" data-name="Trazado 67880" d="M3781.481,1293.246c4.433,8.535,7.576,13.006,7.982,13.787a1.24,1.24,0,0,0,1.424.475c1.373-.713.386-2.3,1.175-2.75,1.21-.7,1.3-.094,3.981,1.711s5.172.22,3.984-2.069l-8.5-16.371-8.5-16.371c-1.189-2.289-3.918-1.163-3.983,2.069s.375,3.651-.891,4.241c-.824.385-1.552-1.333-2.925-.62a1.239,1.239,0,0,0-.43,1.438C3775.2,1279.568,3777.048,1284.711,3781.481,1293.246Z" transform="translate(-3774.703 -1270.454)" fill="#552818"/>
              <path id="Trazado_67881" data-name="Trazado 67881" d="M3842.755,1334.466c-.066,3.232.374,3.651-.89,4.241-.825.385-1.552-1.333-2.926-.62a1.24,1.24,0,0,0-.43,1.438c.405.781,2.255,5.924,6.688,14.459,2.278,4.385,4.215,7.7,5.615,9.988.482-.785-.027-1.876.605-2.239,1.21-.7,1.3-.094,3.981,1.711s5.172.221,3.984-2.069l-8.5-16.371-6.954-13.39A3.663,3.663,0,0,0,3842.755,1334.466Z" transform="translate(-3834.059 -1327.428)" fill="#662f1d"/>
            </g>
            <g id="Grupo_25884" data-name="Grupo 25884" transform="translate(0 13.927)">
              <path id="Trazado_67882" data-name="Trazado 67882" d="M3649.67,1500.811c-1.537.8-5.9-4.566-9.756-11.981s-5.727-14.074-4.19-14.872S3651.207,1500.013,3649.67,1500.811Z" transform="translate(-3635.186 -1473.94)" fill="#552818"/>
              <path id="Trazado_67883" data-name="Trazado 67883" d="M3648.014,1526.337c-1.526-4.968-9.422-20.171-12.608-24.276.177,2.642,1.929,7.606,4.712,12.965S3645.955,1524.672,3648.014,1526.337Z" transform="translate(-3635.391 -1500.136)" fill="#472213"/>
            </g>
          </g>
        </g>
        <g id="Grupo_25890" data-name="Grupo 25890" transform="translate(39.357 44.572)">
          <g id="Grupo_25887" data-name="Grupo 25887">
            <path id="Trazado_67884" data-name="Trazado 67884" d="M4224.1,1649.4c1.229,2.366-.8,5.857-4.537,7.8s-7.759,1.594-8.988-.772.8-5.857,4.538-7.8S4222.868,1647.036,4224.1,1649.4Z" transform="translate(-4210.213 -1647.374)" fill="#472213"/>
            <path id="Trazado_67885" data-name="Trazado 67885" d="M4252.224,1648.032c-2.9,2-4.347,4.951-3.266,7.033s4.325,2.6,7.632,1.373c2.9-2,4.346-4.952,3.266-7.033S4255.531,1646.806,4252.224,1648.032Z" transform="translate(-4245.972 -1647.377)" fill="#552818"/>
          </g>
          <g id="Grupo_25888" data-name="Grupo 25888" transform="translate(2.583 5.408)">
            <path id="Trazado_67886" data-name="Trazado 67886" d="M4333.425,1882.363c1.895-.984,5.667-3.526,3.875-6.975-24.187-46.57-58.85-107.768-58.85-107.768s-.928-1.811-9.077-17.5-6.067-19.3-7.58-22.213c-1.263-2.432-4.744-1.575-7.884.056l-1.061.551c-3.139,1.63-5.843,3.986-4.58,6.417,1.514,2.914,5.664,3.287,13.812,18.976s9.1,17.49,9.1,17.49,30.127,63.554,54.314,110.124C4327.281,1884.971,4331.53,1883.347,4333.425,1882.363Z" transform="translate(-4247.951 -1726.393)" fill="#472213"/>
            <path id="Trazado_67887" data-name="Trazado 67887" d="M4373.063,1875.39c-24.187-46.57-58.85-107.768-58.85-107.768s-.929-1.811-9.077-17.5-6.067-19.3-7.58-22.213c-1.157-2.228-4.178-1.695-7.092-.335-2.788,1.6-4.962,3.766-3.805,5.994,1.513,2.914,5.664,3.288,13.812,18.976s9.1,17.49,9.1,17.49,30.127,63.554,54.314,110.123c1.439,2.773,4.467,2.268,6.584,1.452C4372.349,1880.349,4374.5,1878.163,4373.063,1875.39Z" transform="translate(-4283.715 -1726.396)" fill="#552818"/>
          </g>
          <g id="Grupo_25889" data-name="Grupo 25889" transform="translate(15.631 29.236)">
            <path id="Trazado_67888" data-name="Trazado 67888" d="M4451.322,2076.737a4.1,4.1,0,0,1-1.748,5.523l-5.006,2.6a4.1,4.1,0,0,1-5.523-1.747h0a4.1,4.1,0,0,1,1.747-5.523l5.006-2.6a4.1,4.1,0,0,1,5.523,1.747Z" transform="translate(-4438.583 -2074.528)" fill="#552818"/>
            <path id="Trazado_67889" data-name="Trazado 67889" d="M4478.588,2076.737a4.1,4.1,0,0,0-5.523-1.747l-3,1.56a4.1,4.1,0,0,0,3.775,7.27l3-1.56A4.1,4.1,0,0,0,4478.588,2076.737Z" transform="translate(-4465.85 -2074.528)" fill="#662f1d"/>
          </g>
        </g>
      </g>
    </g>
    <g id="Grupo_25893" data-name="Grupo 25893" transform="translate(1011.978 504.657)">
      <rect id="Rectángulo_25809" data-name="Rectángulo 25809" width="90.723" height="7.527" transform="translate(7.973 84.446) rotate(-52.147)" fill="#0095d7"/>
      <rect id="Rectángulo_25810" data-name="Rectángulo 25810" width="90.723" height="2.803" transform="matrix(0.614, -0.79, 0.79, 0.614, 8.732, 85.035)" fill="#0f0e0b"/>
      <path id="Trazado_67890" data-name="Trazado 67890" d="M3174.143,3376.918l-5.944-4.619s-8.788,15.653-7.922,16.327S3174.143,3376.918,3174.143,3376.918Z" transform="translate(-3160.218 -3287.865)" fill="#f9a66c"/>
      <path id="Trazado_67891" data-name="Trazado 67891" d="M3162.157,3538.3c-1.288,2.623-2.186,4.727-1.88,4.965s2.123-1.151,4.347-3.047Z" transform="translate(-3160.218 -3442.506)" fill="#1d1b1b"/>
      <path id="Trazado_67892" data-name="Trazado 67892" d="M4196.428,2142.185a1.088,1.088,0,0,1,.192,1.527l-2.718,3.5a1.089,1.089,0,0,1-1.528.192l-4.225-3.283a1.089,1.089,0,0,1-.191-1.527l2.718-3.5a1.089,1.089,0,0,1,1.527-.192Z" transform="translate(-4117.402 -2138.673)" fill="#e97fa4"/>
      <path id="Trazado_67893" data-name="Trazado 67893" d="M4254.632,2194.454l.57.443c.2.153.654-.109,1.023-.583l2.717-3.5c.37-.475.509-.983.313-1.136l-.57-.443Z" transform="translate(-4179.726 -2185.777)" fill="#c56e8c"/>
      <rect id="Rectángulo_25811" data-name="Rectángulo 25811" width="14.038" height="7.528" transform="translate(62.722 13.999) rotate(-52.147)" fill="#ccccd0"/>
      <rect id="Rectángulo_25812" data-name="Rectángulo 25812" width="14.038" height="2.589" transform="matrix(0.614, -0.79, 0.79, 0.614, 65.694, 16.308)" fill="#a8a9ac"/>
    </g>
  </g>
</svg>
