<svg xmlns="http://www.w3.org/2000/svg" width="825.129" height="382.421" viewBox="0 0 825.129 382.421">
  <g id="Grupo_26450" data-name="Grupo 26450" transform="translate(-75.999 -233)">
    <rect id="Rectángulo_25969" data-name="Rectángulo 25969" width="783.426" height="376.683" transform="translate(96.526 233)" fill="#dfe5f4" opacity="0.4"/>
    <path id="Trazado_75013" data-name="Trazado 75013" d="M898.325,1887.956H78.852A2.862,2.862,0,0,0,76,1890.809v.032a2.862,2.862,0,0,0,2.853,2.853H898.325a2.812,2.812,0,0,0,2.8-2.8v-.131A2.811,2.811,0,0,0,898.325,1887.956Z" transform="translate(0 -1278.273)" fill="#555ca5"/>
    <g id="scientist_3" data-name="scientist 3" transform="translate(569.347 268.406)">
      <path id="Trazado_75014" data-name="Trazado 75014" d="M2384.427,841.875l-16.491,12.3s21.1,130.331,24.344,164.573l85.269-2.621S2443.794,838,2384.427,841.875Z" transform="translate(-2242.56 -782.95)" fill="#d0d6ec"/>
      <path id="Trazado_75015" data-name="Trazado 75015" d="M2277.34,836.01l-.876,27.748s-2.766,51.471-6.146,56.388c-1.61,2.341-8.3,7.621-14.87,12.513-7.233,5.387-14.323,10.3-14.323,10.3h-13.5l18.219-22.807,6.637-8.306s2.978-49.593,3.506-55.619C2256.952,845.321,2277.34,836.01,2277.34,836.01Z" transform="translate(-2140.128 -778.714)" fill="#d0d6ec"/>
      <path id="Trazado_75016" data-name="Trazado 75016" d="M2255.449,1160.212c-7.233,5.387-14.323,10.3-14.323,10.3h-13.5l18.219-22.807C2247.886,1149.863,2253.651,1156.147,2255.449,1160.212Z" transform="translate(-2140.128 -1006.267)" fill="#e7b2b6"/>
      <g id="Grupo_26434" data-name="Grupo 26434" transform="translate(147.345 144.947)">
        <path id="Trazado_75017" data-name="Trazado 75017" d="M2483.168,1848.839l-3.1,9.968h-30.753S2457.183,1845.362,2483.168,1848.839Z" transform="translate(-2449.316 -1662.65)" fill="#221e50"/>
        <path id="Trazado_75018" data-name="Trazado 75018" d="M2696.014,1849.65l-2.744,9.967h-27.231S2673.005,1846.173,2696.014,1849.65Z" transform="translate(-2607.533 -1663.242)" fill="#221e50"/>
        <path id="Trazado_75019" data-name="Trazado 75019" d="M2485.11,1164.239h59.124s-19.88,98.694-42.956,186.067l-27.837.813Z" transform="translate(-2466.928 -1163.282)" fill="#2b295e"/>
        <path id="Trazado_75020" data-name="Trazado 75020" d="M2654.815,1160.695s12.425,74.179,3.646,187.836h-23.837l-14.931-149.821h0c-.436-4.371-7.175-8.2-7.175-8.2v-25.665Z" transform="translate(-2568.46 -1160.695)" fill="#333383"/>
        <g id="Grupo_26433" data-name="Grupo 26433" transform="translate(78.698 22.175)">
          <g id="Grupo_26432" data-name="Grupo 26432">
            <path id="Trazado_75021" data-name="Trazado 75021" d="M2746.532,1388.137c-2.161-14.255-3.949-31.172-4.933-48.824-.15-2.7-.288-5.475-.411-8.252-.135-3.064-.252-6.167-.35-9.222a13.955,13.955,0,0,1,.534-3.437,13.457,13.457,0,0,0,.5-3.125c-.288-11.618-.05-22.258.159-31.646q.083-3.694.152-7.235c.393-21.345.542-33.44.537-33.559h0c.006.119.537,12.153.144,33.528q-.066,3.546-.153,7.238c-.21,9.379-.447,20.009-.159,31.608a14,14,0,0,1-.527,3.337,13.4,13.4,0,0,0-.512,3.219c.1,3.053.215,6.152.349,9.212.122,2.774.261,5.548.411,8.243.982,17.627,2.292,34.695,4.449,48.925Z" transform="translate(-2740.835 -1242.837)" fill="#2b295e"/>
          </g>
        </g>
      </g>
      <path id="Trazado_75022" data-name="Trazado 75022" d="M2411.5,791.292c10.289-9.186,26.931-14.683,42.606-16.5,17.9-2.077,62.01,89.717,44.833,101.252-19.588,13.154-59.124,3.857-59.124,3.857s-19.906-25.3-25.323-36.783C2410.537,834.736,2411.5,791.292,2411.5,791.292Z" transform="translate(-2274.288 -733.995)" fill="#555ca5"/>
      <g id="Grupo_26435" data-name="Grupo 26435" transform="translate(0 40.787)">
        <path id="Trazado_75023" data-name="Trazado 75023" d="M2242.417,774.855l-23.548,12.923,5.457,10.195,23.548-13.354Z" transform="translate(-2133.734 -774.855)" fill="#333383"/>
        <path id="Trazado_75024" data-name="Trazado 75024" d="M2168.542,803.59l-5.456-9.764-20.841,11.438-7.49-14.453-26.913,13.3,11.177,25.52c11.132.994,29.85-11.584,29.85-11.584l-1.321-2.548Z" transform="translate(-2052.68 -786.504)" fill="#555ca5"/>
        <path id="Trazado_75025" data-name="Trazado 75025" d="M1971.881,864.552l-.089-.206-1.948-4.446-11.176-25.52-.922-2.1L1924.6,846.793l.065.15,6.493,14.824c.089.2.181.405.277.6-.753.652-1.81,1.592-3.018,2.683-4.849,4.382-12.147,11.167-12.147,11.167l.068.077,5.415,6.032,14.316-13.76c.055.052.108.1.163.144h0c-2.582,5.856-7.02,16.434-7.02,16.434l7.706,2.815,6.136-15.335c.355.119.718.23,1.083.328.311,6.331.777,14.184.777,14.184h8.224l-1.041-13.687a19.77,19.77,0,0,0,5.189-1.475l5.11-2.237c5.921,3.494,14.5,10.512,16.99,22.706q.235,1.144.394,2.352h-73.118a3.168,3.168,0,0,0-3.159,3.159h0a3.168,3.168,0,0,0,3.159,3.159h73.4c-.049,1.279-.158,2.6-.336,3.966-1.119,8.592-4.929,18.932-12.912,31.3h30.154a110.178,110.178,0,0,0,2.381-16.763C2000.631,900.891,1998.041,872.188,1971.881,864.552Z" transform="translate(-1903.505 -816.776)" fill="#d0d6ec"/>
      </g>
      <rect id="Rectángulo_25970" data-name="Rectángulo 25970" width="53.145" height="2.541" transform="translate(50.184 160.395)" fill="#333383"/>
      <path id="Trazado_75026" data-name="Trazado 75026" d="M2395.424,750.676s2.914,8.094,5.074,14.031a6.481,6.481,0,0,0,8.093,3.949l3.156-1.024a12.315,12.315,0,0,0,7.481-6.779l2.877-6.579s-8.4-5.937-13.6-18.414Z" transform="translate(-2262.627 -705.599)" fill="#d98789"/>
      <path id="Trazado_75027" data-name="Trazado 75027" d="M2342.758,694.511s19.514-8.746,13.881-20.815-6.909-21.326-19.607-16.252-12.952,10.8-12.051,15.287S2337.537,696.475,2342.758,694.511Z" transform="translate(-2210.973 -647.317)" fill="#e7b2b6"/>
      <path id="Trazado_75028" data-name="Trazado 75028" d="M2336.221,650.147S2326.8,635,2310.091,644.14s-17.459-10.642-4.051-20.372c0,0,1.331,6.431,10.968,2.695C2337.234,618.62,2336.665,646.766,2336.221,650.147Z" transform="translate(-2190.555 -623.768)" fill="#555ca5"/>
      <path id="Trazado_75029" data-name="Trazado 75029" d="M2592.027,967.47,2542.1,977.9s-16.36-54.292-30.793-101.492c-4.61-15.07-9.022-29.414-12.639-41.039-3.937-12.633-6.936-22.054-8.238-25.7a167.879,167.879,0,0,1-7.984-35.658s24.543-8.366,28.646-7.178c7.188,2.082,26.146,32.522,39.287,68.925C2561.549,866.7,2592.027,967.47,2592.027,967.47Z" transform="translate(-2326.156 -728.126)" fill="#dfe5f4"/>
      <path id="Trazado_75030" data-name="Trazado 75030" d="M2386.974,836.011l2.094,64.879-9.115-42.2,2.605-4.456-4.758-5.839Z" transform="translate(-2249.761 -778.715)" fill="#555ca5" opacity="0.4"/>
      <path id="Trazado_75031" data-name="Trazado 75031" d="M2482.445,793.739s6.943,60.517,20.045,72.4c0,0-6.584-47.435-5.227-51.047l-5.169-2.257,2.868-6.119Z" transform="translate(-2326.156 -747.854)" fill="#555ca5" opacity="0.4"/>
      <path id="Trazado_75032" data-name="Trazado 75032" d="M2555.174,975.368c-4.609-15.07-9.022-29.414-12.639-41.039,4.855-7.531,27.078-32.4,27.078-32.4S2565.274,943.173,2555.174,975.368Z" transform="translate(-2370.024 -826.836)" fill="#d0d6ec"/>
      <path id="Trazado_75033" data-name="Trazado 75033" d="M2291.183,888.719l-6.914,8.463L2265.8,879.543l-3.586-3.426c-3.239-2.142-4.99-7.516-4.388-12.9s-.046-4,.3-7.836,4.833-1.263,4.833-1.263a14.868,14.868,0,0,1,6.149,17.682l2.538,1.945Z" transform="translate(-2162.09 -791.318)" fill="#e7b2b6"/>
      <path id="Trazado_75034" data-name="Trazado 75034" d="M2395.479,797.287s-15.91,57.129-20.9,64.257l-32.163-19.34-9.719,11.363s29.941,34.877,46.383,33.59c8.865-.694,38.315-59.247,38.315-59.247S2414.65,795.507,2395.479,797.287Z" transform="translate(-2216.831 -750.393)" fill="#dfe5f4"/>
      <path id="Trazado_75035" data-name="Trazado 75035" d="M2271.652,873.744c-1.976,2.01-4.2,4.228-5.851,5.8l-3.586-3.426c-3.239-2.142-4.99-7.516-4.388-12.9s-.046-4,.3-7.836,4.833-1.263,4.833-1.263a14.868,14.868,0,0,1,6.149,17.682Z" transform="translate(-2162.09 -791.318)" fill="#dfe5f4"/>
      <path id="Trazado_75036" data-name="Trazado 75036" d="M2182.482,1006.344c-.144.357-.225.55-.225.55-.052-14.562-19.614-46.693-25.351-51.2-1.672-1.312-2.369-2.329-2.52-3.11a1.526,1.526,0,0,1,.4-1.377,1.446,1.446,0,0,1,.139-.138l.089.206C2181.173,958.911,2183.763,987.615,2182.482,1006.344Z" transform="translate(-2086.637 -862.712)" fill="#dfe5f4"/>
      <path id="Trazado_75037" data-name="Trazado 75037" d="M2014.8,832.277s-1.18,10.472-11.321,14.94c-7.141,3.144-16.716,1.168-21.759-.273l-.065-.15Z" transform="translate(-1960.557 -775.989)" fill="#dfe5f4"/>
      <path id="Trazado_75038" data-name="Trazado 75038" d="M1962.942,953.686a10.8,10.8,0,0,1-1.45,3.817,16.435,16.435,0,0,1-10.629,7.427l-.067-.077S1958.093,958.068,1962.942,953.686Z" transform="translate(-1938.029 -864.622)" fill="#dfe5f4"/>
    </g>
    <g id="Grupo_26436" data-name="Grupo 26436" transform="translate(282.842 431.384)">
      <path id="Trazado_75039" data-name="Trazado 75039" d="M1331.1,1271.388l-6.917,34.736-11.868,59.586-14.375,72.17H973.566l-15.091-69.721L945.3,1307.273l-7.765-35.885Z" transform="translate(-911.799 -1259.536)" fill="#d0d6ec"/>
      <path id="Trazado_75040" data-name="Trazado 75040" d="M1331.1,1271.388l-6.917,34.736-11.868,59.587c-37.418-19.325-105.17-28.489-165.727-33.35-64.414-5.178-146.977,13.926-188.114,35.8L945.3,1307.273l-7.765-35.885Z" transform="translate(-911.799 -1259.536)" fill="#555ca5" opacity="0.2"/>
      <path id="Trazado_75041" data-name="Trazado 75041" d="M1276.644,1239.337H848.133a5.927,5.927,0,0,1-5.926-5.926h0a5.926,5.926,0,0,1,5.926-5.926h428.51a5.926,5.926,0,0,1,5.926,5.926h0A5.927,5.927,0,0,1,1276.644,1239.337Z" transform="translate(-842.207 -1227.484)" fill="#555ca5"/>
    </g>
    <g id="scientist_2" data-name="scientist 2" transform="translate(393.514 260.702)">
      <path id="Trazado_75042" data-name="Trazado 75042" d="M1360.521,669.961c-6.431-6.378-5.6-55.954-5.679-58.984-.213-8.756-3.522-12.413-3.522-12.413-1.7-4.636-29.343-7-36.276,10.7-4.449,11.353-15.828,33.424-15.828,33.424-46.5,64.526-28.025,96.362-28.025,96.362l1.987-.22c-.684-2.112-1.223-5.1-.526-6.365l1.894,6.319,34.354-4.418c.261-6.6,2.913-16.9,2.913-16.9l.162,17.473,4.61.243c-1.826-36.844,6-54.935,8.32-59.42-1.988,20.483,7.925,53.886,7.925,53.886l1.42-.319-3.219-16.7,4.118,16.5,3.992-.908q-.954-3.334-1.753-6.507c1.1,4.08,1.753,6.507,1.753,6.507,8.558-9.312,24.237-8.488,24.237-8.488C1371.9,707.755,1360.521,669.961,1360.521,669.961Z" transform="translate(-1263.409 -595.23)" fill="#d35c2b"/>
      <path id="Trazado_75043" data-name="Trazado 75043" d="M1625.809,1783.49l10.023,20,8.162-3.147-1.876-20.416Z" transform="translate(-1524.941 -1460.112)" fill="#e7b2b6"/>
      <path id="Trazado_75044" data-name="Trazado 75044" d="M1649.842,1853.25l2.731,9.035h27.1S1672.744,1850.1,1649.842,1853.25Z" transform="translate(-1542.487 -1513.259)" fill="#d35c2b"/>
      <path id="Trazado_75045" data-name="Trazado 75045" d="M1527.235,1144.273l21.41,175.381h-22.7s-29.624-75.847-33.875-154.887C1490.443,1134.567,1527.235,1144.273,1527.235,1144.273Z" transform="translate(-1427.266 -994.97)" fill="#333383"/>
      <path id="Trazado_75046" data-name="Trazado 75046" d="M1419.925,1772.815l4.645,16.313,8.685-1.051,1.922-24.931Z" transform="translate(-1374.637 -1447.859)" fill="#e7b2b6"/>
      <path id="Trazado_75047" data-name="Trazado 75047" d="M1434.13,1853.25l2.731,9.035h27.1S1457.032,1850.1,1434.13,1853.25Z" transform="translate(-1385.008 -1513.259)" fill="#d35c2b"/>
      <path id="Trazado_75048" data-name="Trazado 75048" d="M1399.942,1150.294h-16.814l-18.042-2.524s-11.543,25.214-5.6,99.94c3.021,37.974,14.254,78.367,14.254,78.367l23.275-.479,10.05-139.367c.3-3.817,4.743-5.191,4.743-5.191l-.647-31.177Z" transform="translate(-1329.273 -998.608)" fill="#555ca5"/>
      <g id="Grupo_26437" data-name="Grupo 26437" transform="translate(43.632 152.559)">
        <path id="Trazado_75049" data-name="Trazado 75049" d="M1423.073,1331.932c-3.133-16.852-5.885-36.844-7.661-57.693-.271-3.187-.53-6.467-.77-9.747-.263-3.618-.507-7.283-.724-10.891a15.472,15.472,0,0,1,.556-4.052,14.885,14.885,0,0,0,.53-3.685c-.722-13.719-.759-26.278-.793-37.359q-.013-4.359-.037-8.54c-.179-25.2-.374-39.473-.384-39.614h0c.01.14,1.047,14.354,1.228,39.584q.03,4.186.037,8.544c.033,11.07.071,23.617.792,37.314a15.52,15.52,0,0,1-.552,3.934,14.876,14.876,0,0,0-.535,3.8c.216,3.605.46,7.265.723,10.88.239,3.276.5,6.552.769,9.736,1.773,20.82,3.935,40.984,7.063,57.808Z" transform="translate(-1413.791 -1160.352)" fill="#333383"/>
      </g>
      <path id="Trazado_75050" data-name="Trazado 75050" d="M1487.2,716.927s-2.665,15.485,6.975,22.794c0,0-8.965,12.776-13.536,12.389-5.086-.431-12.528-16.12-12.528-16.12s2.11-9.637,1.674-24.366Z" transform="translate(-1409.815 -680.202)" fill="#d98789"/>
      <path id="Trazado_75051" data-name="Trazado 75051" d="M1491.323,651.255s-21.243.971-21.644-12.268-3.413-22.029,10.133-23.208,16.336,3.792,17.545,8.178S1496.839,650.662,1491.323,651.255Z" transform="translate(-1410.55 -610.103)" fill="#e7b2b6"/>
      <path id="Trazado_75052" data-name="Trazado 75052" d="M1445.66,891.932s-2.819,2.324-30.959,3.719q-2.748.136-5.221.191c-10.094.233-16.888-.469-21.36-1.349-6.033-1.188-7.845-2.7-7.845-2.7s8.784-21.2,8.784-31.267c0-6.958,15.71-63.365,15.71-63.365,1.842,5.068,6.8,9.409,12.251,9.45,14.258.106,8.7-9.473,8.7-9.473l16.061,6.454a30.173,30.173,0,0,0-1.246,11.732,14.514,14.514,0,0,0,1.217,4.337c.139.3.295.592.463.877,3.884,6.634,1.223,18.14-1.618,31.471S1445.66,891.932,1445.66,891.932Z" transform="translate(-1345.691 -742.629)" fill="#555ca5"/>
      <path id="Trazado_75053" data-name="Trazado 75053" d="M1667.635,847.826c-1.14,2.772-1.091,1.589-2.612,5.522s-4.665,7.022-7.673,7.335c0,0-1.315,1.017-3.478,2.64l-.006,0c-.645.482-1.367,1.02-2.154,1.6-9.741,7.185-29.26,20.911-35.36,20.229-8.238-.922-31.592-34.417-31.592-34.417l6.3-29.7s16.941,28.47,25.293,49.981c0,0,20.472-8.5,32.177-13.429.624-.261,1.223-.516,1.795-.756l3.813-1.62a11.587,11.587,0,0,1,10.614-10.005S1668.772,845.051,1667.635,847.826Z" transform="translate(-1494.974 -760.08)" fill="#e7b2b6"/>
      <path id="Trazado_75054" data-name="Trazado 75054" d="M1840.084,913.188c-1.14,2.772-1.091,1.589-2.612,5.522s-4.665,7.022-7.673,7.335c0,0-1.315,1.017-3.478,2.64l-.006,0c-.646.482-1.367,1.02-2.154,1.6-.141-3.125-3.184-7.332-3.184-7.332v0c.624-.261,1.223-.516,1.795-.756l3.813-1.619a11.587,11.587,0,0,1,10.614-10.005S1841.221,910.413,1840.084,913.188Z" transform="translate(-1667.423 -825.442)" fill="#555ca5"/>
      <g id="Grupo_26438" data-name="Grupo 26438" transform="translate(165.095 80.193)">
        <path id="Trazado_75055" data-name="Trazado 75055" d="M1869.413,892.288V925.5a2.842,2.842,0,1,1-5.685,0v-33.21Z" transform="translate(-1863.728 -892.288)" fill="#dfe5f4"/>
        <path id="Trazado_75056" data-name="Trazado 75056" d="M1869.413,979.462v9.677a2.842,2.842,0,1,1-5.685,0v-9.677Z" transform="translate(-1863.728 -955.929)" fill="#555ca5"/>
      </g>
      <path id="Trazado_75057" data-name="Trazado 75057" d="M1627.6,874.471s-11.115,5.58-13.318,5.58-8.192-2.9-14.491-10.414c-2.747-3.276-6.77-8.4-10.424-13.171-4.729-6.167-8.841-11.735-8.782-11.908.1-.307,2.3-31.141,2.3-31.141a50.441,50.441,0,0,1,5.633,1.795c.359.359,21.049,37.44,24.737,48.4l12.319-3.7Z" transform="translate(-1491.927 -754.517)" fill="#dfe5f4"/>
      <path id="Trazado_75058" data-name="Trazado 75058" d="M1536.734,849.653l2.644,118.612h30.287s-6.617-67.3-9.783-88.345c-3.628-24.116-3.372-73.136-3.372-73.136s-12.435-5.064-13.382-4.91S1536.734,849.653,1536.734,849.653Z" transform="translate(-1459.913 -746.086)" fill="#dfe5f4"/>
      <path id="Trazado_75059" data-name="Trazado 75059" d="M1538.842,797.134s-5.047,39.333-3.2,49.061l7.937-26.539-1.792-3.168,3.277-1.024-2.047-16.7A5.506,5.506,0,0,0,1538.842,797.134Z" transform="translate(-1458.818 -742.629)" fill="#d0d6ec"/>
      <path id="Trazado_75060" data-name="Trazado 75060" d="M1326.077,850.892V968.276s-19.258-.347-34.134-.83c-9.357-.3-16.98-.658-16.98-1.014,0-.833,5.282-48.859,14.934-83.6a66.774,66.774,0,0,0,2.194-23.766c-.695-7.836-1.712-17.024-2.935-21.28-.012-.037-.025-.074-.034-.111,0,0-18.2,14.673-17.743,15.364s4.963,12.906,4.963,12.906-8.549,6.2-10.291,7.067c0,0-15.875-21.406-13.674-24.813,0,0,27.668-47.046,33.955-45.073,1.782.559,20.386-1.242,20.386-1.242Z" transform="translate(-1252.167 -746.099)" fill="#dfe5f4"/>
      <path id="Trazado_75061" data-name="Trazado 75061" d="M1457.981,800.352c.776.776,15.614,49.006,15.614,49.006s-13.623-23.252-14.647-23.764l1.521-2.868-3.262-1.639-2.97-20.736S1456.707,799.078,1457.981,800.352Z" transform="translate(-1399.685 -744.565)" fill="#d0d6ec"/>
      <path id="Trazado_75062" data-name="Trazado 75062" d="M1340.543,1063.493c-2.725,1.244-1.88.412-5.682,2.243s-8.2,1.926-10.614.1l-2.667-2.05c-.458-.353-1.291-1.1-2.354-2.1-5.126-4.812-15.626-15.42-15.626-15.42l10.291-7.068c.277,1.53,8.5,16.161,10.045,18.892.157.283.246.436.246.436l1.46,1.128a11.585,11.585,0,0,1,14.584-.037S1343.272,1062.248,1340.543,1063.493Z" transform="translate(-1289.716 -919.341)" fill="#e7b2b6"/>
      <path id="Trazado_75063" data-name="Trazado 75063" d="M1308.849,1036.656l-11.809,7.367a15.546,15.546,0,0,0,1.592,1.589c.051-.1,10.651-7.739,10.651-7.739Z" transform="translate(-1284.926 -917.49)" fill="#d0d6ec"/>
      <path id="Trazado_75064" data-name="Trazado 75064" d="M1426.833,609.838s-26.057,20.08-23.755,34.912c2.162,13.933-1.939,15.174-4.987,16.5-7.866,3.43-20.7-3.373-24.787-3.171-2.908.144,7.086-2.822,11.837-9.168,12.641-16.884,11.409-39.694,13.933-41.337C1416.264,596.386,1426.833,609.838,1426.833,609.838Z" transform="translate(-1340.222 -600.996)" fill="#d35c2b"/>
      <path id="Trazado_75065" data-name="Trazado 75065" d="M1749.506,979.462s2.2,14.127,3.278,16.432l-3.841,1.963s-2.3-14.611-1.69-17.275Z" transform="translate(-1613.525 -875.736)" fill="#d0d6ec"/>
      <rect id="Rectángulo_25971" data-name="Rectángulo 25971" width="1.653" height="23.533" transform="translate(166.284 80.193)" fill="#d0d6ec"/>
      <path id="Trazado_75066" data-name="Trazado 75066" d="M1362.207,993.386c-2.031,7.7-6.656,49.169-8.62,67.315-9.357-.3-16.98-.658-16.98-1.014,0-.833,5.282-48.859,14.934-83.6a66.779,66.779,0,0,0,2.194-23.766c-.695-7.836-1.712-17.024-2.935-21.28,1.334-1.165,2.87-1.85,3.749-1.109C1356.489,931.575,1364.819,983.47,1362.207,993.386Z" transform="translate(-1313.812 -839.354)" fill="#d0d6ec"/>
      <path id="Trazado_75067" data-name="Trazado 75067" d="M1382.8,1111.7c-2.725,1.244-1.88.412-5.682,2.243s-8.2,1.926-10.614.1l-2.667-2.05c-.458-.353-1.291-1.1-2.354-2.1a16.921,16.921,0,0,0,4.711-3.6c.157.283.246.436.246.436l1.46,1.128a11.585,11.585,0,0,1,14.584-.037S1385.528,1110.458,1382.8,1111.7Z" transform="translate(-1331.972 -967.552)" fill="#555ca5"/>
      <path id="Trazado_75068" data-name="Trazado 75068" d="M1650.384,976.063s-11.115,5.58-13.318,5.58-8.192-2.9-14.491-10.414c-2.747-3.276-6.77-8.4-10.424-13.171-.51-2.52-.7-5.307,1.008-5.479,3.073-.307,19.666,24.89,23.815,24.737S1650.384,976.063,1650.384,976.063Z" transform="translate(-1514.709 -856.109)" fill="#d0d6ec"/>
    </g>
    <g id="scientist_1" data-name="scientist 1" transform="translate(178.869 255.711)">
      <path id="Trazado_75069" data-name="Trazado 75069" d="M698.4,580.706s-1.427-5.723-7.727-3.418-.768,7.21-.768,7.21Z" transform="translate(-625.406 -576.741)" fill="#555ca5"/>
      <path id="Trazado_75070" data-name="Trazado 75070" d="M746.463,1783.323l10.023,20,8.162-3.147-1.876-20.416Z" transform="translate(-668.336 -1454.999)" fill="#e7b2b6"/>
      <g id="test_tube" data-name="test tube" transform="translate(124.828 140.297)">
        <g id="Grupo_26439" data-name="Grupo 26439">
          <path id="Trazado_75071" data-name="Trazado 75071" d="M941.582,1120.756a11.062,11.062,0,1,1-15.112-10.294v-14.019h8.1v14.019A11.06,11.06,0,0,1,941.582,1120.756Z" transform="translate(-919.457 -1096.443)" fill="#dfe5f4"/>
          <path id="Trazado_75072" data-name="Trazado 75072" d="M941.852,1191.139a11.064,11.064,0,0,1-21.928.433,113.786,113.786,0,0,1,12.319.467A26.121,26.121,0,0,0,941.852,1191.139Z" transform="translate(-919.798 -1165.575)" fill="#d35c2b"/>
        </g>
        <path id="Trazado_75073" data-name="Trazado 75073" d="M942.8,1096.443h-1.562l.025,14.019s-3.687,2.689-3.687,4.148l4.84,1.537s-.768-4.379.384-5.685Z" transform="translate(-932.687 -1096.443)" fill="#d0d6ec"/>
      </g>
      <path id="Trazado_75074" data-name="Trazado 75074" d="M770.495,1853.083l2.731,9.035h27.1S793.4,1849.931,770.495,1853.083Z" transform="translate(-685.881 -1508.145)" fill="#333381"/>
      <path id="Trazado_75075" data-name="Trazado 75075" d="M669.29,1319.233h-22.7s-29.623-75.845-33.876-154.886c-1.622-30.2,33.761-20.635,33.761-20.635l8.391,57.331Z" transform="translate(-570.653 -989.604)" fill="#f0d170"/>
      <path id="Trazado_75076" data-name="Trazado 75076" d="M649.986,1319.233h-3.4s-29.623-75.845-33.876-154.886c-1.622-30.2,33.761-20.635,33.761-20.635l8.391,57.331C651.928,1237.531,648.142,1293.335,649.986,1319.233Z" transform="translate(-570.653 -989.604)" fill="#dc8d39" opacity="0.2"/>
      <path id="Trazado_75077" data-name="Trazado 75077" d="M540.579,1772.648l4.645,16.313,8.685-1.051,1.923-24.931Z" transform="translate(-518.032 -1442.745)" fill="#e7b2b6"/>
      <path id="Trazado_75078" data-name="Trazado 75078" d="M554.784,1853.083l2.731,9.035h27.1S577.686,1849.931,554.784,1853.083Z" transform="translate(-528.402 -1508.145)" fill="#333381"/>
      <path id="Trazado_75079" data-name="Trazado 75079" d="M527.911,1180.873s-4.446,1.374-4.745,5.19l-10.048,139.368-14.381.3-8.893.184s-11.234-40.393-14.255-78.368q-.654-8.237-1.039-15.681c-3.273-62.617,6.637-84.259,6.637-84.259l18.041,2.523h16.815l11.219-.43Z" transform="translate(-469.345 -993.495)" fill="#f0d170"/>
      <path id="Trazado_75080" data-name="Trazado 75080" d="M500.53,1546.009l-8.893.184s-11.234-40.393-14.255-78.368q-.654-8.237-1.039-15.681l24.967-2.8,3.663,15.672S498.492,1526.213,500.53,1546.009Z" transform="translate(-471.137 -1213.777)" fill="#dc8d39" opacity="0.2"/>
      <path id="Trazado_75081" data-name="Trazado 75081" d="M762.3,905.428c-3.168.906-2.114.141-6.542,1.509-4.244,1.312-8.77.461-11.185-1.705-1.011.077-2.13.154-3.334.23-10.97.7-29.03,1.223-37.895-1.985-7.931-2.873-37.376-26.436-37.376-26.436l-7.519-34.595s15.453-1.788,18.105,2.225c14.612,22.125,17.236,28.135,35.194,43.423,11.631,3.571,20.3,6.53,30.318,9.314,1.576.439,3.186.873,4.846,1.306a12.7,12.7,0,0,1,15.678,2.446S765.464,904.521,762.3,905.428Z" transform="translate(-604.081 -770.427)" fill="#d98789"/>
      <path id="Trazado_75082" data-name="Trazado 75082" d="M756.323,904.717s-19.206-2.6-20.435-3.374c-.836-.525-12.955-9.139-20.634-14.605,0,0,0,0,0,0-3.62-2.572-6.25-4.446-6.25-4.446s-9.526-26.018,0-43.924c0,0,24.694,37.01,35.931,44.692L757.85,889.1a88.414,88.414,0,0,0-1.786,12.863A9.328,9.328,0,0,0,756.323,904.717Z" transform="translate(-637.896 -767.737)" fill="#d0d6ec"/>
      <path id="Trazado_75083" data-name="Trazado 75083" d="M703.827,592.27s-2.663-3.995-8.912-2.049-2.97,7.99-2.97,7.99Z" transform="translate(-627.909 -586.192)" fill="#d35c2b"/>
      <path id="Trazado_75084" data-name="Trazado 75084" d="M644.762,960.7h19.5a2.86,2.86,0,0,0,2.8-3.451c-1.932-9.127-6.7-33.985-3.967-45.448,3.382-14.188-3.351-52.661-3.351-52.661s-2.5,6.077-17.618,1.526S644.762,960.7,644.762,960.7Z" transform="translate(-587.713 -782.902)" fill="#f0d170"/>
      <path id="Trazado_75085" data-name="Trazado 75085" d="M657.547,709.411s-8.99,14.768-2.083,26.145c0,0-7.649,9.283-15.961,5.988-17.274-6.848-9.17-24.142-9.17-24.142s2.179.4,11.54-20.463Z" transform="translate(-582.17 -664.491)" fill="#d98789"/>
      <path id="Trazado_75086" data-name="Trazado 75086" d="M694.066,651.577s-22.13-7.6-17.185-21.309,5.419-23.922,19.757-19.649,15.181,10.488,14.644,15.465S699.95,653.2,694.066,651.577Z" transform="translate(-617.013 -600.755)" fill="#e7b2b6"/>
      <path id="Trazado_75087" data-name="Trazado 75087" d="M681.979,595.513s20.435-5.224,24.737,16.747c1.837,9.379-6.642.461-15.229.768s-20.449,9.47-20.449,9.47S660.315,605.96,681.979,595.513Z" transform="translate(-611.336 -590.049)" fill="#555ca5"/>
      <path id="Trazado_75088" data-name="Trazado 75088" d="M524.712,851.4c-.15,10.58-.409,22.076-.731,33.734-1.337,48.718-3.746,100.318-3.746,100.318H457.487c-3.073-34.417,11.105-141.323,20.462-170.733S503.322,784.8,503.322,784.8l14.556,16.7C519.436,806.032,525.072,825.984,524.712,851.4Z" transform="translate(-457.059 -728.629)" fill="#dfe5f4"/>
      <path id="Trazado_75089" data-name="Trazado 75089" d="M727.646,851.788s-2.177,2.736-2.109,4.71c2.115,61.347,7.844,177.866,7.844,177.866H746.47Z" transform="translate(-653.058 -777.537)" fill="#d0d6ec"/>
      <path id="Trazado_75090" data-name="Trazado 75090" d="M697.474,945.279c-3.694.1-2.335-.436-7.532-.193-5.074.24-9.843-2.041-11.791-5.163-2.142-.734-4.821-1.73-7.82-2.9-15.079-5.9-38.292-16.281-42.354-20.3-5.725-5.666-33.372-55.85-30.889-61.271s19.667-8.81,19.667-8.81l22.023,53.2L674.1,927.281h0l8.309,6.453a14.281,14.281,0,0,1,16.566,6.991S701.168,945.181,697.474,945.279Z" transform="translate(-559.172 -773.778)" fill="#d98789"/>
      <path id="Trazado_75091" data-name="Trazado 75091" d="M636.679,789.658s-18.466-21.575-17.978-26.6c0,0-7.179.485-9.575,4.8,0,0,23,28.991,27.554,31.147Z" transform="translate(-568.074 -712.76)" fill="#dfe5f4"/>
      <path id="Trazado_75092" data-name="Trazado 75092" d="M713.143,814.676s5.046,2.9,5.637,7.162c0,0-1.054,11.621-5.271,14.794l-2.663-9.424A77.526,77.526,0,0,0,713.143,814.676Z" transform="translate(-642.334 -750.444)" fill="#dfe5f4"/>
      <path id="Trazado_75093" data-name="Trazado 75093" d="M625.57,920.376c-.15,10.58-.408,22.076-.731,33.734a.311.311,0,0,1-.052-.012c-6.619-1.856-17.685-23.566-22.807-38.724s-8.143-34.564-6.146-36.1Z" transform="translate(-557.916 -797.602)" fill="#d0d6ec"/>
      <path id="Trazado_75094" data-name="Trazado 75094" d="M602.79,818.558s11.66.509,16.286,18.542,13.674,39.333,15.364,40.87,21.971,17.669,21.971,17.669-4.4,12.154-4.5,15.373c0,0-27.446-10.434-30.524-14.747s-32.424-54.247-31.349-59.779S591.727,824.6,602.79,818.558Z" transform="translate(-554.118 -753.278)" fill="#dfe5f4"/>
      <path id="Trazado_75095" data-name="Trazado 75095" d="M481.959,839.309c-3.365,41.887,1.767,118.678,3.82,146.147H457.487c-3.073-34.417,11.105-141.323,20.462-170.733S503.322,784.8,503.322,784.8,486.107,787.687,481.959,839.309Z" transform="translate(-457.059 -728.629)" fill="#d0d6ec"/>
      <path id="Trazado_75096" data-name="Trazado 75096" d="M895.969,1163.358c-3.694.1-2.335-.436-7.532-.193-5.074.24-9.843-2.041-11.791-5.163-2.142-.734-4.821-1.73-7.82-2.9,2.157-2.569,3.773-9.738,3.773-9.738h0l8.309,6.453a14.282,14.282,0,0,1,16.566,6.991S899.662,1163.26,895.969,1163.358Z" transform="translate(-757.667 -991.857)" fill="#555ca5"/>
      <path id="Trazado_75097" data-name="Trazado 75097" d="M986.187,1054.1c-3.168.906-2.114.141-6.542,1.509-4.244,1.312-8.77.461-11.185-1.705-1.011.077-2.13.154-3.334.23a36.9,36.9,0,0,0,.827-8.054c1.576.439,3.186.873,4.846,1.306a12.7,12.7,0,0,1,15.678,2.446S989.352,1053.2,986.187,1054.1Z" transform="translate(-827.969 -919.103)" fill="#555ca5"/>
      <g id="test_tube-2" data-name="test tube" transform="translate(143.157 123.061)">
        <g id="Grupo_26440" data-name="Grupo 26440">
          <path id="Trazado_75098" data-name="Trazado 75098" d="M1002.282,1049a7.553,7.553,0,0,1-.048.844,7.465,7.465,0,0,1-14.794.292,7.592,7.592,0,0,1-.085-1.136,7.464,7.464,0,0,1,4.731-6.945v-9.458h5.467v9.458A7.462,7.462,0,0,1,1002.282,1049Z" transform="translate(-987.355 -1032.593)" fill="#dfe5f4"/>
          <path id="Trazado_75099" data-name="Trazado 75099" d="M1001.231,1032.593h-2.4v9.332s-4.005,4.533-3.2,8.835h3.841s-.114-6.914,1.761-8.835Z" transform="translate(-993.318 -1032.593)" fill="#d0d6ec"/>
        </g>
        <path id="Trazado_75100" data-name="Trazado 75100" d="M1002.464,1096.482a7.465,7.465,0,0,1-14.794.292,76.755,76.755,0,0,1,8.311.315A17.621,17.621,0,0,0,1002.464,1096.482Z" transform="translate(-987.585 -1079.235)" fill="#555ca5"/>
      </g>
    </g>
    <g id="test_tube-3" data-name="test tube" transform="translate(341.827 393.297)">
      <g id="Grupo_26445" data-name="Grupo 26445" transform="translate(0)">
        <g id="Grupo_26441" data-name="Grupo 26441" transform="translate(5.89)">
          <path id="Trazado_75101" data-name="Trazado 75101" d="M1088.206,1086.4v33.21a2.842,2.842,0,0,1-5.685,0V1086.4Z" transform="translate(-1082.521 -1086.4)" fill="#dfe5f4"/>
          <path id="Trazado_75102" data-name="Trazado 75102" d="M1088.206,1173.574v9.677a2.842,2.842,0,0,1-5.685,0v-9.677Z" transform="translate(-1082.521 -1150.041)" fill="#555ca5"/>
        </g>
        <g id="Grupo_26442" data-name="Grupo 26442" transform="translate(14.187)">
          <path id="Trazado_75103" data-name="Trazado 75103" d="M1118.94,1086.4v33.21a2.843,2.843,0,0,1-5.685,0V1086.4Z" transform="translate(-1113.255 -1086.4)" fill="#dfe5f4"/>
          <path id="Trazado_75104" data-name="Trazado 75104" d="M1118.94,1173.574v9.677a2.843,2.843,0,0,1-5.685,0v-9.677Z" transform="translate(-1113.255 -1150.041)" fill="#555ca5"/>
        </g>
        <g id="Grupo_26443" data-name="Grupo 26443" transform="translate(22.483)">
          <path id="Trazado_75105" data-name="Trazado 75105" d="M1149.674,1086.4v33.21a2.842,2.842,0,0,1-5.685,0V1086.4Z" transform="translate(-1143.989 -1086.4)" fill="#dfe5f4"/>
          <path id="Trazado_75106" data-name="Trazado 75106" d="M1149.674,1173.574v9.677a2.842,2.842,0,0,1-5.685,0v-9.677Z" transform="translate(-1143.989 -1150.041)" fill="#555ca5"/>
        </g>
        <g id="Grupo_26444" data-name="Grupo 26444" transform="translate(31.444)">
          <path id="Trazado_75107" data-name="Trazado 75107" d="M1182.865,1086.4v33.21a2.842,2.842,0,0,1-5.685,0V1086.4Z" transform="translate(-1177.18 -1086.4)" fill="#dfe5f4"/>
          <path id="Trazado_75108" data-name="Trazado 75108" d="M1182.865,1173.574v9.677a2.842,2.842,0,0,1-5.685,0v-9.677Z" transform="translate(-1177.18 -1150.041)" fill="#555ca5"/>
        </g>
        <rect id="Rectángulo_25972" data-name="Rectángulo 25972" width="42.918" height="4.906" transform="translate(0 33.181)" fill="#dfe5f4"/>
        <rect id="Rectángulo_25973" data-name="Rectángulo 25973" width="0.819" height="22.415" transform="translate(6.684 0)" fill="#d0d6ec"/>
        <rect id="Rectángulo_25974" data-name="Rectángulo 25974" width="0.82" height="22.415" transform="translate(15.185 0)" fill="#d0d6ec"/>
        <rect id="Rectángulo_25975" data-name="Rectángulo 25975" width="0.819" height="22.415" transform="translate(23.315 0)" fill="#d0d6ec"/>
        <rect id="Rectángulo_25976" data-name="Rectángulo 25976" width="0.819" height="22.415" transform="translate(32.394 0)" fill="#d0d6ec"/>
      </g>
      <g id="Grupo_26447" data-name="Grupo 26447" transform="translate(177.847 11.208)">
        <g id="Grupo_26446" data-name="Grupo 26446">
          <path id="Trazado_75109" data-name="Trazado 75109" d="M1736.312,1146.39a8.407,8.407,0,0,1-16.715,1.279,8.564,8.564,0,0,1-.1-1.279,8.406,8.406,0,0,1,5.328-7.822v-10.652h6.157v10.652A8.4,8.4,0,0,1,1736.312,1146.39Z" transform="translate(-1719.501 -1127.916)" fill="#dfe5f4"/>
          <path id="Trazado_75110" data-name="Trazado 75110" d="M1735.129,1127.916h-2.7v10.509s-4.511,5.1-3.608,9.949h4.326s-.128-7.786,1.983-9.949Z" transform="translate(-1726.217 -1127.916)" fill="#d0d6ec"/>
        </g>
        <path id="Trazado_75111" data-name="Trazado 75111" d="M1736.517,1199.867a8.407,8.407,0,0,1-16.661.329,86.518,86.518,0,0,1,9.36.355A19.836,19.836,0,0,0,1736.517,1199.867Z" transform="translate(-1719.76 -1180.443)" fill="#f0d170"/>
      </g>
      <g id="Grupo_26449" data-name="Grupo 26449" transform="translate(199.971 11.208)">
        <g id="Grupo_26448" data-name="Grupo 26448">
          <path id="Trazado_75112" data-name="Trazado 75112" d="M1818.265,1146.39a8.407,8.407,0,0,1-16.715,1.279,8.564,8.564,0,0,1-.1-1.279,8.406,8.406,0,0,1,5.328-7.822v-10.652h6.157v10.652A8.4,8.4,0,0,1,1818.265,1146.39Z" transform="translate(-1801.454 -1127.916)" fill="#dfe5f4"/>
          <path id="Trazado_75113" data-name="Trazado 75113" d="M1817.082,1127.916h-2.7v10.509s-4.51,5.1-3.608,9.949h4.326s-.128-7.786,1.983-9.949Z" transform="translate(-1808.17 -1127.916)" fill="#d0d6ec"/>
        </g>
        <path id="Trazado_75114" data-name="Trazado 75114" d="M1818.471,1199.867a8.407,8.407,0,0,1-16.662.329,86.522,86.522,0,0,1,9.361.355A19.836,19.836,0,0,0,1818.471,1199.867Z" transform="translate(-1801.713 -1180.443)" fill="#d35c2b"/>
      </g>
    </g>
  </g>
</svg>
