<svg xmlns="http://www.w3.org/2000/svg" width="347.572" height="241" viewBox="0 0 347.572 241">
  <g id="Grupo_26719" data-name="Grupo 26719" transform="translate(-137.257 -1723.431)">
    <g id="Grupo_26677" data-name="Grupo 26677" transform="translate(169.588 1771.668)">
      <g id="Grupo_26675" data-name="Grupo 26675">
        <path id="Trazado_75263" data-name="Trazado 75263" d="M758.029,2467.548H601.574a24.752,24.752,0,0,1-24.752-24.752v-63.544h2.207V2442.8a22.545,22.545,0,0,0,22.545,22.545H758.029Z" transform="translate(-576.822 -2379.251)" fill="#a2ebed"/>
        <path id="Trazado_75264" data-name="Trazado 75264" d="M1633.853,2467.548H1477.4a24.752,24.752,0,0,1-24.752-24.752v-63.544h2.207V2442.8a22.545,22.545,0,0,0,22.545,22.545h156.455Z" transform="translate(-1388.227 -2379.251)" fill="#a2ebed"/>
      </g>
      <g id="Grupo_26676" data-name="Grupo 26676" transform="translate(37.284)">
        <path id="Trazado_75265" data-name="Trazado 75265" d="M2116,2467.548H1959.548v-2.207H2116a22.545,22.545,0,0,0,22.545-22.545v-63.544h2.207V2442.8A24.753,24.753,0,0,1,2116,2467.548Z" transform="translate(-1895.129 -2379.251)" fill="#a2ebed"/>
        <path id="Trazado_75266" data-name="Trazado 75266" d="M1240.178,2467.548H1083.723v-2.207h156.455a22.545,22.545,0,0,0,22.545-22.545v-63.544h2.207V2442.8a24.752,24.752,0,0,1-24.752,24.752Z" transform="translate(-1083.723 -2379.251)" fill="#a2ebed"/>
      </g>
    </g>
    <g id="Grupo_26702" data-name="Grupo 26702" transform="translate(137.257 1723.431)">
      <g id="Grupo_26682" data-name="Grupo 26682">
        <rect id="Rectángulo_26008" data-name="Rectángulo 26008" width="62.721" height="77.757" fill="#fff"/>
        <g id="Grupo_26681" data-name="Grupo 26681" transform="translate(8.092 7.151)">
          <g id="Grupo_26680" data-name="Grupo 26680" transform="translate(0 30.827)">
            <g id="Grupo_26678" data-name="Grupo 26678">
              <rect id="Rectángulo_26009" data-name="Rectángulo 26009" width="46.538" height="1.031" fill="#9ddbd7"/>
              <rect id="Rectángulo_26010" data-name="Rectángulo 26010" width="46.538" height="1.031" transform="translate(0 2.436)" fill="#9ddbd7"/>
              <rect id="Rectángulo_26011" data-name="Rectángulo 26011" width="26.494" height="1.031" transform="translate(0 4.872)" fill="#9ddbd7"/>
              <rect id="Rectángulo_26012" data-name="Rectángulo 26012" width="46.538" height="1.031" transform="translate(0 7.308)" fill="#9ddbd7"/>
              <rect id="Rectángulo_26013" data-name="Rectángulo 26013" width="46.538" height="1.031" transform="translate(0 9.743)" fill="#9ddbd7"/>
              <rect id="Rectángulo_26014" data-name="Rectángulo 26014" width="10.252" height="1.031" transform="translate(0 12.179)" fill="#9ddbd7"/>
            </g>
            <g id="Grupo_26679" data-name="Grupo 26679" transform="translate(0 18.189)">
              <rect id="Rectángulo_26015" data-name="Rectángulo 26015" width="46.538" height="1.031" fill="#9ddbd7"/>
              <rect id="Rectángulo_26016" data-name="Rectángulo 26016" width="46.538" height="1.031" transform="translate(0 2.436)" fill="#9ddbd7"/>
              <rect id="Rectángulo_26017" data-name="Rectángulo 26017" width="26.494" height="1.031" transform="translate(0 4.872)" fill="#9ddbd7"/>
              <rect id="Rectángulo_26018" data-name="Rectángulo 26018" width="26.494" height="1.031" transform="translate(20.044 4.872)" fill="#9ddbd7"/>
              <rect id="Rectángulo_26019" data-name="Rectángulo 26019" width="26.262" height="1.031" transform="translate(0 7.308)" fill="#9ddbd7"/>
            </g>
          </g>
          <rect id="Rectángulo_26020" data-name="Rectángulo 26020" width="46.538" height="1.031" transform="translate(0 15.764)" fill="#a2ebed"/>
          <rect id="Rectángulo_26021" data-name="Rectángulo 26021" width="46.538" height="1.031" transform="translate(0 8.828)" fill="#a2ebed"/>
          <rect id="Rectángulo_26022" data-name="Rectángulo 26022" width="46.538" height="1.031" transform="translate(0 1.891)" fill="#a2ebed"/>
          <rect id="Rectángulo_26023" data-name="Rectángulo 26023" width="5.805" height="14.813" transform="translate(2.899 8.214)" fill="#2a6f7f"/>
          <rect id="Rectángulo_26024" data-name="Rectángulo 26024" width="5.805" height="17.272" transform="translate(11.414 5.755)" fill="#cf2004"/>
          <rect id="Rectángulo_26025" data-name="Rectángulo 26025" width="5.805" height="16.254" transform="translate(28.442 6.773)" fill="#566d70"/>
          <rect id="Rectángulo_26026" data-name="Rectángulo 26026" width="5.805" height="19.601" transform="translate(19.928 3.426)" fill="#9ddbd7"/>
          <rect id="Rectángulo_26027" data-name="Rectángulo 26027" width="5.805" height="23.027" transform="translate(36.956)" fill="#dd5e48"/>
          <rect id="Rectángulo_26028" data-name="Rectángulo 26028" width="46.538" height="1.031" transform="translate(0 22.7)" fill="#9ddbd7"/>
        </g>
      </g>
      <g id="Grupo_26692" data-name="Grupo 26692" transform="translate(71.722)">
        <rect id="Rectángulo_26029" data-name="Rectángulo 26029" width="62.721" height="77.757" transform="translate(0)" fill="#fff"/>
        <g id="Grupo_26686" data-name="Grupo 26686" transform="translate(6.421 13.085)">
          <g id="Grupo_26683" data-name="Grupo 26683" transform="translate(0 20.432)">
            <rect id="Rectángulo_26030" data-name="Rectángulo 26030" width="22.685" height="1.434" transform="translate(0 2.868)" fill="#a6d2dd"/>
            <rect id="Rectángulo_26031" data-name="Rectángulo 26031" width="8.441" height="1.434" transform="translate(33.763 2.868)" fill="#a6d2dd"/>
            <rect id="Rectángulo_26032" data-name="Rectángulo 26032" width="3.165" height="1.434" transform="translate(44.314 2.868)" fill="#a6d2dd"/>
            <rect id="Rectángulo_26033" data-name="Rectángulo 26033" width="6.858" height="1.434" transform="translate(24.795 2.868)" fill="#c7e5f0"/>
            <rect id="Rectángulo_26034" data-name="Rectángulo 26034" width="6.858" height="1.434" transform="translate(17.409)" fill="#c7e5f0"/>
            <rect id="Rectángulo_26035" data-name="Rectángulo 26035" width="4.748" height="1.434" fill="#a6d2dd"/>
            <rect id="Rectángulo_26036" data-name="Rectángulo 26036" width="8.441" height="1.434" transform="translate(6.858)" fill="#a6d2dd"/>
            <rect id="Rectángulo_26037" data-name="Rectángulo 26037" width="21.102" height="1.434" transform="translate(26.378)" fill="#a6d2dd"/>
          </g>
          <g id="Grupo_26684" data-name="Grupo 26684" transform="translate(0 10.037)">
            <rect id="Rectángulo_26038" data-name="Rectángulo 26038" width="22.685" height="1.434" fill="#a6d2dd"/>
            <rect id="Rectángulo_26039" data-name="Rectángulo 26039" width="8.441" height="1.434" transform="translate(33.763)" fill="#a6d2dd"/>
            <rect id="Rectángulo_26040" data-name="Rectángulo 26040" width="3.165" height="1.434" transform="translate(44.314)" fill="#a6d2dd"/>
            <rect id="Rectángulo_26041" data-name="Rectángulo 26041" width="6.858" height="1.434" transform="translate(24.795)" fill="#c7e5f0"/>
            <rect id="Rectángulo_26042" data-name="Rectángulo 26042" width="6.858" height="1.434" transform="translate(17.409 2.868)" fill="#c7e5f0"/>
            <rect id="Rectángulo_26043" data-name="Rectángulo 26043" width="4.748" height="1.434" transform="translate(0 2.868)" fill="#a6d2dd"/>
            <rect id="Rectángulo_26044" data-name="Rectángulo 26044" width="8.441" height="1.434" transform="translate(6.858 2.868)" fill="#a6d2dd"/>
            <rect id="Rectángulo_26045" data-name="Rectángulo 26045" width="21.102" height="1.434" transform="translate(26.378 2.868)" fill="#a6d2dd"/>
            <rect id="Rectángulo_26046" data-name="Rectángulo 26046" width="4.22" height="1.434" transform="translate(30.598 5.735)" fill="#dd5e48"/>
            <rect id="Rectángulo_26047" data-name="Rectángulo 26047" width="16.354" height="1.434" transform="translate(3.165 5.735)" fill="#a6d2dd"/>
            <rect id="Rectángulo_26048" data-name="Rectángulo 26048" width="6.858" height="1.434" transform="translate(21.63 5.735)" fill="#a6d2dd"/>
          </g>
          <g id="Grupo_26685" data-name="Grupo 26685" transform="translate(0.528)">
            <rect id="Rectángulo_26049" data-name="Rectángulo 26049" width="13.716" height="1.434" fill="#a6d2dd"/>
            <rect id="Rectángulo_26050" data-name="Rectángulo 26050" width="22.685" height="1.434" transform="translate(8.968 2.868)" fill="#a6d2dd"/>
            <rect id="Rectángulo_26051" data-name="Rectángulo 26051" width="10.551" height="1.434" transform="translate(15.827)" fill="#c7e5f0"/>
            <rect id="Rectángulo_26052" data-name="Rectángulo 26052" width="6.858" height="1.434" transform="translate(0 2.868)" fill="#c7e5f0"/>
            <rect id="Rectángulo_26053" data-name="Rectángulo 26053" width="4.22" height="1.434" transform="translate(2.638 5.735)" fill="#a6d2dd"/>
            <rect id="Rectángulo_26054" data-name="Rectángulo 26054" width="16.354" height="1.434" transform="translate(17.937 5.735)" fill="#a6d2dd"/>
            <rect id="Rectángulo_26055" data-name="Rectángulo 26055" width="6.858" height="1.434" transform="translate(8.968 5.735)" fill="#c7e5f0"/>
            <rect id="Rectángulo_26056" data-name="Rectángulo 26056" width="6.858" height="1.434" transform="translate(28.488)" fill="#a6d2dd"/>
            <rect id="Rectángulo_26057" data-name="Rectángulo 26057" width="6.858" height="1.434" transform="translate(43.259)" fill="#a6d2dd"/>
            <rect id="Rectángulo_26058" data-name="Rectángulo 26058" width="3.693" height="1.434" transform="translate(37.456)" fill="#a6d2dd"/>
            <rect id="Rectángulo_26059" data-name="Rectángulo 26059" width="16.354" height="1.434" transform="translate(33.763 2.868)" fill="#a6d2dd"/>
          </g>
        </g>
        <g id="Grupo_26690" data-name="Grupo 26690" transform="translate(6.421 41.627)">
          <g id="Grupo_26687" data-name="Grupo 26687">
            <rect id="Rectángulo_26060" data-name="Rectángulo 26060" width="22.685" height="1.434" fill="#a6d2dd"/>
            <rect id="Rectángulo_26061" data-name="Rectángulo 26061" width="8.441" height="1.434" transform="translate(33.763)" fill="#a6d2dd"/>
            <rect id="Rectángulo_26062" data-name="Rectángulo 26062" width="3.165" height="1.434" transform="translate(44.314)" fill="#a6d2dd"/>
            <rect id="Rectángulo_26063" data-name="Rectángulo 26063" width="6.858" height="1.434" transform="translate(24.795)" fill="#c7e5f0"/>
            <rect id="Rectángulo_26064" data-name="Rectángulo 26064" width="6.858" height="1.434" transform="translate(17.409 2.868)" fill="#c7e5f0"/>
            <rect id="Rectángulo_26065" data-name="Rectángulo 26065" width="4.748" height="1.434" transform="translate(0 2.868)" fill="#a6d2dd"/>
            <rect id="Rectángulo_26066" data-name="Rectángulo 26066" width="8.441" height="1.434" transform="translate(6.858 2.868)" fill="#a6d2dd"/>
            <rect id="Rectángulo_26067" data-name="Rectángulo 26067" width="21.102" height="1.434" transform="translate(26.378 2.868)" fill="#a6d2dd"/>
          </g>
          <g id="Grupo_26688" data-name="Grupo 26688" transform="translate(0 7.528)">
            <rect id="Rectángulo_26068" data-name="Rectángulo 26068" width="22.685" height="1.434" transform="translate(0 5.735)" fill="#a6d2dd"/>
            <rect id="Rectángulo_26069" data-name="Rectángulo 26069" width="8.441" height="1.434" transform="translate(33.763 5.735)" fill="#a6d2dd"/>
            <rect id="Rectángulo_26070" data-name="Rectángulo 26070" width="3.165" height="1.434" transform="translate(44.314 5.735)" fill="#a6d2dd"/>
            <rect id="Rectángulo_26071" data-name="Rectángulo 26071" width="6.858" height="1.434" transform="translate(24.795 5.735)" fill="#c7e5f0"/>
            <rect id="Rectángulo_26072" data-name="Rectángulo 26072" width="6.858" height="1.434" transform="translate(17.409 2.868)" fill="#c7e5f0"/>
            <rect id="Rectángulo_26073" data-name="Rectángulo 26073" width="4.748" height="1.434" transform="translate(0 2.868)" fill="#a6d2dd"/>
            <rect id="Rectángulo_26074" data-name="Rectángulo 26074" width="8.441" height="1.434" transform="translate(6.858 2.868)" fill="#a6d2dd"/>
            <rect id="Rectángulo_26075" data-name="Rectángulo 26075" width="21.102" height="1.434" transform="translate(26.378 2.868)" fill="#a6d2dd"/>
            <rect id="Rectángulo_26076" data-name="Rectángulo 26076" width="4.22" height="1.434" transform="translate(30.598)" fill="#a6d2dd"/>
            <rect id="Rectángulo_26077" data-name="Rectángulo 26077" width="16.354" height="1.434" transform="translate(3.165)" fill="#a6d2dd"/>
            <rect id="Rectángulo_26078" data-name="Rectángulo 26078" width="6.858" height="1.434" transform="translate(21.63)" fill="#a6d2dd"/>
          </g>
          <g id="Grupo_26689" data-name="Grupo 26689" transform="translate(0.528 17.564)">
            <rect id="Rectángulo_26079" data-name="Rectángulo 26079" width="13.716" height="1.434" transform="translate(0 5.735)" fill="#a6d2dd"/>
            <rect id="Rectángulo_26080" data-name="Rectángulo 26080" width="22.685" height="1.434" transform="translate(8.968 2.868)" fill="#a6d2dd"/>
            <rect id="Rectángulo_26081" data-name="Rectángulo 26081" width="10.551" height="1.434" transform="translate(15.827 5.735)" fill="#c7e5f0"/>
            <rect id="Rectángulo_26082" data-name="Rectángulo 26082" width="6.858" height="1.434" transform="translate(0 2.868)" fill="#c7e5f0"/>
            <rect id="Rectángulo_26083" data-name="Rectángulo 26083" width="4.22" height="1.434" transform="translate(2.638)" fill="#a6d2dd"/>
            <rect id="Rectángulo_26084" data-name="Rectángulo 26084" width="16.354" height="1.434" transform="translate(17.937)" fill="#a6d2dd"/>
            <rect id="Rectángulo_26085" data-name="Rectángulo 26085" width="6.858" height="1.434" transform="translate(8.968)" fill="#c7e5f0"/>
            <rect id="Rectángulo_26086" data-name="Rectángulo 26086" width="6.858" height="1.434" transform="translate(28.488 5.735)" fill="#a6d2dd"/>
            <rect id="Rectángulo_26087" data-name="Rectángulo 26087" width="6.858" height="1.434" transform="translate(43.259 5.735)" fill="#a6d2dd"/>
            <rect id="Rectángulo_26088" data-name="Rectángulo 26088" width="3.693" height="1.434" transform="translate(37.456 5.735)" fill="#a6d2dd"/>
            <rect id="Rectángulo_26089" data-name="Rectángulo 26089" width="16.354" height="1.434" transform="translate(33.763 2.868)" fill="#a6d2dd"/>
          </g>
        </g>
        <g id="Grupo_26691" data-name="Grupo 26691" transform="translate(0)">
          <rect id="Rectángulo_26090" data-name="Rectángulo 26090" width="62.721" height="7.5" fill="#2a6f7f"/>
          <path id="Trazado_75267" data-name="Trazado 75267" d="M1191.487,1763.575a.845.845,0,0,1-.829.86h-48.516a.845.845,0,0,1-.829-.86h0a.845.845,0,0,1,.829-.86h48.516a.845.845,0,0,1,.829.86Z" transform="translate(-1139.184 -1759.826)" fill="#fff"/>
          <path id="Trazado_75268" data-name="Trazado 75268" d="M1847.664,1763.575a.83.83,0,1,1-.829-.86A.845.845,0,0,1,1847.664,1763.575Z" transform="translate(-1792.045 -1759.826)" fill="#9ddbd7"/>
          <path id="Trazado_75269" data-name="Trazado 75269" d="M1881.476,1763.575a.829.829,0,1,1-.829-.86A.845.845,0,0,1,1881.476,1763.575Z" transform="translate(-1823.371 -1759.826)" fill="#dd5e48"/>
          <path id="Trazado_75270" data-name="Trazado 75270" d="M1915.287,1763.575a.83.83,0,1,1-.829-.86A.845.845,0,0,1,1915.287,1763.575Z" transform="translate(-1854.695 -1759.826)" fill="#a2ebed"/>
        </g>
      </g>
      <g id="Grupo_26698" data-name="Grupo 26698" transform="translate(284.851)">
        <rect id="Rectángulo_26091" data-name="Rectángulo 26091" width="62.721" height="77.757" fill="#fff"/>
        <g id="Grupo_26696" data-name="Grupo 26696" transform="translate(5.688 32.16)">
          <g id="Grupo_26695" data-name="Grupo 26695">
            <g id="Grupo_26693" data-name="Grupo 26693" transform="translate(12.047 6.962)">
              <rect id="Rectángulo_26092" data-name="Rectángulo 26092" width="7.966" height="1.11" fill="#a6d2dd"/>
              <rect id="Rectángulo_26093" data-name="Rectángulo 26093" width="13.175" height="1.11" transform="translate(5.209 2.22)" fill="#a6d2dd"/>
              <rect id="Rectángulo_26094" data-name="Rectángulo 26094" width="6.128" height="1.11" transform="translate(9.192)" fill="#c7e5f0"/>
              <rect id="Rectángulo_26095" data-name="Rectángulo 26095" width="3.983" height="1.11" transform="translate(0 2.22)" fill="#c7e5f0"/>
              <rect id="Rectángulo_26096" data-name="Rectángulo 26096" width="2.451" height="1.11" transform="translate(1.532 4.44)" fill="#a6d2dd"/>
              <rect id="Rectángulo_26097" data-name="Rectángulo 26097" width="9.498" height="1.11" transform="translate(10.417 4.44)" fill="#a6d2dd"/>
              <rect id="Rectángulo_26098" data-name="Rectángulo 26098" width="3.983" height="1.11" transform="translate(5.209 4.44)" fill="#c7e5f0"/>
              <rect id="Rectángulo_26099" data-name="Rectángulo 26099" width="3.983" height="1.11" transform="translate(16.545)" fill="#a6d2dd"/>
              <rect id="Rectángulo_26100" data-name="Rectángulo 26100" width="3.983" height="1.11" transform="translate(25.124)" fill="#a6d2dd"/>
              <rect id="Rectángulo_26101" data-name="Rectángulo 26101" width="2.145" height="1.11" transform="translate(21.754)" fill="#a6d2dd"/>
              <rect id="Rectángulo_26102" data-name="Rectángulo 26102" width="9.498" height="1.11" transform="translate(19.609 2.22)" fill="#a6d2dd"/>
            </g>
            <g id="Grupo_26694" data-name="Grupo 26694">
              <path id="Trazado_75271" data-name="Trazado 75271" d="M4096.342,2178.659l-9-9,9-9,1.56,1.56-7.437,7.437,7.437,7.438Z" transform="translate(-4087.345 -2160.664)" fill="#2a6f7f"/>
              <path id="Trazado_75272" data-name="Trazado 75272" d="M4667.417,2178.659l9-9-9-9-1.561,1.56,7.438,7.437-7.437,7.438Z" transform="translate(-4623.306 -2160.664)" fill="#2a6f7f"/>
            </g>
          </g>
        </g>
        <g id="Grupo_26697" data-name="Grupo 26697">
          <rect id="Rectángulo_26103" data-name="Rectángulo 26103" width="62.721" height="7.5" fill="#65666a"/>
          <path id="Trazado_75273" data-name="Trazado 75273" d="M4089.121,1763.575a.845.845,0,0,1-.829.86h-48.516a.845.845,0,0,1-.829-.86h0a.845.845,0,0,1,.829-.86h48.516a.845.845,0,0,1,.829.86Z" transform="translate(-4036.818 -1759.826)" fill="#fff"/>
          <path id="Trazado_75274" data-name="Trazado 75274" d="M4745.3,1763.575a.829.829,0,1,1-.829-.86A.845.845,0,0,1,4745.3,1763.575Z" transform="translate(-4689.682 -1759.826)" fill="#9ddbd7"/>
          <path id="Trazado_75275" data-name="Trazado 75275" d="M4779.111,1763.575a.83.83,0,1,1-.829-.86A.845.845,0,0,1,4779.111,1763.575Z" transform="translate(-4721.006 -1759.826)" fill="#dd5e48"/>
          <path id="Trazado_75276" data-name="Trazado 75276" d="M4812.921,1763.575a.83.83,0,1,1-.829-.86A.845.845,0,0,1,4812.921,1763.575Z" transform="translate(-4752.329 -1759.826)" fill="#a2ebed"/>
        </g>
      </g>
      <g id="Grupo_26701" data-name="Grupo 26701" transform="translate(214.084)">
        <rect id="Rectángulo_26104" data-name="Rectángulo 26104" width="62.721" height="77.757" fill="#fff"/>
        <g id="Grupo_26700" data-name="Grupo 26700" transform="translate(6.107 5.488)">
          <path id="Trazado_75277" data-name="Trazado 75277" d="M3166.788,1798.043h-35.883v2.226h50.507v-2.226Z" transform="translate(-3130.906 -1798.043)" fill="#65666a"/>
          <g id="Grupo_26699" data-name="Grupo 26699" transform="translate(0 9.414)">
            <rect id="Rectángulo_26105" data-name="Rectángulo 26105" width="50.507" height="0.996" fill="#9ddbd7"/>
            <rect id="Rectángulo_26106" data-name="Rectángulo 26106" width="50.507" height="0.996" transform="translate(0 2.353)" fill="#9ddbd7"/>
            <rect id="Rectángulo_26107" data-name="Rectángulo 26107" width="28.754" height="0.996" transform="translate(0 4.707)" fill="#9ddbd7"/>
            <rect id="Rectángulo_26108" data-name="Rectángulo 26108" width="50.507" height="0.996" transform="translate(0 7.06)" fill="#9ddbd7"/>
            <rect id="Rectángulo_26109" data-name="Rectángulo 26109" width="50.507" height="0.996" transform="translate(0 9.414)" fill="#9ddbd7"/>
            <rect id="Rectángulo_26110" data-name="Rectángulo 26110" width="11.126" height="0.996" transform="translate(0 11.767)" fill="#9ddbd7"/>
            <rect id="Rectángulo_26111" data-name="Rectángulo 26111" width="50.507" height="0.996" transform="translate(0 16.474)" fill="#9ddbd7"/>
            <rect id="Rectángulo_26112" data-name="Rectángulo 26112" width="50.507" height="0.996" transform="translate(0 18.827)" fill="#9ddbd7"/>
            <rect id="Rectángulo_26113" data-name="Rectángulo 26113" width="50.507" height="0.996" transform="translate(0 21.181)" fill="#9ddbd7"/>
            <rect id="Rectángulo_26114" data-name="Rectángulo 26114" width="33.88" height="0.996" transform="translate(0 23.534)" fill="#9ddbd7"/>
            <rect id="Rectángulo_26115" data-name="Rectángulo 26115" width="50.507" height="0.996" transform="translate(0 28.241)" fill="#9ddbd7"/>
            <rect id="Rectángulo_26116" data-name="Rectángulo 26116" width="50.507" height="0.996" transform="translate(0 30.595)" fill="#9ddbd7"/>
            <rect id="Rectángulo_26117" data-name="Rectángulo 26117" width="50.507" height="0.996" transform="translate(0 32.948)" fill="#9ddbd7"/>
            <rect id="Rectángulo_26118" data-name="Rectángulo 26118" width="34.13" height="0.996" transform="translate(0 35.301)" fill="#9ddbd7"/>
            <rect id="Rectángulo_26119" data-name="Rectángulo 26119" width="50.507" height="0.996" transform="translate(0 40.008)" fill="#9ddbd7"/>
            <rect id="Rectángulo_26120" data-name="Rectángulo 26120" width="18.63" height="0.996" transform="translate(0 42.362)" fill="#9ddbd7"/>
          </g>
          <rect id="Rectángulo_26121" data-name="Rectángulo 26121" width="50.507" height="0.436" transform="translate(0 66.608)" fill="#9ddbd7"/>
        </g>
      </g>
    </g>
    <g id="Grupo_26718" data-name="Grupo 26718" transform="translate(191.109 1746.118)">
      <path id="Trazado_75278" data-name="Trazado 75278" d="M1943.242,3068.048c-.448-8.949,6.809-12.878,1.786-16.432-6.654-4.709-21.865-5.106-39.937-4.837-18.072-.269-34.5-.229-41.153,4.48-5.023,3.555,2.234,6.769,1.786,15.718-.419,8.383-11.7,105.1,13.163,105.1,7.108,0,16.5.91,26.2,1.54h0c9.7-.63,19.1-1.54,26.2-1.54C1956.154,3172.076,1943.661,3076.43,1943.242,3068.048Z" transform="translate(-1789.141 -2972.046)" fill="#208f8d"/>
      <path id="Trazado_75279" data-name="Trazado 75279" d="M2817.925,3091.079c8.946-2.982,23.185,21.316,32.083,32.157,10.777,13.129,21.464,32.907,24.663,41.544,2.311,6.238.27,8.515-2.863,9.646-8.3,3-19.572-9.287-19.572-9.287s-7.819-16.555-14.156-24.383A150.93,150.93,0,0,0,2822.8,3125.1S2801.452,3096.57,2817.925,3091.079Z" transform="translate(-2668.825 -3012.939)" fill="#208f8d"/>
      <path id="Trazado_75280" data-name="Trazado 75280" d="M1225.833,3097.5c-7.136,3.279-14.374,17.105-23.273,27.946-10.776,13.129-25.076,34.128-28.275,42.764-2.31,6.238.3,7.514,2.863,9.646,1,.832,4.05,6.417,8.63,5.854,7.164-.881,16.529-8.484,15.822-9-1.158-.853-4.88-6.136-4.88-6.136l30.749-39.328S1241.612,3090.248,1225.833,3097.5Z" transform="translate(-1151.036 -3018.287)" fill="#208f8d"/>
      <g id="Grupo_26705" data-name="Grupo 26705" transform="translate(142.978 146.004)">
        <path id="Trazado_75281" data-name="Trazado 75281" d="M3041.4,4021.98c5.165-2.374,36.472-7.426,40.272-3.792,5.582,5.338,10.316,15.777,6.6,17.215-2.262.876-35.78,14.269-41.963,5.541C3044.329,4038.143,3036.236,4024.354,3041.4,4021.98Z" transform="translate(-3023.053 -4016.914)" fill="#208f8d"/>
        <g id="Grupo_26704" data-name="Grupo 26704" transform="translate(0 1.401)">
          <g id="Grupo_26703" data-name="Grupo 26703">
            <path id="Trazado_75282" data-name="Trazado 75282" d="M2813.433,4039.847a2.949,2.949,0,0,0,2.955,2.122l9.426-1.2a1.924,1.924,0,0,0,1.45-2.681h0a2.948,2.948,0,0,0-2.954-2.121l-9.426,1.2a1.923,1.923,0,0,0-1.45,2.68Z" transform="translate(-2813.307 -4035.955)" fill="#f7c3a6"/>
            <path id="Trazado_75283" data-name="Trazado 75283" d="M2945.667,4037.9a2.961,2.961,0,0,0,1.611,3.268l9.589,4.844a1.914,1.914,0,0,0,2.87-1h0a2.963,2.963,0,0,0-1.611-3.269l-9.589-4.844a1.913,1.913,0,0,0-2.869,1Z" transform="translate(-2935.85 -4036.567)" fill="#f7c3a6"/>
            <path id="Trazado_75284" data-name="Trazado 75284" d="M2976.679,4103.632c-.885-3.975-7.151-10.291-7.151-10.291l-5.929-1.005-9.3,3.085,2.34,4.518,9.337-1.155,1.523,6.044s-6.875.587-2.721,4.764c1.808,1.817,3.55,2.939,5.818,2.905C2973.483,4112.453,2977.563,4107.608,2976.679,4103.632Z" transform="translate(-2943.926 -4088.189)" fill="#ffd6bb"/>
            <path id="Trazado_75285" data-name="Trazado 75285" d="M2850.531,4143.162a2.3,2.3,0,0,0,3.275.387l6.307-6.44a2.505,2.505,0,0,0-.329-3.4h0a2.3,2.3,0,0,0-3.275-.386l-6.306,6.441a2.5,2.5,0,0,0,.327,3.4Z" transform="translate(-2847.003 -4125.674)" fill="#ffd6bb"/>
            <path id="Trazado_75286" data-name="Trazado 75286" d="M2900.544,4212.517a2.3,2.3,0,0,0,3.274.387l6.306-6.441a2.5,2.5,0,0,0-.328-3.4h0a2.3,2.3,0,0,0-3.275-.387l-6.307,6.441a2.505,2.505,0,0,0,.33,3.4Z" transform="translate(-2893.336 -4189.928)" fill="#ffd6bb"/>
            <path id="Trazado_75287" data-name="Trazado 75287" d="M2978.656,4268.9a2.3,2.3,0,0,0,3.275.388l5.114-5.216a2.5,2.5,0,0,0-.329-3.4h0a2.3,2.3,0,0,0-3.276-.388l-5.111,5.218a2.5,2.5,0,0,0,.327,3.395Z" transform="translate(-2965.703 -4243.297)" fill="#ffd6bb"/>
            <path id="Trazado_75288" data-name="Trazado 75288" d="M3005.219,4125.334l-10.088,6.021,1.925,4.317,10.787-3.387Z" transform="translate(-2981.757 -4118.76)" fill="#ffd6bb"/>
            <path id="Trazado_75289" data-name="Trazado 75289" d="M3066.312,4187.028l-9.813,5.723,1.715,4.225,8.564.34Z" transform="translate(-3038.611 -4175.916)" fill="#ffd6bb"/>
            <path id="Trazado_75290" data-name="Trazado 75290" d="M2857.631,4224.806a1.362,1.362,0,0,0,1.854.4l.88-.805c.454-.417-1.6-2.736-2.058-2.317l-.878.806a1.41,1.41,0,0,0,.2,1.914Z" transform="translate(-2853.913 -4208.349)" fill="#ffe2ca"/>
            <path id="Trazado_75291" data-name="Trazado 75291" d="M2824.9,4060.044a1.692,1.692,0,0,0,1.609,1.29l1.252-.142c.649-.075-.213-2.925-.863-2.851l-1.253.145c-.65.073-.983.772-.745,1.56Z" transform="translate(-2823.977 -4056.692)" fill="#ffd6bb"/>
            <path id="Trazado_75292" data-name="Trazado 75292" d="M2910.224,4291.595a1.363,1.363,0,0,0,1.854.4l.88-.8c.455-.418-1.6-2.736-2.058-2.318l-.879.806a1.411,1.411,0,0,0,.2,1.914Z" transform="translate(-2902.637 -4270.225)" fill="#ffe2ca"/>
            <path id="Trazado_75293" data-name="Trazado 75293" d="M2986.3,4337.191a1.363,1.363,0,0,0,1.854.4l.879-.805c.455-.417-1.6-2.736-2.057-2.317l-.878.806a1.411,1.411,0,0,0,.2,1.915Z" transform="translate(-2973.122 -4312.468)" fill="#ffe2ca"/>
            <path id="Trazado_75294" data-name="Trazado 75294" d="M2975.682,4045.938a.264.264,0,0,0,.25.2h0a.166.166,0,0,0,.145-.222l-.785-3.126a.263.263,0,0,0-.25-.2h0a.166.166,0,0,0-.145.223Z" transform="translate(-2963.004 -4042.102)" fill="#ffd6bb"/>
            <path id="Trazado_75295" data-name="Trazado 75295" d="M2962.571,4045.869a.265.265,0,0,0,.25.2h0a.165.165,0,0,0,.145-.222l-.487-1.933a.262.262,0,0,0-.25-.2h0a.165.165,0,0,0-.145.222Z" transform="translate(-2951.135 -4043.143)" fill="#ffd6bb"/>
            <path id="Trazado_75296" data-name="Trazado 75296" d="M2952.936,4148.435a.212.212,0,0,0,.29.054h0a.214.214,0,0,0-.01-.3l-1.362-1.59a.21.21,0,0,0-.289-.054h0a.211.211,0,0,0,.01.3Z" transform="translate(-2941.344 -4138.379)" fill="#ffe2ca"/>
            <path id="Trazado_75297" data-name="Trazado 75297" d="M3008.821,4213.07a.212.212,0,0,0,.289.054h0a.213.213,0,0,0-.01-.3l-1.362-1.59a.208.208,0,0,0-.288-.053h0a.21.21,0,0,0,.009.295Z" transform="translate(-2993.118 -4198.261)" fill="#ffe2ca"/>
          </g>
        </g>
      </g>
      <g id="Grupo_26708" data-name="Grupo 26708" transform="translate(38.098 145.008)">
        <path id="Trazado_75298" data-name="Trazado 75298" d="M1435.588,4008.432c-5.165-2.375-36.472-7.426-40.271-3.792-5.582,5.338-10.316,15.777-6.6,17.215,2.262.876,35.78,14.269,41.963,5.541C1432.66,4024.6,1440.753,4010.806,1435.588,4008.432Z" transform="translate(-1387.393 -4003.366)" fill="#208f8d"/>
        <g id="Grupo_26707" data-name="Grupo 26707" transform="translate(33.667 1.401)">
          <g id="Grupo_26706" data-name="Grupo 26706">
            <path id="Trazado_75299" data-name="Trazado 75299" d="M2114.6,4026.3a2.949,2.949,0,0,1-2.955,2.122l-9.426-1.2a1.924,1.924,0,0,1-1.45-2.681h0a2.948,2.948,0,0,1,2.954-2.122l9.427,1.2a1.924,1.924,0,0,1,1.45,2.681Z" transform="translate(-2081.846 -4022.407)" fill="#f7c3a6"/>
            <path id="Trazado_75300" data-name="Trazado 75300" d="M1980.307,4024.354a2.96,2.96,0,0,1-1.611,3.268l-9.589,4.844a1.914,1.914,0,0,1-2.87-1h0a2.963,2.963,0,0,1,1.611-3.269l9.589-4.844a1.914,1.914,0,0,1,2.869,1Z" transform="translate(-1957.248 -4023.019)" fill="#f7c3a6"/>
            <path id="Trazado_75301" data-name="Trazado 75301" d="M1845.245,4090.085c.885-3.976,7.15-10.291,7.15-10.291l5.929-1.006,9.3,3.085-2.34,4.518-9.337-1.156-1.523,6.044s6.876.588,2.721,4.764c-1.808,1.818-3.55,2.939-5.818,2.9C1848.44,4098.905,1844.36,4094.06,1845.245,4090.085Z" transform="translate(-1845.122 -4074.641)" fill="#ffd6bb"/>
            <path id="Trazado_75302" data-name="Trazado 75302" d="M2116.809,4129.614a2.3,2.3,0,0,1-3.275.387l-6.307-6.441a2.5,2.5,0,0,1,.329-3.4h0a2.3,2.3,0,0,1,3.274-.387l6.306,6.442a2.5,2.5,0,0,1-.327,3.4Z" transform="translate(-2087.462 -4112.126)" fill="#ffd6bb"/>
            <path id="Trazado_75303" data-name="Trazado 75303" d="M2066.795,4198.969a2.3,2.3,0,0,1-3.274.387l-6.307-6.441a2.5,2.5,0,0,1,.328-3.4h0a2.3,2.3,0,0,1,3.275-.387l6.306,6.442a2.5,2.5,0,0,1-.33,3.4Z" transform="translate(-2041.128 -4176.38)" fill="#ffd6bb"/>
            <path id="Trazado_75304" data-name="Trazado 75304" d="M2003.713,4255.35a2.3,2.3,0,0,1-3.276.388l-5.113-5.216a2.5,2.5,0,0,1,.329-3.4h0a2.3,2.3,0,0,1,3.276-.388l5.111,5.218a2.5,2.5,0,0,1-.327,3.4Z" transform="translate(-1983.79 -4229.75)" fill="#ffd6bb"/>
            <path id="Trazado_75305" data-name="Trazado 75305" d="M1940.067,4111.786l10.089,6.021-1.925,4.317-10.787-3.387Z" transform="translate(-1930.653 -4105.211)" fill="#ffd6bb"/>
            <path id="Trazado_75306" data-name="Trazado 75306" d="M1909.619,4173.479l9.813,5.724-1.715,4.225-8.564.34Z" transform="translate(-1904.444 -4162.368)" fill="#ffd6bb"/>
            <path id="Trazado_75307" data-name="Trazado 75307" d="M2206.292,4211.258a1.362,1.362,0,0,1-1.854.4l-.88-.8c-.454-.418,1.6-2.737,2.058-2.318l.878.806a1.412,1.412,0,0,1-.2,1.915Z" transform="translate(-2177.133 -4194.801)" fill="#ffe2ca"/>
            <path id="Trazado_75308" data-name="Trazado 75308" d="M2240.58,4046.5a1.692,1.692,0,0,1-1.608,1.29l-1.253-.143c-.65-.075.213-2.925.864-2.851l1.252.144c.651.073.984.773.746,1.56Z" transform="translate(-2208.629 -4043.146)" fill="#ffd6bb"/>
            <path id="Trazado_75309" data-name="Trazado 75309" d="M2153.7,4278.046a1.362,1.362,0,0,1-1.854.4l-.879-.8c-.455-.417,1.6-2.736,2.058-2.318l.878.806a1.41,1.41,0,0,1-.2,1.914Z" transform="translate(-2128.407 -4256.677)" fill="#ffe2ca"/>
            <path id="Trazado_75310" data-name="Trazado 75310" d="M2077.623,4323.644a1.363,1.363,0,0,1-1.854.4l-.879-.8c-.455-.418,1.6-2.737,2.057-2.319l.878.806a1.411,1.411,0,0,1-.2,1.915Z" transform="translate(-2057.929 -4298.92)" fill="#ffe2ca"/>
            <path id="Trazado_75311" data-name="Trazado 75311" d="M2114.673,4032.391a.264.264,0,0,1-.25.2h0a.165.165,0,0,1-.145-.222l.785-3.126a.264.264,0,0,1,.25-.2h0a.166.166,0,0,1,.145.222Z" transform="translate(-2094.474 -4028.554)" fill="#ffd6bb"/>
            <path id="Trazado_75312" data-name="Trazado 75312" d="M2131.544,4032.321a.263.263,0,0,1-.25.2h0a.165.165,0,0,1-.145-.221l.487-1.933a.263.263,0,0,1,.251-.2h0a.165.165,0,0,1,.145.222Z" transform="translate(-2110.104 -4029.594)" fill="#ffd6bb"/>
            <path id="Trazado_75313" data-name="Trazado 75313" d="M2130.156,4134.887a.213.213,0,0,1-.29.054h0a.215.215,0,0,1,.01-.3l1.362-1.59a.209.209,0,0,1,.289-.054h0a.211.211,0,0,1-.01.3Z" transform="translate(-2108.873 -4124.831)" fill="#ffe2ca"/>
            <path id="Trazado_75314" data-name="Trazado 75314" d="M2074.274,4199.523a.212.212,0,0,1-.289.054h0a.214.214,0,0,1,.01-.3l1.362-1.59a.208.208,0,0,1,.289-.053h0a.211.211,0,0,1-.009.3Z" transform="translate(-2057.1 -4184.713)" fill="#ffe2ca"/>
          </g>
        </g>
      </g>
      <path id="Trazado_75315" data-name="Trazado 75315" d="M1193.958,4047.355s16.941,2.658,21.758,2.325,11.294-1,11.294-1l-4.319,15.613s-32.151,1.029-35.044-.5c-5.979-3.155-8.471-9.633-8.471-9.633Z" transform="translate(-1156.393 -3899.112)" fill="#208f8d"/>
      <g id="Grupo_26712" data-name="Grupo 26712" transform="translate(88.713 0)">
        <g id="Grupo_26711" data-name="Grupo 26711">
          <g id="Grupo_26710" data-name="Grupo 26710">
            <path id="Trazado_75316" data-name="Trazado 75316" d="M2275.827,2820.418h-8.681c-5.557,0-10.061,2.531-10.061,5.655v10.876c0,3.124,4.5,5.656,10.061,5.656h8.681c5.557,0,10.061-2.532,10.061-5.656v-10.876C2285.888,2822.949,2281.384,2820.418,2275.827,2820.418Z" transform="translate(-2243.732 -2762.419)" fill="#ffd6bb"/>
            <path id="Trazado_75317" data-name="Trazado 75317" d="M2593.016,2147.335c-2.7,0-10.3-2.924-10.3-.225,0,0,4.029,2.641,6.253,9.866s2.223,19.87,2.223,19.87c0,1.176,1.342,3.984,2.779,4.446,1.864.6,1.787.014,1.787-1.51l2.147-27.559A4.889,4.889,0,0,0,2593.016,2147.335Z" transform="translate(-2545.411 -2137.575)" fill="#56575b"/>
            <g id="Grupo_26709" data-name="Grupo 26709" transform="translate(42.329 30.132)">
              <path id="Trazado_75318" data-name="Trazado 75318" d="M2656.95,2441.551c-1.881,0-5.906,2.844-5.906,4.725l-.019,7.923c0,1.88,4.045,4.3,5.926,4.3a3.4,3.4,0,0,0,3.4-3.4l1.131-8.268A4.709,4.709,0,0,0,2656.95,2441.551Z" transform="translate(-2651.024 -2441.551)" fill="#ffd6bb"/>
              <path id="Trazado_75319" data-name="Trazado 75319" d="M2682.214,2494.65a4.632,4.632,0,0,0-3.1,2.167,2.589,2.589,0,0,1-.047,4.933,4.373,4.373,0,0,0,3.145,2.041,1.835,1.835,0,0,0,1.836-1.835l.609-4.46A2.539,2.539,0,0,0,2682.214,2494.65Z" transform="translate(-2677.006 -2490.744)" fill="#e2caaa"/>
            </g>
            <path id="Trazado_75320" data-name="Trazado 75320" d="M2275.827,2820.418h-8.681c-5.557,0-10.061,2.531-10.061,5.655v5c5.366,2.518,12.027,4.413,17.054,4.413a24.9,24.9,0,0,0,11.748-3v-6.412C2285.888,2822.949,2281.384,2820.418,2275.827,2820.418Z" transform="translate(-2243.732 -2762.419)" fill="#f7c3a6"/>
            <path id="Trazado_75321" data-name="Trazado 75321" d="M2130.877,2246c0,5,16.378,12.434,26.336,12.434,10.844,0,19.758-7.433,19.758-12.434V2202.33h-46.094Z" transform="translate(-2126.807 -2189.793)" fill="#ffd6bb"/>
            <path id="Trazado_75322" data-name="Trazado 75322" d="M2130.877,2246c0,5,16.378,12.434,26.336,12.434,10.844,0,19.758-7.433,19.758-12.434V2202.33h-46.094Z" transform="translate(-2126.807 -2189.793)" fill="#ffd6bb"/>
            <path id="Trazado_75323" data-name="Trazado 75323" d="M2494.059,2225.995a314.929,314.929,0,0,1-1.615,32.442c10.727-.117,19.5-7.471,19.5-12.432V2202.33h-18.724C2493.765,2209.829,2494.059,2217.771,2494.059,2225.995Z" transform="translate(-2461.778 -2189.793)" fill="#f7c3a6"/>
            <path id="Trazado_75324" data-name="Trazado 75324" d="M2138.117,2203.24c-.219,2.4.462,5.108,2.478,6.081,4.318,2.084,8.282-1.619,18.038,1.03,6.958,1.89,13.568,3.54,19.414,2.763a9.108,9.108,0,0,0,5.6-2.92v-7.864H2138.2Z" transform="translate(-2133.478 -2189.793)" fill="#efbca3"/>
            <path id="Trazado_75325" data-name="Trazado 75325" d="M2119.569,2147.335a4.889,4.889,0,0,0-4.889,4.889V2178.3c0,1.524,2.071,3.594,3.933,2.995,1.438-.463,2.78-3.27,2.78-4.446,0,0,0-12.645,2.223-19.87s6.253-9.866,6.253-9.866C2129.869,2144.411,2122.269,2147.335,2119.569,2147.335Z" transform="translate(-2111.801 -2137.575)" fill="#56575b"/>
            <path id="Trazado_75326" data-name="Trazado 75326" d="M2080.095,2441.551a4.71,4.71,0,0,0-4.535,5.28l1.13,8.268a3.4,3.4,0,0,0,3.4,3.4c1.88,0,5.925-2.424,5.925-4.3l-.02-7.923C2086,2444.395,2081.975,2441.551,2080.095,2441.551Z" transform="translate(-2075.537 -2411.419)" fill="#ffd6bb"/>
            <path id="Trazado_75327" data-name="Trazado 75327" d="M2117.624,2499.275a2.59,2.59,0,0,1,1.778-2.458,4.627,4.627,0,0,0-3.1-2.167,2.54,2.54,0,0,0-2.445,2.846l.609,4.46a1.835,1.835,0,0,0,1.836,1.835,4.371,4.371,0,0,0,3.145-2.041A2.591,2.591,0,0,1,2117.624,2499.275Z" transform="translate(-2111.029 -2460.612)" fill="#efbca3"/>
            <path id="Trazado_75328" data-name="Trazado 75328" d="M2199.158,2032.764c-3.543-.189-.341,3.685-11.931,3.685-3.371,0-8.643-1.508-13.935-2.948-17.679-4.812-22.125,2.435-22.828,4.447a10.146,10.146,0,0,0-.6,3.621c.063,1.637.155,6.3,4.139,8.588,4.161,2.383,7.235-2.274,17.192-.524,7.1,1.249,13.833,2.291,19.584.985C2201.168,2048.26,2202.7,2032.953,2199.158,2032.764Z" transform="translate(-2144.392 -2031.881)" fill="#56575b"/>
            <path id="Trazado_75329" data-name="Trazado 75329" d="M2241.1,3083.7l-1.838,3.227,2.585,6.581,10.995,47.172,4.973.9,10.31-46.108,3.9-12.836-13.3,2.56Z" transform="translate(-2227.218 -3005.346)" fill="#fff"/>
            <path id="Trazado_75330" data-name="Trazado 75330" d="M2222.962,3086.031a27.692,27.692,0,0,1-17.09,0,12.58,12.58,0,0,1-5.865-3.695l-4.5,5.507,15.76,5,3.155-5.062,3.155,5.062,15.76-5-4.505-5.507A12.577,12.577,0,0,1,2222.962,3086.031Z" transform="translate(-2186.678 -3005.073)" fill="#ebf1ff"/>
            <path id="Trazado_75331" data-name="Trazado 75331" d="M2368,3105.5l-.029-.01-6.629,2.549,2.754,4.948,3.979.33.029,0,.03,0,3.968-.4,2.623-5-6.695-2.4Z" transform="translate(-2340.324 -3026.52)" fill="#dd5e48"/>
            <path id="Trazado_75332" data-name="Trazado 75332" d="M2200.007,3032.253l-4.5,5.507,15.76,5,3.392-5.442a53.612,53.612,0,0,1-8.782-1.369A12.581,12.581,0,0,1,2200.007,3032.253Z" transform="translate(-2186.678 -2958.673)" fill="#fff"/>
            <path id="Trazado_75333" data-name="Trazado 75333" d="M2458.225,3035.947a53.613,53.613,0,0,1-8.782,1.369l3.392,5.442,15.76-5-4.505-5.507A12.578,12.578,0,0,1,2458.225,3035.947Z" transform="translate(-2421.941 -2958.673)" fill="#fff"/>
            <path id="Trazado_75334" data-name="Trazado 75334" d="M2399.943,3205.477l.237,20.494,4.038,4.952,3.227-4.952.237-41.158-2.464-6.033-1.374-.56,0-.143-.17.073-.172-.07v.144l-1.358.583-2.435,6.313.236,20.357" transform="translate(-2375.864 -3093.771)" fill="#dd5e48"/>
            <path id="Trazado_75335" data-name="Trazado 75335" d="M2475.1,3022.815l-.812-.836-13.564,63.4-.229,6.559,22.778-49.577-6.938-2.474,11.016-8.405Z" transform="translate(-2432.179 -2949.155)" fill="#1d827d"/>
            <path id="Trazado_75336" data-name="Trazado 75336" d="M2091.96,3022.815l-12.252,8.673,12.887,8.118-7.167,2.58,22.287,49.757.228-6.559-15.173-63.4Z" transform="translate(-2079.401 -2949.155)" fill="#1d827d"/>
          </g>
        </g>
      </g>
      <g id="Grupo_26715" data-name="Grupo 26715" transform="translate(0 163.4)">
        <g id="Grupo_26713" data-name="Grupo 26713" transform="translate(11.768 12.518)">
          <rect id="Rectángulo_26122" data-name="Rectángulo 26122" width="218.757" height="42.395" fill="#56575b"/>
        </g>
        <g id="Grupo_26714" data-name="Grupo 26714">
          <path id="Rectángulo_26123" data-name="Rectángulo 26123" d="M9.836,0H228.952a9.836,9.836,0,0,1,9.836,9.836v0a9.836,9.836,0,0,1-9.836,9.836H9.836A9.836,9.836,0,0,1,0,9.836v0A9.836,9.836,0,0,1,9.836,0Z" fill="#64666b"/>
        </g>
      </g>
      <path id="Rectángulo_26124" data-name="Rectángulo 26124" d="M3.633,0H65.08a3.633,3.633,0,0,1,3.633,3.633v0A3.633,3.633,0,0,1,65.08,7.267H3.633A3.633,3.633,0,0,1,0,3.633v0A3.633,3.633,0,0,1,3.633,0Z" transform="translate(91.231 156.244)" fill="#a2ebed"/>
      <g id="Grupo_26717" data-name="Grupo 26717" transform="translate(123.724 67.153)">
        <g id="Grupo_26716" data-name="Grupo 26716">
          <path id="Trazado_75337" data-name="Trazado 75337" d="M3133.487,3722.316c0-.019,0-.038,0-.057v0a2.881,2.881,0,0,0-2.87-2.589h-29.8a2.885,2.885,0,0,0-2.885,2.885h0v28.675a2.886,2.886,0,0,0,2.885,2.885h29.8a2.886,2.886,0,0,0,2.885-2.885v-28.675h0C3133.5,3722.474,3133.493,3722.4,3133.487,3722.316Z" transform="translate(-3057.739 -3662.681)" fill="#c8eded"/>
          <path id="Trazado_75338" data-name="Trazado 75338" d="M2661.667,2944.872H2557.554a6.015,6.015,0,0,0-6.015,6.014v63.173a6.015,6.015,0,0,0,6.015,6.015h104.113a6.016,6.016,0,0,0,6.015-6.015v-63.173A6.015,6.015,0,0,0,2661.667,2944.872Z" transform="translate(-2551.539 -2944.872)" fill="#c8eded"/>
        </g>
        <path id="Rectángulo_26125" data-name="Rectángulo 26125" d="M3.633,0H59.041a3.633,3.633,0,0,1,3.633,3.633v0a3.633,3.633,0,0,1-3.633,3.633H3.633A3.633,3.633,0,0,1,0,3.633v0A3.633,3.633,0,0,1,3.633,0Z" transform="translate(27.304 89.092)" fill="#c8eded"/>
      </g>
    </g>
  </g>
</svg>
