<svg xmlns="http://www.w3.org/2000/svg" width="499.634" height="173.557" viewBox="0 0 499.634 173.557">
  <g id="Grupo_25862" data-name="Grupo 25862" transform="translate(-450 -1292.24)">
    <path id="Trazado_67820" data-name="Trazado 67820" d="M948.59,1322.713a1.893,1.893,0,0,1,1.891-1.892h0a1.893,1.893,0,0,1,1.893,1.892h0a1.892,1.892,0,0,1-1.893,1.893h0A1.892,1.892,0,0,1,948.59,1322.713Zm0-9.461a1.892,1.892,0,0,1,1.891-1.893h0a1.892,1.892,0,0,1,1.893,1.893h0a1.892,1.892,0,0,1-1.893,1.892h0A1.892,1.892,0,0,1,948.59,1313.251Zm0-9.461a1.892,1.892,0,0,1,1.891-1.892h0a1.892,1.892,0,0,1,1.893,1.892h0a1.893,1.893,0,0,1-1.893,1.893h0A1.893,1.893,0,0,1,948.59,1303.79Zm0-9.463a1.891,1.891,0,0,1,1.891-1.891h0a1.892,1.892,0,0,1,1.893,1.891h0a1.892,1.892,0,0,1-1.893,1.893h0A1.892,1.892,0,0,1,948.59,1294.327Zm122.808-.195a1.893,1.893,0,0,1,1.891-1.893h0a1.893,1.893,0,0,1,1.893,1.893h0a1.892,1.892,0,0,1-1.893,1.893h0A1.892,1.892,0,0,1,1071.4,1294.133Zm-9.463,0a1.893,1.893,0,0,1,1.892-1.893h0a1.893,1.893,0,0,1,1.892,1.893h0a1.892,1.892,0,0,1-1.892,1.893h0A1.892,1.892,0,0,1,1061.935,1294.133Zm-9.461,0a1.893,1.893,0,0,1,1.893-1.893h0a1.894,1.894,0,0,1,1.893,1.893h0a1.893,1.893,0,0,1-1.893,1.893h0A1.892,1.892,0,0,1,1052.474,1294.133Zm-9.461,0a1.892,1.892,0,0,1,1.891-1.893h0a1.893,1.893,0,0,1,1.893,1.893h0a1.892,1.892,0,0,1-1.893,1.893h0A1.892,1.892,0,0,1,1043.012,1294.133Zm-9.463,0a1.894,1.894,0,0,1,1.893-1.893h0a1.893,1.893,0,0,1,1.892,1.893h0a1.892,1.892,0,0,1-1.892,1.893h0A1.893,1.893,0,0,1,1033.55,1294.133Zm-9.461,0a1.893,1.893,0,0,1,1.893-1.893h0a1.894,1.894,0,0,1,1.892,1.893h0a1.893,1.893,0,0,1-1.892,1.893h0A1.892,1.892,0,0,1,1024.088,1294.133Zm-9.461,0a1.893,1.893,0,0,1,1.893-1.893h0a1.893,1.893,0,0,1,1.891,1.893h0a1.892,1.892,0,0,1-1.891,1.893h0A1.892,1.892,0,0,1,1014.627,1294.133Zm-9.463,0a1.894,1.894,0,0,1,1.893-1.893h0a1.893,1.893,0,0,1,1.893,1.893h0a1.892,1.892,0,0,1-1.893,1.893h0A1.893,1.893,0,0,1,1005.164,1294.133Zm-9.461,0a1.893,1.893,0,0,1,1.893-1.893h0a1.893,1.893,0,0,1,1.893,1.893h0a1.892,1.892,0,0,1-1.893,1.893h0A1.892,1.892,0,0,1,995.7,1294.133Zm-9.461,0a1.893,1.893,0,0,1,1.892-1.893h0a1.893,1.893,0,0,1,1.891,1.893h0a1.892,1.892,0,0,1-1.891,1.893h0A1.892,1.892,0,0,1,986.242,1294.133Zm-9.463,0a1.894,1.894,0,0,1,1.893-1.893h0a1.893,1.893,0,0,1,1.893,1.893h0a1.892,1.892,0,0,1-1.893,1.893h0A1.893,1.893,0,0,1,976.779,1294.133Zm-9.461,0a1.893,1.893,0,0,1,1.893-1.893h0a1.893,1.893,0,0,1,1.893,1.893h0a1.892,1.892,0,0,1-1.893,1.893h0A1.892,1.892,0,0,1,967.318,1294.133Zm-9.461,0a1.893,1.893,0,0,1,1.893-1.893h0a1.893,1.893,0,0,1,1.891,1.893h0a1.892,1.892,0,0,1-1.891,1.893h0A1.892,1.892,0,0,1,957.856,1294.133Z" transform="translate(-437.831)" fill="#915aad"/>
    <path id="Trazado_67821" data-name="Trazado 67821" d="M3198.345,1322.442a1.894,1.894,0,0,1,1.893-1.892h0a1.893,1.893,0,0,1,1.892,1.892h0a1.892,1.892,0,0,1-1.892,1.892h0A1.893,1.893,0,0,1,3198.345,1322.442Zm0-9.461a1.893,1.893,0,0,1,1.893-1.893h0a1.892,1.892,0,0,1,1.892,1.893h0a1.892,1.892,0,0,1-1.892,1.893h0A1.893,1.893,0,0,1,3198.345,1312.981Zm0-9.461a1.893,1.893,0,0,1,1.893-1.892h0a1.892,1.892,0,0,1,1.892,1.892h0a1.893,1.893,0,0,1-1.892,1.893h0A1.894,1.894,0,0,1,3198.345,1303.52Zm-.076-9.387a1.894,1.894,0,0,1,1.893-1.893h0a1.893,1.893,0,0,1,1.893,1.893h0a1.892,1.892,0,0,1-1.893,1.893h0A1.893,1.893,0,0,1,3198.269,1294.133Zm-9.461,0a1.893,1.893,0,0,1,1.893-1.893h0a1.893,1.893,0,0,1,1.892,1.893h0a1.892,1.892,0,0,1-1.892,1.893h0A1.892,1.892,0,0,1,3188.808,1294.133Zm-9.461,0a1.893,1.893,0,0,1,1.893-1.893h0a1.893,1.893,0,0,1,1.891,1.893h0a1.892,1.892,0,0,1-1.891,1.893h0A1.892,1.892,0,0,1,3179.346,1294.133Zm-9.462,0a1.894,1.894,0,0,1,1.892-1.893h0a1.893,1.893,0,0,1,1.893,1.893h0a1.892,1.892,0,0,1-1.893,1.893h0A1.893,1.893,0,0,1,3169.884,1294.133Zm-9.461,0a1.893,1.893,0,0,1,1.892-1.893h0a1.893,1.893,0,0,1,1.893,1.893h0a1.892,1.892,0,0,1-1.893,1.893h0A1.892,1.892,0,0,1,3160.422,1294.133Zm-9.461,0a1.893,1.893,0,0,1,1.893-1.893h0a1.893,1.893,0,0,1,1.891,1.893h0a1.892,1.892,0,0,1-1.891,1.893h0A1.892,1.892,0,0,1,3150.961,1294.133Zm-9.462,0a1.894,1.894,0,0,1,1.892-1.893h0a1.893,1.893,0,0,1,1.893,1.893h0a1.892,1.892,0,0,1-1.893,1.893h0A1.893,1.893,0,0,1,3141.5,1294.133Zm-9.461,0a1.893,1.893,0,0,1,1.893-1.893h0a1.893,1.893,0,0,1,1.893,1.893h0a1.892,1.892,0,0,1-1.893,1.893h0A1.892,1.892,0,0,1,3132.037,1294.133Zm-9.461,0a1.893,1.893,0,0,1,1.893-1.893h0a1.894,1.894,0,0,1,1.892,1.893h0a1.893,1.893,0,0,1-1.892,1.893h0A1.892,1.892,0,0,1,3122.576,1294.133Zm-9.463,0a1.894,1.894,0,0,1,1.894-1.893h0a1.892,1.892,0,0,1,1.891,1.893h0a1.892,1.892,0,0,1-1.891,1.893h0A1.893,1.893,0,0,1,3113.113,1294.133Zm-9.461,0a1.893,1.893,0,0,1,1.893-1.893h0a1.893,1.893,0,0,1,1.892,1.893h0a1.892,1.892,0,0,1-1.892,1.893h0A1.892,1.892,0,0,1,3103.652,1294.133Zm-9.461,0a1.893,1.893,0,0,1,1.892-1.893h0a1.893,1.893,0,0,1,1.893,1.893h0a1.893,1.893,0,0,1-1.893,1.893h0A1.892,1.892,0,0,1,3094.19,1294.133Zm-9.461,0a1.893,1.893,0,0,1,1.893-1.893h0a1.892,1.892,0,0,1,1.891,1.893h0a1.892,1.892,0,0,1-1.891,1.893h0A1.892,1.892,0,0,1,3084.729,1294.133Z" transform="translate(-2313.656)" fill="#915aad"/>
    <circle id="Elipse_1794" data-name="Elipse 1794" cx="85.156" cy="85.156" r="85.156" transform="translate(614.119 1294.636)" fill="#ffebc2"/>
    <g id="Grupo_25830" data-name="Grupo 25830" transform="translate(450 1338.843)">
      <g id="Grupo_25829" data-name="Grupo 25829" transform="translate(0 0)">
        <circle id="Elipse_1795" data-name="Elipse 1795" cx="63.052" cy="63.052" r="63.052" fill="#ffebc2"/>
      </g>
    </g>
    <g id="Grupo_25831" data-name="Grupo 25831" transform="translate(823.529 1338.843)">
      <circle id="Elipse_1796" data-name="Elipse 1796" cx="63.052" cy="63.052" r="63.052" transform="translate(0 0)" fill="#ffebc2"/>
    </g>
    <g id="Grupo_25841" data-name="Grupo 25841" transform="translate(603.869 1320.843)">
      <g id="Grupo_25835" data-name="Grupo 25835" transform="translate(13.575 0)">
        <g id="Grupo_25832" data-name="Grupo 25832" transform="translate(0 1.155)">
          <path id="Trazado_67822" data-name="Trazado 67822" d="M1963.837,1600.9s-4.352,7.975-23.224,12.776c-8.1,2.061-62.945,1.033-62.945,1.033s-7.926-3.27-11.2-21.7c-1.422-8.005.041-19.731.936-25.489a2.643,2.643,0,0,0-2.922-3.031c-5.378.623-15.747,1.743-22.526,1.956-8,.251-8.821-14.537.315-14.424l31.727-3.85a11.036,11.036,0,0,1,12.166,8.864l4.531,23.463c.061,2.128,8.769,2.682,19.058,3.9,5.87.693,30.471,3.577,38.562,4.308S1987.061,1588.12,1963.837,1600.9Z" transform="translate(-1834.271 -1546.67)" fill="#fff"/>
          <path id="Trazado_67823" data-name="Trazado 67823" d="M1895.682,1606.156c-14.088,0-27.168-.239-28.262-.26a1.42,1.42,0,0,1-.515-.107c-.239-.1-2.408-1.059-4.957-4.387-3.312-4.324-5.7-10.506-7.1-18.374-1.44-8.11-.035-19.743.931-25.955a1.224,1.224,0,0,0-1.357-1.4c-5.541.642-15.851,1.751-22.645,1.964a6.931,6.931,0,0,1-6.355-3.557,10.254,10.254,0,0,1-.167-9.961,7.38,7.38,0,0,1,6.689-3.744h.023l31.636-3.839a12.456,12.456,0,0,1,13.73,10l4.523,23.422c.246.176,1.1.613,3.932,1.1,2.4.414,5.5.756,9.077,1.151,1.557.172,3.167.35,4.83.546,3.049.36,30.039,3.538,38.523,4.3,1.188.107,2.9.17,4.889.243,10.948.4,19.4,1.033,20.373,5.132.633,2.665-2.1,5.539-8.861,9.3-1.155,1.729-6.745,8.727-23.881,13.087C1926.535,1605.89,1910.547,1606.156,1895.682,1606.156Zm-27.884-3.092c4.539.08,54.736.915,62.243-1,9.363-2.382,14.944-5.553,17.978-7.792a16.476,16.476,0,0,0,4.356-4.3,1.381,1.381,0,0,1,.556-.554c8.128-4.471,7.808-6.261,7.791-6.335-.013-.052-.368-1.29-5.878-2.109a115.119,115.119,0,0,0-11.837-.843c-2.027-.074-3.777-.138-5.04-.252-8.522-.769-35.547-3.951-38.6-4.312-1.652-.195-3.257-.372-4.809-.543-4.1-.452-7.633-.843-10.239-1.358-2.637-.521-5.09-1.275-5.255-3.225l-4.514-23.373a9.649,9.649,0,0,0-10.6-7.724l-31.727,3.85a1.411,1.411,0,0,1-.189.01h-.085a4.573,4.573,0,0,0-4.228,2.319,7.4,7.4,0,0,0,.14,7.087,4.173,4.173,0,0,0,3.831,2.18c6.69-.21,16.911-1.31,22.407-1.947a4.063,4.063,0,0,1,4.489,4.659c-.939,6.038-2.309,17.318-.941,25.023,1.606,9.046,4.355,14.189,6.379,16.91A13,13,0,0,0,1867.8,1603.065Z" transform="translate(-1824.049 -1536.442)" fill="#915aad"/>
        </g>
        <g id="Grupo_25833" data-name="Grupo 25833" transform="translate(76.374)">
          <path id="Trazado_67824" data-name="Trazado 67824" d="M2468.712,1580.969s-3.166-6-6.048-10.636c-1.276-2.053,2.71-18.125,5.389-27.518,1.846-6.474,11.415-5.641,9.251,3.342-1.2,4.979-5.2,15.658-2.674,19.356,6.542,9.565,21.887,16.912,21.887,16.912" transform="translate(-2461 -1537.167)" fill="#fff"/>
          <path id="Trazado_67825" data-name="Trazado 67825" d="M2486.29,1573.637a1.414,1.414,0,0,1-.612-.14,83.784,83.784,0,0,1-8.652-4.96c-6.333-4.127-10.975-8.309-13.793-12.431-2.39-3.495-.247-10.923,1.475-16.892.387-1.343.753-2.61.991-3.6.728-3.024-.015-5.216-1.939-5.722-1.684-.443-3.853.6-4.567,3.1-1.531,5.369-3.049,11.343-4.06,15.981-1.834,8.415-1.532,10.188-1.458,10.449,2.867,4.62,6.034,10.612,6.066,10.672a1.419,1.419,0,1,1-2.51,1.325c-.031-.06-3.176-6.009-6-10.549-.372-.6-.663-1.589-.276-4.765.226-1.858.665-4.31,1.306-7.289,1.027-4.774,2.6-10.98,4.2-16.6a6.739,6.739,0,0,1,8.019-5.069,5.565,5.565,0,0,1,3.648,3.055,9.161,9.161,0,0,1,.329,6.077c-.252,1.048-.626,2.346-1.023,3.719-1.307,4.53-3.495,12.113-1.86,14.5,6.247,9.134,21.179,16.362,21.329,16.433a1.42,1.42,0,0,1-.614,2.7Zm-32.607-14.185Z" transform="translate(-2450.773 -1526.96)" fill="#915aad"/>
        </g>
        <g id="Grupo_25834" data-name="Grupo 25834" transform="translate(101.047 24.325)">
          <ellipse id="Elipse_1797" data-name="Elipse 1797" cx="21.205" cy="19.503" rx="21.205" ry="19.503" transform="translate(1.426 1.429)" fill="#fff"/>
          <path id="Trazado_67826" data-name="Trazado 67826" d="M2675.887,1768.434a24.328,24.328,0,0,1-7.422-1.162,22.883,22.883,0,0,1-8-4.44,20.962,20.962,0,0,1-5.257-6.807,19.4,19.4,0,0,1-.691-15.439,21.431,21.431,0,0,1,11.546-11.94,24.169,24.169,0,0,1,17.212-.915,22.881,22.881,0,0,1,8,4.44,20.959,20.959,0,0,1,5.257,6.807,19.4,19.4,0,0,1,.691,15.439,21.431,21.431,0,0,1-11.546,11.94A24.08,24.08,0,0,1,2675.887,1768.434Zm-.012-39.021c-8.2,0-15.87,4.695-18.7,12.178a16.587,16.587,0,0,0,.593,13.2,19.285,19.285,0,0,0,11.566,9.777,21.424,21.424,0,0,0,6.535,1.021c8.2,0,15.87-4.695,18.7-12.178a16.588,16.588,0,0,0-.593-13.2,19.287,19.287,0,0,0-11.566-9.777A21.422,21.422,0,0,0,2675.875,1729.413Z" transform="translate(-2653.24 -1726.568)" fill="#915aad"/>
        </g>
      </g>
      <g id="Grupo_25836" data-name="Grupo 25836" transform="translate(38.339 75.632)">
        <rect id="Rectángulo_25790" data-name="Rectángulo 25790" width="111.242" height="39.429" rx="19.715" transform="translate(1.419 1.419)" fill="#fff"/>
        <path id="Trazado_67827" data-name="Trazado 67827" d="M2135.323,2189.863H2033.286a6.028,6.028,0,0,1-6.021-6.022v-30.225a6.028,6.028,0,0,1,6.021-6.021h102.038a6.028,6.028,0,0,1,6.021,6.021v30.225A6.028,6.028,0,0,1,2135.323,2189.863Zm-102.038-39.429a3.186,3.186,0,0,0-3.183,3.183v30.225a3.187,3.187,0,0,0,3.183,3.183h102.038a3.187,3.187,0,0,0,3.183-3.183v-30.225a3.186,3.186,0,0,0-3.183-3.183Z" transform="translate(-2027.264 -2147.595)" fill="#915aad"/>
      </g>
      <g id="Grupo_25837" data-name="Grupo 25837" transform="translate(61.147 88.37)">
        <rect id="Rectángulo_25791" data-name="Rectángulo 25791" width="65.821" height="18.987" rx="9.494" transform="translate(1.419 1.419)" fill="#99f8ff"/>
        <path id="Trazado_67828" data-name="Trazado 67828" d="M2278.4,2273.953h-59.286a4.692,4.692,0,0,1-4.687-4.687v-12.452a4.692,4.692,0,0,1,4.687-4.687H2278.4a4.692,4.692,0,0,1,4.687,4.687v12.452A4.692,4.692,0,0,1,2278.4,2273.953Zm-59.286-18.987a1.851,1.851,0,0,0-1.848,1.849v12.452a1.851,1.851,0,0,0,1.848,1.849H2278.4a1.851,1.851,0,0,0,1.848-1.849v-12.452a1.851,1.851,0,0,0-1.848-1.849Z" transform="translate(-2214.429 -2252.127)" fill="#915aad"/>
      </g>
      <g id="Grupo_25838" data-name="Grupo 25838" transform="translate(77.467 93.758)">
        <path id="Trazado_67829" data-name="Trazado 67829" d="M2350.009,2301.1a4.644,4.644,0,0,1,1.136-.686,3.075,3.075,0,0,1,1.153-.217,3.124,3.124,0,0,1,2.272.971,3.3,3.3,0,0,1,.974,2.434,2.846,2.846,0,0,1-.907,2.2,3.48,3.48,0,0,1-2.46.838,3.716,3.716,0,0,1-2.134-.569,3.438,3.438,0,0,1-1.265-1.751,7.7,7.7,0,0,1-.427-2.638,4.779,4.779,0,0,1,.845-2.9,6.2,6.2,0,0,1,1.99-1.793,4.894,4.894,0,0,1,2.416-.637,2.8,2.8,0,0,1,1.564.372.747.747,0,0,1,.362.637.76.76,0,0,1-.242.572.808.808,0,0,1-.58.232,1.386,1.386,0,0,1-.556-.183.959.959,0,0,0-.418-.106,3.668,3.668,0,0,0-1.636.421,3.981,3.981,0,0,0-1.466,1.292A4.091,4.091,0,0,0,2350.009,2301.1Zm.242,2.4a2.326,2.326,0,0,0,.7,1.244,2.038,2.038,0,0,0,1.252.334,1.79,1.79,0,0,0,1.252-.4,1.407,1.407,0,0,0,.439-1.093,1.816,1.816,0,0,0-.5-1.312,1.536,1.536,0,0,0-1.131-.523,1.73,1.73,0,0,0-1.067.462A3.444,3.444,0,0,0,2350.251,2303.5Z" transform="translate(-2348.351 -2296.341)" fill="#915aad"/>
        <path id="Trazado_67830" data-name="Trazado 67830" d="M2442.725,2361.736h2.208l-2.377,4.217a.608.608,0,0,1-.524.372.531.531,0,0,1-.358-.129.376.376,0,0,1-.148-.289,1.2,1.2,0,0,1,.057-.31Z" transform="translate(-2430.171 -2353.767)" fill="#915aad"/>
        <path id="Trazado_67831" data-name="Trazado 67831" d="M2512.149,2300.633v1.707a5.132,5.132,0,0,1-.931,2.9,3.015,3.015,0,0,1-2.663,1.388,3.218,3.218,0,0,1-1.687-.413,3.952,3.952,0,0,1-1.305-1.524,4.779,4.779,0,0,1-.617-2.354v-1.707a5.156,5.156,0,0,1,.927-2.9,3,3,0,0,1,2.658-1.391,3.224,3.224,0,0,1,1.679.41,3.987,3.987,0,0,1,1.314,1.521A4.749,4.749,0,0,1,2512.149,2300.633Zm-1.659,0a3.464,3.464,0,0,0-.75-2.213,1.463,1.463,0,0,0-1.2-.524,1.514,1.514,0,0,0-1.224.578,3.285,3.285,0,0,0-.716,2.16v1.707a3.422,3.422,0,0,0,.757,2.214,1.449,1.449,0,0,0,1.2.523,1.51,1.51,0,0,0,1.217-.576,3.29,3.29,0,0,0,.718-2.161Z" transform="translate(-2485.864 -2296.341)" fill="#915aad"/>
        <path id="Trazado_67832" data-name="Trazado 67832" d="M2592.029,2300.633v1.707a5.135,5.135,0,0,1-.931,2.9,3.016,3.016,0,0,1-2.663,1.388,3.22,3.22,0,0,1-1.687-.413,3.952,3.952,0,0,1-1.305-1.524,4.781,4.781,0,0,1-.617-2.354v-1.707a5.157,5.157,0,0,1,.927-2.9,3,3,0,0,1,2.658-1.391,3.224,3.224,0,0,1,1.679.41,3.985,3.985,0,0,1,1.314,1.521A4.749,4.749,0,0,1,2592.029,2300.633Zm-1.66,0a3.464,3.464,0,0,0-.749-2.213,1.463,1.463,0,0,0-1.2-.524,1.514,1.514,0,0,0-1.224.578,3.286,3.286,0,0,0-.716,2.16v1.707a3.422,3.422,0,0,0,.757,2.214,1.449,1.449,0,0,0,1.2.523,1.51,1.51,0,0,0,1.217-.576,3.291,3.291,0,0,0,.717-2.161Z" transform="translate(-2556.009 -2296.341)" fill="#915aad"/>
      </g>
      <g id="Grupo_25839" data-name="Grupo 25839" transform="translate(0 56.935)">
        <path id="Trazado_67833" data-name="Trazado 67833" d="M1901.783,2027.618H1734.709c-2.689,0-5.016-1.324-5.6-3.184l-4.514-14.452c-1.132-3.488.8-4.17,5.885-4.17H1906.01c4.753,0,7.232,0,5.885,4.17l-4.514,14.452C1906.8,2026.294,1904.472,2027.618,1901.783,2027.618Z" transform="translate(-1722.867 -2004.393)" fill="#fcd486"/>
        <path id="Trazado_67834" data-name="Trazado 67834" d="M1891.57,2018.811H1724.5c-3.325,0-6.183-1.719-6.952-4.18l-4.512-14.446c-.214-.661-.848-2.636.246-4.141,1.141-1.57,3.428-1.877,6.992-1.877H1895.8c3.4,0,5.852,0,7.06,1.659.983,1.351.573,3.134.178,4.36l-4.512,14.445C1897.753,2017.092,1894.894,2018.811,1891.57,2018.811ZM1720.269,1997c-3.456,0-4.461.385-4.7.708-.12.165-.141.674.161,1.6l0,.015,4.514,14.452c.39,1.247,2.214,2.188,4.243,2.188H1891.57c2.029,0,3.853-.941,4.243-2.188l4.514-14.453,0-.013c.473-1.464.24-1.809.23-1.823s-.2-.241-1.156-.369a30.675,30.675,0,0,0-3.608-.122Z" transform="translate(-1712.653 -1994.166)" fill="#915aad"/>
      </g>
      <g id="Grupo_25840" data-name="Grupo 25840" transform="translate(8.985 115.061)">
        <line id="Línea_428" data-name="Línea 428" x1="165.861" transform="translate(1.419 1.419)" fill="#fff"/>
        <path id="Trazado_67835" data-name="Trazado 67835" d="M1953.667,2473.992h-165.86a1.419,1.419,0,1,1,0-2.839h165.86a1.419,1.419,0,1,1,0,2.839Z" transform="translate(-1786.387 -2471.153)" fill="#915aad"/>
      </g>
    </g>
    <g id="Grupo_25854" data-name="Grupo 25854" transform="translate(468.231 1343.812)">
      <g id="Grupo_25852" data-name="Grupo 25852" transform="translate(0 0)">
        <g id="Grupo_25842" data-name="Grupo 25842" transform="translate(0 4.906)">
          <rect id="Rectángulo_25792" data-name="Rectángulo 25792" width="86.206" height="114.241" transform="translate(1.419 1.419)" fill="#fff"/>
          <path id="Trazado_67836" data-name="Trazado 67836" d="M687.232,1872.779H601.025a1.419,1.419,0,0,1-1.419-1.419V1757.119a1.419,1.419,0,0,1,1.419-1.419h86.206a1.419,1.419,0,0,1,1.419,1.419V1871.36A1.419,1.419,0,0,1,687.232,1872.779Zm-84.787-2.838h83.368v-111.4H602.445Z" transform="translate(-599.606 -1755.7)" fill="#915aad"/>
        </g>
        <g id="Grupo_25843" data-name="Grupo 25843" transform="translate(17.526 24.818)">
          <line id="Línea_429" data-name="Línea 429" x2="57.865" transform="translate(1.419 1.419)" fill="#fff"/>
          <path id="Trazado_67837" data-name="Trazado 67837" d="M802.707,1921.937H744.842a1.419,1.419,0,0,1,0-2.839h57.865a1.419,1.419,0,1,1,0,2.839Z" transform="translate(-743.423 -1919.098)" fill="#915aad"/>
        </g>
        <g id="Grupo_25844" data-name="Grupo 25844" transform="translate(10.517 34.163)">
          <line id="Línea_430" data-name="Línea 430" x2="64.874" transform="translate(1.419 1.419)" fill="#fff"/>
          <path id="Trazado_67838" data-name="Trazado 67838" d="M752.2,1998.621H687.329a1.419,1.419,0,1,1,0-2.839H752.2a1.419,1.419,0,1,1,0,2.839Z" transform="translate(-685.91 -1995.782)" fill="#915aad"/>
        </g>
        <g id="Grupo_25845" data-name="Grupo 25845" transform="translate(10.517 43.508)">
          <line id="Línea_431" data-name="Línea 431" x2="64.874" transform="translate(1.419 1.419)" fill="#fff"/>
          <path id="Trazado_67839" data-name="Trazado 67839" d="M752.2,2075.3H687.329a1.419,1.419,0,1,1,0-2.839H752.2a1.419,1.419,0,1,1,0,2.839Z" transform="translate(-685.91 -2072.465)" fill="#915aad"/>
        </g>
        <g id="Grupo_25846" data-name="Grupo 25846" transform="translate(10.517 53.437)">
          <line id="Línea_432" data-name="Línea 432" x2="64.874" transform="translate(1.419 1.419)" fill="#fff"/>
          <path id="Trazado_67840" data-name="Trazado 67840" d="M752.2,2156.781H687.329a1.419,1.419,0,1,1,0-2.839H752.2a1.419,1.419,0,1,1,0,2.839Z" transform="translate(-685.91 -2153.942)" fill="#915aad"/>
        </g>
        <g id="Grupo_25847" data-name="Grupo 25847" transform="translate(32.599 62.373)">
          <line id="Línea_433" data-name="Línea 433" x2="20.711" transform="translate(1.419 1.419)" fill="#fff"/>
          <path id="Trazado_67841" data-name="Trazado 67841" d="M889.24,2230.11H868.529a1.419,1.419,0,1,1,0-2.839H889.24a1.419,1.419,0,0,1,0,2.839Z" transform="translate(-867.11 -2227.271)" fill="#915aad"/>
        </g>
        <g id="Grupo_25848" data-name="Grupo 25848" transform="translate(20.873)">
          <rect id="Rectángulo_25793" data-name="Rectángulo 25793" width="48.21" height="10.262" transform="translate(1.419 1.419)" fill="#99f8ff"/>
          <path id="Trazado_67842" data-name="Trazado 67842" d="M820.516,1728.541H772.305a1.419,1.419,0,0,1-1.419-1.419V1716.86a1.419,1.419,0,0,1,1.419-1.419h48.211a1.419,1.419,0,0,1,1.419,1.419v10.262A1.419,1.419,0,0,1,820.516,1728.541Zm-46.791-2.838H819.1v-7.423H773.724Z" transform="translate(-770.886 -1715.441)" fill="#915aad"/>
        </g>
        <g id="Grupo_25849" data-name="Grupo 25849" transform="translate(53.98 76.688)">
          <circle id="Elipse_1798" data-name="Elipse 1798" cx="9.19" cy="9.19" r="9.19" transform="matrix(0.23, -0.973, 0.973, 0.23, 0, 17.888)" fill="#fcd486"/>
          <path id="Trazado_67843" data-name="Trazado 67843" d="M1056.842,2369.625a10.609,10.609,0,1,1,10.609-10.609A10.621,10.621,0,0,1,1056.842,2369.625Zm0-18.38a7.771,7.771,0,1,0,7.771,7.771A7.779,7.779,0,0,0,1056.842,2351.246Z" transform="translate(-1045.787 -2347.961)" fill="#915aad"/>
        </g>
        <g id="Grupo_25850" data-name="Grupo 25850" transform="translate(53.309 103.3)">
          <line id="Línea_434" data-name="Línea 434" x2="20.461" transform="translate(1.419 1.419)" fill="#fff"/>
          <path id="Trazado_67844" data-name="Trazado 67844" d="M1058.943,2565.964h-20.461a1.419,1.419,0,1,1,0-2.839h20.461a1.419,1.419,0,1,1,0,2.839Z" transform="translate(-1037.063 -2563.125)" fill="#915aad"/>
        </g>
        <g id="Grupo_25851" data-name="Grupo 25851" transform="translate(53.309 110.075)">
          <line id="Línea_435" data-name="Línea 435" x2="20.461" transform="translate(1.419 1.419)" fill="#fff"/>
          <path id="Trazado_67845" data-name="Trazado 67845" d="M1058.943,2621.56h-20.461a1.419,1.419,0,1,1,0-2.839h20.461a1.419,1.419,0,1,1,0,2.839Z" transform="translate(-1037.063 -2618.721)" fill="#915aad"/>
        </g>
      </g>
      <g id="Grupo_25853" data-name="Grupo 25853" transform="translate(9.913 77.214)">
        <rect id="Rectángulo_25794" data-name="Rectángulo 25794" width="31.539" height="32.941" transform="translate(1.419 1.419)" fill="#99f8ff"/>
        <path id="Trazado_67846" data-name="Trazado 67846" d="M713.913,2384.838H682.374a1.419,1.419,0,0,1-1.419-1.419v-32.94a1.419,1.419,0,0,1,1.419-1.419h31.539a1.419,1.419,0,0,1,1.419,1.419v32.94A1.419,1.419,0,0,1,713.913,2384.838ZM683.794,2382h28.7v-30.1h-28.7Z" transform="translate(-680.955 -2349.059)" fill="#915aad"/>
      </g>
    </g>
    <g id="Grupo_25861" data-name="Grupo 25861" transform="translate(841.356 1335.53)">
      <g id="Grupo_25855" data-name="Grupo 25855" transform="translate(0 11.439)">
        <path id="Trazado_67847" data-name="Trazado 67847" d="M3725.815,1752.993s8.234,5.373,10.006,21.357c1.153-.668,2.905-.115,2.905,2.468s-.625,4.167-2.427,8.788a2.923,2.923,0,0,1-2.426,1.906,16.284,16.284,0,0,1-3.951,8.449l-.8.892v5.982a6.49,6.49,0,0,0,4.708,6.233l16.8,3.233c4.028,1.027,10.745,4.781,10.829,12.618.111,10.362-2.53,23.178-9.233,32.931-9.027,13.134-48.913,9.906-56.292,8.8-13.416,0-16.883-12.591-16.883-12.591s-2.96-10.13-5.767-29.139c-1.144-7.754,3.823-10.3,7.852-11.328,3.91-1,9.32-1.85,14.784-3.2s8.8-3.336,8.8-6.233v-7.3l-2.067-2.515a16.281,16.281,0,0,1-2.68-6.826,3.623,3.623,0,0,1-2.426-1.906,16.467,16.467,0,0,1-2.443-8.077c0-2.583,1.769-3.847,2.921-3.179l-.256-.111c1.069-11.231,11.224-14.5,18.908-16.554a21.336,21.336,0,0,0,8.6-4.209Z" transform="translate(-3671.7 -1751.574)" fill="#fff"/>
        <path id="Trazado_67848" data-name="Trazado 67848" d="M3705.051,1859.01a153.588,153.588,0,0,1-19.448-1.169,18.086,18.086,0,0,1-14.47-6.823,20.758,20.758,0,0,1-3.672-6.8c-.11-.383-3.057-10.7-5.805-29.319-.576-3.9.214-7.048,2.347-9.357a12.953,12.953,0,0,1,6.558-3.553c1.9-.483,4.139-.934,6.515-1.411,2.677-.538,5.445-1.094,8.278-1.8,6.385-1.582,7.726-3.513,7.726-4.855v-6.793l-1.744-2.122q-.039-.048-.074-.1a17.816,17.816,0,0,1-2.763-6.556,5.288,5.288,0,0,1-2.411-2.287,17.721,17.721,0,0,1-2.623-8.769,4.855,4.855,0,0,1,2.158-4.353,3.2,3.2,0,0,1,.668-.291,16.692,16.692,0,0,1,7.433-11.536c3.838-2.618,8.4-3.972,12.367-5.036a20.19,20.19,0,0,0,8.029-3.9l.514-.469a1.42,1.42,0,0,1,1.732-.14c.348.227,8.3,5.578,10.451,20.881a3.116,3.116,0,0,1,1.3.4,3.964,3.964,0,0,1,1.808,3.729c0,2.832-.675,4.564-2.48,9.192l-.043.112a4.366,4.366,0,0,1-2.51,2.542,17.649,17.649,0,0,1-4.13,8.242l-.436.489v5.441a5.1,5.1,0,0,0,3.624,4.852l16.731,3.221c.027.005.055.011.082.018a17.857,17.857,0,0,1,7.512,4.092,13.436,13.436,0,0,1,4.386,9.886,66.059,66.059,0,0,1-2.107,17.065,52.688,52.688,0,0,1-7.376,16.684c-4.1,5.96-14.14,9.443-29.852,10.353C3710.5,1858.943,3707.714,1859.01,3705.051,1859.01Zm-11.482-75.751,2.027,2.466a1.42,1.42,0,0,1,.323.9v7.3c0,1.9-1,3.535-2.978,4.871a21.739,21.739,0,0,1-6.9,2.74c-2.895.717-5.82,1.3-8.4,1.823-2.339.47-4.548.914-6.373,1.378-5.416,1.379-7.576,4.476-6.8,9.745,2.756,18.669,5.7,28.847,5.725,28.948l.006.021a18.184,18.184,0,0,0,3.211,5.861,15.171,15.171,0,0,0,12.3,5.688,1.413,1.413,0,0,1,.21.016,154.5,154.5,0,0,0,27.235.928c14.583-.845,24.153-4,27.677-9.127,5.752-8.368,9.11-20.373,8.984-32.111a10.521,10.521,0,0,0-3.485-7.841,15.071,15.071,0,0,0-6.236-3.407l-16.755-3.225q-.063-.012-.125-.03a7.951,7.951,0,0,1-5.735-7.6v-5.982a1.42,1.42,0,0,1,.36-.944l.8-.892a14.824,14.824,0,0,0,3.606-7.712,1.353,1.353,0,0,1,1.316-1.209,1.5,1.5,0,0,0,1.191-1l.044-.112c1.756-4.5,2.286-5.864,2.286-8.161,0-.773-.208-1.167-.387-1.27a.4.4,0,0,0-.387.031,1.42,1.42,0,0,1-2.123-1.072c-1.347-12.152-6.517-17.857-8.547-19.663a23.409,23.409,0,0,1-8.813,4.211c-7.947,2.129-16.488,5.193-17.779,14.6a1.42,1.42,0,0,1-1.806,1.993l-.123-.053c-.208.06-.813.605-.813,1.931a15.044,15.044,0,0,0,2.262,7.384,2.33,2.33,0,0,0,1.4,1.195,1.336,1.336,0,0,1,1.192,1.2A14.948,14.948,0,0,0,3693.569,1783.259Zm21.492-40.011h0Z" transform="translate(-3661.474 -1741.346)" fill="#915aad"/>
      </g>
      <g id="Grupo_25856" data-name="Grupo 25856" transform="translate(21.219 45.33)">
        <path id="Trazado_67849" data-name="Trazado 67849" d="M3848.815,2054.609c4.4-1.09,7.418-2.588,8.429-4.643a13.525,13.525,0,0,0,.375-1.653v-7.239l-2.067-2.515a16.286,16.286,0,0,1-2.68-6.826,3.171,3.171,0,0,1-1.281-.589,2.234,2.234,0,0,0-.241-.039,48.649,48.649,0,0,1-.5,12.757c-1.47,7.26-3.322,11.043-3.62,11.108l.028.009C3847.776,2054.859,3848.295,2054.738,3848.815,2054.609Z" transform="translate(-3845.812 -2029.686)" fill="#fcd486"/>
        <path id="Trazado_67850" data-name="Trazado 67850" d="M3837.041,2046.171a1.415,1.415,0,0,1-.436-.069l-.051-.017a1.42,1.42,0,0,1-.5-2.385c.469-.752,1.977-4.349,3.192-10.348a50.458,50.458,0,0,0,.543-12.033,1.419,1.419,0,0,1,1.468-1.856,3.567,3.567,0,0,1,.412.064,1.422,1.422,0,0,1,.551.246,1.991,1.991,0,0,0,.663.33,1.338,1.338,0,0,1,1.181,1.195,14.939,14.939,0,0,0,2.412,6.181l2.027,2.466a1.421,1.421,0,0,1,.323.9v7.239a1.43,1.43,0,0,1-.019.228,14.886,14.886,0,0,1-.415,1.828,1.42,1.42,0,0,1-.088.224c-1.159,2.356-4.221,4.121-9.361,5.394-.537.133-1.066.256-1.578.375A1.412,1.412,0,0,1,3837.041,2046.171Zm-.337-2.814h0Zm0,0h0Zm0,0h0Zm6.032-16.716a44.345,44.345,0,0,1-.716,7.275,58.248,58.248,0,0,1-2.309,8.46q-.049.134-.1.265c4.06-1.175,5.563-2.478,6.086-3.43a12.015,12.015,0,0,0,.28-1.242v-6.613l-1.745-2.122c-.026-.032-.05-.064-.074-.1A17.676,17.676,0,0,1,3842.739,2026.641Zm-2.788-4.977h0Zm0,0h0Zm2.944-1.555Z" transform="translate(-3835.595 -2019.459)" fill="#915aad"/>
      </g>
      <path id="Trazado_67851" data-name="Trazado 67851" d="M3934.56,2109.679c-7.539,0-13.1-5.771-13.333-6.017a1.419,1.419,0,0,1,2.058-1.955c.077.08,4.994,5.133,11.275,5.133a13.2,13.2,0,0,0,8.107-2.683,14.437,14.437,0,0,1,1.565-.963,1.419,1.419,0,0,1,1.261,2.543,12.441,12.441,0,0,0-1.243.775A15.888,15.888,0,0,1,3934.56,2109.679Z" transform="translate(-3889.231 -2045.966)" fill="#915aad"/>
      <g id="Grupo_25857" data-name="Grupo 25857" transform="translate(52.693 4.586)">
        <path id="Trazado_67852" data-name="Trazado 67852" d="M4117.411,1724.97c1.457-6.633,1.915-14.055-1.409-21.314-1.533-3.347-5.681-6.9-7.144-6.9a10.278,10.278,0,0,1-3.313,6.853s8.234,5.373,10.006,21.357Z" transform="translate(-4104.123 -1695.341)" fill="#fcd486"/>
        <path id="Trazado_67853" data-name="Trazado 67853" d="M4107.164,1716.161h-1.86a1.419,1.419,0,0,1-1.411-1.263c-.481-4.343-1.8-10.623-5.328-15.881a17.167,17.167,0,0,0-4.048-4.448,1.415,1.415,0,0,1-.2-2.213,8.842,8.842,0,0,0,2.873-5.833,1.411,1.411,0,0,1,1.419-1.41c1.506,0,3.472,1.61,4.509,2.57a17.336,17.336,0,0,1,3.924,5.154c2.943,6.427,3.421,13.484,1.505,22.21A1.419,1.419,0,0,1,4107.164,1716.161Zm-9.8-22.926c2.322,2.106,7.094,7.609,8.939,18.447,1.12-6.835.519-12.5-1.844-17.664a14.335,14.335,0,0,0-3.124-4.114,13.988,13.988,0,0,0-1.612-1.332A12.071,12.071,0,0,1,4097.368,1693.236Z" transform="translate(-4093.875 -1685.113)" fill="#915aad"/>
      </g>
      <g id="Grupo_25858" data-name="Grupo 25858" transform="translate(21.163)">
        <path id="Trazado_67854" data-name="Trazado 67854" d="M3848.2,1692.832c-.8-4.093-2.411-10.555-.6-18.047a20.412,20.412,0,0,1,18.018-15.448c13.783-1.323,16,4.386,16,4.386s.457,8.087-12.446,11.544c-7.684,2.059-17.839,5.323-18.908,16.554Z" transform="translate(-3845.352 -1657.716)" fill="#fcd486"/>
        <path id="Trazado_67855" data-name="Trazado 67855" d="M3837.979,1684.012a1.419,1.419,0,0,1-1.393-1.146c-.065-.33-.135-.677-.208-1.037-.843-4.153-2.116-10.429-.375-17.617a21.5,21.5,0,0,1,6.873-11.256,22.028,22.028,0,0,1,12.388-5.271c6.007-.577,10.715.052,13.993,1.868a7.462,7.462,0,0,1,3.467,3.417,1.413,1.413,0,0,1,.094.434,9.775,9.775,0,0,1-1.59,5.3c-2.722,4.457-7.976,6.647-11.9,7.7-8.145,2.182-16.913,5.346-17.862,15.318a1.42,1.42,0,0,1-.79,1.141l-2.068,1.011A1.419,1.419,0,0,1,3837.979,1684.012Zm21.324-33.691c-1.336,0-2.623.079-3.768.189a19.206,19.206,0,0,0-10.8,4.592,18.68,18.68,0,0,0-5.972,9.777,33.883,33.883,0,0,0,.1,14.9,16.685,16.685,0,0,1,7.357-11.091c3.839-2.618,8.4-3.972,12.367-5.036,4.82-1.292,8.319-3.462,10.116-6.276a7.738,7.738,0,0,0,1.271-3.555,5.974,5.974,0,0,0-2.377-1.941A18.875,18.875,0,0,0,3859.3,1650.321Z" transform="translate(-3835.134 -1647.477)" fill="#915aad"/>
      </g>
      <g id="Grupo_25860" data-name="Grupo 25860" transform="translate(31.605 39.802)">
        <g id="Grupo_25859" data-name="Grupo 25859">
          <path id="Trazado_67856" data-name="Trazado 67856" d="M3971.708,1985.948c-7.852-1.557-15.219,5.01-16.454,14.669-1.3,10.183,4.729,19.737,13.28,20.494a9.109,9.109,0,0,1-7.255,2.866c-2.236-.3-3.883-.141-13.93-4.978s-14.47-16.667-14.47-16.667l-.406,7.3s3.531,10.237,11.781,17.145c3.113,2.434,7.689,5.245,10.033,6.046,1.2.409-1.374,2.741-3.707,7.556-3.053,6.3-4.354,14.3-4.071,17.481l.637.15c6.13-1.089,12.277-2.735,15.77-3.738,6.419-1.842,13.339-6.613,15.229-14.152l.488-4.923-.089-10.934a19.1,19.1,0,0,1,2.633-10.456,19.981,19.981,0,0,0,2.51-7.545C3984.923,1996.6,3979.56,1987.505,3971.708,1985.948Z" transform="translate(-3931.054 -1984.303)" fill="#fff"/>
          <path id="Trazado_67857" data-name="Trazado 67857" d="M3936.919,2049.217a1.421,1.421,0,0,1-.325-.038l-.637-.15a1.419,1.419,0,0,1-1.088-1.256c-.3-3.381.995-11.6,4.208-18.226a44.876,44.876,0,0,1,2.862-4.958c.225-.349.466-.722.658-1.038a51.432,51.432,0,0,1-9.443-5.868l-.037-.03c-8.455-7.079-12.063-17.337-12.212-17.77a1.423,1.423,0,0,1-.075-.542l.406-7.3a1.419,1.419,0,0,1,2.747-.418c.042.112,4.36,11.362,13.756,15.885,8.954,4.31,11.051,4.558,12.9,4.776.2.024.4.047.6.074a7.52,7.52,0,0,0,3.733-.729,15.562,15.562,0,0,1-7.033-5.062,20.455,20.455,0,0,1-3.723-7.437,22.817,22.817,0,0,1-.6-8.905,19.468,19.468,0,0,1,7.5-13.458,13.556,13.556,0,0,1,10.635-2.423,15.7,15.7,0,0,1,10.344,7.787,22.277,22.277,0,0,1,2.768,14.093,21.274,21.274,0,0,1-2.693,8.081,17.666,17.666,0,0,0-2.44,9.679c0,.017,0,.033,0,.05l.089,10.934a1.426,1.426,0,0,1-.007.151l-.488,4.923a1.5,1.5,0,0,1-.036.205c-2.1,8.356-9.75,13.315-16.215,15.171-3.223.925-9.576,2.645-15.913,3.771A1.411,1.411,0,0,1,3936.919,2049.217Zm-2-33.755a44.146,44.146,0,0,0,9.6,5.806,1.811,1.811,0,0,1,1.163,1.124c.369,1.062-.245,2.012-1.359,3.737a42.384,42.384,0,0,0-2.692,4.656,42.941,42.941,0,0,0-3.963,15.433c5.874-1.1,11.63-2.661,14.631-3.522,8.64-2.479,13-8.339,14.219-13.034l.469-4.741-.088-10.833a20.5,20.5,0,0,1,2.826-11.208,18.45,18.45,0,0,0,2.328-7.01c1.141-8.918-3.725-17.323-10.848-18.736a10.608,10.608,0,0,0-8.425,1.942,16.632,16.632,0,0,0-6.345,11.514,19.127,19.127,0,0,0,3.716,14.2,12.088,12.088,0,0,0,8.282,4.7,1.419,1.419,0,0,1,.964,2.324,10.445,10.445,0,0,1-8.533,3.362c-.186-.025-.37-.046-.556-.068-2.172-.256-4.418-.521-13.8-5.037-6.239-3-10.377-8.469-12.736-12.488l-.09,1.624C3924.275,2000.784,3927.8,2009.486,3934.92,2015.462Z" transform="translate(-3920.826 -1974.097)" fill="#915aad"/>
        </g>
      </g>
      <path id="Trazado_67858" data-name="Trazado 67858" d="M3820.847,2418.7a1.419,1.419,0,0,1,0-2.839c15.455,0,28.47-2.642,38.685-7.852a27.734,27.734,0,0,0,10.71-9.638,26.5,26.5,0,0,0,1.855-3.394l-.063.067a25.929,25.929,0,0,1-11.563,6.853c-13.613,3.907-21.533,4.722-25.042,4.86a18.391,18.391,0,0,1-18.77-14.842l-1.267-6.465a1.419,1.419,0,1,1,2.785-.546l1.267,6.465a15.552,15.552,0,0,0,15.873,12.551c8.172-.321,19.766-3.43,24.371-4.752a23.045,23.045,0,0,0,10.285-6.076,15.326,15.326,0,0,0,4.416-10.4c0-.427-.008-.857-.012-1.223a1.419,1.419,0,0,1,2.837-.077q.029.645.014,1.282c.008.852.017,1.858.014,2.081a28.608,28.608,0,0,1-4.614,15.153,30.577,30.577,0,0,1-11.806,10.628C3850.2,2415.958,3836.754,2418.7,3820.847,2418.7Z" transform="translate(-3796.611 -2290.77)" fill="#915aad"/>
    </g>
  </g>
</svg>
