<svg xmlns="http://www.w3.org/2000/svg" width="661.786" height="517.378" viewBox="0 0 661.786 517.378">
  <g id="Grupo_26674" data-name="Grupo 26674" transform="translate(-69.107 -52.679)">
    <g id="Grupo_26649" data-name="Grupo 26649">
      <g id="Grupo_26451" data-name="Grupo 26451">
        <rect id="Rectángulo_25978" data-name="Rectángulo 25978" width="661.786" height="434.643" rx="5.13" transform="translate(69.107 52.678)" fill="#edf1ff"/>
      </g>
      <g id="Grupo_26452" data-name="Grupo 26452">
        <rect id="Rectángulo_25979" data-name="Rectángulo 25979" width="225.884" height="106.235" rx="4.786" transform="translate(223.66 72.535)" fill="#fff"/>
      </g>
      <g id="Grupo_26453" data-name="Grupo 26453">
        <rect id="Rectángulo_25980" data-name="Rectángulo 25980" width="291.899" height="134.686" rx="4.582" transform="translate(90.801 192.408)" fill="#fff"/>
      </g>
      <g id="Grupo_26454" data-name="Grupo 26454">
        <rect id="Rectángulo_25981" data-name="Rectángulo 25981" width="617.292" height="128.341" rx="5.441" transform="translate(90.801 340.73)" fill="#fff"/>
      </g>
      <g id="Grupo_26455" data-name="Grupo 26455">
        <rect id="Rectángulo_25982" data-name="Rectángulo 25982" width="248.985" height="106.235" rx="5.441" transform="translate(459.107 72.535)" fill="#fff"/>
      </g>
      <g id="Grupo_26456" data-name="Grupo 26456">
        <path id="Trazado_75119" data-name="Trazado 75119" d="M377.936,364.444H119.5a.2.2,0,1,1,0-.4h258.44a.2.2,0,0,1,0,.4Z" fill="#bdd3fa"/>
      </g>
      <g id="Grupo_26486" data-name="Grupo 26486">
        <g id="Grupo_26457" data-name="Grupo 26457">
          <rect id="Rectángulo_25983" data-name="Rectángulo 25983" width="124.7" height="106.235" rx="5.441" transform="translate(90.311 72.535)" fill="#fff"/>
        </g>
        <g id="Grupo_26485" data-name="Grupo 26485">
          <g id="Grupo_26458" data-name="Grupo 26458">
            <path id="Trazado_75120" data-name="Trazado 75120" d="M204.794,144.444h-102a.2.2,0,1,1,0-.4h102a.2.2,0,1,1,0,.4Z" fill="#bdd3fa"/>
          </g>
          <g id="Grupo_26464" data-name="Grupo 26464">
            <g id="Grupo_26459" data-name="Grupo 26459">
              <path id="Trazado_75121" data-name="Trazado 75121" d="M108.027,151.52l1.613,3.269,3.608.524-2.611,2.545.616,3.593-3.227-1.7-3.227,1.7.616-3.593-2.611-2.545,3.608-.524Z" fill="#ff7867"/>
            </g>
            <g id="Grupo_26460" data-name="Grupo 26460">
              <path id="Trazado_75122" data-name="Trazado 75122" d="M121.625,151.52l1.613,3.269,3.608.524-2.611,2.545.616,3.593-3.227-1.7-3.227,1.7.616-3.593-2.611-2.545,3.608-.524Z" fill="#ff7867"/>
            </g>
            <g id="Grupo_26461" data-name="Grupo 26461">
              <path id="Trazado_75123" data-name="Trazado 75123" d="M135.223,151.52l1.614,3.269,3.608.524-2.611,2.545.616,3.593-3.227-1.7-3.227,1.7.616-3.593L130,155.313l3.608-.524Z" fill="#ff7867"/>
            </g>
            <g id="Grupo_26462" data-name="Grupo 26462">
              <path id="Trazado_75124" data-name="Trazado 75124" d="M148.821,151.52l1.613,3.269,3.608.524-2.611,2.545.616,3.593-3.227-1.7-3.227,1.7.616-3.593-2.611-2.545,3.608-.524Z" fill="#ff7867"/>
            </g>
            <g id="Grupo_26463" data-name="Grupo 26463">
              <path id="Trazado_75125" data-name="Trazado 75125" d="M162.419,151.52l1.613,3.269,3.608.524-2.611,2.545.616,3.593-3.227-1.7-3.227,1.7.616-3.593-2.611-2.545,3.608-.524Z" fill="#ff7867"/>
            </g>
          </g>
          <g id="Grupo_26484" data-name="Grupo 26484">
            <g id="Grupo_26479" data-name="Grupo 26479">
              <g id="Grupo_26465" data-name="Grupo 26465">
                <path id="Trazado_75126" data-name="Trazado 75126" d="M100.249,111.46A22.61,22.61,0,0,0,108,128.513a21.4,21.4,0,0,0,2.872,2.135,22.64,22.64,0,0,0,25.3-37.523,21.577,21.577,0,0,0-3.7-2.165,22.623,22.623,0,0,0-32.222,20.5Z" fill="#bdd3fa"/>
              </g>
              <g id="Grupo_26468" data-name="Grupo 26468">
                <g id="Grupo_26466" data-name="Grupo 26466">
                  <path id="Trazado_75127" data-name="Trazado 75127" d="M128.411,119.048l.006-.372S129.007,118.921,128.411,119.048Z" fill="#ffcbc5"/>
                </g>
                <g id="Grupo_26467" data-name="Grupo 26467">
                  <path id="Trazado_75128" data-name="Trazado 75128" d="M108,128.513a21.4,21.4,0,0,0,2.872,2.135l23.71.162-6.289-5.272a2.039,2.039,0,0,0,.03-.854l.073-4.963v-.073l.015-.6a20.033,20.033,0,0,1-4.374-.074c-6.553-.515-9.439-7.525-9.778-8.394,0-.03,0-.044-.015-.059a.047.047,0,0,1-.014-.029v.486l-.03,2.356v.132l-.029,4.389-.015,1.988Z" fill="#ffcbc5"/>
                </g>
              </g>
              <g id="Grupo_26471" data-name="Grupo 26471">
                <g id="Grupo_26470" data-name="Grupo 26470">
                  <g id="Grupo_26469" data-name="Grupo 26469">
                    <path id="Trazado_75129" data-name="Trazado 75129" d="M110.852,101.608a4.433,4.433,0,0,0,1.281,3.21.562.562,0,0,0,.148.191,14.994,14.994,0,0,0,1.089,1.031c.074.059.148.118.236.177a.8.8,0,0,0,.118.088l-.044,3.373s.176.5.545,1.3c.014.029.014.044.029.073a17.825,17.825,0,0,0,5.979,7.349,12.543,12.543,0,0,0,1.134.633c.236.118.456.221.677.309a9.943,9.943,0,0,0,6.347.31.42.42,0,0,0,.133-.03c8.232-2.224,6.318-17.613,5.169-23.886-.295-1.635-.545-2.651-.545-2.651a12.831,12.831,0,0,0-.677-2.121,22.645,22.645,0,0,0-17.024-.883l-.368,10.956a4.329,4.329,0,0,0-.56-.236.6.6,0,0,0-.147-.058c-.118-.045-.251-.089-.383-.133a1.148,1.148,0,0,0-.324-.088,1.084,1.084,0,0,0-.206-.059c-.044-.015-.089-.015-.133-.03C112.236,100.179,110.985,100.223,110.852,101.608Z" fill="#ffcbc5"/>
                  </g>
                </g>
              </g>
              <g id="Grupo_26474" data-name="Grupo 26474">
                <g id="Grupo_26473" data-name="Grupo 26473">
                  <g id="Grupo_26472" data-name="Grupo 26472">
                    <path id="Trazado_75130" data-name="Trazado 75130" d="M108.393,103.8c1.826,1.944.6,2.459,1.443,5.773a5.572,5.572,0,0,0,4.359,3.873v-.118a16.968,16.968,0,0,0,.059-2.283v-.471c0-.03,0-.044-.015-.059a27.4,27.4,0,0,0-.515-4.212.8.8,0,0,1-.118-.088c-.088-.059-.162-.118-.236-.177a2.676,2.676,0,0,1-.22-.191,5.223,5.223,0,0,1-.869-.84.562.562,0,0,1-.148-.191A5.209,5.209,0,0,1,111.058,102a1.515,1.515,0,0,1,1.488-1.649,4.534,4.534,0,0,1,.78.073c.044.015.089.015.133.03a1.084,1.084,0,0,1,.206.059,1.148,1.148,0,0,1,.324.088c.132.044.265.088.383.133a.6.6,0,0,1,.147.058,4.329,4.329,0,0,1,.56.236l2-3.181c1.355-2.621,3.888-3.254,6.642-3.225a28.916,28.916,0,0,1,7.039.884,6.663,6.663,0,0,0,2.931.221,2.877,2.877,0,0,0,1.929-1.3,4.222,4.222,0,0,0,.545-1.311,21.577,21.577,0,0,0-3.7-2.165,22.633,22.633,0,0,0-22.37,1.812,2.038,2.038,0,0,1-1.635,1.619C105.727,94.892,106.581,101.873,108.393,103.8Z" fill="#6c60b7"/>
                  </g>
                </g>
              </g>
              <g id="Grupo_26477" data-name="Grupo 26477">
                <g id="Grupo_26476" data-name="Grupo 26476">
                  <g id="Grupo_26475" data-name="Grupo 26475">
                    <path id="Trazado_75131" data-name="Trazado 75131" d="M128.52,119.614s-2.99,1.494-7.151-.582a25.889,25.889,0,0,1-7.168-5.586l-.03,4.406S122.54,124.508,128.52,119.614Z" fill="#ffb6ad"/>
                  </g>
                </g>
              </g>
              <g id="Grupo_26478" data-name="Grupo 26478">
                <path id="Trazado_75132" data-name="Trazado 75132" d="M111.837,123.1l2.4,3.769a8.328,8.328,0,0,0,6.966,3.851l2.073.014a4.785,4.785,0,0,0,4.716-3.8l.292-1.394,6.236,5.272h.053v.044a22.611,22.611,0,0,1-23.71-.206s-2.095-1.421-2.872-2.135Z" fill="#545ed3"/>
              </g>
            </g>
            <g id="Grupo_26480" data-name="Grupo 26480">
              <rect id="Rectángulo_25984" data-name="Rectángulo 25984" width="53.261" height="5.54" rx="2.429" transform="translate(154.553 95.596)" fill="#bdd3fa"/>
            </g>
            <g id="Grupo_26481" data-name="Grupo 26481">
              <path id="Trazado_75133" data-name="Trazado 75133" d="M190.142,109.822H156.025a.5.5,0,1,1,0-1h34.117a.5.5,0,1,1,0,1Z" fill="#97c2ff"/>
            </g>
            <g id="Grupo_26482" data-name="Grupo 26482">
              <path id="Trazado_75134" data-name="Trazado 75134" d="M181.184,117.833H156.025a.5.5,0,0,1,0-1h25.159a.5.5,0,0,1,0,1Z" fill="#97c2ff"/>
            </g>
            <g id="Grupo_26483" data-name="Grupo 26483">
              <path id="Trazado_75135" data-name="Trazado 75135" d="M168.6,125.843H156.025a.5.5,0,0,1,0-1H168.6a.5.5,0,0,1,0,1Z" fill="#97c2ff"/>
            </g>
          </g>
        </g>
      </g>
      <g id="Grupo_26492" data-name="Grupo 26492">
        <g id="Grupo_26490" data-name="Grupo 26490">
          <g id="Grupo_26489" data-name="Grupo 26489">
            <g id="Grupo_26488" data-name="Grupo 26488">
              <g id="Grupo_26487" data-name="Grupo 26487">
                <path id="Trazado_75136" data-name="Trazado 75136" d="M261.721,96.573a5.133,5.133,0,0,0-.247-.546,6.978,6.978,0,0,0-2.394-2.692,6.31,6.31,0,0,0-3.333-1.047,6.565,6.565,0,0,0-5.3,2.614,6.547,6.547,0,0,0-5.192-2.828,6.323,6.323,0,0,0-3.37.907,7.569,7.569,0,0,0-3.268,8.286,7.316,7.316,0,0,0,.6,1.63c1,1.962,4.245,4.949,6.929,7.209.159.137.314.266.465.391.634.527,1.224,1.007,1.733,1.409.343.276.649.516.9.715a1.389,1.389,0,0,0,1.674.037c.287-.207.641-.461,1.04-.752,1.515-1.118,3.7-2.784,5.616-4.466a.071.071,0,0,1,.015-.015,19.75,19.75,0,0,0,3.665-3.938c.03-.048.055-.092.081-.137a7.762,7.762,0,0,0,.8-2.083A7.843,7.843,0,0,0,261.721,96.573Z" fill="#ff7867"/>
              </g>
            </g>
          </g>
        </g>
        <g id="Grupo_26491" data-name="Grupo 26491">
          <path id="Trazado_75137" data-name="Trazado 75137" d="M349.456,161.363l-.046,0a.5.5,0,0,1-.443-.39L336,102.634,320.224,145.88a.5.5,0,0,1-.462.33.539.539,0,0,1-.472-.315l-10.063-25.1-7.358,5.493a.516.516,0,0,1-.375.094.5.5,0,0,1-.329-.2l-3.806-5.276-6.881,11.13a.5.5,0,0,1-.425.237h-29.1a.5.5,0,0,1,0-1h28.816l7.127-11.529a.5.5,0,0,1,.408-.237.508.508,0,0,1,.423.207l3.946,5.47,7.472-5.578a.5.5,0,0,1,.764.215l9.818,24.5,15.918-43.628a.484.484,0,0,1,.5-.327.5.5,0,0,1,.455.391l13,58.483,12.119-28.566a.5.5,0,0,1,.771-.2l6.714,5.316,13.717-41.148a.5.5,0,0,1,.448-.34.48.48,0,0,1,.481.292L400.5,131.441l9.794-11.76a.51.51,0,0,1,.429-.177.494.494,0,0,1,.389.251l6.524,11.513h12.454a.5.5,0,0,1,0,1H417.344a.5.5,0,0,1-.435-.254l-6.31-11.136L400.756,132.7a.508.508,0,0,1-.451.175.5.5,0,0,1-.389-.289L383.47,96.164l-13.537,40.612a.505.505,0,0,1-.331.321.5.5,0,0,1-.454-.088l-6.759-5.351-12.473,29.4A.5.5,0,0,1,349.456,161.363Z" fill="#97c2ff"/>
        </g>
      </g>
      <g id="Grupo_26512" data-name="Grupo 26512">
        <g id="Grupo_26498" data-name="Grupo 26498">
          <g id="Grupo_26493" data-name="Grupo 26493">
            <path id="Trazado_75138" data-name="Trazado 75138" d="M566.9,99.726H519.178a2.771,2.771,0,0,1-2.771-2.77h0a2.771,2.771,0,0,1,2.771-2.77H566.9a2.77,2.77,0,0,1,2.77,2.77h0A2.77,2.77,0,0,1,566.9,99.726Z" fill="#bdd3fa"/>
          </g>
          <g id="Grupo_26494" data-name="Grupo 26494">
            <path id="Trazado_75139" data-name="Trazado 75139" d="M540.268,99.726h-21.09a2.771,2.771,0,0,1-2.771-2.77h0a2.771,2.771,0,0,1,2.771-2.77h21.09a2.77,2.77,0,0,1,2.77,2.77h0A2.77,2.77,0,0,1,540.268,99.726Z" fill="#ff7867"/>
          </g>
          <g id="Grupo_26495" data-name="Grupo 26495">
            <path id="Trazado_75140" data-name="Trazado 75140" d="M566.9,125.713H519.178a2.771,2.771,0,0,1-2.771-2.77h0a2.771,2.771,0,0,1,2.771-2.77H566.9a2.77,2.77,0,0,1,2.77,2.77h0A2.77,2.77,0,0,1,566.9,125.713Z" fill="#bdd3fa"/>
          </g>
          <g id="Grupo_26496" data-name="Grupo 26496">
            <path id="Trazado_75141" data-name="Trazado 75141" d="M560.71,125.713H519.178a2.771,2.771,0,0,1-2.771-2.77h0a2.771,2.771,0,0,1,2.771-2.77H560.71a2.77,2.77,0,0,1,2.77,2.77h0A2.77,2.77,0,0,1,560.71,125.713Z" fill="#ff7867"/>
          </g>
          <g id="Grupo_26497" data-name="Grupo 26497">
            <path id="Trazado_75142" data-name="Trazado 75142" d="M566.9,154.29H519.178a2.771,2.771,0,0,1-2.771-2.77h0a2.771,2.771,0,0,1,2.771-2.77H566.9a2.77,2.77,0,0,1,2.77,2.77h0A2.77,2.77,0,0,1,566.9,154.29Z" fill="#bdd3fa"/>
          </g>
        </g>
        <g id="Grupo_26499" data-name="Grupo 26499">
          <path id="Trazado_75143" data-name="Trazado 75143" d="M521.519,154.29h-2.341a2.771,2.771,0,0,1-2.771-2.77h0a2.771,2.771,0,0,1,2.771-2.77h2.341a2.77,2.77,0,0,1,2.77,2.77h0A2.77,2.77,0,0,1,521.519,154.29Z" fill="#ff7867"/>
        </g>
        <g id="Grupo_26500" data-name="Grupo 26500">
          <path id="Trazado_75144" data-name="Trazado 75144" d="M487.033,97.256l.393-3.857h3.964v.909h-3.129l-.235,2.11a2.682,2.682,0,0,1,.534-.229,2.449,2.449,0,0,1,.757-.106,2.412,2.412,0,0,1,.959.182,2.008,2.008,0,0,1,.726.522,2.335,2.335,0,0,1,.457.815,3.375,3.375,0,0,1,.159,1.068,3.339,3.339,0,0,1-.151,1.028,2.253,2.253,0,0,1-.454.813,2.061,2.061,0,0,1-.763.536,2.756,2.756,0,0,1-1.081.195,2.979,2.979,0,0,1-.885-.13,2.187,2.187,0,0,1-.741-.4,2.081,2.081,0,0,1-.531-.67,2.547,2.547,0,0,1-.255-.946h.929a1.564,1.564,0,0,0,.473,1,1.471,1.471,0,0,0,1.01.337,1.5,1.5,0,0,0,.622-.122,1.245,1.245,0,0,0,.459-.351,1.545,1.545,0,0,0,.287-.555,2.549,2.549,0,0,0,.1-.731,2.179,2.179,0,0,0-.1-.675,1.552,1.552,0,0,0-.3-.543,1.4,1.4,0,0,0-.486-.365,1.565,1.565,0,0,0-.662-.132,2.327,2.327,0,0,0-.43.034,1.451,1.451,0,0,0-.324.1,1.245,1.245,0,0,0-.264.157c-.079.062-.163.13-.252.205Z" fill="#bdd3fa"/>
          <path id="Trazado_75145" data-name="Trazado 75145" d="M497.543,97.836a6.457,6.457,0,0,1-.17,1.6,2.838,2.838,0,0,1-.486,1.052,1.79,1.79,0,0,1-.766.576,2.989,2.989,0,0,1-2.021,0,1.81,1.81,0,0,1-.771-.576,2.891,2.891,0,0,1-.494-1.052,6.3,6.3,0,0,1-.175-1.6v-1.18a6.255,6.255,0,0,1,.173-1.594,2.745,2.745,0,0,1,.491-1.036,1.806,1.806,0,0,1,.768-.564,2.832,2.832,0,0,1,1.007-.169,2.868,2.868,0,0,1,1.014.169,1.809,1.809,0,0,1,.771.564,2.729,2.729,0,0,1,.489,1.036,6.361,6.361,0,0,1,.17,1.594Zm-.983-1.344a5.75,5.75,0,0,0-.093-1.111,2.133,2.133,0,0,0-.28-.741,1.107,1.107,0,0,0-.459-.412,1.6,1.6,0,0,0-1.253,0,1.09,1.09,0,0,0-.457.412,2.194,2.194,0,0,0-.28.741,5.579,5.579,0,0,0-.1,1.111v1.5a5.657,5.657,0,0,0,.1,1.113,2.278,2.278,0,0,0,.284.763,1.177,1.177,0,0,0,.463.435,1.5,1.5,0,0,0,1.256,0,1.145,1.145,0,0,0,.455-.435,2.3,2.3,0,0,0,.274-.763,6.024,6.024,0,0,0,.09-1.113Z" fill="#bdd3fa"/>
          <path id="Trazado_75146" data-name="Trazado 75146" d="M498.717,94.887a1.737,1.737,0,0,1,.109-.619,1.5,1.5,0,0,1,.314-.508,1.479,1.479,0,0,1,.5-.345,1.8,1.8,0,0,1,1.328,0,1.47,1.47,0,0,1,.5.345,1.523,1.523,0,0,1,.31.508,1.716,1.716,0,0,1,.11.619V95.3a1.747,1.747,0,0,1-.107.614,1.445,1.445,0,0,1-.31.5,1.519,1.519,0,0,1-.5.342,1.631,1.631,0,0,1-.659.127,1.667,1.667,0,0,1-.667-.127,1.515,1.515,0,0,1-.5-.342,1.447,1.447,0,0,1-.317-.5,1.726,1.726,0,0,1-.109-.614Zm.733.409a1.162,1.162,0,0,0,.054.356.906.906,0,0,0,.159.3.769.769,0,0,0,.269.213.86.86,0,0,0,.379.079.835.835,0,0,0,.372-.079.782.782,0,0,0,.263-.21.905.905,0,0,0,.155-.3,1.292,1.292,0,0,0,.049-.359v-.409a1.227,1.227,0,0,0-.052-.359.965.965,0,0,0-.158-.306.743.743,0,0,0-.265-.212.924.924,0,0,0-.752,0,.763.763,0,0,0-.263.212.942.942,0,0,0-.156.306,1.2,1.2,0,0,0-.054.359Zm1.084,5.255-.557-.351,3.777-6.046.557.351Zm1.95-1.312a1.742,1.742,0,0,1,.109-.617,1.477,1.477,0,0,1,.313-.507,1.509,1.509,0,0,1,.5-.343,1.786,1.786,0,0,1,1.328,0,1.475,1.475,0,0,1,.5.343,1.45,1.45,0,0,1,.314.507,1.742,1.742,0,0,1,.109.617v.414a1.734,1.734,0,0,1-.109.619,1.46,1.46,0,0,1-.314.5,1.482,1.482,0,0,1-.5.343,1.634,1.634,0,0,1-.659.127,1.667,1.667,0,0,1-.667-.127,1.538,1.538,0,0,1-.5-.343,1.464,1.464,0,0,1-.316-.5,1.734,1.734,0,0,1-.109-.619Zm.734.414a1.221,1.221,0,0,0,.052.358.922.922,0,0,0,.16.306.784.784,0,0,0,.268.213.857.857,0,0,0,.38.079.822.822,0,0,0,.372-.079.756.756,0,0,0,.263-.213.891.891,0,0,0,.154-.306,1.291,1.291,0,0,0,.051-.358v-.414a1.2,1.2,0,0,0-.054-.359.907.907,0,0,0-.156-.3.774.774,0,0,0-.266-.21.841.841,0,0,0-.375-.079.786.786,0,0,0-.637.289.9.9,0,0,0-.16.3,1.227,1.227,0,0,0-.052.359Z" fill="#bdd3fa"/>
        </g>
        <g id="Grupo_26501" data-name="Grupo 26501">
          <path id="Trazado_75147" data-name="Trazado 75147" d="M491.273,121.462a1.8,1.8,0,0,1-.305,1.031,2.081,2.081,0,0,1-.826.707,2.407,2.407,0,0,1,.539.318,2.177,2.177,0,0,1,.414.434,1.9,1.9,0,0,1,.265.528,1.944,1.944,0,0,1,.094.611,2.221,2.221,0,0,1-.189.941,1.932,1.932,0,0,1-.521.687,2.256,2.256,0,0,1-.781.423,3.346,3.346,0,0,1-1.942,0,2.239,2.239,0,0,1-.781-.423,1.946,1.946,0,0,1-.517-.687,2.22,2.22,0,0,1-.19-.941,2,2,0,0,1,.091-.611,2,2,0,0,1,.664-.967,2.29,2.29,0,0,1,.536-.319,2.025,2.025,0,0,1-.812-.706,1.822,1.822,0,0,1-.3-1.026,2.258,2.258,0,0,1,.17-.9,1.878,1.878,0,0,1,.473-.666,2.094,2.094,0,0,1,.723-.415,2.983,2.983,0,0,1,1.825,0,2.131,2.131,0,0,1,.723.415,1.856,1.856,0,0,1,.474.666A2.241,2.241,0,0,1,491.273,121.462Zm-.8,3.608a1.556,1.556,0,0,0-.11-.6,1.322,1.322,0,0,0-.775-.765,1.761,1.761,0,0,0-1.209,0,1.305,1.305,0,0,0-.462.3,1.324,1.324,0,0,0-.3.465,1.656,1.656,0,0,0-.1.6,1.638,1.638,0,0,0,.1.6,1.221,1.221,0,0,0,.293.444,1.246,1.246,0,0,0,.465.278,1.835,1.835,0,0,0,.618.1,1.815,1.815,0,0,0,.614-.1,1.255,1.255,0,0,0,.465-.278,1.238,1.238,0,0,0,.3-.444A1.6,1.6,0,0,0,490.471,125.07Zm-.181-3.592a1.481,1.481,0,0,0-.093-.531,1.229,1.229,0,0,0-.265-.423,1.248,1.248,0,0,0-.413-.278,1.323,1.323,0,0,0-.526-.1,1.417,1.417,0,0,0-.525.094,1.171,1.171,0,0,0-.412.266,1.152,1.152,0,0,0-.266.418,1.574,1.574,0,0,0-.093.556,1.515,1.515,0,0,0,.093.542,1.176,1.176,0,0,0,.263.417,1.154,1.154,0,0,0,.409.266,1.565,1.565,0,0,0,1.063,0,1.167,1.167,0,0,0,.41-.266,1.188,1.188,0,0,0,.262-.417A1.515,1.515,0,0,0,490.29,121.478Z" fill="#bdd3fa"/>
          <path id="Trazado_75148" data-name="Trazado 75148" d="M497.543,123.88a6.463,6.463,0,0,1-.17,1.6,2.838,2.838,0,0,1-.486,1.052,1.79,1.79,0,0,1-.766.576,2.989,2.989,0,0,1-2.021,0,1.81,1.81,0,0,1-.771-.576,2.891,2.891,0,0,1-.494-1.052,6.3,6.3,0,0,1-.175-1.6V122.7a6.255,6.255,0,0,1,.173-1.594,2.745,2.745,0,0,1,.491-1.036,1.806,1.806,0,0,1,.768-.564,2.832,2.832,0,0,1,1.007-.169,2.868,2.868,0,0,1,1.014.169,1.809,1.809,0,0,1,.771.564,2.729,2.729,0,0,1,.489,1.036,6.361,6.361,0,0,1,.17,1.594Zm-.983-1.344a5.75,5.75,0,0,0-.093-1.111,2.133,2.133,0,0,0-.28-.741,1.107,1.107,0,0,0-.459-.412,1.6,1.6,0,0,0-1.253,0,1.09,1.09,0,0,0-.457.412,2.194,2.194,0,0,0-.28.741,5.579,5.579,0,0,0-.1,1.111v1.5a5.664,5.664,0,0,0,.1,1.113,2.279,2.279,0,0,0,.284.763,1.177,1.177,0,0,0,.463.435,1.5,1.5,0,0,0,1.256,0,1.145,1.145,0,0,0,.455-.435,2.3,2.3,0,0,0,.274-.763,6.032,6.032,0,0,0,.09-1.113Z" fill="#bdd3fa"/>
          <path id="Trazado_75149" data-name="Trazado 75149" d="M498.717,120.931a1.737,1.737,0,0,1,.109-.619,1.5,1.5,0,0,1,.314-.508,1.479,1.479,0,0,1,.5-.345,1.8,1.8,0,0,1,1.328,0,1.47,1.47,0,0,1,.5.345,1.523,1.523,0,0,1,.31.508,1.716,1.716,0,0,1,.11.619v.41a1.746,1.746,0,0,1-.107.613,1.445,1.445,0,0,1-.31.5,1.519,1.519,0,0,1-.5.342,1.631,1.631,0,0,1-.659.127,1.667,1.667,0,0,1-.667-.127,1.515,1.515,0,0,1-.5-.342,1.447,1.447,0,0,1-.317-.5,1.724,1.724,0,0,1-.109-.613Zm.733.41a1.16,1.16,0,0,0,.054.355.906.906,0,0,0,.159.3.781.781,0,0,0,.269.213.86.86,0,0,0,.379.079.835.835,0,0,0,.372-.079.794.794,0,0,0,.263-.21.905.905,0,0,0,.155-.3,1.29,1.29,0,0,0,.049-.358v-.41a1.227,1.227,0,0,0-.052-.359.965.965,0,0,0-.158-.306.743.743,0,0,0-.265-.212.924.924,0,0,0-.752,0,.763.763,0,0,0-.263.212.942.942,0,0,0-.156.306,1.2,1.2,0,0,0-.054.359Zm1.084,5.254-.557-.351,3.777-6.046.557.35Zm1.95-1.312a1.742,1.742,0,0,1,.109-.617,1.477,1.477,0,0,1,.313-.507,1.509,1.509,0,0,1,.5-.343,1.786,1.786,0,0,1,1.328,0,1.475,1.475,0,0,1,.5.343,1.45,1.45,0,0,1,.314.507,1.742,1.742,0,0,1,.109.617v.414a1.734,1.734,0,0,1-.109.619,1.473,1.473,0,0,1-.81.848,1.634,1.634,0,0,1-.659.127,1.667,1.667,0,0,1-.667-.127,1.538,1.538,0,0,1-.5-.343,1.474,1.474,0,0,1-.316-.5,1.734,1.734,0,0,1-.109-.619Zm.734.414a1.221,1.221,0,0,0,.052.358.922.922,0,0,0,.16.306.784.784,0,0,0,.268.213.857.857,0,0,0,.38.079.822.822,0,0,0,.372-.079.756.756,0,0,0,.263-.213.891.891,0,0,0,.154-.306,1.291,1.291,0,0,0,.051-.358v-.414a1.208,1.208,0,0,0-.054-.36.912.912,0,0,0-.156-.3.774.774,0,0,0-.266-.21.841.841,0,0,0-.375-.079.787.787,0,0,0-.637.289.9.9,0,0,0-.16.3,1.239,1.239,0,0,0-.052.36Z" fill="#bdd3fa"/>
        </g>
        <g id="Grupo_26502" data-name="Grupo 26502">
          <path id="Trazado_75150" data-name="Trazado 75150" d="M491.65,154.65h-5.069v-.707l2.535-2.815q.351-.389.581-.686a4.041,4.041,0,0,0,.367-.545,1.919,1.919,0,0,0,.189-.462,1.842,1.842,0,0,0,.053-.438,1.588,1.588,0,0,0-.09-.539,1.3,1.3,0,0,0-.261-.439,1.206,1.206,0,0,0-.42-.295,1.428,1.428,0,0,0-.573-.109,1.815,1.815,0,0,0-.683.117,1.318,1.318,0,0,0-.481.324,1.353,1.353,0,0,0-.287.5,2.028,2.028,0,0,0-.1.64h-.983a2.607,2.607,0,0,1,.162-.924,2.128,2.128,0,0,1,.48-.76,2.288,2.288,0,0,1,.792-.513,3.271,3.271,0,0,1,2.075-.039,2.053,2.053,0,0,1,.734.422,1.845,1.845,0,0,1,.459.656,2.182,2.182,0,0,1,.159.845,2.152,2.152,0,0,1-.116.685,3.9,3.9,0,0,1-.314.689,5.6,5.6,0,0,1-.463.679c-.176.226-.363.446-.557.662l-2.077,2.252h3.883Z" fill="#bdd3fa"/>
          <path id="Trazado_75151" data-name="Trazado 75151" d="M496.842,152.051h1.073v.8h-1.073v1.8h-.989v-1.8H492.33v-.579l3.465-5.361h1.047Zm-3.4,0h2.407v-3.793l-.117.212Z" fill="#bdd3fa"/>
          <path id="Trazado_75152" data-name="Trazado 75152" d="M498.717,148.4a1.73,1.73,0,0,1,.109-.619,1.5,1.5,0,0,1,.314-.508,1.481,1.481,0,0,1,.5-.346,1.8,1.8,0,0,1,1.328,0,1.473,1.473,0,0,1,.5.346,1.523,1.523,0,0,1,.31.508,1.708,1.708,0,0,1,.11.619v.409a1.747,1.747,0,0,1-.107.614,1.432,1.432,0,0,1-.31.5,1.507,1.507,0,0,1-.5.343,1.631,1.631,0,0,1-.659.127,1.667,1.667,0,0,1-.667-.127,1.5,1.5,0,0,1-.5-.343,1.434,1.434,0,0,1-.317-.5,1.726,1.726,0,0,1-.109-.614Zm.733.409a1.172,1.172,0,0,0,.054.356.9.9,0,0,0,.159.3.758.758,0,0,0,.269.213.847.847,0,0,0,.379.079.822.822,0,0,0,.372-.079.77.77,0,0,0,.263-.21.9.9,0,0,0,.155-.3,1.3,1.3,0,0,0,.049-.359V148.4a1.227,1.227,0,0,0-.052-.359.955.955,0,0,0-.158-.306.743.743,0,0,0-.265-.212.924.924,0,0,0-.752,0,.763.763,0,0,0-.263.212.932.932,0,0,0-.156.306,1.2,1.2,0,0,0-.054.359Zm1.084,5.255-.557-.351,3.777-6.046.557.35Zm1.95-1.312a1.752,1.752,0,0,1,.109-.618,1.482,1.482,0,0,1,.313-.506,1.508,1.508,0,0,1,.5-.343,1.786,1.786,0,0,1,1.328,0,1.474,1.474,0,0,1,.5.343,1.455,1.455,0,0,1,.314.506,1.752,1.752,0,0,1,.109.618v.414a1.741,1.741,0,0,1-.109.619,1.467,1.467,0,0,1-.81.847,1.635,1.635,0,0,1-.659.127,1.667,1.667,0,0,1-.667-.127,1.536,1.536,0,0,1-.5-.342,1.474,1.474,0,0,1-.316-.505,1.741,1.741,0,0,1-.109-.619Zm.734.414a1.221,1.221,0,0,0,.052.358.931.931,0,0,0,.16.306.784.784,0,0,0,.268.213.871.871,0,0,0,.38.079.835.835,0,0,0,.372-.079.756.756,0,0,0,.263-.213.9.9,0,0,0,.154-.306,1.291,1.291,0,0,0,.051-.358v-.414a1.2,1.2,0,0,0-.054-.36.917.917,0,0,0-.156-.3.786.786,0,0,0-.266-.21.855.855,0,0,0-.375-.079.786.786,0,0,0-.637.289.907.907,0,0,0-.16.3,1.234,1.234,0,0,0-.052.36Z" fill="#bdd3fa"/>
        </g>
        <g id="Grupo_26508" data-name="Grupo 26508">
          <g id="Grupo_26503" data-name="Grupo 26503">
            <path id="Trazado_75153" data-name="Trazado 75153" d="M681.254,99.726H633.533a2.77,2.77,0,0,1-2.77-2.77h0a2.77,2.77,0,0,1,2.77-2.77h47.721a2.77,2.77,0,0,1,2.77,2.77h0A2.77,2.77,0,0,1,681.254,99.726Z" fill="#bdd3fa"/>
          </g>
          <g id="Grupo_26504" data-name="Grupo 26504">
            <path id="Trazado_75154" data-name="Trazado 75154" d="M681.254,125.713H633.533a2.77,2.77,0,0,1-2.77-2.77h0a2.77,2.77,0,0,1,2.77-2.77h47.721a2.77,2.77,0,0,1,2.77,2.77h0A2.77,2.77,0,0,1,681.254,125.713Z" fill="#bdd3fa"/>
          </g>
          <g id="Grupo_26505" data-name="Grupo 26505">
            <path id="Trazado_75155" data-name="Trazado 75155" d="M679.9,125.713H633.533a2.77,2.77,0,0,1-2.77-2.77h0a2.77,2.77,0,0,1,2.77-2.77H679.9a2.77,2.77,0,0,1,2.77,2.77h0A2.77,2.77,0,0,1,679.9,125.713Z" fill="#ff7867"/>
          </g>
          <g id="Grupo_26506" data-name="Grupo 26506">
            <path id="Trazado_75156" data-name="Trazado 75156" d="M681.254,154.29H633.533a2.77,2.77,0,0,1-2.77-2.77h0a2.77,2.77,0,0,1,2.77-2.77h47.721a2.77,2.77,0,0,1,2.77,2.77h0A2.77,2.77,0,0,1,681.254,154.29Z" fill="#bdd3fa"/>
          </g>
          <g id="Grupo_26507" data-name="Grupo 26507">
            <rect id="Rectángulo_25985" data-name="Rectángulo 25985" width="14.415" height="5.54" rx="2.566" transform="translate(630.763 148.75)" fill="#ff7867"/>
          </g>
        </g>
        <g id="Grupo_26509" data-name="Grupo 26509">
          <path id="Trazado_75157" data-name="Trazado 75157" d="M605.788,97.836a6.456,6.456,0,0,1-.17,1.6,2.838,2.838,0,0,1-.486,1.052,1.79,1.79,0,0,1-.766.576,2.989,2.989,0,0,1-2.021,0,1.81,1.81,0,0,1-.771-.576,2.892,2.892,0,0,1-.494-1.052,6.3,6.3,0,0,1-.175-1.6v-1.18a6.256,6.256,0,0,1,.173-1.594,2.747,2.747,0,0,1,.491-1.036,1.806,1.806,0,0,1,.768-.564,2.833,2.833,0,0,1,1.007-.169,2.864,2.864,0,0,1,1.014.169,1.809,1.809,0,0,1,.771.564,2.73,2.73,0,0,1,.489,1.036,6.36,6.36,0,0,1,.17,1.594Zm-.983-1.344a5.747,5.747,0,0,0-.093-1.111,2.132,2.132,0,0,0-.279-.741,1.112,1.112,0,0,0-.459-.412,1.48,1.48,0,0,0-.63-.128,1.459,1.459,0,0,0-.624.128,1.09,1.09,0,0,0-.457.412,2.216,2.216,0,0,0-.28.741,5.581,5.581,0,0,0-.095,1.111v1.5a5.659,5.659,0,0,0,.095,1.113,2.279,2.279,0,0,0,.285.763,1.174,1.174,0,0,0,.462.435,1.5,1.5,0,0,0,1.256,0,1.145,1.145,0,0,0,.455-.435,2.3,2.3,0,0,0,.274-.763,6.027,6.027,0,0,0,.09-1.113Z" fill="#bdd3fa"/>
          <path id="Trazado_75158" data-name="Trazado 75158" d="M606.962,94.887a1.737,1.737,0,0,1,.109-.619,1.516,1.516,0,0,1,.314-.508,1.479,1.479,0,0,1,.5-.345,1.8,1.8,0,0,1,1.328,0,1.471,1.471,0,0,1,.5.345,1.522,1.522,0,0,1,.31.508,1.715,1.715,0,0,1,.11.619V95.3a1.747,1.747,0,0,1-.107.614,1.429,1.429,0,0,1-.31.5,1.519,1.519,0,0,1-.5.342,1.63,1.63,0,0,1-.658.127,1.663,1.663,0,0,1-.667-.127,1.51,1.51,0,0,1-.5-.342,1.462,1.462,0,0,1-.317-.5,1.726,1.726,0,0,1-.109-.614Zm.733.409a1.162,1.162,0,0,0,.054.356.9.9,0,0,0,.159.3.769.769,0,0,0,.269.213.862.862,0,0,0,.38.079.834.834,0,0,0,.371-.079.781.781,0,0,0,.263-.21.905.905,0,0,0,.155-.3,1.291,1.291,0,0,0,.049-.359v-.409a1.228,1.228,0,0,0-.052-.359.946.946,0,0,0-.158-.306.743.743,0,0,0-.265-.212.923.923,0,0,0-.752,0,.772.772,0,0,0-.263.212.941.941,0,0,0-.156.306,1.2,1.2,0,0,0-.054.359Zm1.084,5.255-.557-.351L612,94.154l.558.351Zm1.95-1.312a1.764,1.764,0,0,1,.109-.617,1.492,1.492,0,0,1,.313-.507,1.509,1.509,0,0,1,.5-.343,1.786,1.786,0,0,1,1.328,0,1.474,1.474,0,0,1,.5.343,1.451,1.451,0,0,1,.314.507,1.742,1.742,0,0,1,.109.617v.414a1.734,1.734,0,0,1-.109.619,1.46,1.46,0,0,1-.314.5,1.482,1.482,0,0,1-.5.343,1.634,1.634,0,0,1-.659.127,1.667,1.667,0,0,1-.667-.127,1.539,1.539,0,0,1-.5-.343,1.48,1.48,0,0,1-.316-.5,1.755,1.755,0,0,1-.109-.619Zm.734.414a1.189,1.189,0,0,0,.053.358.9.9,0,0,0,.159.306.784.784,0,0,0,.268.213.857.857,0,0,0,.38.079.822.822,0,0,0,.372-.079.747.747,0,0,0,.263-.213.892.892,0,0,0,.154-.306,1.29,1.29,0,0,0,.051-.358v-.414a1.2,1.2,0,0,0-.054-.359.908.908,0,0,0-.156-.3.774.774,0,0,0-.266-.21.841.841,0,0,0-.375-.079.786.786,0,0,0-.637.289.878.878,0,0,0-.159.3,1.2,1.2,0,0,0-.053.359Z" fill="#bdd3fa"/>
        </g>
        <g id="Grupo_26510" data-name="Grupo 26510">
          <path id="Trazado_75159" data-name="Trazado 75159" d="M602.01,126.356a3.422,3.422,0,0,0,1.312-.216,2,2,0,0,0,1.238-1.4,4.553,4.553,0,0,0,.144-.964,2.439,2.439,0,0,1-.736.59,2.006,2.006,0,0,1-.938.222,1.992,1.992,0,0,1-1.677-.815,2.552,2.552,0,0,1-.4-.826,3.424,3.424,0,0,1-.13-.935,3.474,3.474,0,0,1,.154-1.042,2.489,2.489,0,0,1,.455-.852,2.13,2.13,0,0,1,.749-.575,2.439,2.439,0,0,1,1.039-.209,2.235,2.235,0,0,1,1.131.268,2.271,2.271,0,0,1,.765.709,3.116,3.116,0,0,1,.436,1,4.8,4.8,0,0,1,.138,1.15v.357c0,.336-.016.677-.05,1.022a5.54,5.54,0,0,1-.192,1,3.909,3.909,0,0,1-.392.911,2.6,2.6,0,0,1-.663.742,3.144,3.144,0,0,1-1,.5,4.688,4.688,0,0,1-1.389.182h-.1v-.828Zm1.179-2.577a1.462,1.462,0,0,0,.484-.08,1.569,1.569,0,0,0,.43-.223,1.933,1.933,0,0,0,.354-.335,1.744,1.744,0,0,0,.252-.414v-.393a3.226,3.226,0,0,0-.122-.933,2.235,2.235,0,0,0-.326-.683,1.442,1.442,0,0,0-.474-.42,1.178,1.178,0,0,0-.56-.143,1.284,1.284,0,0,0-1.06.518,1.754,1.754,0,0,0-.279.572,2.552,2.552,0,0,0-.1.717,2.631,2.631,0,0,0,.085.671,1.859,1.859,0,0,0,.258.583,1.349,1.349,0,0,0,.435.409A1.212,1.212,0,0,0,603.189,123.779Z" fill="#bdd3fa"/>
          <path id="Trazado_75160" data-name="Trazado 75160" d="M611.739,121.462a1.8,1.8,0,0,1-.3,1.031,2.085,2.085,0,0,1-.827.707,2.363,2.363,0,0,1,.539.318,2.122,2.122,0,0,1,.414.434,1.871,1.871,0,0,1,.266.528,1.945,1.945,0,0,1,.094.611,2.22,2.22,0,0,1-.19.941,1.93,1.93,0,0,1-.52.687,2.265,2.265,0,0,1-.781.423,3.346,3.346,0,0,1-1.942,0,2.23,2.23,0,0,1-.781-.423,1.949,1.949,0,0,1-.518-.687,2.221,2.221,0,0,1-.189-.941,2,2,0,0,1,.091-.611,1.949,1.949,0,0,1,.258-.531,1.992,1.992,0,0,1,.406-.436,2.289,2.289,0,0,1,.536-.319,2.035,2.035,0,0,1-.813-.706,1.83,1.83,0,0,1-.3-1.026,2.259,2.259,0,0,1,.17-.9,1.878,1.878,0,0,1,.473-.666,2.084,2.084,0,0,1,.723-.415,2.983,2.983,0,0,1,1.825,0,2.141,2.141,0,0,1,.723.415,1.856,1.856,0,0,1,.474.666A2.242,2.242,0,0,1,611.739,121.462Zm-.8,3.608a1.575,1.575,0,0,0-.109-.6,1.329,1.329,0,0,0-.775-.765,1.761,1.761,0,0,0-1.209,0,1.305,1.305,0,0,0-.462.3,1.325,1.325,0,0,0-.295.465,1.657,1.657,0,0,0-.1.6,1.638,1.638,0,0,0,.1.6,1.209,1.209,0,0,0,.293.444,1.247,1.247,0,0,0,.465.278,2.024,2.024,0,0,0,1.232,0,1.255,1.255,0,0,0,.465-.278,1.239,1.239,0,0,0,.295-.444A1.6,1.6,0,0,0,610.936,125.07Zm-.18-3.592a1.483,1.483,0,0,0-.093-.531,1.216,1.216,0,0,0-.266-.423,1.243,1.243,0,0,0-.412-.278,1.326,1.326,0,0,0-.526-.1,1.417,1.417,0,0,0-.525.094,1.175,1.175,0,0,0-.413.266,1.163,1.163,0,0,0-.265.418,1.574,1.574,0,0,0-.093.556,1.515,1.515,0,0,0,.093.542,1.178,1.178,0,0,0,.263.417,1.155,1.155,0,0,0,.409.266,1.565,1.565,0,0,0,1.063,0,1.163,1.163,0,0,0,.409-.266,1.178,1.178,0,0,0,.263-.417A1.516,1.516,0,0,0,610.756,121.478Z" fill="#bdd3fa"/>
          <path id="Trazado_75161" data-name="Trazado 75161" d="M613.072,120.931a1.715,1.715,0,0,1,.11-.619,1.465,1.465,0,0,1,.812-.853,1.8,1.8,0,0,1,1.328,0,1.461,1.461,0,0,1,.5.345,1.526,1.526,0,0,1,.311.508,1.737,1.737,0,0,1,.109.619v.41a1.768,1.768,0,0,1-.106.613,1.447,1.447,0,0,1-.311.5,1.519,1.519,0,0,1-.5.342,1.626,1.626,0,0,1-.658.127A1.663,1.663,0,0,1,614,122.8a1.53,1.53,0,0,1-.5-.342,1.445,1.445,0,0,1-.316-.5,1.7,1.7,0,0,1-.11-.613Zm.734.41a1.16,1.16,0,0,0,.053.355.89.89,0,0,0,.16.3.787.787,0,0,0,.268.213.862.862,0,0,0,.38.079.828.828,0,0,0,.371-.079.808.808,0,0,0,.264-.21.9.9,0,0,0,.154-.3,1.289,1.289,0,0,0,.05-.358v-.41a1.229,1.229,0,0,0-.053-.359.965.965,0,0,0-.157-.306.748.748,0,0,0-.266-.212.924.924,0,0,0-.752,0,.769.769,0,0,0-.262.212.924.924,0,0,0-.157.306,1.2,1.2,0,0,0-.053.359Zm1.084,5.254-.558-.351,3.777-6.046.558.35Zm1.95-1.312a1.764,1.764,0,0,1,.108-.617,1.46,1.46,0,0,1,.814-.85,1.786,1.786,0,0,1,1.328,0,1.494,1.494,0,0,1,.5.343,1.447,1.447,0,0,1,.313.507,1.72,1.72,0,0,1,.11.617v.414a1.712,1.712,0,0,1-.11.619,1.466,1.466,0,0,1-.313.5,1.5,1.5,0,0,1-.5.343,1.638,1.638,0,0,1-.659.127,1.663,1.663,0,0,1-.667-.127,1.517,1.517,0,0,1-.5-.343,1.476,1.476,0,0,1-.317-.5,1.755,1.755,0,0,1-.108-.619Zm.733.414a1.222,1.222,0,0,0,.053.358.921.921,0,0,0,.159.306.779.779,0,0,0,.269.213.851.851,0,0,0,.38.079.828.828,0,0,0,.372-.079.753.753,0,0,0,.262-.213.893.893,0,0,0,.155-.306,1.292,1.292,0,0,0,.05-.358v-.414a1.207,1.207,0,0,0-.053-.36.9.9,0,0,0-.157-.3.778.778,0,0,0-.265-.21.847.847,0,0,0-.375-.079.791.791,0,0,0-.638.289.9.9,0,0,0-.159.3,1.241,1.241,0,0,0-.053.36Z" fill="#bdd3fa"/>
        </g>
        <g id="Grupo_26511" data-name="Grupo 26511">
          <path id="Trazado_75162" data-name="Trazado 75162" d="M604.167,154.65h-.988V148.1l-1.982.729v-.893l2.817-1.057h.153Z" fill="#bdd3fa"/>
          <path id="Trazado_75163" data-name="Trazado 75163" d="M610.9,146.909v.834h-.09a3.029,3.029,0,0,0-1.2.213,2.3,2.3,0,0,0-.813.565,2.449,2.449,0,0,0-.484.811,3.792,3.792,0,0,0-.207.945,1.9,1.9,0,0,1,.748-.534,2.486,2.486,0,0,1,.92-.167,2.105,2.105,0,0,1,1,.22,2.044,2.044,0,0,1,.688.58,2.443,2.443,0,0,1,.4.815,3.5,3.5,0,0,1-.023,1.969,2.426,2.426,0,0,1-.457.834,2.14,2.14,0,0,1-.75.557,2.451,2.451,0,0,1-1.035.205,2.209,2.209,0,0,1-1.1-.26,2.393,2.393,0,0,1-.778-.683,2.974,2.974,0,0,1-.465-.954,3.767,3.767,0,0,1-.154-1.067v-.463a8.693,8.693,0,0,1,.066-1.081,5.3,5.3,0,0,1,.23-1.031,4.058,4.058,0,0,1,.439-.914,2.889,2.889,0,0,1,.685-.733,3.176,3.176,0,0,1,.978-.486,4.434,4.434,0,0,1,1.31-.175Zm-1.291,3.485a1.533,1.533,0,0,0-.5.082,1.74,1.74,0,0,0-.437.226,1.71,1.71,0,0,0-.352.338,1.5,1.5,0,0,0-.23.417v.361a3.031,3.031,0,0,0,.125.917,2.079,2.079,0,0,0,.334.664,1.447,1.447,0,0,0,.481.406,1.227,1.227,0,0,0,.564.138,1.358,1.358,0,0,0,.6-.13,1.282,1.282,0,0,0,.449-.366,1.7,1.7,0,0,0,.279-.561,2.659,2.659,0,0,0,.008-1.379,1.787,1.787,0,0,0-.263-.568,1.324,1.324,0,0,0-.442-.4A1.246,1.246,0,0,0,609.608,150.394Z" fill="#bdd3fa"/>
          <path id="Trazado_75164" data-name="Trazado 75164" d="M613.067,148.4a1.709,1.709,0,0,1,.11-.619,1.47,1.47,0,0,1,.812-.854,1.8,1.8,0,0,1,1.328,0,1.454,1.454,0,0,1,.5.346,1.527,1.527,0,0,1,.311.508,1.73,1.73,0,0,1,.109.619v.409a1.77,1.77,0,0,1-.106.614,1.42,1.42,0,0,1-.311.5,1.486,1.486,0,0,1-.5.343,1.626,1.626,0,0,1-.658.127,1.664,1.664,0,0,1-.667-.127,1.517,1.517,0,0,1-.5-.343,1.432,1.432,0,0,1-.316-.5,1.705,1.705,0,0,1-.11-.614Zm.734.409a1.171,1.171,0,0,0,.053.356.9.9,0,0,0,.16.3.764.764,0,0,0,.268.213.855.855,0,0,0,.38.079.815.815,0,0,0,.371-.079.773.773,0,0,0,.264-.21.9.9,0,0,0,.154-.3,1.3,1.3,0,0,0,.05-.359V148.4a1.229,1.229,0,0,0-.053-.359.954.954,0,0,0-.157-.306.739.739,0,0,0-.266-.212.821.821,0,0,0-.374-.08.829.829,0,0,0-.378.08.769.769,0,0,0-.262.212.934.934,0,0,0-.157.306,1.2,1.2,0,0,0-.053.359Zm1.084,5.255-.558-.351,3.777-6.046.558.35Zm1.95-1.312a1.773,1.773,0,0,1,.108-.618,1.462,1.462,0,0,1,.814-.849,1.786,1.786,0,0,1,1.328,0,1.494,1.494,0,0,1,.5.343,1.451,1.451,0,0,1,.313.506,1.73,1.73,0,0,1,.11.618v.414a1.719,1.719,0,0,1-.11.619,1.466,1.466,0,0,1-.313.505,1.5,1.5,0,0,1-.5.342,1.635,1.635,0,0,1-.659.127,1.667,1.667,0,0,1-.667-.127,1.515,1.515,0,0,1-.5-.342,1.492,1.492,0,0,1-.317-.505,1.763,1.763,0,0,1-.108-.619Zm.733.414a1.222,1.222,0,0,0,.053.358.929.929,0,0,0,.159.306.787.787,0,0,0,.269.213.865.865,0,0,0,.38.079.842.842,0,0,0,.372-.079.753.753,0,0,0,.262-.213.885.885,0,0,0,.155-.306,1.292,1.292,0,0,0,.051-.358v-.414a1.2,1.2,0,0,0-.054-.36.918.918,0,0,0-.156-.3.806.806,0,0,0-.266-.21.855.855,0,0,0-.375-.079.79.79,0,0,0-.638.289.9.9,0,0,0-.159.3,1.236,1.236,0,0,0-.053.36Z" fill="#bdd3fa"/>
        </g>
      </g>
      <g id="Grupo_26540" data-name="Grupo 26540">
        <g id="Grupo_26516" data-name="Grupo 26516">
          <g id="Grupo_26513" data-name="Grupo 26513">
            <path id="Trazado_75165" data-name="Trazado 75165" d="M196.009,273.565H161.892a.5.5,0,1,1,0-1h34.117a.5.5,0,1,1,0,1Z" fill="#97c2ff"/>
          </g>
          <g id="Grupo_26514" data-name="Grupo 26514">
            <path id="Trazado_75166" data-name="Trazado 75166" d="M187.05,281.576H161.892a.5.5,0,1,1,0-1H187.05a.5.5,0,0,1,0,1Z" fill="#97c2ff"/>
          </g>
          <g id="Grupo_26515" data-name="Grupo 26515">
            <path id="Trazado_75167" data-name="Trazado 75167" d="M174.471,289.587H161.892a.5.5,0,0,1,0-1h12.579a.5.5,0,0,1,0,1Z" fill="#97c2ff"/>
          </g>
        </g>
        <g id="Grupo_26520" data-name="Grupo 26520">
          <g id="Grupo_26517" data-name="Grupo 26517">
            <path id="Trazado_75168" data-name="Trazado 75168" d="M337.362,237.079H303.245a.5.5,0,0,1,0-1h34.117a.5.5,0,0,1,0,1Z" fill="#97c2ff"/>
          </g>
          <g id="Grupo_26518" data-name="Grupo 26518">
            <path id="Trazado_75169" data-name="Trazado 75169" d="M328.4,245.09H303.245a.5.5,0,0,1,0-1H328.4a.5.5,0,0,1,0,1Z" fill="#97c2ff"/>
          </g>
          <g id="Grupo_26519" data-name="Grupo 26519">
            <path id="Trazado_75170" data-name="Trazado 75170" d="M315.824,253.1H303.245a.5.5,0,0,1,0-1h12.579a.5.5,0,0,1,0,1Z" fill="#97c2ff"/>
          </g>
        </g>
        <g id="Grupo_26523" data-name="Grupo 26523">
          <g id="Grupo_26521" data-name="Grupo 26521">
            <path id="Trazado_75171" data-name="Trazado 75171" d="M241.168,239.781H216.011a.5.5,0,1,1,0-1h25.157a.5.5,0,1,1,0,1Z" fill="#97c2ff"/>
          </g>
          <g id="Grupo_26522" data-name="Grupo 26522">
            <path id="Trazado_75172" data-name="Trazado 75172" d="M228.59,247.792H216.011a.5.5,0,0,1,0-1H228.59a.5.5,0,0,1,0,1Z" fill="#97c2ff"/>
          </g>
        </g>
        <g id="Grupo_26536" data-name="Grupo 26536">
          <g id="Grupo_26524" data-name="Grupo 26524">
            <path id="Trazado_75173" data-name="Trazado 75173" d="M167.8,247.312a.3.3,0,0,1-.212-.088l-9.03-9.031a.3.3,0,0,1,.424-.424l9.03,9.031a.3.3,0,0,1,0,.424A.3.3,0,0,1,167.8,247.312Z" fill="#97c2ff"/>
          </g>
          <g id="Grupo_26525" data-name="Grupo 26525">
            <path id="Trazado_75174" data-name="Trazado 75174" d="M165.141,249.971a.3.3,0,0,1-.212-.088l-9.031-9.03a.3.3,0,0,1,.424-.424l9.03,9.031a.3.3,0,0,1-.211.511Z" fill="#97c2ff"/>
          </g>
          <g id="Grupo_26526" data-name="Grupo 26526">
            <path id="Trazado_75175" data-name="Trazado 75175" d="M152.34,262.772a.3.3,0,0,1-.212-.088l-9.03-9.031a.3.3,0,0,1,.424-.424l9.03,9.031a.3.3,0,0,1,0,.424A.3.3,0,0,1,152.34,262.772Z" fill="#97c2ff"/>
          </g>
          <g id="Grupo_26527" data-name="Grupo 26527">
            <path id="Trazado_75176" data-name="Trazado 75176" d="M149.719,265.393a.3.3,0,0,1-.212-.088l-9.031-9.03a.3.3,0,1,1,.424-.424l9.031,9.03a.3.3,0,0,1-.212.512Z" fill="#97c2ff"/>
          </g>
          <g id="Grupo_26528" data-name="Grupo 26528">
            <path id="Trazado_75177" data-name="Trazado 75177" d="M147.1,268.015a.3.3,0,0,1-.212-.088l-9.031-9.03a.3.3,0,0,1,.424-.424l9.031,9.031a.3.3,0,0,1-.212.511Z" fill="#97c2ff"/>
          </g>
          <g id="Grupo_26529" data-name="Grupo 26529">
            <path id="Trazado_75178" data-name="Trazado 75178" d="M144.475,270.637a.3.3,0,0,1-.212-.087l-9.03-9.032a.3.3,0,1,1,.424-.424l9.03,9.032a.3.3,0,0,1-.212.511Z" fill="#97c2ff"/>
          </g>
          <g id="Grupo_26530" data-name="Grupo 26530">
            <path id="Trazado_75179" data-name="Trazado 75179" d="M130.929,284.183a.3.3,0,0,1-.212-.088l-9.03-9.031a.3.3,0,1,1,.424-.424l9.03,9.031a.3.3,0,0,1-.212.512Z" fill="#97c2ff"/>
          </g>
          <g id="Grupo_26531" data-name="Grupo 26531">
            <path id="Trazado_75180" data-name="Trazado 75180" d="M127.935,287.177a.3.3,0,0,1-.212-.087l-9.031-9.031a.3.3,0,0,1,.424-.424l9.03,9.031a.3.3,0,0,1-.211.511Z" fill="#97c2ff"/>
          </g>
          <g id="Grupo_26532" data-name="Grupo 26532">
            <path id="Trazado_75181" data-name="Trazado 75181" d="M143.111,276.027a48.12,48.12,0,0,1-12.62-2.14l-.862-.237a42.132,42.132,0,0,0-8.377-1.721,13.4,13.4,0,0,0-8.848,2.2.3.3,0,0,1-.358-.483,14.026,14.026,0,0,1,9.245-2.317,42.668,42.668,0,0,1,8.5,1.741l.86.238c4.034,1.11,8.728,2.282,13.436,2.1a13.783,13.783,0,0,0,7.42-2.131c6.107-4.244,5.416-12.728,3.762-19.1-.29-1.114-.609-2.221-.928-3.33a53.843,53.843,0,0,1-1.931-8.367c-.561-4.65.329-8.8,2.505-11.677a.3.3,0,0,1,.479.362c-2.083,2.754-2.93,6.748-2.388,11.243a53.275,53.275,0,0,0,1.912,8.273c.32,1.113.641,2.227.932,3.346,1.7,6.554,2.391,15.3-4,19.74a14.356,14.356,0,0,1-7.74,2.238Q143.61,276.027,143.111,276.027Z" fill="#97c2ff"/>
          </g>
          <g id="Grupo_26533" data-name="Grupo 26533">
            <path id="Trazado_75182" data-name="Trazado 75182" d="M131.894,293.857a.3.3,0,0,1-.241-.478,13.432,13.432,0,0,0,2.2-8.85,38.6,38.6,0,0,0-1.536-7.712.3.3,0,1,1,.578-.16,39.117,39.117,0,0,1,1.557,7.833,14.01,14.01,0,0,1-2.317,9.246A.3.3,0,0,1,131.894,293.857Z" fill="#97c2ff"/>
          </g>
          <g id="Grupo_26534" data-name="Grupo 26534">
            <path id="Trazado_75183" data-name="Trazado 75183" d="M131.839,274.24a.3.3,0,0,1-.29-.223,42.6,42.6,0,0,1-1.776-12.345,14.351,14.351,0,0,1,2.238-7.738c4.441-6.391,13.186-5.7,19.74-4,1.019.265,2.033.554,3.047.846a.3.3,0,1,1-.166.576c-1.009-.29-2.018-.577-3.031-.842-6.37-1.652-14.854-2.343-19.1,3.763a13.763,13.763,0,0,0-2.131,7.42,42,42,0,0,0,1.756,12.167.3.3,0,0,1-.213.367A.286.286,0,0,1,131.839,274.24Z" fill="#97c2ff"/>
          </g>
          <g id="Grupo_26535" data-name="Grupo 26535">
            <path id="Trazado_75184" data-name="Trazado 75184" d="M165.963,253.537a22.429,22.429,0,0,1-2.665-.164,38.775,38.775,0,0,1-5.4-1.1.3.3,0,0,1,.154-.58,38.042,38.042,0,0,0,5.321,1.084c4.5.546,8.489-.306,11.244-2.388a.3.3,0,1,1,.361.479A14.829,14.829,0,0,1,165.963,253.537Z" fill="#97c2ff"/>
          </g>
        </g>
        <g id="Grupo_26537" data-name="Grupo 26537">
          <path id="Trazado_75185" data-name="Trazado 75185" d="M241.327,287.454H224.811a.3.3,0,0,1-.26-.15L216.293,273a.3.3,0,0,1,0-.3l8.258-14.3a.3.3,0,0,1,.26-.149h16.516a.3.3,0,0,1,.26.149l8.258,14.3a.3.3,0,0,1,0,.3l-8.258,14.3A.3.3,0,0,1,241.327,287.454Zm-16.343-.6h16.17l8.085-14-8.085-14h-16.17l-8.085,14Z" fill="#97c2ff"/>
        </g>
        <g id="Grupo_26538" data-name="Grupo 26538">
          <path id="Trazado_75186" data-name="Trazado 75186" d="M345.62,281.786H329.1a.3.3,0,0,1-.26-.15l-8.258-14.3a.3.3,0,0,1,0-.3l8.258-14.3a.3.3,0,0,1,.26-.149H345.62a.3.3,0,0,1,.26.149l8.258,14.3a.3.3,0,0,1,0,.3l-8.258,14.3A.3.3,0,0,1,345.62,281.786Zm-16.343-.6h16.17l8.085-14-8.085-14h-16.17l-8.085,14Z" fill="#97c2ff"/>
        </g>
        <g id="Grupo_26539" data-name="Grupo 26539">
          <path id="Trazado_75187" data-name="Trazado 75187" d="M266.39,273.15H249.873a.3.3,0,0,1-.259-.149l-8.258-14.3a.3.3,0,0,1,0-.3l8.258-14.3a.3.3,0,0,1,.259-.149H266.39a.3.3,0,0,1,.26.149l8.258,14.3a.3.3,0,0,1,0,.3L266.65,273A.3.3,0,0,1,266.39,273.15Zm-16.343-.6h16.17l8.085-14-8.085-14h-16.17l-8.085,14Z" fill="#97c2ff"/>
        </g>
      </g>
      <g id="Grupo_26541" data-name="Grupo 26541">
        <path id="Trazado_75188" data-name="Trazado 75188" d="M317.279,217.681H115.827a5.513,5.513,0,0,1-5.513-5.513h0a5.514,5.514,0,0,1,5.513-5.514H317.279a5.514,5.514,0,0,1,5.513,5.514h0A5.513,5.513,0,0,1,317.279,217.681Z" fill="#edf1ff"/>
      </g>
      <g id="Grupo_26617" data-name="Grupo 26617">
        <g id="Grupo_26542" data-name="Grupo 26542">
          <path id="Rectángulo_25986" data-name="Rectángulo 25986" d="M5.477,0h303.94a5.476,5.476,0,0,1,5.476,5.476V129.209a5.476,5.476,0,0,1-5.476,5.476H5.477A5.477,5.477,0,0,1,0,129.209V5.477A5.477,5.477,0,0,1,5.477,0Z" transform="translate(393.199 192.408)" fill="#fff"/>
        </g>
        <g id="Grupo_26543" data-name="Grupo 26543">
          <path id="Trazado_75189" data-name="Trazado 75189" d="M615.986,217.681H414.535a5.514,5.514,0,0,1-5.514-5.513h0a5.514,5.514,0,0,1,5.514-5.514H615.986a5.514,5.514,0,0,1,5.513,5.514h0A5.513,5.513,0,0,1,615.986,217.681Z" fill="#edf1ff"/>
        </g>
        <g id="Grupo_26544" data-name="Grupo 26544">
          <path id="Trazado_75190" data-name="Trazado 75190" d="M685.3,217.681H633.868a5.513,5.513,0,0,1-5.513-5.513h0a5.514,5.514,0,0,1,5.513-5.514H685.3a5.514,5.514,0,0,1,5.513,5.514h0A5.513,5.513,0,0,1,685.3,217.681Z" fill="#edf1ff"/>
        </g>
        <g id="Grupo_26554" data-name="Grupo 26554">
          <g id="Grupo_26549" data-name="Grupo 26549">
            <g id="Grupo_26545" data-name="Grupo 26545">
              <rect id="Rectángulo_25987" data-name="Rectángulo 25987" width="53.261" height="5.54" rx="2.429" transform="translate(442.03 231.291)" fill="#bdd3fa"/>
            </g>
            <g id="Grupo_26546" data-name="Grupo 26546">
              <path id="Trazado_75191" data-name="Trazado 75191" d="M477.619,245.517H443.5a.5.5,0,0,1,0-1h34.117a.5.5,0,0,1,0,1Z" fill="#97c2ff"/>
            </g>
            <g id="Grupo_26547" data-name="Grupo 26547">
              <path id="Trazado_75192" data-name="Trazado 75192" d="M468.66,253.528H443.5a.5.5,0,1,1,0-1H468.66a.5.5,0,0,1,0,1Z" fill="#97c2ff"/>
            </g>
            <g id="Grupo_26548" data-name="Grupo 26548">
              <path id="Trazado_75193" data-name="Trazado 75193" d="M456.081,261.539H443.5a.5.5,0,0,1,0-1h12.579a.5.5,0,0,1,0,1Z" fill="#97c2ff"/>
            </g>
          </g>
          <g id="Grupo_26550" data-name="Grupo 26550">
            <path id="Trazado_75194" data-name="Trazado 75194" d="M431.983,253.73H415.956a3.224,3.224,0,0,1-3.221-3.22V234.483a3.225,3.225,0,0,1,3.221-3.221h16.027a3.224,3.224,0,0,1,3.22,3.221V250.51A3.223,3.223,0,0,1,431.983,253.73Zm-16.027-21.468a2.223,2.223,0,0,0-2.221,2.221V250.51a2.223,2.223,0,0,0,2.221,2.22h16.027a2.223,2.223,0,0,0,2.22-2.22V234.483a2.223,2.223,0,0,0-2.22-2.221Z" fill="#97c2ff"/>
          </g>
          <g id="Grupo_26553" data-name="Grupo 26553">
            <g id="Grupo_26551" data-name="Grupo 26551">
              <path id="Trazado_75195" data-name="Trazado 75195" d="M427.26,246.287a.5.5,0,0,1-.354-.147l-6.58-6.58a.5.5,0,1,1,.707-.707l6.58,6.58a.5.5,0,0,1-.353.854Z" fill="#ff7867"/>
            </g>
            <g id="Grupo_26552" data-name="Grupo 26552">
              <path id="Trazado_75196" data-name="Trazado 75196" d="M420.68,246.287a.5.5,0,0,1-.354-.854l6.58-6.58a.5.5,0,0,1,.707.707l-6.58,6.58A.5.5,0,0,1,420.68,246.287Z" fill="#ff7867"/>
            </g>
          </g>
        </g>
        <g id="Grupo_26564" data-name="Grupo 26564">
          <g id="Grupo_26559" data-name="Grupo 26559">
            <g id="Grupo_26555" data-name="Grupo 26555">
              <rect id="Rectángulo_25988" data-name="Rectángulo 25988" width="53.261" height="5.54" rx="2.429" transform="translate(539.281 278.153)" fill="#bdd3fa"/>
            </g>
            <g id="Grupo_26556" data-name="Grupo 26556">
              <path id="Trazado_75197" data-name="Trazado 75197" d="M574.871,292.38H540.754a.5.5,0,0,1,0-1h34.117a.5.5,0,0,1,0,1Z" fill="#97c2ff"/>
            </g>
            <g id="Grupo_26557" data-name="Grupo 26557">
              <path id="Trazado_75198" data-name="Trazado 75198" d="M565.912,300.39H540.754a.5.5,0,0,1,0-1h25.158a.5.5,0,0,1,0,1Z" fill="#97c2ff"/>
            </g>
            <g id="Grupo_26558" data-name="Grupo 26558">
              <path id="Trazado_75199" data-name="Trazado 75199" d="M553.333,308.4H540.754a.5.5,0,0,1,0-1h12.579a.5.5,0,0,1,0,1Z" fill="#97c2ff"/>
            </g>
          </g>
          <g id="Grupo_26560" data-name="Grupo 26560">
            <path id="Trazado_75200" data-name="Trazado 75200" d="M529.234,300.592H513.208a3.224,3.224,0,0,1-3.221-3.219V281.345a3.224,3.224,0,0,1,3.221-3.22h16.026a3.223,3.223,0,0,1,3.221,3.22v16.028A3.223,3.223,0,0,1,529.234,300.592Zm-16.026-21.467a2.223,2.223,0,0,0-2.221,2.22v16.028a2.223,2.223,0,0,0,2.221,2.219h16.026a2.223,2.223,0,0,0,2.221-2.219V281.345a2.223,2.223,0,0,0-2.221-2.22Z" fill="#97c2ff"/>
          </g>
          <g id="Grupo_26563" data-name="Grupo 26563">
            <g id="Grupo_26561" data-name="Grupo 26561">
              <path id="Trazado_75201" data-name="Trazado 75201" d="M524.512,293.149a.5.5,0,0,1-.354-.146l-6.58-6.581a.5.5,0,1,1,.707-.706l6.58,6.58a.5.5,0,0,1-.353.853Z" fill="#ff7867"/>
            </g>
            <g id="Grupo_26562" data-name="Grupo 26562">
              <path id="Trazado_75202" data-name="Trazado 75202" d="M517.932,293.149a.5.5,0,0,1-.354-.853l6.58-6.58a.5.5,0,1,1,.707.706L518.285,293A.5.5,0,0,1,517.932,293.149Z" fill="#ff7867"/>
            </g>
          </g>
        </g>
        <g id="Grupo_26574" data-name="Grupo 26574">
          <g id="Grupo_26569" data-name="Grupo 26569">
            <g id="Grupo_26565" data-name="Grupo 26565">
              <rect id="Rectángulo_25989" data-name="Rectángulo 25989" width="53.261" height="5.54" rx="2.429" transform="translate(637.557 277.006)" fill="#bdd3fa"/>
            </g>
            <g id="Grupo_26566" data-name="Grupo 26566">
              <path id="Trazado_75203" data-name="Trazado 75203" d="M673.146,291.232H639.029a.5.5,0,0,1,0-1h34.117a.5.5,0,0,1,0,1Z" fill="#97c2ff"/>
            </g>
            <g id="Grupo_26567" data-name="Grupo 26567">
              <path id="Trazado_75204" data-name="Trazado 75204" d="M664.187,299.243H639.029a.5.5,0,0,1,0-1h25.158a.5.5,0,0,1,0,1Z" fill="#97c2ff"/>
            </g>
            <g id="Grupo_26568" data-name="Grupo 26568">
              <path id="Trazado_75205" data-name="Trazado 75205" d="M651.608,307.254H639.029a.5.5,0,0,1,0-1h12.579a.5.5,0,0,1,0,1Z" fill="#97c2ff"/>
            </g>
          </g>
          <g id="Grupo_26570" data-name="Grupo 26570">
            <path id="Trazado_75206" data-name="Trazado 75206" d="M627.51,299.445H611.483a3.223,3.223,0,0,1-3.22-3.221V280.2a3.223,3.223,0,0,1,3.22-3.221H627.51a3.223,3.223,0,0,1,3.22,3.221v16.026A3.223,3.223,0,0,1,627.51,299.445Zm-16.027-21.468a2.223,2.223,0,0,0-2.22,2.221v16.026a2.223,2.223,0,0,0,2.22,2.221H627.51a2.223,2.223,0,0,0,2.22-2.221V280.2a2.223,2.223,0,0,0-2.22-2.221Z" fill="#97c2ff"/>
          </g>
          <g id="Grupo_26573" data-name="Grupo 26573">
            <g id="Grupo_26571" data-name="Grupo 26571">
              <path id="Trazado_75207" data-name="Trazado 75207" d="M622.786,292a.5.5,0,0,1-.353-.147l-6.581-6.58a.5.5,0,1,1,.708-.707l6.58,6.58a.5.5,0,0,1-.354.854Z" fill="#ff7867"/>
            </g>
            <g id="Grupo_26572" data-name="Grupo 26572">
              <path id="Trazado_75208" data-name="Trazado 75208" d="M616.206,292a.5.5,0,0,1-.354-.854l6.581-6.58a.5.5,0,0,1,.707.707l-6.58,6.58A.5.5,0,0,1,616.206,292Z" fill="#ff7867"/>
            </g>
          </g>
        </g>
        <g id="Grupo_26584" data-name="Grupo 26584">
          <g id="Grupo_26579" data-name="Grupo 26579">
            <g id="Grupo_26575" data-name="Grupo 26575">
              <rect id="Rectángulo_25990" data-name="Rectángulo 25990" width="53.261" height="5.54" rx="2.429" transform="translate(539.281 231.291)" fill="#bdd3fa"/>
            </g>
            <g id="Grupo_26576" data-name="Grupo 26576">
              <path id="Trazado_75209" data-name="Trazado 75209" d="M574.871,245.517H540.754a.5.5,0,0,1,0-1h34.117a.5.5,0,0,1,0,1Z" fill="#97c2ff"/>
            </g>
            <g id="Grupo_26577" data-name="Grupo 26577">
              <path id="Trazado_75210" data-name="Trazado 75210" d="M565.912,253.528H540.754a.5.5,0,0,1,0-1h25.158a.5.5,0,0,1,0,1Z" fill="#97c2ff"/>
            </g>
            <g id="Grupo_26578" data-name="Grupo 26578">
              <path id="Trazado_75211" data-name="Trazado 75211" d="M553.333,261.539H540.754a.5.5,0,0,1,0-1h12.579a.5.5,0,0,1,0,1Z" fill="#97c2ff"/>
            </g>
          </g>
          <g id="Grupo_26580" data-name="Grupo 26580">
            <path id="Trazado_75212" data-name="Trazado 75212" d="M529.234,253.73H513.208a3.224,3.224,0,0,1-3.221-3.22V234.483a3.225,3.225,0,0,1,3.221-3.221h16.026a3.224,3.224,0,0,1,3.221,3.221V250.51A3.223,3.223,0,0,1,529.234,253.73Zm-16.026-21.468a2.223,2.223,0,0,0-2.221,2.221V250.51a2.223,2.223,0,0,0,2.221,2.22h16.026a2.223,2.223,0,0,0,2.221-2.22V234.483a2.223,2.223,0,0,0-2.221-2.221Z" fill="#97c2ff"/>
          </g>
          <g id="Grupo_26583" data-name="Grupo 26583">
            <g id="Grupo_26581" data-name="Grupo 26581">
              <path id="Trazado_75213" data-name="Trazado 75213" d="M520.164,246.287a.494.494,0,0,1-.311-.109.5.5,0,0,1-.081-.7l5.22-6.58a.5.5,0,0,1,.783.621l-5.219,6.58A.5.5,0,0,1,520.164,246.287Z" fill="#97c2ff"/>
            </g>
            <g id="Grupo_26582" data-name="Grupo 26582">
              <path id="Trazado_75214" data-name="Trazado 75214" d="M520.164,246.287a.5.5,0,0,1-.41-.215l-3.106-4.465a.5.5,0,0,1,.821-.57l3.1,4.465a.5.5,0,0,1-.41.785Z" fill="#97c2ff"/>
            </g>
          </g>
        </g>
        <g id="Grupo_26594" data-name="Grupo 26594">
          <g id="Grupo_26589" data-name="Grupo 26589">
            <g id="Grupo_26585" data-name="Grupo 26585">
              <rect id="Rectángulo_25991" data-name="Rectángulo 25991" width="53.261" height="5.54" rx="2.429" transform="translate(637.557 231.291)" fill="#bdd3fa"/>
            </g>
            <g id="Grupo_26586" data-name="Grupo 26586">
              <path id="Trazado_75215" data-name="Trazado 75215" d="M673.146,245.517H639.029a.5.5,0,0,1,0-1h34.117a.5.5,0,0,1,0,1Z" fill="#97c2ff"/>
            </g>
            <g id="Grupo_26587" data-name="Grupo 26587">
              <path id="Trazado_75216" data-name="Trazado 75216" d="M664.187,253.528H639.029a.5.5,0,0,1,0-1h25.158a.5.5,0,0,1,0,1Z" fill="#97c2ff"/>
            </g>
            <g id="Grupo_26588" data-name="Grupo 26588">
              <path id="Trazado_75217" data-name="Trazado 75217" d="M651.608,261.539H639.029a.5.5,0,0,1,0-1h12.579a.5.5,0,0,1,0,1Z" fill="#97c2ff"/>
            </g>
          </g>
          <g id="Grupo_26590" data-name="Grupo 26590">
            <path id="Trazado_75218" data-name="Trazado 75218" d="M627.51,253.73H611.483a3.223,3.223,0,0,1-3.22-3.22V234.483a3.224,3.224,0,0,1,3.22-3.221H627.51a3.224,3.224,0,0,1,3.22,3.221V250.51A3.223,3.223,0,0,1,627.51,253.73Zm-16.027-21.468a2.223,2.223,0,0,0-2.22,2.221V250.51a2.223,2.223,0,0,0,2.22,2.22H627.51a2.223,2.223,0,0,0,2.22-2.22V234.483a2.223,2.223,0,0,0-2.22-2.221Z" fill="#97c2ff"/>
          </g>
          <g id="Grupo_26593" data-name="Grupo 26593">
            <g id="Grupo_26591" data-name="Grupo 26591">
              <path id="Trazado_75219" data-name="Trazado 75219" d="M618.438,246.287a.491.491,0,0,1-.31-.109.5.5,0,0,1-.081-.7l5.221-6.58a.5.5,0,0,1,.783.621l-5.221,6.58A.5.5,0,0,1,618.438,246.287Z" fill="#97c2ff"/>
            </g>
            <g id="Grupo_26592" data-name="Grupo 26592">
              <path id="Trazado_75220" data-name="Trazado 75220" d="M618.438,246.287a.5.5,0,0,1-.41-.215l-3.1-4.465a.5.5,0,0,1,.82-.57l3.1,4.465a.5.5,0,0,1-.411.785Z" fill="#97c2ff"/>
            </g>
          </g>
        </g>
        <g id="Grupo_26604" data-name="Grupo 26604">
          <g id="Grupo_26599" data-name="Grupo 26599">
            <g id="Grupo_26595" data-name="Grupo 26595">
              <rect id="Rectángulo_25992" data-name="Rectángulo 25992" width="53.261" height="5.54" rx="2.429" transform="translate(442.03 279.345)" fill="#bdd3fa"/>
            </g>
            <g id="Grupo_26596" data-name="Grupo 26596">
              <path id="Trazado_75221" data-name="Trazado 75221" d="M477.619,293.572H443.5a.5.5,0,1,1,0-1h34.117a.5.5,0,0,1,0,1Z" fill="#97c2ff"/>
            </g>
            <g id="Grupo_26597" data-name="Grupo 26597">
              <path id="Trazado_75222" data-name="Trazado 75222" d="M468.66,301.583H443.5a.5.5,0,1,1,0-1H468.66a.5.5,0,0,1,0,1Z" fill="#97c2ff"/>
            </g>
            <g id="Grupo_26598" data-name="Grupo 26598">
              <path id="Trazado_75223" data-name="Trazado 75223" d="M456.081,309.593H443.5a.5.5,0,1,1,0-1h12.579a.5.5,0,0,1,0,1Z" fill="#97c2ff"/>
            </g>
          </g>
          <g id="Grupo_26600" data-name="Grupo 26600">
            <path id="Trazado_75224" data-name="Trazado 75224" d="M431.983,301.785H415.956a3.224,3.224,0,0,1-3.221-3.221V282.538a3.224,3.224,0,0,1,3.221-3.221h16.027a3.223,3.223,0,0,1,3.22,3.221v16.026A3.223,3.223,0,0,1,431.983,301.785Zm-16.027-21.468a2.223,2.223,0,0,0-2.221,2.221v16.026a2.223,2.223,0,0,0,2.221,2.221h16.027a2.223,2.223,0,0,0,2.22-2.221V282.538a2.223,2.223,0,0,0-2.22-2.221Z" fill="#97c2ff"/>
          </g>
          <g id="Grupo_26603" data-name="Grupo 26603">
            <g id="Grupo_26601" data-name="Grupo 26601">
              <path id="Trazado_75225" data-name="Trazado 75225" d="M422.912,294.341a.494.494,0,0,1-.31-.108.5.5,0,0,1-.082-.7l5.22-6.58a.5.5,0,0,1,.783.621l-5.219,6.58A.5.5,0,0,1,422.912,294.341Z" fill="#97c2ff"/>
            </g>
            <g id="Grupo_26602" data-name="Grupo 26602">
              <path id="Trazado_75226" data-name="Trazado 75226" d="M422.912,294.341a.5.5,0,0,1-.41-.214l-3.105-4.465a.5.5,0,1,1,.821-.571l3.1,4.465a.5.5,0,0,1-.41.785Z" fill="#97c2ff"/>
            </g>
          </g>
        </g>
        <g id="Grupo_26610" data-name="Grupo 26610">
          <g id="Grupo_26609" data-name="Grupo 26609">
            <g id="Grupo_26605" data-name="Grupo 26605">
              <rect id="Rectángulo_25993" data-name="Rectángulo 25993" width="53.261" height="5.54" rx="2.429" transform="translate(443.848 366.333)" fill="#bdd3fa"/>
            </g>
            <g id="Grupo_26606" data-name="Grupo 26606">
              <path id="Trazado_75227" data-name="Trazado 75227" d="M479.437,380.56H445.32a.5.5,0,0,1,0-1h34.117a.5.5,0,0,1,0,1Z" fill="#97c2ff"/>
            </g>
            <g id="Grupo_26607" data-name="Grupo 26607">
              <path id="Trazado_75228" data-name="Trazado 75228" d="M470.478,388.57H445.32a.5.5,0,0,1,0-1h25.158a.5.5,0,0,1,0,1Z" fill="#97c2ff"/>
            </g>
            <g id="Grupo_26608" data-name="Grupo 26608">
              <path id="Trazado_75229" data-name="Trazado 75229" d="M457.9,396.581H445.32a.5.5,0,0,1,0-1H457.9a.5.5,0,0,1,0,1Z" fill="#97c2ff"/>
            </g>
          </g>
        </g>
        <g id="Grupo_26616" data-name="Grupo 26616">
          <g id="Grupo_26615" data-name="Grupo 26615">
            <g id="Grupo_26611" data-name="Grupo 26611">
              <rect id="Rectángulo_25994" data-name="Rectángulo 25994" width="53.261" height="5.54" rx="2.429" transform="translate(444.32 412.622)" fill="#bdd3fa"/>
            </g>
            <g id="Grupo_26612" data-name="Grupo 26612">
              <path id="Trazado_75230" data-name="Trazado 75230" d="M479.91,426.848H445.793a.5.5,0,0,1,0-1H479.91a.5.5,0,0,1,0,1Z" fill="#97c2ff"/>
            </g>
            <g id="Grupo_26613" data-name="Grupo 26613">
              <path id="Trazado_75231" data-name="Trazado 75231" d="M470.951,434.859H445.793a.5.5,0,0,1,0-1h25.158a.5.5,0,0,1,0,1Z" fill="#97c2ff"/>
            </g>
            <g id="Grupo_26614" data-name="Grupo 26614">
              <path id="Trazado_75232" data-name="Trazado 75232" d="M458.372,442.87H445.793a.5.5,0,0,1,0-1h12.579a.5.5,0,0,1,0,1Z" fill="#97c2ff"/>
            </g>
          </g>
        </g>
      </g>
      <g id="Grupo_26620" data-name="Grupo 26620">
        <g id="Grupo_26618" data-name="Grupo 26618">
          <path id="Rectángulo_25995" data-name="Rectángulo 25995" d="M9.209,0H10.67a9.21,9.21,0,0,1,9.21,9.21V67.963a9.21,9.21,0,0,1-9.21,9.21H9.209A9.209,9.209,0,0,1,0,67.963V9.209A9.209,9.209,0,0,1,9.209,0Z" transform="translate(117.715 376.427)" fill="#bdd3fa"/>
        </g>
        <g id="Grupo_26619" data-name="Grupo 26619">
          <path id="Rectángulo_25996" data-name="Rectángulo 25996" d="M9.209,0H10.67a9.21,9.21,0,0,1,9.21,9.21V28.094a9.21,9.21,0,0,1-9.21,9.21H9.209A9.209,9.209,0,0,1,0,28.094V9.209A9.209,9.209,0,0,1,9.209,0Z" transform="translate(117.715 416.296)" fill="#97c2ff"/>
        </g>
      </g>
      <g id="Grupo_26623" data-name="Grupo 26623">
        <g id="Grupo_26621" data-name="Grupo 26621">
          <path id="Rectángulo_25997" data-name="Rectángulo 25997" d="M9.21,0H10.67A9.209,9.209,0,0,1,19.88,9.209V67.963a9.21,9.21,0,0,1-9.21,9.21H9.21A9.21,9.21,0,0,1,0,67.963V9.21A9.21,9.21,0,0,1,9.21,0Z" transform="translate(152.73 376.427)" fill="#bdd3fa"/>
        </g>
        <g id="Grupo_26622" data-name="Grupo 26622">
          <path id="Trazado_75233" data-name="Trazado 75233" d="M162.67,453.6h0a9.94,9.94,0,0,1-9.94-9.94v-46.4a9.94,9.94,0,0,1,9.94-9.94h0a9.94,9.94,0,0,1,9.94,9.94v46.4A9.94,9.94,0,0,1,162.67,453.6Z" fill="#97c2ff"/>
        </g>
      </g>
      <g id="Grupo_26626" data-name="Grupo 26626">
        <g id="Grupo_26624" data-name="Grupo 26624">
          <path id="Rectángulo_25998" data-name="Rectángulo 25998" d="M9.209,0H10.67A9.209,9.209,0,0,1,19.88,9.209V67.963a9.21,9.21,0,0,1-9.21,9.21H9.209A9.209,9.209,0,0,1,0,67.963V9.209A9.209,9.209,0,0,1,9.209,0Z" transform="translate(187.745 376.427)" fill="#bdd3fa"/>
        </g>
        <g id="Grupo_26625" data-name="Grupo 26625">
          <path id="Trazado_75234" data-name="Trazado 75234" d="M197.685,453.6h0a9.94,9.94,0,0,1-9.94-9.94v-5.831a9.94,9.94,0,0,1,9.94-9.94h0a9.94,9.94,0,0,1,9.94,9.94v5.831A9.94,9.94,0,0,1,197.685,453.6Z" fill="#97c2ff"/>
        </g>
      </g>
      <g id="Grupo_26629" data-name="Grupo 26629">
        <g id="Grupo_26627" data-name="Grupo 26627">
          <path id="Rectángulo_25999" data-name="Rectángulo 25999" d="M9.209,0H10.67A9.209,9.209,0,0,1,19.88,9.209V67.963a9.21,9.21,0,0,1-9.21,9.21H9.209A9.209,9.209,0,0,1,0,67.963V9.209A9.209,9.209,0,0,1,9.209,0Z" transform="translate(222.76 376.427)" fill="#bdd3fa"/>
        </g>
        <g id="Grupo_26628" data-name="Grupo 26628">
          <rect id="Rectángulo_26000" data-name="Rectángulo 26000" width="19.88" height="52.205" rx="9.94" transform="translate(222.76 401.394)" fill="#97c2ff"/>
        </g>
      </g>
      <g id="Grupo_26632" data-name="Grupo 26632">
        <g id="Grupo_26630" data-name="Grupo 26630">
          <path id="Rectángulo_26001" data-name="Rectángulo 26001" d="M9.21,0H10.67A9.209,9.209,0,0,1,19.88,9.209V67.963a9.21,9.21,0,0,1-9.21,9.21H9.21A9.21,9.21,0,0,1,0,67.963V9.21A9.21,9.21,0,0,1,9.21,0Z" transform="translate(257.775 376.427)" fill="#bdd3fa"/>
        </g>
        <g id="Grupo_26631" data-name="Grupo 26631">
          <path id="Rectángulo_26002" data-name="Rectángulo 26002" d="M9.209,0H10.67A9.209,9.209,0,0,1,19.88,9.209V28.094a9.21,9.21,0,0,1-9.21,9.21H9.209A9.209,9.209,0,0,1,0,28.094V9.209A9.209,9.209,0,0,1,9.209,0Z" transform="translate(257.775 416.296)" fill="#97c2ff"/>
        </g>
      </g>
      <g id="Grupo_26635" data-name="Grupo 26635">
        <g id="Grupo_26633" data-name="Grupo 26633">
          <path id="Rectángulo_26003" data-name="Rectángulo 26003" d="M9.209,0H10.67a9.21,9.21,0,0,1,9.21,9.21V67.963a9.21,9.21,0,0,1-9.21,9.21H9.209A9.209,9.209,0,0,1,0,67.963V9.209A9.209,9.209,0,0,1,9.209,0Z" transform="translate(292.79 376.427)" fill="#bdd3fa"/>
        </g>
        <g id="Grupo_26634" data-name="Grupo 26634">
          <path id="Rectángulo_26004" data-name="Rectángulo 26004" d="M9.209,0H10.67a9.21,9.21,0,0,1,9.21,9.21V28.094a9.21,9.21,0,0,1-9.21,9.21H9.209A9.209,9.209,0,0,1,0,28.094V9.209A9.209,9.209,0,0,1,9.209,0Z" transform="translate(292.79 416.296)" fill="#97c2ff"/>
        </g>
      </g>
      <g id="Grupo_26638" data-name="Grupo 26638">
        <g id="Grupo_26636" data-name="Grupo 26636">
          <path id="Rectángulo_26005" data-name="Rectángulo 26005" d="M9.21,0H10.67A9.209,9.209,0,0,1,19.88,9.209V67.963a9.21,9.21,0,0,1-9.21,9.21H9.21A9.21,9.21,0,0,1,0,67.963V9.21A9.21,9.21,0,0,1,9.21,0Z" transform="translate(327.805 376.427)" fill="#bdd3fa"/>
        </g>
        <g id="Grupo_26637" data-name="Grupo 26637">
          <path id="Trazado_75235" data-name="Trazado 75235" d="M337.745,453.6h0a9.94,9.94,0,0,1-9.94-9.94V412.117a9.94,9.94,0,0,1,9.94-9.94h0a9.94,9.94,0,0,1,9.94,9.94v31.542A9.94,9.94,0,0,1,337.745,453.6Z" fill="#97c2ff"/>
        </g>
      </g>
      <g id="Grupo_26641" data-name="Grupo 26641">
        <g id="Grupo_26639" data-name="Grupo 26639">
          <path id="Rectángulo_26006" data-name="Rectángulo 26006" d="M9.21,0H10.67A9.209,9.209,0,0,1,19.88,9.209V67.963a9.21,9.21,0,0,1-9.21,9.21H9.209A9.209,9.209,0,0,1,0,67.963V9.21A9.21,9.21,0,0,1,9.21,0Z" transform="translate(362.82 376.427)" fill="#bdd3fa"/>
        </g>
        <g id="Grupo_26640" data-name="Grupo 26640">
          <rect id="Rectángulo_26007" data-name="Rectángulo 26007" width="19.88" height="10.836" rx="5.418" transform="translate(362.82 442.763)" fill="#97c2ff"/>
        </g>
      </g>
      <g id="Grupo_26642" data-name="Grupo 26642">
        <path id="Trazado_75236" data-name="Trazado 75236" d="M524.837,450.854s10.524-18.43,24.144-18.43,26.825,9.493,26.825,9.493,11.35,5.571,16.715-1.238,8.666-23.524,19.809-23.112,13.62,18.572,21.255,18.985c7.224.39,16.48-7.532,29.865-24.292a12.741,12.741,0,0,1,8.781-4.791l.148-.013v43.4Z" fill="#bdd3fa"/>
      </g>
      <g id="Grupo_26648" data-name="Grupo 26648">
        <g id="Grupo_26643" data-name="Grupo 26643">
          <path id="Trazado_75237" data-name="Trazado 75237" d="M550,356.1a20.814,20.814,0,1,0,20.814,20.814A20.814,20.814,0,0,0,550,356.1Zm0,32.223a11.409,11.409,0,1,1,11.409-11.409A11.422,11.422,0,0,1,550,388.323Z" fill="#bdd3fa"/>
        </g>
        <g id="Grupo_26644" data-name="Grupo 26644">
          <path id="Trazado_75238" data-name="Trazado 75238" d="M549.321,392.083a4.637,4.637,0,0,0-3.058-4.4,11.39,11.39,0,0,1,0-21.532,4.636,4.636,0,0,0,3.058-4.4h0a4.706,4.706,0,0,0-6.224-4.468,20.814,20.814,0,0,0,0,39.272,4.706,4.706,0,0,0,6.224-4.467Z" fill="#97c2ff"/>
        </g>
        <g id="Grupo_26645" data-name="Grupo 26645">
          <path id="Trazado_75239" data-name="Trazado 75239" d="M598.834,355.2a20.814,20.814,0,1,0,20.814,20.815A20.815,20.815,0,0,0,598.834,355.2Zm0,32.224a11.409,11.409,0,1,1,11.408-11.409A11.422,11.422,0,0,1,598.834,387.428Z" fill="#bdd3fa"/>
        </g>
        <g id="Grupo_26646" data-name="Grupo 26646">
          <path id="Trazado_75240" data-name="Trazado 75240" d="M588.129,372.1a11.445,11.445,0,0,1,6.909-6.828,4.681,4.681,0,0,0,3.116-4.416v-.02a4.69,4.69,0,0,0-6.18-4.469,20.848,20.848,0,0,0-12.689,12.556,4.687,4.687,0,0,0,4.455,6.217h0A4.667,4.667,0,0,0,588.129,372.1Z" fill="#ff7867"/>
        </g>
        <g id="Grupo_26647" data-name="Grupo 26647">
          <path id="Trazado_75241" data-name="Trazado 75241" d="M648.276,356.1a20.814,20.814,0,1,0,20.814,20.814A20.814,20.814,0,0,0,648.276,356.1Zm0,32.223a11.409,11.409,0,1,1,11.409-11.409A11.422,11.422,0,0,1,648.275,388.323Z" fill="#bdd3fa"/>
        </g>
      </g>
    </g>
    <g id="Grupo_26673" data-name="Grupo 26673">
      <g id="Grupo_26650" data-name="Grupo 26650">
        <path id="Trazado_75242" data-name="Trazado 75242" d="M419.277,559.77v4.538s5.446,1.513,8.169-1.361V559.77Z" fill="#97c2ff"/>
      </g>
      <g id="Grupo_26651" data-name="Grupo 26651">
        <path id="Trazado_75243" data-name="Trazado 75243" d="M419.277,564.308s6.353.757,8.169-1.361l10.589,5.143v1.967H419.277Z" fill="#625e7a"/>
      </g>
      <g id="Grupo_26652" data-name="Grupo 26652">
        <path id="Trazado_75244" data-name="Trazado 75244" d="M386.481,559.77v4.538s-5.446,1.513-8.169-1.361V559.77Z" fill="#97c2ff"/>
      </g>
      <g id="Grupo_26653" data-name="Grupo 26653">
        <path id="Trazado_75245" data-name="Trazado 75245" d="M386.481,564.308s-6.354.757-8.169-1.361l-10.589,5.143v1.967h18.758Z" fill="#625e7a"/>
      </g>
      <g id="Grupo_26654" data-name="Grupo 26654">
        <path id="Trazado_75246" data-name="Trazado 75246" d="M391.078,344.207v5.976h15.7v-5.976l2.226-1.991a6,6,0,0,0,3.4-4.687c.352-3.4-.82-4.57-2.7-3.867H388.344s-1.913-1.093-2.538.7-.156,7.326,3.671,7.393Z" fill="#ffb7b0"/>
      </g>
      <g id="Grupo_26655" data-name="Grupo 26655">
        <path id="Trazado_75247" data-name="Trazado 75247" d="M398.655,345.5c-.123.006-9.607-2.656-10.584-11.638s0-11.835,0-11.835,1.758-6.639,11.678-6.951,11.8,10.388,9.959,18.59C409.708,333.662,409.435,344.988,398.655,345.5Z" fill="#625e7a"/>
      </g>
      <g id="Grupo_26656" data-name="Grupo 26656">
        <path id="Trazado_75248" data-name="Trazado 75248" d="M384.283,355.221s2.577-7.264,15.232-7.577c0,0,7.076-.781,12.95,6.874C412.465,354.518,400.921,346.473,384.283,355.221Z" fill="#bdd3fa"/>
      </g>
      <g id="Grupo_26657" data-name="Grupo 26657">
        <path id="Trazado_75249" data-name="Trazado 75249" d="M384.283,355.846l-15.857,7.343a42.606,42.606,0,0,0-6.4,20c-.306,7.33.716,18.248,1.465,24.961a22.3,22.3,0,0,0,4.147,10.67l5.4,7.409.859,54.444s16.872,12.03,54.366,0V423.8l5.332-9.114a24.259,24.259,0,0,0,3.32-12.544c-.127-10.893-1.315-31.562-8.184-39.895l-15.309-7.03S398.733,345.067,384.283,355.846Z" fill="#97c2ff"/>
      </g>
      <g id="Grupo_26658" data-name="Grupo 26658">
        <path id="Trazado_75250" data-name="Trazado 75250" d="M387.823,438.574l-15.1-11.957.621-.783,14.427,11.424,6.127-5.676L373.394,390.96v-17.3h1v17.065L395.132,431.8Z" fill="#fff"/>
      </g>
      <g id="Grupo_26659" data-name="Grupo 26659">
        <path id="Trazado_75251" data-name="Trazado 75251" d="M409.337,439.633l-6.99-7.463,23.064-45.5-.773-15.334,1-.051.787,15.6-.06.118L403.556,432l5.877,6.275,18.515-14.859.625.779Z" fill="#fff"/>
      </g>
      <g id="Grupo_26660" data-name="Grupo 26660">
        <path id="Trazado_75252" data-name="Trazado 75252" d="M376.286,481.985l1.045,78.671h11.4L395.3,485.98Z" fill="#625e7a"/>
      </g>
      <g id="Grupo_26661" data-name="Grupo 26661">
        <path id="Trazado_75253" data-name="Trazado 75253" d="M405.818,485.568c-.048.005,12.131,75.088,12.131,75.088l10.467-1.093L423.9,481.985Z" fill="#625e7a"/>
      </g>
      <g id="Grupo_26670" data-name="Grupo 26670">
        <g id="Grupo_26662" data-name="Grupo 26662">
          <path id="Trazado_75254" data-name="Trazado 75254" d="M395.08,434.246l2.052.867,4.6-.14,2.406,3.624,1.9,2.362-7.356,5.575-.93-.735s-1.587.619-1.935-.813c0,0-2.4.619-2.169-1.317,0,0-2.439.116-1.509-1.858l.425-.891-1.819-2.4Z" fill="#ffb7b0"/>
        </g>
        <g id="Grupo_26669" data-name="Grupo 26669">
          <g id="Grupo_26663" data-name="Grupo 26663">
            <path id="Trazado_75255" data-name="Trazado 75255" d="M402.645,441.011a.3.3,0,0,1-.148-.039l-3.05-1.732a1.014,1.014,0,0,1,.9-1.814l4.362,1.871a.3.3,0,1,1-.236.55l-4.363-1.87a.414.414,0,0,0-.368.741l3.051,1.733a.3.3,0,0,1,.112.409A.3.3,0,0,1,402.645,441.011Z" fill="#ff988e"/>
          </g>
          <g id="Grupo_26664" data-name="Grupo 26664">
            <path id="Trazado_75256" data-name="Trazado 75256" d="M401.592,442.626a.306.306,0,0,1-.156-.043l-2.488-1.5a1.223,1.223,0,0,1,1.237-2.11l1.555.883a.3.3,0,0,1,.112.409.3.3,0,0,1-.409.113l-1.555-.883a.622.622,0,0,0-.629,1.074l2.488,1.5a.3.3,0,0,1-.155.557Z" fill="#ff988e"/>
          </g>
          <g id="Grupo_26665" data-name="Grupo 26665">
            <path id="Trazado_75257" data-name="Trazado 75257" d="M400.557,444.049a.3.3,0,0,1-.16-.045l-2.274-1.431a1.033,1.033,0,1,1,1.109-1.742l1.488.958a.3.3,0,1,1-.326.5l-1.487-.958a.433.433,0,0,0-.582.107.433.433,0,0,0,.117.623l2.275,1.431a.3.3,0,0,1-.16.553Z" fill="#ff988e"/>
          </g>
          <g id="Grupo_26666" data-name="Grupo 26666">
            <path id="Trazado_75258" data-name="Trazado 75258" d="M393.841,443.582a.31.31,0,0,1-.11-.021.3.3,0,0,1-.169-.388l.639-1.625a.676.676,0,0,0-1.1-.733l-.328.32a.3.3,0,0,1-.419-.429l.328-.321a1.276,1.276,0,0,1,2.078,1.381l-.639,1.625A.3.3,0,0,1,393.841,443.582Z" fill="#ff988e"/>
          </g>
          <g id="Grupo_26667" data-name="Grupo 26667">
            <path id="Trazado_75259" data-name="Trazado 75259" d="M395.572,444.588a.283.283,0,0,1-.106-.019.3.3,0,0,1-.175-.386l.865-2.292a.6.6,0,0,0-.187-.681.583.583,0,0,0-.452-.128.593.593,0,0,0-.407.237l-.393.527a.3.3,0,1,1-.481-.357l.393-.528a1.193,1.193,0,0,1,.812-.475,1.2,1.2,0,0,1,1.276,1.616l-.865,2.292A.3.3,0,0,1,395.572,444.588Z" fill="#ff988e"/>
          </g>
          <g id="Grupo_26668" data-name="Grupo 26668">
            <path id="Trazado_75260" data-name="Trazado 75260" d="M397.675,445.479h-.017a.3.3,0,0,1-.283-.316l.115-2.116a.386.386,0,0,0-.1-.287.4.4,0,0,0-.632.1l-.511,1.089a.3.3,0,0,1-.543-.254l.511-1.09a1.026,1.026,0,0,1,1.61-.259.987.987,0,0,1,.269.732l-.115,2.116A.3.3,0,0,1,397.675,445.479Z" fill="#ff988e"/>
          </g>
        </g>
      </g>
      <g id="Grupo_26671" data-name="Grupo 26671">
        <path id="Trazado_75261" data-name="Trazado 75261" d="M408.419,438.65l-2.141,2.193-4.544-5.87,2.274-1.761Z" fill="#545ece"/>
      </g>
      <g id="Grupo_26672" data-name="Grupo 26672">
        <path id="Trazado_75262" data-name="Trazado 75262" d="M388.96,436.839l1.783,2.023,4.684-4.616-1.646-1.873Z" fill="#545ece"/>
      </g>
    </g>
  </g>
</svg>
