<svg xmlns="http://www.w3.org/2000/svg" xmlns:xlink="http://www.w3.org/1999/xlink" width="388.109" height="289.434" viewBox="0 0 388.109 289.434">
  <defs>
    <linearGradient id="linear-gradient" x1="12.33" y1="-16.293" x2="13.329" y2="-16.293" gradientUnits="objectBoundingBox">
      <stop offset="0" stop-color="#2d4ded"/>
      <stop offset="1" stop-color="#e5cdeb"/>
    </linearGradient>
    <linearGradient id="linear-gradient-2" x1="11.77" y1="-15.399" x2="12.77" y2="-15.399" gradientUnits="objectBoundingBox">
      <stop offset="0" stop-color="#fff23a"/>
      <stop offset="0.04" stop-color="#fee52c"/>
      <stop offset="0.117" stop-color="#fdd41a"/>
      <stop offset="0.196" stop-color="#fdc90e"/>
      <stop offset="0.281" stop-color="#fdc60b"/>
      <stop offset="0.669" stop-color="#f28f3f"/>
      <stop offset="0.888" stop-color="#ed693c"/>
      <stop offset="1" stop-color="#e83e39"/>
    </linearGradient>
    <linearGradient id="linear-gradient-3" x1="10.967" y1="-16.09" x2="11.967" y2="-16.09" xlink:href="#linear-gradient"/>
    <linearGradient id="linear-gradient-4" x1="0.5" y1="1.75" x2="0.5" y2="0.368" gradientUnits="objectBoundingBox">
      <stop offset="0" stop-color="#ff0a33"/>
      <stop offset="0.281" stop-color="#fa2553"/>
      <stop offset="0.898" stop-color="#ee6ca6"/>
      <stop offset="1" stop-color="#ed79b5"/>
    </linearGradient>
  </defs>
  <g id="Grupo_25990" data-name="Grupo 25990" transform="translate(-205.248 -112.039)">
    <g id="Layer_1" data-name="Layer 1" transform="translate(205.248 112.039)">
      <g id="Grupo_25897" data-name="Grupo 25897">
        <g id="Grupo_25896" data-name="Grupo 25896">
          <path id="Trazado_67895" data-name="Trazado 67895" d="M225.884,204.543c3.512-5.126,7.694-8.962,11.965-12.917q2.043-1.892,4.225-3.613c.655-.516,1.3-1.021,1.946-1.528a67.459,67.459,0,0,1,28.229-13.179q.491-.1.985-.191c9.646-1.741,19.326-2.609,29.243-1.462a266.623,266.623,0,0,1,30.625,4.478q1.994.381,4.01.638a89.923,89.923,0,0,0,12.42,1c16.219.55,30.3-5.431,43.16-14.139a194.874,194.874,0,0,0,18.5-14.553c37.923-46.683,111.935-49.744,154.88-6.291a63.109,63.109,0,0,1,12.807,26.823c2.37,13.185-.055,25.469-4.268,37.481-1.4,4-3.006,7.978-4.7,11.945-5.113,11.789-11.285,23.907-9.508,37.071,2.666,19.746,13.838,35.7,20.6,54.864,10.727,30.307-13.755,57.57-41.687,61-4.516.7-8.762,1.053-13.24,1.565-22.416,1.693-41.831-9.8-62.483-18.05-12.408-4.663-25.9-5.84-37.788.954-24.765,13.586-46.825,29.6-73.826,35.735-3.9,1.049-7.826,1.95-11.768,2.679a110.023,110.023,0,0,1-35.35,1.176,83.451,83.451,0,0,1-13.67-3.1c-49.51-13.792-90.066-61.283-85.612-117.088a197.312,197.312,0,0,1,4.34-30.039,181.142,181.142,0,0,1,7.3-23.849c1.082-2.456,1.933-4.753,3.047-7.179A67.756,67.756,0,0,1,225.884,204.543Z" transform="translate(-205.248 -112.039)" fill="#a9dfe8"/>
          <g id="Grupo_25895" data-name="Grupo 25895" transform="translate(127.86 10.596)">
            <path id="Trazado_67896" data-name="Trazado 67896" d="M1385.682,1470.767a20.125,20.125,0,0,1,10.553-8.2,15.179,15.179,0,0,1,12.052.956,13.579,13.579,0,0,1,6.779,9.439,16.981,16.981,0,0,1-2.7,12.491,20.774,20.774,0,0,1-10.918,8.347,15.719,15.719,0,0,1-12.459-.8,12.69,12.69,0,0,1-6.412-9.59A18.581,18.581,0,0,1,1385.682,1470.767Z" transform="translate(-1286.583 -1215.871)" fill="#a9dfe8"/>
            <path id="Trazado_67897" data-name="Trazado 67897" d="M878.3,185.738c2.348-12.1,15.115-19.331,26.4-17.713a21.483,21.483,0,0,1,14.175,8.016,19.632,19.632,0,0,1-4.139,28.266c-9.659,6.838-23.11,4.432-31.312-3.738A17.115,17.115,0,0,1,878.3,185.738Z" transform="translate(-878.092 -167.8)" fill="#a9dfe8"/>
          </g>
        </g>
      </g>
      <g id="Grupo_25907" data-name="Grupo 25907" transform="translate(9.872 21.301)" opacity="0.56">
        <path id="Trazado_67898" data-name="Trazado 67898" d="M423.348,1400.68l-.742-.958,5.36-4.151a2.912,2.912,0,0,1,3.568,0l3.947,3.057a1.7,1.7,0,0,0,2.084,0l3.947-3.057a2.912,2.912,0,0,1,3.568,0l3.947,3.057a1.7,1.7,0,0,0,2.084,0l3.947-3.057a2.912,2.912,0,0,1,3.568,0l3.94,3.051a1.7,1.7,0,0,0,2.091-.005l5.285-4.138.747.954-5.285,4.138a2.911,2.911,0,0,1-3.58.009l-3.939-3.051a1.7,1.7,0,0,0-2.084,0l-3.947,3.057a2.912,2.912,0,0,1-3.568,0l-3.947-3.057a1.7,1.7,0,0,0-2.084,0l-3.947,3.057a2.912,2.912,0,0,1-3.568,0l-3.947-3.057a1.7,1.7,0,0,0-2.084,0Z" transform="translate(-391.173 -1172.079)" fill="#fff"/>
        <path id="Trazado_67899" data-name="Trazado 67899" d="M1797.327,1343.944l-.742-.958,5.36-4.152a2.912,2.912,0,0,1,3.567,0l3.947,3.057a1.7,1.7,0,0,0,2.084,0l3.947-3.057a2.913,2.913,0,0,1,3.568,0l3.947,3.057a1.7,1.7,0,0,0,2.084,0l3.947-3.057a2.912,2.912,0,0,1,3.568,0l3.94,3.051a1.7,1.7,0,0,0,2.091-.006l5.285-4.138.747.954-5.285,4.138a2.911,2.911,0,0,1-3.58.01l-3.94-3.052a1.7,1.7,0,0,0-2.084,0l-3.948,3.057a2.913,2.913,0,0,1-3.568,0l-3.947-3.057a1.7,1.7,0,0,0-2.084,0l-3.947,3.057a2.913,2.913,0,0,1-3.568,0l-3.948-3.057a1.7,1.7,0,0,0-2.084,0Z" transform="translate(-1504.057 -1126.124)" fill="#fff"/>
        <path id="Trazado_67900" data-name="Trazado 67900" d="M357.322,273.79a3.624,3.624,0,1,1,3.624-3.624A3.628,3.628,0,0,1,357.322,273.79Zm0-6.036a2.412,2.412,0,1,0,2.412,2.412A2.415,2.415,0,0,0,357.322,267.754Z" transform="translate(-335.36 -258.483)" fill="#fff"/>
        <path id="Trazado_67901" data-name="Trazado 67901" d="M636.818,642.522a1.668,1.668,0,1,1,1.667-1.668A1.669,1.669,0,0,1,636.818,642.522Zm0-2.123a.456.456,0,1,0,.456.456A.456.456,0,0,0,636.818,640.4Z" transform="translate(-563.329 -560.315)" fill="#fff"/>
        <path id="Trazado_67902" data-name="Trazado 67902" d="M778.6,1474.367a3.3,3.3,0,1,1,3.3-3.3A3.308,3.308,0,0,1,778.6,1474.367Zm0-5.4a2.092,2.092,0,1,0,2.092,2.092A2.095,2.095,0,0,0,778.6,1468.971Z" transform="translate(-676.843 -1231.434)" fill="#fff"/>
        <path id="Trazado_67903" data-name="Trazado 67903" d="M260.056,1239.372a2.86,2.86,0,1,1,2.86-2.86A2.864,2.864,0,0,1,260.056,1239.372Zm0-4.509a1.649,1.649,0,1,0,1.648,1.649A1.651,1.651,0,0,0,260.056,1234.863Z" transform="translate(-257.196 -1041.813)" fill="#fff"/>
        <path id="Trazado_67904" data-name="Trazado 67904" d="M2142.368,684.007a2.115,2.115,0,1,1,2.115-2.115A2.117,2.117,0,0,1,2142.368,684.007Zm0-3.018a.9.9,0,1,0,.9.9A.9.9,0,0,0,2142.368,680.989Z" transform="translate(-1782.418 -593.191)" fill="#fff"/>
        <path id="Trazado_67905" data-name="Trazado 67905" d="M1552.544,271.731a2.226,2.226,0,1,1,2.226-2.226A2.229,2.229,0,0,1,1552.544,271.731Zm0-3.52a1.294,1.294,0,1,0,1.294,1.294A1.3,1.3,0,0,0,1552.544,268.211Z" transform="translate(-1304.588 -259.08)" fill="#fff"/>
        <g id="Grupo_25900" data-name="Grupo 25900" transform="translate(129.076 0)">
          <g id="Grupo_25898" data-name="Grupo 25898" transform="translate(0)">
            <rect id="Rectángulo_25814" data-name="Rectángulo 25814" width="3.649" height="1.212" transform="translate(0 7.182) rotate(-45)" fill="#fff"/>
            <rect id="Rectángulo_25815" data-name="Rectángulo 25815" width="3.649" height="1.212" transform="translate(4.602 2.58) rotate(-45)" fill="#fff"/>
          </g>
          <g id="Grupo_25899" data-name="Grupo 25899" transform="translate(0 0)">
            <rect id="Rectángulo_25816" data-name="Rectángulo 25816" width="1.212" height="3.649" transform="translate(0 0.857) rotate(-45)" fill="#fff"/>
            <rect id="Rectángulo_25817" data-name="Rectángulo 25817" width="1.212" height="3.649" transform="translate(4.602 5.459) rotate(-45)" fill="#fff"/>
          </g>
        </g>
        <g id="Grupo_25903" data-name="Grupo 25903" transform="translate(211.908 200.997)">
          <g id="Grupo_25901" data-name="Grupo 25901" transform="translate(0 0)">
            <rect id="Rectángulo_25818" data-name="Rectángulo 25818" width="3.649" height="1.212" transform="translate(0 7.182) rotate(-45)" fill="#fff"/>
            <rect id="Rectángulo_25819" data-name="Rectángulo 25819" width="3.649" height="1.212" transform="translate(4.602 2.58) rotate(-45)" fill="#fff"/>
          </g>
          <g id="Grupo_25902" data-name="Grupo 25902" transform="translate(0 0)">
            <rect id="Rectángulo_25820" data-name="Rectángulo 25820" width="1.212" height="3.649" transform="translate(0 0.857) rotate(-45)" fill="#fff"/>
            <rect id="Rectángulo_25821" data-name="Rectángulo 25821" width="1.212" height="3.649" transform="translate(4.602 5.459) rotate(-45.002)" fill="#fff"/>
          </g>
        </g>
        <g id="Grupo_25906" data-name="Grupo 25906" transform="translate(287.537 81.38)">
          <g id="Grupo_25904" data-name="Grupo 25904" transform="translate(0 0)">
            <rect id="Rectángulo_25822" data-name="Rectángulo 25822" width="3.649" height="1.212" transform="translate(0 7.183) rotate(-45.006)" fill="#fff"/>
            <rect id="Rectángulo_25823" data-name="Rectángulo 25823" width="3.649" height="1.212" transform="translate(4.602 2.58) rotate(-45.006)" fill="#fff"/>
          </g>
          <g id="Grupo_25905" data-name="Grupo 25905" transform="translate(0 0)">
            <rect id="Rectángulo_25824" data-name="Rectángulo 25824" width="1.212" height="3.649" transform="translate(0 0.857) rotate(-45)" fill="#fff"/>
            <rect id="Rectángulo_25825" data-name="Rectángulo 25825" width="1.212" height="3.649" transform="translate(4.602 5.459) rotate(-45)" fill="#fff"/>
          </g>
        </g>
      </g>
    </g>
    <g id="Layer_3" data-name="Layer 3" transform="translate(215.323 112.566)">
      <g id="Grupo_25917" data-name="Grupo 25917" transform="translate(291.116 128.204)">
        <g id="Grupo_25908" data-name="Grupo 25908" transform="translate(0 0)">
          <rect id="Rectángulo_25826" data-name="Rectángulo 25826" width="64.287" height="75.33" transform="translate(26.499 2.206) rotate(19.974)" fill="#36367d" opacity="0.15" style="mix-blend-mode: multiply;isolation: isolate"/>
          <rect id="Rectángulo_25827" data-name="Rectángulo 25827" width="64.287" height="75.33" transform="translate(25.732 0) rotate(19.974)" fill="#f5f5f5"/>
        </g>
        <g id="Grupo_25916" data-name="Grupo 25916" transform="translate(15.338 19.139)">
          <g id="Grupo_25910" data-name="Grupo 25910" transform="translate(13.47)">
            <path id="Trazado_67906" data-name="Trazado 67906" d="M1944.6,896.938l-2.778-5.951,1.609-.751,1.971,4.221,7.658-4.273.865,1.551Z" transform="translate(-1941.826 -890.184)" fill="#05bd6b"/>
            <g id="Grupo_25909" data-name="Grupo 25909" transform="translate(13.89 3.31)">
              <rect id="Rectángulo_25828" data-name="Rectángulo 25828" width="1.776" height="29.067" transform="translate(1.543 1.669) rotate(-70.026)" fill="#d4d4d4"/>
              <rect id="Rectángulo_25829" data-name="Rectángulo 25829" width="1.776" height="20.328" transform="translate(0 5.914) rotate(-70.025)" fill="#d4d4d4"/>
            </g>
          </g>
          <g id="Grupo_25913" data-name="Grupo 25913" transform="translate(6.327 15.96)">
            <g id="Grupo_25911" data-name="Grupo 25911" transform="translate(0 0)">
              <rect id="Rectángulo_25830" data-name="Rectángulo 25830" width="10.612" height="1.776" transform="translate(0 6.876) rotate(-29.16)" fill="#ed295c"/>
              <rect id="Rectángulo_25831" data-name="Rectángulo 25831" width="1.776" height="10.612" transform="matrix(0.873, -0.487, 0.487, 0.873, 1.705, 0.865)" fill="#ed295c"/>
            </g>
            <g id="Grupo_25912" data-name="Grupo 25912" transform="translate(14.298 5.88)">
              <rect id="Rectángulo_25832" data-name="Rectángulo 25832" width="1.776" height="29.067" transform="translate(1.543 1.669) rotate(-70.026)" fill="#d4d4d4"/>
              <rect id="Rectángulo_25833" data-name="Rectángulo 25833" width="1.776" height="15.269" transform="matrix(0.342, -0.94, 0.94, 0.342, 0, 5.914)" fill="#d4d4d4"/>
            </g>
          </g>
          <g id="Grupo_25915" data-name="Grupo 25915" transform="translate(0 37.061)">
            <path id="Trazado_67907" data-name="Trazado 67907" d="M1873.719,1091.967l-2.778-5.951,1.609-.751,1.97,4.221,7.658-4.273.865,1.551Z" transform="translate(-1870.941 -1085.213)" fill="#05bd6b"/>
            <g id="Grupo_25914" data-name="Grupo 25914" transform="translate(13.89 3.31)">
              <rect id="Rectángulo_25834" data-name="Rectángulo 25834" width="1.776" height="7.616" transform="translate(1.543 1.669) rotate(-70.025)" fill="#d4d4d4"/>
              <rect id="Rectángulo_25835" data-name="Rectángulo 25835" width="1.776" height="23.786" transform="translate(0 5.914) rotate(-70.025)" fill="#d4d4d4"/>
            </g>
          </g>
        </g>
      </g>
      <g id="Grupo_25925" data-name="Grupo 25925" transform="translate(279.777 108.079)">
        <g id="Grupo_25918" data-name="Grupo 25918" transform="translate(0 0)">
          <path id="Trazado_67908" data-name="Trazado 67908" d="M1798.669,817.833,1730.9,803.4l16.222-76.183,64.835,28.221Z" transform="translate(-1730.832 -718.923)" fill="#363636" opacity="0.19" style="mix-blend-mode: multiply;isolation: isolate"/>
          <rect id="Rectángulo_25836" data-name="Rectángulo 25836" width="68.058" height="84.962" transform="matrix(0.978, 0.208, -0.208, 0.978, 17.695, 0)" fill="#f5f5f5"/>
        </g>
        <g id="Grupo_25924" data-name="Grupo 25924" transform="translate(14.693 21.377)">
          <g id="Grupo_25920" data-name="Grupo 25920" transform="translate(3.336 29.522)">
            <path id="Trazado_67909" data-name="Trazado 67909" d="M1828.971,959.215l-3.544-5.462,1.513-.982,2.489,3.836,6.866-5.2,1.088,1.438Z" transform="translate(-1825.427 -951.412)" fill="#05bd6b"/>
            <g id="Grupo_25919" data-name="Grupo 25919" transform="translate(14.66 2.573)">
              <rect id="Rectángulo_25837" data-name="Rectángulo 25837" width="1.804" height="28.607" transform="translate(0.924 1.764) rotate(-77.979)" fill="#d4d4d4"/>
              <rect id="Rectángulo_25838" data-name="Rectángulo 25838" width="1.804" height="20.025" transform="matrix(0.208, -0.978, 0.978, 0.208, 0, 6.103)" fill="#d4d4d4"/>
            </g>
          </g>
          <g id="Grupo_25921" data-name="Grupo 25921" transform="translate(7.31 0)">
            <rect id="Rectángulo_25839" data-name="Rectángulo 25839" width="6.177" height="11.183" transform="translate(2.329 5.959) rotate(12.021)" fill="#f55179"/>
            <rect id="Rectángulo_25840" data-name="Rectángulo 25840" width="6.177" height="14.146" transform="translate(11.993 4.987) rotate(12.021)" fill="#f55179"/>
            <rect id="Rectángulo_25841" data-name="Rectángulo 25841" width="6.177" height="17.497" transform="translate(21.739 3.636) rotate(12.021)" fill="#f55179"/>
            <rect id="Rectángulo_25842" data-name="Rectángulo 25842" width="6.177" height="20.525" transform="translate(31.417 2.601) rotate(12.021)" fill="#f55179"/>
            <rect id="Rectángulo_25843" data-name="Rectángulo 25843" width="6.177" height="25.154" transform="translate(41.428 0) rotate(12.021)" fill="#f55179"/>
          </g>
          <g id="Grupo_25923" data-name="Grupo 25923" transform="translate(0 45.189)">
            <path id="Trazado_67910" data-name="Trazado 67910" d="M1811.415,1041.66l-3.544-5.462,1.513-.982,2.489,3.836,6.866-5.2,1.088,1.438Z" transform="translate(-1807.871 -1033.856)" fill="#05bd6b"/>
            <g id="Grupo_25922" data-name="Grupo 25922" transform="translate(14.66 2.573)">
              <rect id="Rectángulo_25844" data-name="Rectángulo 25844" width="1.804" height="28.607" transform="translate(0.924 1.764) rotate(-77.979)" fill="#d4d4d4"/>
              <rect id="Rectángulo_25845" data-name="Rectángulo 25845" width="1.804" height="23.421" transform="translate(0 6.103) rotate(-77.979)" fill="#d4d4d4"/>
            </g>
          </g>
        </g>
      </g>
      <g id="Grupo_25926" data-name="Grupo 25926" transform="translate(128.723 252.636)">
        <path id="Trazado_67911" data-name="Trazado 67911" d="M945.612,1473.481l-9.959-3.74,9.959-3.74h110.162v7.479Z" transform="translate(-935.653 -1461.873)" fill="#36367d" opacity="0.15" style="mix-blend-mode: multiply;isolation: isolate"/>
        <rect id="Rectángulo_25846" data-name="Rectángulo 25846" width="7.479" height="110.162" transform="translate(122.189 0) rotate(90)" fill="#3d5473"/>
        <path id="Trazado_67912" data-name="Trazado 67912" d="M998.942,1467.692v-3.74H1109.1v3.74Z" transform="translate(-986.915 -1460.212)" fill="#081b33" opacity="0.17" style="mix-blend-mode: multiply;isolation: isolate"/>
        <path id="Trazado_67913" data-name="Trazado 67913" d="M946.654,1450.336v-.8l9.936-2.831v6.465Z" transform="translate(-944.563 -1446.24)" fill="#fff"/>
        <path id="Trazado_67914" data-name="Trazado 67914" d="M940.129,1459.643h0a.175.175,0,0,1,.14-.158l2.795-.8v1.909l-2.795-.8A.175.175,0,0,1,940.129,1459.643Z" transform="translate(-939.278 -1455.949)" fill="#42474d"/>
      </g>
      <g id="Grupo_25944" data-name="Grupo 25944" transform="translate(0 120.207)">
        <g id="Grupo_25932" data-name="Grupo 25932" transform="translate(7.251 9.277)">
          <path id="Trazado_67915" data-name="Trazado 67915" d="M393.722,897.385l-43.657,13.335a2.926,2.926,0,0,1-3.653-1.943L320.987,825.54a2.926,2.926,0,0,1,1.943-3.653l43.657-13.336a2.926,2.926,0,0,1,3.653,1.943l25.426,83.237A2.926,2.926,0,0,1,393.722,897.385Z" transform="translate(-316.215 -806.101)" fill="#36367d" opacity="0.15" style="mix-blend-mode: multiply;isolation: isolate"/>
          <path id="Trazado_67916" data-name="Trazado 67916" d="M369.286,885.167,325.63,898.5a2.926,2.926,0,0,1-3.653-1.943l-25.426-83.238a2.926,2.926,0,0,1,1.943-3.653l43.657-13.335a2.926,2.926,0,0,1,3.653,1.943l25.426,83.237A2.926,2.926,0,0,1,369.286,885.167Z" transform="translate(-296.422 -796.205)" fill="#534a59"/>
          <g id="Grupo_25931" data-name="Grupo 25931" transform="translate(5.342 5.622)" opacity="0.14">
            <g id="Grupo_25927" data-name="Grupo 25927" transform="translate(0 9.159)">
              <line id="Línea_436" data-name="Línea 436" y1="2.856" x2="9.351" transform="translate(0.463 0.463)" fill="#f06698"/>
              <path id="Trazado_67917" data-name="Trazado 67917" d="M325,877.769a.463.463,0,0,1-.135-.905l9.351-2.857a.463.463,0,1,1,.27.885l-9.351,2.857A.465.465,0,0,1,325,877.769Z" transform="translate(-324.536 -873.987)" fill="#fff"/>
            </g>
            <g id="Grupo_25928" data-name="Grupo 25928" transform="translate(33.149 80.65)">
              <line id="Línea_437" data-name="Línea 437" y1="6.31" x2="20.657" transform="translate(0.463 0.463)" fill="#f06698"/>
              <path id="Trazado_67918" data-name="Trazado 67918" d="M499.439,1257.435a.462.462,0,0,1-.135-.9l20.657-6.31a.463.463,0,0,1,.27.885l-20.657,6.31A.465.465,0,0,1,499.439,1257.435Z" transform="translate(-498.976 -1250.2)" fill="#fff"/>
            </g>
            <g id="Grupo_25929" data-name="Grupo 25929" transform="translate(34.661)">
              <line id="Línea_438" data-name="Línea 438" y1="1.428" x2="4.676" transform="translate(0.463 0.463)" fill="#f06698"/>
              <path id="Trazado_67919" data-name="Trazado 67919" d="M507.4,828.142a.463.463,0,0,1-.135-.905l4.676-1.428a.463.463,0,0,1,.27.885l-4.676,1.428A.465.465,0,0,1,507.4,828.142Z" transform="translate(-506.933 -825.789)" fill="#fff"/>
            </g>
            <g id="Grupo_25930" data-name="Grupo 25930" transform="translate(31.275 1.893)">
              <line id="Línea_439" data-name="Línea 439" y1="0.569" x2="1.863" transform="translate(0.463 0.463)" fill="#f06698"/>
              <path id="Trazado_67920" data-name="Trazado 67920" d="M489.581,837.246a.463.463,0,0,1-.135-.905l1.863-.569a.463.463,0,1,1,.27.885l-1.863.569A.459.459,0,0,1,489.581,837.246Z" transform="translate(-489.118 -835.751)" fill="#fff"/>
            </g>
          </g>
        </g>
        <g id="Grupo_25942" data-name="Grupo 25942" transform="translate(0 25.524)">
          <g id="Grupo_25935" data-name="Grupo 25935">
            <path id="Trazado_67921" data-name="Trazado 67921" d="M316.322,890.087l-41.166,12.575a1.806,1.806,0,0,0-1.2,2.255l4.022,13.167a1.806,1.806,0,0,0,2.255,1.2l32.446-9.911,4.587,1.743-.787-2.9,4.921-1.5a1.806,1.806,0,0,0,1.2-2.255l-4.022-13.166A1.807,1.807,0,0,0,316.322,890.087Z" transform="translate(-270.91 -888.43)" fill="#363636" opacity="0.19" style="mix-blend-mode: multiply;isolation: isolate"/>
            <path id="Trazado_67922" data-name="Trazado 67922" d="M300.711,881.782l-41.166,12.575a1.807,1.807,0,0,0-1.2,2.255l4.022,13.167a1.806,1.806,0,0,0,2.255,1.2l32.446-9.911,4.587,1.743-.787-2.9,4.921-1.5a1.806,1.806,0,0,0,1.2-2.255l-4.022-13.167A1.807,1.807,0,0,0,300.711,881.782Z" transform="translate(-258.266 -881.703)" fill="#f5f5f5"/>
            <g id="Grupo_25933" data-name="Grupo 25933" transform="translate(18.132 6.694)">
              <rect id="Rectángulo_25847" data-name="Rectángulo 25847" width="23.987" height="1.084" transform="translate(0 7.008) rotate(-16.988)" fill="#d4d4d4"/>
              <rect id="Rectángulo_25848" data-name="Rectángulo 25848" width="9.342" height="1.084" transform="translate(1.107 10.633) rotate(-16.988)" fill="#d4d4d4"/>
            </g>
            <g id="Grupo_25934" data-name="Grupo 25934" transform="translate(5.871 13.593)">
              <path id="Trazado_67923" data-name="Trazado 67923" d="M289.709,955.835a4.829,4.829,0,1,0,6.513-2.054A4.828,4.828,0,0,0,289.709,955.835Z" transform="translate(-289.162 -953.235)" opacity="0.64" fill="url(#linear-gradient)"/>
              <path id="Trazado_67924" data-name="Trazado 67924" d="M306.22,966.888a1.19,1.19,0,1,1,1.485.79A1.19,1.19,0,0,1,306.22,966.888Zm4.1,1.985-.588-.4a2.191,2.191,0,0,0-3.265,1l-.262.654a.347.347,0,0,0,.366.473,14.527,14.527,0,0,0,3.715-1.131A.346.346,0,0,0,310.321,968.873Z" transform="translate(-302.937 -963.048)" fill="#fff"/>
            </g>
          </g>
          <g id="Grupo_25938" data-name="Grupo 25938" transform="translate(30.122 13.83)">
            <path id="Trazado_67925" data-name="Trazado 67925" d="M418.06,982.746l41.166-12.575a1.806,1.806,0,0,1,2.255,1.2l4.022,13.166a1.806,1.806,0,0,1-1.2,2.255L431.858,996.7l-2.83,4.009-.97-2.848-4.921,1.5a1.806,1.806,0,0,1-2.255-1.2L416.86,985A1.806,1.806,0,0,1,418.06,982.746Z" transform="translate(-416.781 -967.125)" fill="#363636" opacity="0.19" style="mix-blend-mode: multiply;isolation: isolate"/>
            <path id="Trazado_67926" data-name="Trazado 67926" d="M426.366,967.135l41.166-12.575a1.806,1.806,0,0,1,2.255,1.2l4.022,13.167a1.806,1.806,0,0,1-1.2,2.255l-32.446,9.911-2.83,4.009-.97-2.848-4.92,1.5a1.806,1.806,0,0,1-2.255-1.2l-4.022-13.167A1.806,1.806,0,0,1,426.366,967.135Z" transform="translate(-423.508 -954.481)" fill="#f5f5f5"/>
            <g id="Grupo_25936" data-name="Grupo 25936" transform="translate(19.692 6.699)">
              <rect id="Rectángulo_25849" data-name="Rectángulo 25849" width="23.987" height="1.084" transform="translate(0 7.008) rotate(-16.988)" fill="#d4d4d4"/>
              <rect id="Rectángulo_25850" data-name="Rectángulo 25850" width="18.275" height="1.084" transform="translate(1.107 10.633) rotate(-16.988)" fill="#d4d4d4"/>
            </g>
            <g id="Grupo_25937" data-name="Grupo 25937" transform="translate(6.286 12.454)">
              <circle id="Elipse_1799" data-name="Elipse 1799" cx="4.829" cy="4.829" r="4.829" transform="translate(0 2.665) rotate(-16.019)" fill="url(#linear-gradient-2)"/>
              <path id="Trazado_67927" data-name="Trazado 67927" d="M472.942,1039.7a1.19,1.19,0,1,1,1.485.79A1.19,1.19,0,0,1,472.942,1039.7Zm4.1,1.985-.588-.4a2.191,2.191,0,0,0-3.265,1l-.262.654a.346.346,0,0,0,.366.473,14.528,14.528,0,0,0,3.715-1.131A.346.346,0,0,0,477.043,1041.682Z" transform="translate(-468.514 -1034.712)" fill="#fff"/>
            </g>
          </g>
          <g id="Grupo_25941" data-name="Grupo 25941" transform="translate(13.161 43.086)">
            <path id="Trazado_67928" data-name="Trazado 67928" d="M385.582,1116.823,344.416,1129.4a1.806,1.806,0,0,0-1.2,2.255l4.022,13.166a1.807,1.807,0,0,0,2.255,1.2l32.446-9.911,4.587,1.743-.787-2.9,4.921-1.5a1.806,1.806,0,0,0,1.2-2.255l-4.022-13.166A1.806,1.806,0,0,0,385.582,1116.823Z" transform="translate(-340.17 -1115.166)" fill="#363636" opacity="0.19" style="mix-blend-mode: multiply;isolation: isolate"/>
            <path id="Trazado_67929" data-name="Trazado 67929" d="M369.971,1108.518,328.8,1121.093a1.806,1.806,0,0,0-1.2,2.255l4.022,13.167a1.806,1.806,0,0,0,2.255,1.2l32.446-9.911,4.587,1.743-.787-2.9,4.921-1.5a1.806,1.806,0,0,0,1.2-2.255l-4.022-13.167A1.806,1.806,0,0,0,369.971,1108.518Z" transform="translate(-327.526 -1108.439)" fill="#f5f5f5"/>
            <g id="Grupo_25939" data-name="Grupo 25939" transform="translate(18.132 6.694)">
              <rect id="Rectángulo_25851" data-name="Rectángulo 25851" width="23.987" height="1.084" transform="translate(0 7.008) rotate(-16.988)" fill="#d4d4d4"/>
              <rect id="Rectángulo_25852" data-name="Rectángulo 25852" width="12.535" height="1.084" transform="translate(1.107 10.633) rotate(-16.988)" fill="#d4d4d4"/>
            </g>
            <g id="Grupo_25940" data-name="Grupo 25940" transform="translate(5.871 13.593)">
              <path id="Trazado_67930" data-name="Trazado 67930" d="M358.969,1182.571a4.829,4.829,0,1,0,6.513-2.054A4.828,4.828,0,0,0,358.969,1182.571Z" transform="translate(-358.422 -1179.971)" opacity="0.64" fill="url(#linear-gradient-3)"/>
              <path id="Trazado_67931" data-name="Trazado 67931" d="M375.48,1193.624a1.19,1.19,0,1,1,1.485.79A1.19,1.19,0,0,1,375.48,1193.624Zm4.1,1.985-.588-.4a2.191,2.191,0,0,0-3.265,1l-.262.654a.346.346,0,0,0,.366.473,14.528,14.528,0,0,0,3.715-1.131A.346.346,0,0,0,379.581,1195.609Z" transform="translate(-372.197 -1189.784)" fill="#fff"/>
            </g>
          </g>
        </g>
        <g id="Grupo_25943" data-name="Grupo 25943" transform="translate(53.669 0)">
          <rect id="Rectángulo_25853" data-name="Rectángulo 25853" width="0.912" height="3.589" transform="matrix(0.953, -0.303, 0.303, 0.953, 0, 1.482)" fill="#fff"/>
          <rect id="Rectángulo_25854" data-name="Rectángulo 25854" width="5.335" height="0.912" transform="translate(3.372 4.737) rotate(-62.6)" fill="#fff"/>
          <rect id="Rectángulo_25855" data-name="Rectángulo 25855" width="3.589" height="0.912" transform="translate(5.271 6.41) rotate(-16.982)" fill="#fff"/>
        </g>
      </g>
      <g id="Grupo_25952" data-name="Grupo 25952" transform="translate(1.281 27.364)">
        <g id="Grupo_25947" data-name="Grupo 25947" transform="translate(4.917 11.309)" opacity="0.14">
          <g id="Grupo_25945" data-name="Grupo 25945" transform="translate(0 2.743)">
            <path id="Trazado_67932" data-name="Trazado 67932" d="M292.426,420.654a1.54,1.54,0,0,1-.86-2.819l62.607-42.05,20.671,3.425a1.54,1.54,0,1,1-.5,3.039l-19.465-3.225-61.592,41.368A1.533,1.533,0,0,1,292.426,420.654Z" transform="translate(-290.884 -367.608)" fill="#4d4d4d"/>
            <path id="Trazado_67933" data-name="Trazado 67933" d="M333.354,397.385a1.542,1.542,0,0,1-1.5-1.882l4.648-20.431,62.607-42.05a1.54,1.54,0,0,1,1.718,2.557l-61.592,41.369-4.377,19.238A1.541,1.541,0,0,1,333.354,397.385Z" transform="translate(-324.035 -332.759)" fill="#4d4d4d"/>
          </g>
          <g id="Grupo_25946" data-name="Grupo 25946" transform="translate(2.067)">
            <path id="Trazado_67934" data-name="Trazado 67934" d="M320.493,502.806a18.872,18.872,0,0,1-3.643-.356,18.7,18.7,0,1,1,19.127-28.775h0a18.707,18.707,0,0,1-15.484,29.131Zm-.071-34.328a15.625,15.625,0,1,0,13,6.915h0a15.516,15.516,0,0,0-9.955-6.617A15.782,15.782,0,0,0,320.421,468.477Z" transform="translate(-301.76 -437.448)" fill="#4d4d4d"/>
            <path id="Trazado_67935" data-name="Trazado 67935" d="M539.54,355.712a18.692,18.692,0,1,1,10.4-3.171A18.695,18.695,0,0,1,539.54,355.712Zm-.061-34.317a15.667,15.667,0,1,0,3.043.3A15.782,15.782,0,0,0,539.479,321.4Z" transform="translate(-479.191 -318.325)" fill="#4d4d4d"/>
          </g>
          <path id="Trazado_67936" data-name="Trazado 67936" d="M411.984,413.4a1.3,1.3,0,0,1-1.149-1.915l.529-.994a24.858,24.858,0,0,1,21.947-13.2h0a1.3,1.3,0,0,1,0,2.6,22.258,22.258,0,0,0-19.651,11.822l-.529.995A1.3,1.3,0,0,1,411.984,413.4Z" transform="translate(-387.917 -382.286)" fill="#4d4d4d"/>
        </g>
        <g id="Grupo_25951" data-name="Grupo 25951">
          <g id="Grupo_25948" data-name="Grupo 25948" transform="translate(0 8.594)">
            <path id="Trazado_67937" data-name="Trazado 67937" d="M266.6,394.866a1.592,1.592,0,0,1-.889-2.914l64.7-43.456,21.362,3.539a1.592,1.592,0,1,1-.52,3.141l-20.116-3.333L267.489,394.6A1.584,1.584,0,0,1,266.6,394.866Z" transform="translate(-265.01 -340.048)" fill="#626b82"/>
            <path id="Trazado_67938" data-name="Trazado 67938" d="M308.9,370.819a1.593,1.593,0,0,1-1.553-1.945l4.8-21.114,64.7-43.456a1.592,1.592,0,0,1,1.775,2.643L314.973,349.7,310.45,369.58A1.593,1.593,0,0,1,308.9,370.819Z" transform="translate(-299.268 -304.034)" fill="#626b82"/>
          </g>
          <g id="Grupo_25949" data-name="Grupo 25949" transform="translate(3.72)" opacity="0.51">
            <path id="Trazado_67939" data-name="Trazado 67939" d="M317.04,457.349a17.733,17.733,0,1,1-11.3-7.513A17.733,17.733,0,0,1,317.04,457.349Z" transform="translate(-284.585 -413.265)" fill="#fff"/>
            <circle id="Elipse_1800" data-name="Elipse 1800" cx="17.733" cy="17.733" r="17.733" transform="translate(35.675 25.078) rotate(-45)" fill="#fff"/>
          </g>
          <g id="Grupo_25950" data-name="Grupo 25950" transform="translate(2.513 6.148)">
            <path id="Trazado_67940" data-name="Trazado 67940" d="M297.205,481.022a18.932,18.932,0,1,1,15.69-29.487h0a18.927,18.927,0,0,1-15.69,29.487Zm-.063-35.464a16.534,16.534,0,1,0,13.756,7.318h0a16.423,16.423,0,0,0-10.536-7A16.706,16.706,0,0,0,297.142,445.558Z" transform="translate(-278.236 -414.27)" fill="#626b82"/>
            <path id="Trazado_67941" data-name="Trazado 67941" d="M523.595,329.035a19.125,19.125,0,0,1-3.689-.361,18.935,18.935,0,1,1,19.368-29.138h0a18.943,18.943,0,0,1-15.679,29.5Zm-.064-35.466a16.523,16.523,0,1,0,13.747,7.308A16.434,16.434,0,0,0,523.531,293.569Z" transform="translate(-461.596 -291.164)" fill="#626b82"/>
          </g>
          <path id="Trazado_67942" data-name="Trazado 67942" d="M390.767,387.84a1.2,1.2,0,0,1-1.061-1.768l.547-1.028a25.546,25.546,0,0,1,22.554-13.569h0a1.2,1.2,0,0,1,0,2.405,23.145,23.145,0,0,0-20.434,12.293l-.547,1.028A1.2,1.2,0,0,1,390.767,387.84Z" transform="translate(-365.896 -350.066)" fill="#626b82"/>
        </g>
      </g>
      <g id="Grupo_25956" data-name="Grupo 25956" transform="translate(256.567 0)">
        <g id="Grupo_25955" data-name="Grupo 25955" transform="translate(34.39 17.079)">
          <circle id="Elipse_1801" data-name="Elipse 1801" cx="37.949" cy="37.949" r="37.949" transform="translate(4.366 5.32)" fill="#36367d" opacity="0.15" style="mix-blend-mode: multiply;isolation: isolate"/>
          <circle id="Elipse_1802" data-name="Elipse 1802" cx="37.949" cy="37.949" r="37.949" fill="#ebebeb"/>
          <g id="Grupo_25953" data-name="Grupo 25953" transform="translate(55.308 50.221)">
            <line id="Línea_440" data-name="Línea 440" x2="11.266" y2="8.047" transform="translate(2.04 2.04)" fill="#fff"/>
            <path id="Trazado_67943" data-name="Trazado 67943" d="M2093.744,481.1a2.03,2.03,0,0,1-1.184-.38l-11.266-8.047a2.04,2.04,0,1,1,2.371-3.32l11.266,8.047a2.04,2.04,0,0,1-1.187,3.7Z" transform="translate(-2080.439 -468.971)" fill="#fff"/>
          </g>
          <circle id="Elipse_1803" data-name="Elipse 1803" cx="25.3" cy="25.3" r="25.3" transform="translate(12.649 12.649)" fill="#fff"/>
          <circle id="Elipse_1804" data-name="Elipse 1804" cx="21.063" cy="21.063" r="21.063" transform="translate(16.886 16.886)" fill="#b38a5d"/>
          <path id="Trazado_67944" data-name="Trazado 67944" d="M1922.639,350.868c0,10.132-9.119,18.346-20.368,18.346S1881.9,361,1881.9,350.868c0-6.687,2.845-11.119,8.78-14.325,3.058-1.652,8.788,0,12.613,0,4.736,0,6.564-2.072,10.024.37a16.962,16.962,0,0,1,4.247,3.773C1919.74,343.6,1922.639,347.09,1922.639,350.868Z" transform="translate(-1864.322 -310.822)" fill="#61370b"/>
          <g id="Grupo_25954" data-name="Grupo 25954" transform="translate(23.405 28.533)">
            <circle id="Elipse_1805" data-name="Elipse 1805" cx="2.512" cy="2.512" r="2.512" transform="matrix(0.744, -0.669, 0.669, 0.744, 0, 4.591)" fill="#b38a5d"/>
            <circle id="Elipse_1806" data-name="Elipse 1806" cx="1.666" cy="1.666" r="1.666" transform="translate(6.494 2.943) rotate(-62.05)" fill="#b38a5d"/>
          </g>
        </g>
        <circle id="Elipse_1807" data-name="Elipse 1807" cx="16.252" cy="16.252" r="16.252" transform="translate(36.008 33.278)" fill="#fff" opacity="0.23"/>
        <ellipse id="Elipse_1808" data-name="Elipse 1808" cx="31.274" cy="23.97" rx="31.274" ry="23.97" transform="translate(0 41.241) rotate(-41.251)" fill="#fff" opacity="0.23"/>
      </g>
      <g id="Grupo_25983" data-name="Grupo 25983" transform="translate(112.237 52.634)">
        <g id="Grupo_25966" data-name="Grupo 25966" transform="translate(19.834 23.788)">
          <g id="Grupo_25957" data-name="Grupo 25957" transform="translate(0)">
            <rect id="Rectángulo_25856" data-name="Rectángulo 25856" width="126.389" height="148.101" transform="translate(22.804 3.546) rotate(7.953)" fill="#36367d" opacity="0.15" style="mix-blend-mode: multiply;isolation: isolate"/>
            <rect id="Rectángulo_25857" data-name="Rectángulo 25857" width="126.389" height="148.101" transform="translate(20.492) rotate(7.953)" fill="#f5f5f5"/>
          </g>
          <g id="Grupo_25965" data-name="Grupo 25965" transform="translate(23.845 30.942)">
            <g id="Grupo_25959" data-name="Grupo 25959" transform="translate(10.727)">
              <path id="Trazado_67945" data-name="Trazado 67945" d="M1142.981,696.248l-7.779-10.3,2.787-2.1,5.518,7.31,12.976-11.352,2.3,2.628Z" transform="translate(-1135.202 -679.798)" fill="#05bd6b"/>
              <g id="Grupo_25958" data-name="Grupo 25958" transform="translate(30.156 4.399)">
                <rect id="Rectángulo_25858" data-name="Rectángulo 25858" width="3.491" height="57.146" transform="translate(1.229 3.458) rotate(-82.047)" fill="#d4d4d4"/>
                <rect id="Rectángulo_25859" data-name="Rectángulo 25859" width="3.491" height="39.966" transform="translate(0 12.253) rotate(-82.047)" fill="#d4d4d4"/>
              </g>
            </g>
            <g id="Grupo_25962" data-name="Grupo 25962" transform="translate(6.012 36.883)">
              <g id="Grupo_25960" data-name="Grupo 25960" transform="translate(0 0)">
                <rect id="Rectángulo_25860" data-name="Rectángulo 25860" width="20.863" height="3.491" transform="translate(0 14.555) rotate(-41.18)" fill="#ed295c"/>
                <rect id="Rectángulo_25861" data-name="Rectángulo 25861" width="3.491" height="20.863" transform="matrix(0.753, -0.658, 0.658, 0.753, 0.818, 2.299)" fill="#ed295c"/>
              </g>
              <g id="Grupo_25961" data-name="Grupo 25961" transform="translate(29.507 5.906)">
                <rect id="Rectángulo_25862" data-name="Rectángulo 25862" width="3.491" height="57.146" transform="translate(1.229 3.458) rotate(-82.047)" fill="#d4d4d4"/>
                <rect id="Rectángulo_25863" data-name="Rectángulo 25863" width="3.491" height="30.02" transform="matrix(0.138, -0.99, 0.99, 0.138, 0, 12.253)" fill="#d4d4d4"/>
              </g>
            </g>
            <g id="Grupo_25964" data-name="Grupo 25964" transform="translate(0 76.781)">
              <path id="Trazado_67946" data-name="Trazado 67946" d="M1086.532,1100.3l-7.779-10.3,2.786-2.1,5.518,7.31,12.976-11.352,2.3,2.628Z" transform="translate(-1078.753 -1083.846)" fill="#05bd6b"/>
              <g id="Grupo_25963" data-name="Grupo 25963" transform="translate(30.156 4.399)">
                <rect id="Rectángulo_25864" data-name="Rectángulo 25864" width="3.491" height="14.974" transform="translate(1.229 3.458) rotate(-82.047)" fill="#d4d4d4"/>
                <rect id="Rectángulo_25865" data-name="Rectángulo 25865" width="3.491" height="46.764" transform="translate(0 12.253) rotate(-82.047)" fill="#d4d4d4"/>
              </g>
            </g>
          </g>
        </g>
        <g id="Grupo_25982" data-name="Grupo 25982">
          <g id="Grupo_25967" data-name="Grupo 25967" transform="translate(2.108 11.052)" opacity="0.4">
            <path id="Trazado_67947" data-name="Trazado 67947" d="M988.147,600.122H859.99V449.95l128.157,25.3Z" transform="translate(-859.99 -449.95)" fill="#363636" opacity="0.19" style="mix-blend-mode: multiply;isolation: isolate"/>
          </g>
          <g id="Grupo_25981" data-name="Grupo 25981">
            <g id="Grupo_25975" data-name="Grupo 25975">
              <g id="Grupo_25974" data-name="Grupo 25974">
                <g id="Grupo_25968" data-name="Grupo 25968">
                  <rect id="Rectángulo_25866" data-name="Rectángulo 25866" width="126.799" height="158.597" fill="#f5f5f5"/>
                </g>
                <g id="Grupo_25973" data-name="Grupo 25973" transform="translate(22.997 90.619)">
                  <g id="Grupo_25970" data-name="Grupo 25970">
                    <path id="Trazado_67948" data-name="Trazado 67948" d="M978.161,885.063l-8.245-8.245,2.207-2.207L978,880.483l10.229-11.823,2.36,2.042Z" transform="translate(-969.916 -868.661)" fill="#05bd6b"/>
                    <g id="Grupo_25969" data-name="Grupo 25969" transform="translate(28.389 2.613)">
                      <rect id="Rectángulo_25867" data-name="Rectángulo 25867" width="51.77" height="3.121" fill="#d4d4d4"/>
                      <rect id="Rectángulo_25868" data-name="Rectángulo 25868" width="36.193" height="3.121" transform="translate(0 8.052)" fill="#d4d4d4"/>
                    </g>
                  </g>
                  <g id="Grupo_25972" data-name="Grupo 25972" transform="translate(0 29.073)">
                    <path id="Trazado_67949" data-name="Trazado 67949" d="M978.161,1038.054l-8.245-8.245,2.207-2.207,5.873,5.873,10.229-11.823,2.36,2.042Z" transform="translate(-969.916 -1021.652)" fill="#05bd6b"/>
                    <g id="Grupo_25971" data-name="Grupo 25971" transform="translate(28.389 2.613)">
                      <rect id="Rectángulo_25869" data-name="Rectángulo 25869" width="51.77" height="3.121" fill="#d4d4d4"/>
                      <rect id="Rectángulo_25870" data-name="Rectángulo 25870" width="42.357" height="3.121" transform="translate(0 8.052)" fill="#d4d4d4"/>
                    </g>
                  </g>
                </g>
              </g>
            </g>
            <g id="Grupo_25980" data-name="Grupo 25980" transform="translate(24.516 5.565)">
              <g id="Grupo_25979" data-name="Grupo 25979" transform="translate(0 0)">
                <circle id="Elipse_1809" data-name="Elipse 1809" cx="27.956" cy="27.956" r="27.956" transform="translate(0 39.536) rotate(-45)" fill="url(#linear-gradient-4)"/>
                <g id="Grupo_25978" data-name="Grupo 25978" transform="translate(21.24 21.24)">
                  <g id="Grupo_25976" data-name="Grupo 25976" transform="translate(0 15.07)">
                    <line id="Línea_441" data-name="Línea 441" x2="36.592" transform="translate(0 3.226)" fill="#fff"/>
                    <rect id="Rectángulo_25871" data-name="Rectángulo 25871" width="36.592" height="6.452" transform="translate(0)" fill="#fff"/>
                  </g>
                  <g id="Grupo_25977" data-name="Grupo 25977" transform="translate(15.07)">
                    <line id="Línea_442" data-name="Línea 442" y2="36.592" transform="translate(3.226 0)" fill="#fff"/>
                    <rect id="Rectángulo_25872" data-name="Rectángulo 25872" width="6.452" height="36.592" fill="#fff"/>
                  </g>
                </g>
              </g>
            </g>
          </g>
        </g>
      </g>
      <g id="Grupo_25987" data-name="Grupo 25987" transform="translate(180.155 117.645)">
        <g id="Grupo_25985" data-name="Grupo 25985" transform="translate(1.326 10.609)" opacity="0.2" style="mix-blend-mode: multiply;isolation: isolate">
          <g id="Grupo_25984" data-name="Grupo 25984" transform="translate(5.278 5.278)" opacity="0.59">
            <path id="Trazado_67950" data-name="Trazado 67950" d="M1275.415,885.863a34,34,0,1,0-34-34A33.9,33.9,0,0,0,1275.415,885.863Z" transform="translate(-1241.346 -817.792)" fill="#fff"/>
            <path id="Trazado_67951" data-name="Trazado 67951" d="M1275.132,885.647a34.069,34.069,0,1,1,24.09-9.978A34.107,34.107,0,0,1,1275.132,885.647Zm0-68a33.936,33.936,0,1,0,33.936,33.936A33.975,33.975,0,0,0,1275.132,817.642Z" transform="translate(-1241.063 -817.509)" fill="#363636"/>
          </g>
          <path id="Trazado_67952" data-name="Trazado 67952" d="M1252.634,868.427a39.347,39.347,0,1,1,27.823-11.524A39.392,39.392,0,0,1,1252.634,868.427Zm0-68.005a28.658,28.658,0,1,0,28.658,28.658A28.69,28.69,0,0,0,1252.634,800.422Z" transform="translate(-1213.287 -789.733)" fill="#363636"/>
          <rect id="Rectángulo_25873" data-name="Rectángulo 25873" width="10.689" height="59.846" transform="matrix(0.703, -0.711, 0.711, 0.703, 55.832, 63.437)" fill="#363636"/>
        </g>
        <g id="Grupo_25986" data-name="Grupo 25986" transform="translate(0 0)">
          <path id="Trazado_67953" data-name="Trazado 67953" d="M1268.435,830.033a34,34,0,1,0-34-34A33.9,33.9,0,0,0,1268.435,830.033Z" transform="translate(-1229.089 -756.683)" fill="#fff" opacity="0.59"/>
          <path id="Trazado_67954" data-name="Trazado 67954" d="M1245.656,812.6a39.347,39.347,0,1,1,27.823-11.524A39.391,39.391,0,0,1,1245.656,812.6Zm0-68.005a28.658,28.658,0,1,0,28.658,28.658A28.69,28.69,0,0,0,1245.656,744.592Z" transform="translate(-1206.309 -733.903)" fill="#285bd4"/>
          <rect id="Rectángulo_25874" data-name="Rectángulo 25874" width="10.689" height="59.846" transform="matrix(0.703, -0.711, 0.711, 0.703, 55.832, 63.437)" fill="#285bd4"/>
        </g>
      </g>
      <g id="Grupo_25989" data-name="Grupo 25989" transform="translate(304.431 172.27)">
        <g id="Grupo_25988" data-name="Grupo 25988" transform="translate(38.476 10.763)">
          <rect id="Rectángulo_25875" data-name="Rectángulo 25875" width="2.916" height="5.234" transform="matrix(0.748, 0.664, -0.664, 0.748, 21.614, 0.518)" fill="#fff"/>
          <path id="Trazado_67955" data-name="Trazado 67955" d="M2062.768,1106.145h0l25-28.146,1.01.9-24.107,27.135A1.351,1.351,0,0,1,2062.768,1106.145Z" transform="translate(-2062.768 -1077.999)" fill="#177fff"/>
        </g>
        <path id="Trazado_67956" data-name="Trazado 67956" d="M1882.64,1111.294l-8.059,3.461,2.488-8.41,55.855-62.872a3.726,3.726,0,0,1,5.26-.311h0a3.726,3.726,0,0,1,.311,5.26Z" transform="translate(-1871.866 -1038.257)" fill="#36367d" opacity="0.15" style="mix-blend-mode: multiply;isolation: isolate"/>
        <path id="Trazado_67957" data-name="Trazado 67957" d="M1882.821,1090.431l-5.571-4.949,55.855-62.872a3.726,3.726,0,0,1,5.26-.311h0a3.726,3.726,0,0,1,.311,5.26Z" transform="translate(-1874.028 -1021.358)" fill="#285bd4"/>
        <path id="Trazado_67958" data-name="Trazado 67958" d="M1894.693,1094.439l-2.785-2.474,58.33-65.658h0a3.726,3.726,0,0,1,.311,5.26Z" transform="translate(-1885.9 -1025.367)" fill="#175196" opacity="0.17" style="mix-blend-mode: multiply;isolation: isolate"/>
        <rect id="Rectángulo_25876" data-name="Rectángulo 25876" width="7.451" height="1.848" transform="translate(37.481 25.561) rotate(41.618)" fill="#fff"/>
        <path id="Trazado_67959" data-name="Trazado 67959" d="M1863.067,1368.735l-.6-.532,3.153-7.8,4.815,4.278Z" transform="translate(-1862.055 -1295.979)" fill="#fff"/>
        <path id="Trazado_67960" data-name="Trazado 67960" d="M1863.067,1379.793l-.6-.532,6.073-5.2,1.895,1.683Z" transform="translate(-1862.055 -1307.038)" fill="#36367d" opacity="0.09" style="mix-blend-mode: multiply;isolation: isolate"/>
        <path id="Trazado_67961" data-name="Trazado 67961" d="M1860.349,1396.569h0a.168.168,0,0,1-.044-.188l.887-2.193,1.422,1.263-2.073,1.139A.167.167,0,0,1,1860.349,1396.569Z" transform="translate(-1860.292 -1323.34)" fill="#177fff"/>
      </g>
    </g>
  </g>
</svg>
