<svg xmlns="http://www.w3.org/2000/svg" width="405.096" height="279.216" viewBox="0 0 405.096 279.216">
  <g id="Grupo_25613" data-name="Grupo 25613" transform="translate(-34.904 -22)">
    <g id="Grupo_25605" data-name="Grupo 25605" transform="translate(34.904 189.423)">
      <path id="Trazado_66885" data-name="Trazado 66885" d="M11,46h0A111.612,111.612,0,0,1,122.616,157.616h0A111.612,111.612,0,0,1,11,46Z" transform="translate(-11 -46)" fill="#92934e"/>
      <line id="Línea_416" data-name="Línea 416" x1="93.013" y1="93.013" transform="translate(18.603 18.603)" fill="none" stroke="#4183d7" stroke-miterlimit="10" stroke-width="0.5"/>
      <line id="Línea_417" data-name="Línea 417" x1="26.382" transform="translate(24.775 51.157)" fill="none" stroke="#4183d7" stroke-miterlimit="10" stroke-width="0.5"/>
    </g>
    <g id="Grupo_25606" data-name="Grupo 25606" transform="translate(62.808 133.616)">
      <path id="Trazado_66886" data-name="Trazado 66886" d="M15,38h0A167.422,167.422,0,0,1,182.423,205.423h0A167.422,167.422,0,0,1,15,38Z" transform="translate(-15 -38)" fill="#ed8730"/>
      <line id="Línea_418" data-name="Línea 418" x1="139" y1="139" transform="translate(28.192 28.327)" fill="none" stroke="#fff" stroke-miterlimit="10" stroke-width="0.5"/>
      <line id="Línea_419" data-name="Línea 419" x1="26.741" transform="translate(25.579 52.32)" fill="none" stroke="#fff" stroke-miterlimit="10" stroke-width="0.5"/>
      <line id="Línea_420" data-name="Línea 420" x1="39.573" transform="translate(37.162 76.736)" fill="none" stroke="#fff" stroke-miterlimit="10" stroke-width="0.5"/>
      <line id="Línea_421" data-name="Línea 421" y1="20.662" transform="translate(52.32 31.658)" fill="none" stroke="#fff" stroke-miterlimit="10" stroke-width="0.5"/>
    </g>
    <g id="Grupo_25609" data-name="Grupo 25609" transform="translate(129.348 22)">
      <rect id="Rectángulo_25687" data-name="Rectángulo 25687" width="212.499" height="251.135" rx="14" transform="translate(0)" fill="#98d8fa"/>
      <path id="Trazado_66887" data-name="Trazado 66887" d="M126.666,23.385H39.739a9.659,9.659,0,0,0-9.662,9.655v212.5a9.655,9.655,0,0,0,9.662,9.655H174.961a9.655,9.655,0,0,0,9.662-9.655V81.334a9.659,9.659,0,0,0-9.662-9.655H145.983a9.659,9.659,0,0,1-9.655-9.662V33.04A9.659,9.659,0,0,0,126.666,23.385Z" transform="translate(8.559 -13.723)" fill="#fff"/>
      <path id="Trazado_66888" data-name="Trazado 66888" d="M93.2,72.085a9.638,9.638,0,0,0-6.829-2.825H57.389A9.659,9.659,0,0,1,47.734,59.6V30.619A9.627,9.627,0,0,0,44.9,23.79Z" transform="translate(97.153 -11.303)" fill="#aeb6bf"/>
      <path id="Trazado_66889" data-name="Trazado 66889" d="M32.385,175.214H161.168a9.655,9.655,0,0,0,9.662-9.655V36.769Z" transform="translate(22.352 66.259)" fill="#d6dbdf"/>
      <g id="Grupo_25607" data-name="Grupo 25607" transform="translate(67.615 38.668)">
        <path id="Trazado_66890" data-name="Trazado 66890" d="M34.231,74.917v6.962A3.617,3.617,0,0,0,37.852,85.5H88.56a3.617,3.617,0,0,0,3.621-3.621V74.917a10.859,10.859,0,0,0-7.046-10.171,62.358,62.358,0,0,0-12.947-3.265,10.773,10.773,0,0,1-17.963,0,62.185,62.185,0,0,0-12.94,3.265A10.855,10.855,0,0,0,34.231,74.917ZM74.413,42.988a1.807,1.807,0,0,0-.83-1.849c.1-1.256.16-2.365.16-3.055a10.537,10.537,0,1,0-21.074,0c0,.691.063,1.8.167,3.055A1.8,1.8,0,0,0,52,42.988l.732,4.158a1.793,1.793,0,0,0,1.088,1.325c.056.223.112.474.167.649.977,3.111,4.13,7.4,9.222,7.4s8.239-4.29,9.215-7.4c.056-.174.112-.426.167-.649a1.793,1.793,0,0,0,1.088-1.325Z" transform="translate(-34.231 -27.543)" fill="#ed8730"/>
      </g>
      <g id="Grupo_25608" data-name="Grupo 25608" transform="translate(66.003 132.809)">
        <path id="Trazado_66891" data-name="Trazado 66891" d="M65.441,41.038,44.513,61.966,34,51.453" transform="translate(-34 -41.038)" fill="none" stroke="#34495e" stroke-miterlimit="10" stroke-width="1"/>
        <line id="Línea_422" data-name="Línea 422" x2="14" transform="translate(48.649 21.133)" fill="none" stroke="#34495e" stroke-miterlimit="10" stroke-width="1"/>
        <line id="Línea_423" data-name="Línea 423" x2="56" transform="translate(48.649 7.134)" fill="none" stroke="#34495e" stroke-miterlimit="10" stroke-width="1"/>
        <line id="Línea_424" data-name="Línea 424" x2="35" transform="translate(69.649 21.133)" fill="none" stroke="#34495e" stroke-miterlimit="10" stroke-width="1"/>
        <path id="Trazado_66892" data-name="Trazado 66892" d="M65.441,47.038,44.513,67.966,34,57.453" transform="translate(-34 -5.182)" fill="none" stroke="#34495e" stroke-miterlimit="10" stroke-width="1"/>
        <line id="Línea_425" data-name="Línea 425" x2="14" transform="translate(48.649 62.133)" fill="none" stroke="#34495e" stroke-miterlimit="10" stroke-width="1"/>
        <line id="Línea_426" data-name="Línea 426" x2="56" transform="translate(48.649 48.133)" fill="none" stroke="#34495e" stroke-miterlimit="10" stroke-width="1"/>
        <line id="Línea_427" data-name="Línea 427" x2="35" transform="translate(69.649 62.133)" fill="none" stroke="#34495e" stroke-miterlimit="10" stroke-width="1"/>
      </g>
      <rect id="Rectángulo_25688" data-name="Rectángulo 25688" width="19.318" height="77.273" rx="0.692" transform="translate(28.977 86.931)" fill="#aeb6bf"/>
    </g>
    <g id="Grupo_25610" data-name="Grupo 25610" transform="translate(104.664 245.231)">
      <path id="Trazado_66893" data-name="Trazado 66893" d="M21,56A13.948,13.948,0,0,0,34.952,69.952h27.9V56Z" transform="translate(-21 -42.048)" fill="#d6dbdf"/>
      <path id="Trazado_66894" data-name="Trazado 66894" d="M27,69.952H54.9A13.948,13.948,0,0,0,68.856,56H27Z" transform="translate(14.856 -42.048)" fill="#4183d7"/>
      <path id="Trazado_66895" data-name="Trazado 66895" d="M62.856,54h-27.9A13.948,13.948,0,0,0,21,67.952H62.856Z" transform="translate(-21 -54)" fill="#fff"/>
      <path id="Trazado_66896" data-name="Trazado 66896" d="M54.9,54H27V67.952H68.856A13.948,13.948,0,0,0,54.9,54Z" transform="translate(14.856 -54)" fill="#679cdf"/>
    </g>
    <g id="Grupo_25612" data-name="Grupo 25612" transform="translate(286.04 119.664)">
      <rect id="Rectángulo_25690" data-name="Rectángulo 25690" width="154" height="153" rx="2" transform="translate(-0.04 0.279)" fill="#ed8730"/>
      <path id="Trazado_66897" data-name="Trazado 66897" d="M143.243,41.907l-.007.007a32.115,32.115,0,0,1-32.166,2l-8.12-4.06a6.959,6.959,0,0,0-6.237,0l-8.12,4.06a32.1,32.1,0,0,1-32.166-2.009h0A3.492,3.492,0,0,0,51,44.809V67.948a103.787,103.787,0,0,0,44.29,85.044h0a6.98,6.98,0,0,0,9.083,0h0a103.787,103.787,0,0,0,44.29-85.044V44.809A3.488,3.488,0,0,0,143.243,41.907Z" transform="translate(-23.098 -17.365)" fill="#fff"/>
      <path id="Trazado_66898" data-name="Trazado 66898" d="M106.32,61.6H91.21V46.488A3.489,3.489,0,0,0,87.722,43H76.093A3.489,3.489,0,0,0,72.6,46.488V61.6H57.488A3.485,3.485,0,0,0,54,65.093V76.715A3.485,3.485,0,0,0,57.488,80.2H72.6V95.32a3.489,3.489,0,0,0,3.488,3.488H87.722A3.489,3.489,0,0,0,91.21,95.32V80.2h15.11a3.485,3.485,0,0,0,3.488-3.488V65.093A3.485,3.485,0,0,0,106.32,61.6Z" transform="translate(-5.17 5.832)" fill="#f8cba4"/>
      <rect id="Rectángulo_25691" data-name="Rectángulo 25691" width="7" height="7" transform="translate(27.96 125.279)" fill="#fff"/>
      <rect id="Rectángulo_25692" data-name="Rectángulo 25692" width="7" height="7" transform="translate(118.96 125.279)" fill="#fff"/>
      <g id="Grupo_25611" data-name="Grupo 25611" transform="translate(45.37 27.904)">
        <path id="Trazado_66899" data-name="Trazado 66899" d="M94.167,79.533h15.117a3.485,3.485,0,0,1,3.488,3.488V94.643a3.485,3.485,0,0,1-3.488,3.488H94.167v15.117a3.485,3.485,0,0,1-3.488,3.488H79.057a3.489,3.489,0,0,1-3.488-3.488V98.131L53.5,120.2a103.6,103.6,0,0,0,26.823,27.527,6.98,6.98,0,0,0,9.083,0A103.787,103.787,0,0,0,133.7,62.679V40Z" transform="translate(-53.504 -40)" fill="#fff0e3"/>
        <path id="Trazado_66900" data-name="Trazado 66900" d="M56.667,79.382a3.489,3.489,0,0,0,3.488,3.488H71.777a3.485,3.485,0,0,0,3.488-3.488V64.265H90.382a3.485,3.485,0,0,0,3.488-3.488V49.155a3.485,3.485,0,0,0-3.488-3.488H75.265l-18.6,18.6Z" transform="translate(-34.602 -6.134)" fill="#eb9a56"/>
      </g>
    </g>
  </g>
</svg>
